<?xml version="1.0" encoding="UTF-8" standalone="no"?>
<!-- Created with Inkscape (http://www.inkscape.org/) -->

<svg
   xmlns:dc="http://purl.org/dc/elements/1.1/"
   xmlns:cc="http://creativecommons.org/ns#"
   xmlns:rdf="http://www.w3.org/1999/02/22-rdf-syntax-ns#"
   xmlns:svg="http://www.w3.org/2000/svg"
   xmlns="http://www.w3.org/2000/svg"
   xmlns:sodipodi="http://sodipodi.sourceforge.net/DTD/sodipodi-0.dtd"
   xmlns:inkscape="http://www.inkscape.org/namespaces/inkscape"
   width="64"
   height="32"
   id="svg9174"
   version="1.1"
   inkscape:version="0.48.4 r9939"
   sodipodi:docname="New document 20">
  <defs
     id="defs9176" />
  <sodipodi:namedview
     id="base"
     pagecolor="#ffffff"
     bordercolor="#666666"
     borderopacity="1.0"
     inkscape:pageopacity="0.0"
     inkscape:pageshadow="2"
     inkscape:zoom="11"
     inkscape:cx="28.761713"
     inkscape:cy="14.644723"
     inkscape:current-layer="layer1"
     showgrid="true"
     inkscape:document-units="px"
     inkscape:grid-bbox="true"
     width="16px"
     inkscape:window-width="1366"
     inkscape:window-height="742"
     inkscape:window-x="-4"
     inkscape:window-y="-4"
     inkscape:window-maximized="1" />
  <metadata
     id="metadata9179">
    <rdf:RDF>
      <cc:Work
         rdf:about="">
        <dc:format>image/svg+xml</dc:format>
        <dc:type
           rdf:resource="http://purl.org/dc/dcmitype/StillImage" />
        <dc:title></dc:title>
      </cc:Work>
    </rdf:RDF>
  </metadata>
  <g
     id="layer1"
     inkscape:label="Layer 1"
     inkscape:groupmode="layer"
     transform="translate(0,-31.999963)">
    <path
       style="fill:#b3b3b3;stroke:none;stroke-width:1px;stroke-linecap:butt;stroke-linejoin:miter;stroke-opacity:1"
       d="m 7.9067395,0.0194887 7.9870925,0 0,8.051375 15.974185,-0.064283 0,6.0104083 -1.960614,0 0,0.964236 -3.969441,0 0,-0.980307 -2.024896,0 0,-0.996378 -4.001582,0 0,-0.996378 -5.0301,0 0,-1.012449 -5.9782668,0 0,1.028519 -4.9818887,0 0,0.964237 -3.9212285,0 0,-4.9818883 7.9388807,0 z"
       id="path9197"
       inkscape:connector-curvature="0"
       transform="translate(0,31.999963)" />
    <path
       style="fill:#b3b3b3;stroke:none;stroke-width:1px;stroke-linecap:butt;stroke-linejoin:miter;stroke-opacity:1"
       d="m -0.04545455,32.022727 15.99999955,0 0,-3.068182 5.022728,0 0,1.045455 1,0 0,1 4,0 0,-1.022727 0.977272,0 0,-1 6.045455,0 L 33,30 l 6,0 0,-0.977273 1,0 0,-3.068182 16.045455,0 0,-6 -8.090909,0 0,-3.954545 L 44,16 l 0,4.045455 -6.045455,0 0,0.954545 -4.045454,0 0,-1.045455 -8.045455,0 0,1 -0.909091,0 0,1.09091 -2,0 0,-1.045455 -1,0 0,-0.954545 -6,0 0,5.954545 -15.99999955,0 z"
       id="path9199"
       inkscape:connector-curvature="0"
       transform="translate(0,31.999963)" />
    <rect
       style="fill:#b3b3b3;fill-opacity:1;stroke:none"
       id="rect9201"
       width="4"
       height="3.9545455"
       x="7.9545455"
       y="16.045454"
       transform="translate(0,31.999963)" />
    <path
       style="fill:#999999;stroke:none"
       d="m 3.8863636,44.931781 4.9772728,-0.931818 -4.9772728,0 z"
       id="path9203"
       inkscape:connector-curvature="0" />
    <path
       style="fill:#808080;stroke:none;stroke-width:1px;stroke-linecap:butt;stroke-linejoin:miter;stroke-opacity:1"
       d="m 8.9090909,12.022727 1.0340909,-1.034091 -1.0340909,0 z"
       id="path9205"
       inkscape:connector-curvature="0"
       transform="translate(0,31.999963)" />
    <path
       style="fill:#808080;stroke:none"
       d="m 14.892046,44.039735 -1.147727,-1.034091 1.147727,0 z"
       id="path9205-7"
       inkscape:connector-curvature="0" />
    <path
       style="fill:#999999;stroke:none"
       d="m 19.897727,44.920418 -5.045455,-0.931818 5.045455,0 z"
       id="path9203-7"
       inkscape:connector-curvature="0" />
    <path
       style="fill:#666666;stroke:none;stroke-width:1px;stroke-linecap:butt;stroke-linejoin:miter;stroke-opacity:1"
       d="m 19.909091,13 3.977273,0.977273 0,-1 z"
       id="path9243"
       inkscape:connector-curvature="0"
       transform="translate(0,31.999963)" />
    <path
       style="fill:#666666;stroke:none"
       d="m 23.852273,46.02269 2.068182,0.977273 0,-1 z"
       id="path9243-0"
       inkscape:connector-curvature="0" />
    <path
       style="fill:#999999;stroke:none"
       d="m 29.875,46.9886 1.999999,-0.977273 -1.999999,0 z"
       id="path9203-9"
       inkscape:connector-curvature="0" />
    <rect
       style="fill:#333333;fill-opacity:1;stroke:none"
       id="rect9292"
       width="0.77272725"
       height="11"
       x="11.5"
       y="-3.376887e-008"
       transform="translate(0,31.999963)" />
    <rect
       style="fill:#333333;fill-opacity:1;stroke:none"
       id="rect9294"
       width="31.863636"
       height="0.68181819"
       x="0"
       y="8.818182"
       transform="translate(0,31.999963)" />
    <rect
       style="fill:#333333;fill-opacity:1;stroke:none"
       id="rect9296"
       width="15.909091"
       height="1.3181819"
       x="0"
       y="30.772728"
       transform="translate(0,31.999963)" />
    <rect
       style="fill:#333333;fill-opacity:1;stroke:none"
       id="rect9298"
       width="15.909091"
       height="0.77272725"
       x="-0.045454547"
       y="28.09091"
       transform="translate(0,31.999963)" />
    <rect
       style="fill:#333333;fill-opacity:1;stroke:none"
       id="rect9306"
       width="2"
       height="8.954545"
       x="22.954546"
       y="22.045454"
       transform="translate(0,31.999963)" />
    <rect
       style="fill:#333333;fill-opacity:1;stroke:none"
       id="rect9308"
       width="4.090909"
       height="9.045455"
       x="33.863636"
       y="20.954546"
       transform="translate(0,31.999963)" />
    <path
       style="fill:#999999;stroke:none"
       d="m 21.841894,52.068145 1.05521,0.954545 0.557244,1 0.995928,0.01136 0.545388,-1.056818 0.924791,-1.011364 0,1.011364 -0.936646,0 0,1.068182 -2.062993,0 0,-1.011364 -1.102634,0 z"
       id="path9310"
       inkscape:connector-curvature="0" />
    <path
       style="fill:#999999;stroke:none;stroke-width:1px;stroke-linecap:butt;stroke-linejoin:miter;stroke-opacity:1"
       d="m 33.876843,19.914902 0.899954,1.028519 2.185603,0 0.964236,-0.964236 0,0.964236 -4.017652,0 z"
       id="path9312"
       inkscape:connector-curvature="0"
       transform="translate(0,31.999963)" />
    <path
       style="fill:#4d4d4d;stroke:none;stroke-width:1px;stroke-linecap:butt;stroke-linejoin:miter;stroke-opacity:1"
       d="m 39.983674,29.043008 -0.964236,0.964237 -0.642824,0.707106 -4.403347,0 -0.964237,-0.707106 -1.767767,-1.028519 -2.828427,0 -1.510637,0.996377 -0.932095,0.996378 -0.578542,0.385695 -2.732004,0 -0.674965,-0.353554 -0.964237,-0.996377 -5.078312,-1.060661 5.046171,0 0,1.060661 0.964236,0 0,0.996377 4.017653,0 0,-1.028519 0.964236,0 0,-1.028519 6.138973,0 0,1.060661 5.946125,0 0,-0.964237 z"
       id="path9314"
       inkscape:connector-curvature="0"
       transform="translate(0,31.999963)" />
    <rect
       style="fill:#4d4d4d;fill-opacity:1;stroke:none"
       id="rect9316"
       width="3.3748279"
       height="3.5355339"
       x="44.258457"
       y="16.250803"
       transform="translate(0,31.999963)" />
    <rect
       style="fill:#4d4d4d;fill-opacity:1;stroke:none"
       id="rect9318"
       width="11.345851"
       height="0.41783583"
       x="39.983677"
       y="25.507475"
       transform="translate(0,31.999963)" />
  </g>
</svg>
