<?xml version="1.0" encoding="UTF-8" standalone="no"?>
<!-- Created with Inkscape (http://www.inkscape.org/) -->

<svg
   xmlns:dc="http://purl.org/dc/elements/1.1/"
   xmlns:cc="http://creativecommons.org/ns#"
   xmlns:rdf="http://www.w3.org/1999/02/22-rdf-syntax-ns#"
   xmlns:svg="http://www.w3.org/2000/svg"
   xmlns="http://www.w3.org/2000/svg"
   xmlns:sodipodi="http://sodipodi.sourceforge.net/DTD/sodipodi-0.dtd"
   xmlns:inkscape="http://www.inkscape.org/namespaces/inkscape"
   width="16px"
   height="16px"
   id="svg2985"
   version="1.1"
   inkscape:version="0.48.4 r9939"
   sodipodi:docname="flower.svg"
   inkscape:export-filename="C:\Users\Owen\Desktop\TheVectorPack\assets\minecraft\textures\blocks\flower_rose.png"
   inkscape:export-xdpi="360"
   inkscape:export-ydpi="360">
  <defs
     id="defs2987">
    <inkscape:perspective
       sodipodi:type="inkscape:persp3d"
       inkscape:vp_x="0 : 8 : 1"
       inkscape:vp_y="0 : 1000 : 0"
       inkscape:vp_z="16 : 8 : 1"
       inkscape:persp3d-origin="8 : 5.3333333 : 1"
       id="perspective3043" />
  </defs>
  <sodipodi:namedview
     id="base"
     pagecolor="#ffffff"
     bordercolor="#666666"
     borderopacity="1.0"
     inkscape:pageopacity="0.0"
     inkscape:pageshadow="2"
     inkscape:zoom="31.392433"
     inkscape:cx="4.9426756"
     inkscape:cy="8.1158065"
     inkscape:current-layer="layer1"
     showgrid="true"
     inkscape:grid-bbox="true"
     inkscape:document-units="px"
     inkscape:snap-page="true"
     inkscape:window-width="1366"
     inkscape:window-height="742"
     inkscape:window-x="-4"
     inkscape:window-y="-4"
     inkscape:window-maximized="1" />
  <metadata
     id="metadata2990">
    <rdf:RDF>
      <cc:Work
         rdf:about="">
        <dc:format>image/svg+xml</dc:format>
        <dc:type
           rdf:resource="http://purl.org/dc/dcmitype/StillImage" />
        <dc:title></dc:title>
      </cc:Work>
    </rdf:RDF>
  </metadata>
  <g
     id="layer1"
     inkscape:label="Layer 1"
     inkscape:groupmode="layer">
    <path
       sodipodi:type="star"
       style="fill:#8dd35f;fill-opacity:1;stroke:none"
       id="path4102"
       sodipodi:sides="12"
       sodipodi:cx="14.493939"
       sodipodi:cy="9.7564573"
       sodipodi:r1="2.3014963"
       sodipodi:r2="2.2230747"
       sodipodi:arg1="1.6539376"
       sodipodi:arg2="1.9157369"
       inkscape:flatsided="true"
       inkscape:rounded="1"
       inkscape:randomized="0.25"
       d="m 14.016657,11.785871 c -1.136135,0.338059 0.331787,0.800972 -0.737642,0.199971 -1.06943,-0.601001 0.246091,-0.418787 -0.509605,-1.508347 C 12.013714,9.387936 12.247625,10.007008 12.49953,8.9952475 12.751435,7.9834871 12.352689,9.2932766 12.798815,8.3287649 13.24494,7.3642533 12.08975,8.0159107 13.205725,7.3655629 14.3217,6.715215 13.868718,6.8597373 15.16538,7.1840951 c 1.296662,0.3243579 -0.107848,0.013056 0.737623,0.8233612 0.845472,0.8103047 0.614326,-0.3593844 0.84651,0.7693049 0.232183,1.1286893 0.279773,-0.4154963 0.330731,0.7632314 0.05096,1.1787274 -0.04599,0.1151585 -0.36132,1.2860874 -0.315329,1.17093 -0.449366,-0.267125 -1.322728,0.649064 -0.873362,0.916188 -0.243405,-0.02733 -1.379539,0.310727 z"
       inkscape:transform-center-x="-0.040296908"
       inkscape:transform-center-y="-0.372919"
       transform="matrix(0.22282416,0,0,2.2818611,4.1101371,-11.150159)" />
    <path
       sodipodi:type="star"
       style="fill:#ff2a2a;fill-opacity:1;stroke:none"
       id="path7401"
       sodipodi:sides="12"
       sodipodi:cx="5.7338657"
       sodipodi:cy="3.1943662"
       sodipodi:r1="2.4337158"
       sodipodi:r2="2.3507891"
       sodipodi:arg1="0.25132778"
       sodipodi:arg2="0.51312717"
       inkscape:flatsided="true"
       inkscape:rounded="1"
       inkscape:randomized="0.25"
       d="M 8.0171253,3.7458779 C 7.5039395,4.7260099 8.6772477,4.0126728 7.7340312,4.6979104 6.7908146,5.3831479 7.851695,5.290131 6.6343101,5.9435691 5.4169253,6.5970072 6.8757572,5.9163915 5.5551623,5.9682814 4.2345673,6.0201714 5.0554613,5.559696 4.069893,4.7400411 3.0843248,3.9203861 3.1847146,5.7331987 3.3382064,4.4039918 3.4916983,3.0747848 3.0659941,3.548129 3.6216924,2.4897997 4.1773907,1.4314704 3.3004446,1.6581714 4.4526103,0.97806015 5.6047759,0.29794886 3.8549573,0.74345425 5.0045076,0.2921085 6.1540578,-0.15923726 4.8197536,-0.01486139 6.0836554,0.26739618 7.3475573,0.54965374 5.8860287,0.7346377 6.8342905,1.5911306 7.7825524,2.4476236 8.2848547,1.1533135 8.2350113,2.486887 8.1851679,3.8204606 8.530311,2.7657458 8.0171253,3.7458779 z"
       inkscape:transform-center-x="-0.037846487"
       inkscape:transform-center-y="-0.078486704"
       transform="translate(1.5927405,0.41411253)" />
  </g>
</svg>
