<?xml version="1.0" encoding="UTF-8" standalone="no"?>
<!-- Created with Inkscape (http://www.inkscape.org/) -->

<svg
   xmlns:dc="http://purl.org/dc/elements/1.1/"
   xmlns:cc="http://creativecommons.org/ns#"
   xmlns:rdf="http://www.w3.org/1999/02/22-rdf-syntax-ns#"
   xmlns:svg="http://www.w3.org/2000/svg"
   xmlns="http://www.w3.org/2000/svg"
   xmlns:sodipodi="http://sodipodi.sourceforge.net/DTD/sodipodi-0.dtd"
   xmlns:inkscape="http://www.inkscape.org/namespaces/inkscape"
   width="16px"
   height="16px"
   id="svg2985"
   version="1.1"
   inkscape:version="0.48.4 r9939"
   sodipodi:docname="leaves.svg"
   inkscape:export-filename="C:\Users\Owen\Desktop\TheVectorPack\PNGs\blocks\leaves_oak.png"
   inkscape:export-xdpi="360"
   inkscape:export-ydpi="360">
  <defs
     id="defs2987">
    <inkscape:perspective
       sodipodi:type="inkscape:persp3d"
       inkscape:vp_x="0 : 8 : 1"
       inkscape:vp_y="0 : 1000 : 0"
       inkscape:vp_z="16 : 8 : 1"
       inkscape:persp3d-origin="8 : 5.3333333 : 1"
       id="perspective3043" />
  </defs>
  <sodipodi:namedview
     id="base"
     pagecolor="#ffffff"
     bordercolor="#666666"
     borderopacity="1.0"
     inkscape:pageopacity="0.0"
     inkscape:pageshadow="2"
     inkscape:zoom="31.392433"
     inkscape:cx="8.3815567"
     inkscape:cy="7.0281729"
     inkscape:current-layer="layer1"
     showgrid="true"
     inkscape:grid-bbox="true"
     inkscape:document-units="px"
     inkscape:snap-page="true"
     inkscape:window-width="1366"
     inkscape:window-height="742"
     inkscape:window-x="-4"
     inkscape:window-y="-4"
     inkscape:window-maximized="1" />
  <metadata
     id="metadata2990">
    <rdf:RDF>
      <cc:Work
         rdf:about="">
        <dc:format>image/svg+xml</dc:format>
        <dc:type
           rdf:resource="http://purl.org/dc/dcmitype/StillImage" />
        <dc:title></dc:title>
      </cc:Work>
    </rdf:RDF>
  </metadata>
  <g
     id="layer1"
     inkscape:label="Layer 1"
     inkscape:groupmode="layer">
    <path
       sodipodi:type="star"
       style="fill:#71c837;fill-opacity:1;stroke:none"
       id="path3982"
       sodipodi:sides="12"
       sodipodi:cx="2.6120944"
       sodipodi:cy="2.0475929"
       sodipodi:r1="1.9376525"
       sodipodi:r2="1.8716286"
       sodipodi:arg1="0.76214654"
       sodipodi:arg2="1.0239459"
       inkscape:flatsided="true"
       inkscape:rounded="0.25"
       inkscape:randomized="0.25"
       d="M 4.0710081,3.5268121 C 3.9578313,3.719427 3.5278932,3.5593895 3.2725669,3.6456492 3.0172405,3.7319089 2.7870069,4.1773966 2.593975,4.0388944 2.400943,3.9003922 1.6032863,3.1835018 1.4332654,3.0050706 1.2632444,2.8266394 1.0203032,2.9750616 0.94504124,2.7566997 0.86977924,2.5383378 0.92235228,2.1181732 0.96771791,1.8710367 1.0130835,1.6239002 0.99216773,1.0368332 1.1058569,0.78224606 c 0.1136892,-0.25458718 0.5515515,-0.90265393 0.7984569,-0.9803902 0.2469053,-0.0777363 1.3417565,0.0782346 1.5961709,0.10482868 0.2544144,0.02659409 -0.057414,0.8522819 0.1908862,0.9501286 0.2483002,0.0978467 0.5334412,0.42438116 0.5404529,0.69554536 0.00701,0.2711643 0.3428683,0.7227836 0.3612556,0.9616926 0.018387,0.238909 -0.4088944,0.8201461 -0.5220713,1.012761 z"
       inkscape:transform-center-x="-0.13831073"
       inkscape:transform-center-y="-0.12472657"
       transform="translate(0.76451546,1.688305)" />
    <path
       sodipodi:type="star"
       style="fill:#71c837;fill-opacity:1;stroke:none"
       id="path3984"
       sodipodi:sides="12"
       sodipodi:cx="7.9318479"
       sodipodi:cy="7.4629107"
       sodipodi:r1="4.1017321"
       sodipodi:r2="3.961969"
       sodipodi:arg1="-2.3891496"
       sodipodi:arg2="-2.1273502"
       inkscape:flatsided="true"
       inkscape:rounded="0.25"
       inkscape:randomized="0.25"
       d="M 4.6976903,4.3361336 C 5.1574085,4.0695771 5.5801143,3.0450569 6.0229981,2.6961423 6.465882,2.3472276 8.0356396,2.5919955 8.4931807,2.747587 c 0.4575411,0.1555916 2.1773103,0.84373 2.5052603,1.1835298 0.32795,0.3397998 0.29067,1.590045 0.439778,2.0552857 0.149109,0.4652407 1.589645,2.1697808 1.401074,2.6658634 C 12.650722,9.1483484 11.288934,9.2592438 10.91945,9.5518448 10.549966,9.8444457 10.18478,11.800561 9.7046697,11.911359 9.2245591,12.022156 6.8478281,11.884168 6.4217576,11.69897 5.9956871,11.513773 6.3104884,9.7769923 5.856803,9.5688361 5.4031177,9.36068 3.618926,9.9758223 3.3661582,9.5644166 3.1133905,9.1530109 4.5877026,7.692413 4.8287133,7.2865787 5.069724,6.8807444 4.2379721,4.6026902 4.6976903,4.3361336 z"
       inkscape:transform-center-x="-0.16485508"
       inkscape:transform-center-y="-0.22839803" />
    <path
       sodipodi:type="star"
       style="fill:#71c837;fill-opacity:1;stroke:none"
       id="path3986"
       sodipodi:sides="12"
       sodipodi:cx="12.487086"
       sodipodi:cy="2.7483987"
       sodipodi:r1="2.5124946"
       sodipodi:r2="2.4268834"
       sodipodi:arg1="2.4549711"
       sodipodi:arg2="2.7167705"
       inkscape:flatsided="true"
       inkscape:rounded="0.25"
       inkscape:randomized="0.25"
       d="M 10.810015,4.0699445 C 10.508319,3.8768311 10.570624,3.8324625 10.556832,3.5092729 10.543041,3.1860833 10.114705,2.6429439 10.172526,2.3425973 c 0.05782,-0.3003465 0.562706,-1.63781278 0.848425,-1.75497624 0.28572,-0.11716347 0.842227,-0.12444704 1.170068,-0.16644013 0.327841,-0.0419931 0.840688,-0.0573705 1.101608,0.0619426 0.260921,0.11931308 1.322803,0.260947 1.487944,0.52892304 0.16514,0.2679761 -0.370713,1.2739115 -0.244671,1.579236 0.126043,0.3053245 0.58996,1.1811163 0.384347,1.4448711 -0.205613,0.2637548 -0.630376,0.2490586 -0.848425,0.4987289 -0.21805,0.2496704 -0.82029,0.6586749 -1.102345,0.7462776 -0.282054,0.087603 -1.560176,0.1600607 -1.860022,0.036642 -0.299846,-0.1234181 0.0023,-1.0547447 -0.29944,-1.2478582 z"
       inkscape:transform-center-x="-0.082537688"
       inkscape:transform-center-y="0.13856311" />
    <path
       sodipodi:type="star"
       style="fill:#71c837;fill-opacity:1;stroke:none"
       id="path3988"
       sodipodi:sides="12"
       sodipodi:cx="9.906846"
       sodipodi:cy="11.508472"
       sodipodi:r1="3.7553566"
       sodipodi:r2="3.6273959"
       sodipodi:arg1="0.96632462"
       sodipodi:arg2="1.228124"
       inkscape:flatsided="true"
       inkscape:rounded="0.25"
       inkscape:randomized="0.25"
       d="m 12.585555,14.02069 c -0.308031,0.300923 -2.027282,0.559817 -2.453446,0.657843 -0.4261633,0.09803 -1.8817981,-0.0019 -2.2412386,-0.308264 C 7.5314298,14.063859 7.5269657,14.448981 7.2570972,14.10014 6.9872287,13.751298 5.7712714,12.205279 5.8931568,11.679927 6.0150423,11.154576 5.525189,11.033351 5.8332183,10.589746 6.1412477,10.146141 6.6589395,8.6910985 6.9129656,8.333453 7.1669918,7.9758076 8.7711151,8.535926 9.2632542,8.5244124 c 0.4921391,-0.011514 1.9599588,0.2209594 2.4456198,0.3261287 0.485662,0.1051693 0.272753,0.1477015 0.431355,0.6223795 0.158603,0.474678 1.279634,1.9033364 1.363941,2.4202124 0.08431,0.516876 0.313651,0.632901 0.05994,1.090181 -0.253713,0.457281 -0.670522,0.736454 -0.978553,1.037376 z"
       inkscape:transform-center-x="0.20193036"
       inkscape:transform-center-y="-0.044094561"
       transform="translate(0,1.4653213)" />
    <path
       sodipodi:type="star"
       style="fill:#71c837;fill-opacity:1;stroke:none"
       id="path3990"
       sodipodi:sides="12"
       sodipodi:cx="8.2503958"
       sodipodi:cy="0"
       sodipodi:r1="0.49925468"
       sodipodi:r2="0.36923262"
       sodipodi:arg1="2.881783"
       sodipodi:arg2="3.1435823"
       inkscape:flatsided="true"
       inkscape:rounded="0.25"
       inkscape:randomized="0.25"
       d="m 7.8336653,0.23384692 c -0.040993,-0.0590281 0.00348,-0.41958828 4.098e-4,-0.47781652 -0.00307,-0.0582282 -0.00477,-0.10859978 0.054774,-0.13534518 0.05954,-0.0267454 0.1139316,-0.20228441 0.1749125,-0.21050304 0.060981,-0.008219 0.1772149,-0.009402 0.2328592,0.0279142 0.055644,0.0373163 0.3628361,0.0938278 0.4106687,0.12445476 0.047833,0.0306269 0.045031,0.2116463 0.040835,0.27042794 -0.0042,0.0587817 -0.013135,0.30339938 -0.013867,0.36259775 C 8.7335252,0.25477519 8.7190632,0.38604641 8.692941,0.44614077 8.6668188,0.50623513 8.3321506,0.3799301 8.2684012,0.40701647 8.2046518,0.43410284 8.0991404,0.37404955 8.0355419,0.37910229 7.9719434,0.38415502 7.906283,0.30298209 7.8745005,0.25464752 c -0.031782,-0.0483346 1.578e-4,0.0382275 -0.040835,-0.0208006 z"
       inkscape:transform-center-x="0.13766844"
       inkscape:transform-center-y="-0.17838703"
       transform="matrix(3.1778094,0,0,3.9738775,-17.970984,1.6784554)" />
    <path
       sodipodi:type="star"
       style="fill:#71c837;fill-opacity:1;stroke:none"
       id="path3992"
       sodipodi:sides="12"
       sodipodi:cx="2.2935464"
       sodipodi:cy="2.4617054"
       sodipodi:r1="2.7923426"
       sodipodi:r2="2.6971959"
       sodipodi:arg1="-2.534605"
       sodipodi:arg2="-2.2728056"
       inkscape:flatsided="true"
       inkscape:rounded="0.25"
       inkscape:randomized="0.25"
       d="M -0.69557098,0.73101692 C -0.5730528,0.39532717 0.13925782,0.76925641 0.45823804,0.52198541 0.77721827,0.27471442 1.6435144,0.23866253 1.9405127,0.36399 2.2375109,0.48931746 4.2206284,0.05775038 4.5332414,0.20166958 4.8458545,0.34558878 5.3508619,1.325577 5.4941448,1.6865416 5.6374277,2.0475062 4.7757032,2.6015772 4.6911312,2.9977643 4.6065591,3.3939514 4.2497436,3.8168112 4.0959303,4.1168234 3.9421169,4.4168357 3.795329,4.3098124 3.4939899,4.4693988 3.1926509,4.6289852 2.2722344,5.2880535 1.9364487,5.3791444 1.6006629,5.4702353 0.3654163,5.040407 0.11134146,4.7874778 -0.14273338,4.5345485 0.20699657,3.445364 -0.00667379,3.1930398 -0.22034416,2.9407157 -0.61064152,2.0936332 -0.5998539,1.7272263 -0.58906627,1.3608194 -0.81808916,1.0667067 -0.69557098,0.73101692 z"
       inkscape:transform-center-x="-0.095680291"
       inkscape:transform-center-y="0.32005151" />
    <path
       sodipodi:type="star"
       style="fill:#71c837;fill-opacity:1;stroke:none"
       id="path3994"
       sodipodi:sides="12"
       sodipodi:cx="14.621358"
       sodipodi:cy="1.7290448"
       sodipodi:r1="1.7145658"
       sodipodi:r2="1.6561434"
       sodipodi:arg1="0.63667602"
       sodipodi:arg2="0.89847541"
       inkscape:flatsided="true"
       inkscape:rounded="0.25"
       inkscape:randomized="0.25"
       d="M 16.042275,2.747829 C 15.885287,2.9296142 15.791123,3.5381843 15.56311,3.5913098 15.335098,3.6444352 14.774817,3.6959452 14.576938,3.6286988 14.37906,3.5614523 13.422663,2.8650019 13.22599,2.7127379 c -0.196673,-0.1522641 0.05705,0.1997806 0.0057,0.00341 -0.05133,-0.1963695 -0.114799,-0.6154618 -0.01449,-0.8072364 0.100312,-0.1917746 0.104051,-1.24342274 0.180812,-1.44777595 0.07676,-0.20435321 0.241429,0.17747342 0.479178,0.10872455 0.23775,-0.0687489 0.480807,-0.51773195 0.692659,-0.56625782 0.211851,-0.04852587 1.199315,-0.18146978 1.350934,-0.03624445 0.15162,0.14522532 0.527076,0.97364128 0.677426,1.16195777 0.150351,0.1883165 -0.114251,0.7562936 -0.07793,0.9680614 0.03632,0.2117678 -0.321041,0.4686656 -0.478029,0.6504509 z"
       inkscape:transform-center-x="-0.27611463"
       inkscape:transform-center-y="0.05202372" />
    <path
       sodipodi:type="star"
       style="fill:#71c837;fill-opacity:1;stroke:none"
       id="path3996"
       sodipodi:sides="12"
       sodipodi:cx="0"
       sodipodi:cy="16"
       sodipodi:r1="1.7935135"
       sodipodi:r2="1.732401"
       sodipodi:arg1="-0.58307654"
       sodipodi:arg2="-0.32127715"
       inkscape:flatsided="true"
       inkscape:rounded="0.25"
       inkscape:randomized="0.25"
       d="m 1.4303517,15.127629 c 0.080045,0.20556 0.1675744,0.211642 0.245731,0.445154 0.078157,0.233512 0.3264302,0.659644 0.1650116,0.863474 -0.1614185,0.203831 -0.93901504,1.359369 -1.16910191,1.411804 -0.23008686,0.05243 -0.1359599,0.03417 -0.33951766,0.123499 -0.20355776,0.08932 -1.19446981,-0.144252 -1.37383663,-0.316535 -0.1793669,-0.172283 -0.345799,-0.307743 -0.4700156,-0.492054 -0.1242166,-0.184311 -0.1513792,-1.105399 -0.245731,-1.341911 -0.094352,-0.236512 -0.2719987,-0.647662 -0.1650116,-0.863474 0.1069871,-0.215813 1.01637564,-0.37551 1.16910194,-0.515047 0.15272631,-0.139537 0.12810411,-0.06063 0.33951767,-0.123499 0.21141355,-0.06287 1.13825153,0.226573 1.37383667,0.316535 0.23558512,0.08996 0.38997022,0.286494 0.47001552,0.492054 z"
       inkscape:transform-center-x="0.030387828"
       inkscape:transform-center-y="0.15072273"
       transform="translate(1.178628,-1.4016117)" />
    <path
       sodipodi:type="star"
       style="fill:#71c837;fill-opacity:1;stroke:none"
       id="path3998"
       sodipodi:sides="12"
       sodipodi:cx="3.5995936"
       sodipodi:cy="11.858875"
       sodipodi:r1="3.0329059"
       sodipodi:r2="2.9295621"
       sodipodi:arg1="2.1995926"
       sodipodi:arg2="2.461392"
       inkscape:flatsided="true"
       inkscape:rounded="0.25"
       inkscape:randomized="0.25"
       d="M 1.7109897,13.87935 C 1.4410034,13.612361 1.3421954,13.812422 1.1826543,13.448364 1.0231131,13.084305 0.13303972,11.173879 0.03641944,10.820562 -0.06020085,10.467245 0.30236994,10.302925 0.58861705,10.050729 0.87486415,9.7985337 1.4612726,9.3660073 1.8653333,9.3041666 2.2693941,9.2423259 4.0772418,8.8360546 4.4623193,8.9653202 4.8473968,9.0945857 5.8150214,9.0410674 6.1208195,9.3276768 6.4266175,9.6142862 5.7020291,10.190687 5.8138657,10.614512 5.9257023,11.038337 7.1509284,11.461569 6.9616612,11.856865 6.7723941,12.25216 6.6015621,13.713196 6.4079029,14.012146 6.2142437,14.311097 5.501969,14.546833 5.1311866,14.758709 4.7604043,14.970585 4.3036426,14.496049 3.9689026,14.397617 3.6341627,14.299184 1.980976,14.146338 1.7109897,13.87935 z"
       inkscape:transform-center-x="0.09860773"
       inkscape:transform-center-y="0.017465934" />
    <path
       sodipodi:type="star"
       style="fill:#71c837;fill-opacity:1;stroke:none"
       id="path4000"
       sodipodi:sides="12"
       sodipodi:cx="16"
       sodipodi:cy="10.871375"
       sodipodi:r1="1.3393551"
       sodipodi:r2="1.2937177"
       sodipodi:arg1="2.7768002"
       sodipodi:arg2="3.0385996"
       inkscape:flatsided="true"
       inkscape:rounded="0.25"
       inkscape:randomized="0.25"
       d="m 14.541926,11.251409 c -0.01868,-0.172048 0.0748,-0.581951 0.128579,-0.752351 0.05378,-0.1704 0.436693,-0.465073 0.519012,-0.6089488 0.08232,-0.1438755 0.309163,-0.5038126 0.48587,-0.5277161 0.176707,-0.023903 0.02026,0.030342 0.205111,0.030415 0.184853,7.34e-5 0.90264,0.3191181 1.06237,0.4017309 0.15973,0.082613 0.177107,0.12268 0.226411,0.2719949 0.0493,0.149316 -0.121556,0.656964 -0.128568,0.826501 -0.007,0.169537 0.208963,0.380934 0.150654,0.534799 -0.05831,0.153865 -0.324953,0.500272 -0.48518,0.585568 -0.160226,0.0853 -0.72168,0.04144 -0.875467,-0.01412 -0.153787,-0.05556 -0.214546,0.270091 -0.392703,0.193797 -0.178157,-0.07629 -0.87741,-0.769625 -0.896089,-0.941673 z"
       inkscape:transform-center-x="0.12956794"
       inkscape:transform-center-y="-0.090856733"
       transform="translate(-1.1467732,-0.15927405)" />
    <path
       sodipodi:type="star"
       style="fill:#71c837;fill-opacity:1;stroke:none"
       id="path4002"
       sodipodi:sides="12"
       sodipodi:cx="13.028618"
       sodipodi:cy="9.1512157"
       sodipodi:r1="1.4684342"
       sodipodi:r2="1.4183985"
       sodipodi:arg1="0.86217005"
       sodipodi:arg2="1.1239694"
       inkscape:flatsided="true"
       inkscape:rounded="0.25"
       inkscape:randomized="0.25"
       d="m 14.160089,10.522159 c -0.101836,0.150868 -0.67462,-0.310658 -0.839446,-0.278944 -0.164827,0.03171 -0.618249,0.535771 -0.81134,0.53027 -0.193091,-0.0055 -0.698701,-0.713802 -0.821402,-0.8700653 -0.122702,-0.1562632 -0.237775,-0.3044842 -0.325015,-0.4859878 -0.08724,-0.1815036 -0.103165,-0.359179 0.01806,-0.5098254 0.12122,-0.1506463 0.264261,-0.4603287 0.446755,-0.5396325 0.182494,-0.079304 0.695226,-0.9115384 0.879016,-0.9318989 0.18379,-0.02036 0.649443,0.2079776 0.811352,0.2852429 0.161909,0.077265 0.694326,0.6322643 0.82139,0.7887692 0.127065,0.156505 0.348229,-0.099096 0.364596,0.090658 0.01637,0.1897542 -0.04333,0.6987404 -0.05764,0.905155 -0.01431,0.2064145 -0.384489,0.8653905 -0.486325,1.0162585 z"
       inkscape:transform-center-x="0.028314728"
       inkscape:transform-center-y="-0.047052638" />
    <path
       sodipodi:type="star"
       style="fill:#71c837;fill-opacity:1;stroke:none"
       id="path4004"
       sodipodi:sides="12"
       sodipodi:cx="13.633859"
       sodipodi:cy="5.2649288"
       sodipodi:r1="0.96041066"
       sodipodi:r2="0.92768546"
       sodipodi:arg1="1.670465"
       sodipodi:arg2="1.9322644"
       inkscape:flatsided="true"
       inkscape:rounded="0.25"
       inkscape:randomized="0.25"
       d="m 13.679882,6.1903331 c -0.128941,0.038543 -0.423733,-0.018239 -0.52588,-0.065684 -0.102146,-0.047445 -0.420295,-0.458238 -0.430281,-0.567533 -0.01,-0.1092951 0.02052,-0.1293225 0.02056,-0.2562172 4.2e-5,-0.1268947 0.069,-0.7218893 0.149487,-0.8361589 0.08048,-0.1142696 0.212766,-0.013591 0.330237,-0.075999 0.117471,-0.062408 0.451196,-0.015427 0.554375,0.031418 0.103178,0.046845 0.241811,-0.029155 0.335581,0.028 0.09377,0.057155 0.320643,0.2624684 0.404394,0.345888 0.08375,0.08342 0.177254,0.4360322 0.195635,0.5687175 0.01838,0.1326852 -0.08801,0.1990791 -0.14998,0.3144694 -0.06197,0.1153903 -0.247596,0.3745568 -0.330253,0.4498627 -0.08266,0.075306 -0.424932,0.024694 -0.553873,0.063236 z"
       inkscape:transform-center-x="-0.085043972"
       inkscape:transform-center-y="0.015963709" />
    <path
       sodipodi:type="star"
       style="fill:#71c837;fill-opacity:1;stroke:none"
       id="path4006"
       sodipodi:sides="12"
       sodipodi:cx="13.697569"
       sodipodi:cy="6.5072664"
       sodipodi:r1="1.450706"
       sodipodi:r2="1.4012744"
       sodipodi:arg1="1.7251151"
       sodipodi:arg2="1.9869145"
       inkscape:flatsided="true"
       inkscape:rounded="0.25"
       inkscape:randomized="0.25"
       d="M 13.454768,7.9593263 C 13.302806,7.8707277 12.667134,7.7300596 12.537046,7.608503 12.406959,7.4869464 12.26529,7.2738049 12.21494,7.0691922 12.16459,6.8645795 11.858713,6.6079292 11.920757,6.4395975 c 0.06204,-0.1683317 0.603942,-0.4345038 0.733163,-0.5379424 0.12922,-0.1034387 0.06374,-0.3792644 0.263816,-0.4382385 0.200076,-0.058974 0.799581,-0.6474616 0.977062,-0.6682241 0.177481,-0.020762 0.783495,0.2361309 0.917722,0.3508234 0.134227,0.1146925 0.259785,0.6904734 0.361944,0.8564543 0.102159,0.1659809 0.04049,0.8913419 -0.03236,1.0435433 -0.07284,0.1522015 0.140833,0.4318597 -0.0078,0.5379425 -0.148643,0.1060828 -0.420624,0.3923862 -0.623515,0.4394006 -0.202891,0.047014 -0.904053,0.024568 -1.056016,-0.06403 z"
       inkscape:transform-center-x="0.12715832"
       inkscape:transform-center-y="-0.086587599" />
    <path
       sodipodi:type="star"
       style="fill:#71c837;fill-opacity:1;stroke:none"
       id="path4008"
       sodipodi:sides="12"
       sodipodi:cx="1.8157242"
       sodipodi:cy="5.7746058"
       sodipodi:r1="1.151189"
       sodipodi:r2="1.1119632"
       sodipodi:arg1="1.3191064"
       sodipodi:arg2="1.5809057"
       inkscape:flatsided="true"
       inkscape:rounded="0.25"
       inkscape:randomized="0.25"
       d="M 2.0376743,6.9361841 C 1.9058085,6.9698357 1.655451,6.9730697 1.5099753,6.9895079 1.3644997,7.005946 1.057662,6.9920456 0.97981023,6.8657189 0.90195846,6.7393923 0.55072635,5.9205216 0.45908538,5.787636 0.36744441,5.6547504 0.69986611,5.4913838 0.68165232,5.3407051 0.66343852,5.1900264 1.2325206,5.2687262 1.2946769,5.1283067 1.3568333,4.9878871 1.561702,4.3848921 1.7005162,4.3881978 c 0.1388142,0.00331 0.36373,0.4977803 0.527699,0.5222706 0.163969,0.02449 0.4621765,-0.1726529 0.5612135,-0.058667 0.099037,0.1139857 -0.1642499,0.6203643 -0.085326,0.7346691 0.078924,0.1143049 0.3715356,0.5095389 0.383465,0.6628795 0.011929,0.1533405 -0.4772319,0.1779772 -0.6130154,0.276131 -0.1357834,0.098154 -0.3050126,0.3770515 -0.4368784,0.4107032 z"
       inkscape:transform-center-x="0.050296406"
       inkscape:transform-center-y="-0.082968637" />
    <path
       sodipodi:type="star"
       style="fill:#71c837;fill-opacity:1;stroke:none"
       id="path4010"
       sodipodi:sides="12"
       sodipodi:cx="2.0068531"
       sodipodi:cy="7.1125078"
       sodipodi:r1="0.95617509"
       sodipodi:r2="0.92359421"
       sodipodi:arg1="1.5374753"
       sodipodi:arg2="1.7992747"
       inkscape:flatsided="true"
       inkscape:rounded="0.25"
       inkscape:randomized="0.25"
       d="M 1.8565807,8.1598546 C 1.7192058,8.1431264 1.6354634,7.9475329 1.5175707,7.8871262 1.399678,7.8267194 1.2397499,7.6948944 1.1871384,7.5860428 1.1345269,7.4771911 1.0422982,7.3143894 1.0143299,7.2070107 0.98636159,7.099632 0.94540576,6.7878075 0.97170208,6.6780316 0.9979984,6.5682557 1.3035273,6.2246413 1.375477,6.1341756 c 0.07195,-0.090466 0.6535906,0.227057 0.7658843,0.1972558 0.1122938,-0.029801 0.228302,-0.2568651 0.33901,-0.2053591 0.110708,0.051506 0.044223,0.4104597 0.1156839,0.50935 0.071461,0.09889 0.4006617,0.536943 0.3875569,0.648853 -0.013105,0.1119101 0.090878,-0.010024 0.042635,0.1038277 C 2.9780048,7.5019546 2.4993296,7.6342221 2.407732,7.7150742 2.3161343,7.7959263 1.9939556,8.1765828 1.8565807,8.1598546 z"
       inkscape:transform-center-x="0.0056735311"
       inkscape:transform-center-y="0.026636923" />
    <path
       sodipodi:type="star"
       style="fill:#71c837;fill-opacity:1;stroke:none"
       id="path4012"
       sodipodi:sides="12"
       sodipodi:cx="2.0705627"
       sodipodi:cy="8.3867002"
       sodipodi:r1="1.3712377"
       sodipodi:r2="1.3245139"
       sodipodi:arg1="1.5243182"
       sodipodi:arg2="1.7861176"
       inkscape:flatsided="true"
       inkscape:rounded="0.25"
       inkscape:randomized="0.25"
       d="M 2.3584559,9.8821324 C 2.1815728,9.8272212 1.3625955,9.7482785 1.1885157,9.6697387 1.0144358,9.591199 0.88589794,9.6132958 0.84784281,9.4218057 0.80978768,9.2303155 0.37132561,8.6358945 0.4140272,8.4777917 0.45672878,8.3196888 0.50606851,7.6517033 0.56146167,7.4700861 0.61685484,7.288469 1.2384216,7.4937972 1.3722034,7.354693 1.5059852,7.2155888 1.7077018,7.251151 1.8596161,7.297225 2.0115304,7.3432989 2.8864883,7.4125326 3.030251,7.492933 3.1740136,7.5733335 2.9428563,7.2723317 2.9932727,7.4421938 3.0436891,7.612056 3.7760585,8.1398641 3.7670725,8.3091943 3.7580866,8.4785245 3.3741428,8.93969 3.2426926,9.077457 3.1112425,9.215224 2.6465067,9.4201688 2.4696068,9.4926209 c -0.1769,0.072452 0.065732,0.4444228 -0.1111509,0.3895115 z"
       inkscape:transform-center-x="-0.018566092"
       inkscape:transform-center-y="0.18525482" />
    <path
       sodipodi:type="star"
       style="fill:#71c837;fill-opacity:1;stroke:none"
       id="path4014"
       sodipodi:sides="12"
       sodipodi:cx="13.665714"
       sodipodi:cy="14.502824"
       sodipodi:r1="1.8859016"
       sodipodi:r2="1.8216411"
       sodipodi:arg1="0.91716043"
       sodipodi:arg2="1.1789598"
       inkscape:flatsided="true"
       inkscape:rounded="0.25"
       inkscape:randomized="0.25"
       d="m 14.780294,15.930135 c -0.121919,0.194656 -0.237745,0.58812 -0.472707,0.639123 -0.234963,0.051 -0.800333,-0.111998 -0.980711,-0.263421 -0.180377,-0.151423 -1.224039,-0.887043 -1.318691,-1.119649 -0.09465,-0.232606 -0.436836,-0.30938 -0.54853,-0.515932 -0.111693,-0.206552 0.699654,-1.035387 0.787686,-1.247892 0.08803,-0.212504 -0.126709,-0.55842 0.0067,-0.738793 0.133422,-0.180372 1.235527,-0.368318 1.450979,-0.45989 0.215452,-0.09157 0.333994,0.560423 0.556199,0.697141 0.222204,0.136718 0.70603,0.390484 0.764946,0.611104 0.05892,0.220621 0.575412,0.272753 0.54853,0.515932 -0.02688,0.24318 0.383083,0.985717 0.256932,1.175404 -0.12615,0.189686 -0.929428,0.512217 -1.051347,0.706873 z"
       inkscape:transform-center-x="0.013246165"
       inkscape:transform-center-y="-0.10597355"
       transform="translate(0.73266065,0)" />
    <path
       sodipodi:type="star"
       style="fill:#71c837;fill-opacity:1;stroke:none"
       id="path4016"
       sodipodi:sides="12"
       sodipodi:cx="14.589503"
       sodipodi:cy="14.916936"
       sodipodi:r1="1.7783498"
       sodipodi:r2="1.7177539"
       sodipodi:arg1="0.65483368"
       sodipodi:arg2="0.91663307"
       inkscape:flatsided="true"
       inkscape:rounded="0.25"
       inkscape:randomized="0.25"
       d="m 15.570941,15.775186 c -0.147897,0.177388 0.05221,0.555738 -0.127869,0.648432 -0.180074,0.09269 -0.509163,0.182637 -0.716162,0.209292 -0.206999,0.02666 -0.621318,-0.279244 -0.863328,-0.363015 -0.242011,-0.08377 -1.227492,-0.23754 -1.238549,-0.488839 -0.01106,-0.2513 0.571056,-0.83779 0.625036,-1.04549 0.05398,-0.2077 -0.3126,-0.523746 -0.137641,-0.63461 0.174958,-0.110864 0.928539,-0.622698 1.135095,-0.730613 0.206556,-0.107915 0.454967,-0.723278 0.668227,-0.619703 0.21326,0.103574 0.772583,0.481625 0.910348,0.696611 0.137765,0.214987 0.03393,0.241287 0.184331,0.434333 0.150403,0.193046 0.354933,0.70589 0.264126,0.947036 -0.09081,0.241146 -0.555716,0.769179 -0.703614,0.946566 z"
       inkscape:transform-center-x="0.12857521"
       inkscape:transform-center-y="-0.23018976"
       transform="translate(-12.805634,-14.016117)" />
    <path
       sodipodi:type="star"
       style="fill:#66ff00;fill-opacity:1;stroke:none"
       id="path4018"
       sodipodi:sides="12"
       sodipodi:cx="8.8237826"
       sodipodi:cy="6.8576693"
       sodipodi:r1="0.77046508"
       sodipodi:r2="0.74421212"
       sodipodi:arg1="2.0899424"
       sodipodi:arg2="2.3517418"
       inkscape:flatsided="true"
       inkscape:rounded="0.25"
       inkscape:randomized="0.25"
       d="M 8.3778962,7.4644264 C 8.3074247,7.4129614 8.4161981,7.2939373 8.3439316,7.2179242 8.2716652,7.141911 8.1486428,7.0133618 8.1235304,6.9239454 8.0984181,6.834529 8.2217757,6.521351 8.2362292,6.4249103 8.2506827,6.3284696 8.3190849,6.3383737 8.3993416,6.2651012 8.4795983,6.1918287 8.8519247,6.1833543 8.9524016,6.2236571 9.0528786,6.2639599 9.206393,5.9956746 9.2943862,6.0448633 9.3823794,6.094052 9.484974,6.1886341 9.5229385,6.2826076 9.5609031,6.376581 9.688578,6.697599 9.7225721,6.7840097 9.7565662,6.8704205 9.6321731,7.0232164 9.5891057,7.1052357 9.5460382,7.187255 9.1408642,7.3339018 9.0611319,7.4095744 8.9813996,7.4852469 8.8203015,7.6410992 8.7198807,7.6708652 8.6194599,7.7006311 8.4483676,7.5158915 8.3778962,7.4644264 z"
       inkscape:transform-center-x="-0.10049342"
       inkscape:transform-center-y="-0.0012158296" />
    <path
       sodipodi:type="star"
       style="fill:#66ff00;fill-opacity:1;stroke:none"
       id="path4020"
       sodipodi:sides="12"
       sodipodi:cx="8.4415248"
       sodipodi:cy="13.037503"
       sodipodi:r1="0.67724257"
       sodipodi:r2="0.65416609"
       sodipodi:arg1="2.4227627"
       sodipodi:arg2="2.684562"
       inkscape:flatsided="true"
       inkscape:rounded="0.25"
       inkscape:randomized="0.25"
       d="m 7.9228312,13.460455 c -0.028884,-0.08158 -0.1914383,-0.06357 -0.2260309,-0.135374 -0.034593,-0.07181 0.1439679,-0.480917 0.1589971,-0.567472 0.015029,-0.08656 0.169171,-0.03832 0.221582,-0.100476 0.052411,-0.06216 0.2969889,-0.196971 0.3777026,-0.218434 0.080714,-0.02146 0.2218701,0.07203 0.2948132,0.123904 0.072943,0.05188 0.1968505,0.06045 0.2366119,0.13746 0.039761,0.07701 0.1746379,0.198398 0.2077706,0.280206 0.033133,0.08181 -0.1218797,0.353666 -0.1410799,0.430881 -0.0192,0.07722 -0.1799664,-0.08444 -0.2394883,-0.02657 -0.059522,0.05788 -0.2843013,0.175188 -0.3777081,0.180941 -0.093407,0.0058 -0.2103971,0.08367 -0.2765584,0.03239 -0.066161,-0.05127 -0.2077281,-0.05588 -0.2366118,-0.137459 z"
       inkscape:transform-center-x="-0.0041093983"
       inkscape:transform-center-y="-0.012077741" />
    <path
       sodipodi:type="star"
       style="fill:#66ff00;fill-opacity:1;stroke:none"
       id="path4022"
       sodipodi:sides="12"
       sodipodi:cx="4.045561"
       sodipodi:cy="12.209278"
       sodipodi:r1="2.0980692"
       sodipodi:r2="2.0265792"
       sodipodi:arg1="-2.6167969"
       sodipodi:arg2="-2.3549975"
       inkscape:flatsided="true"
       inkscape:rounded="0.25"
       inkscape:randomized="0.25"
       d="M 2.7388634,10.739116 C 2.8451863,10.500174 2.9655757,10.272786 3.1560621,10.054389 3.3465484,9.8359933 3.9136435,9.8235436 4.1689814,9.8236976 4.4243193,9.8238515 4.8147506,10.044496 5.06765,10.130612 c 0.2528993,0.08612 0.1929083,0.630455 0.3045321,0.877102 0.1116239,0.246647 0.5138364,0.739424 0.48147,0.99164 -0.032366,0.252216 0.5504848,1.275868 0.3971833,1.475836 C 6.097534,13.675158 4.9864496,13.73748 4.7280664,13.791875 4.4696831,13.846269 4.100822,14.024858 3.8293153,13.916393 3.5578086,13.807929 3.1931594,13.666591 2.9295671,13.518855 2.6659748,13.371119 2.7756367,13.497592 2.568499,13.322746 2.3613613,13.1479 1.7522528,12.39177 1.6712944,12.132627 c -0.080958,-0.259143 0.9612462,-1.15457 1.067569,-1.393511 z"
       inkscape:transform-center-x="0.073864049"
       inkscape:transform-center-y="-0.32208252" />
    <path
       sodipodi:type="star"
       style="fill:#66ff00;fill-opacity:1;stroke:none"
       id="path4024"
       sodipodi:sides="12"
       sodipodi:cx="2.357256"
       sodipodi:cy="1.856464"
       sodipodi:r1="1.1850675"
       sodipodi:r2="1.1446873"
       sodipodi:arg1="2.2035452"
       sodipodi:arg2="2.4653445"
       inkscape:flatsided="true"
       inkscape:rounded="0.25"
       inkscape:randomized="0.25"
       d="M 1.622898,2.8068531 C 1.5424795,2.6918205 1.4340254,2.6293321 1.3372827,2.5267199 1.24054,2.4241076 0.89806372,1.9362841 0.88926737,1.7937004 0.88047101,1.6511167 1.1710175,1.0218415 1.2565306,0.89299843 1.3420436,0.76415538 1.9075403,0.88762252 2.0221389,0.80542165 2.1367375,0.72322077 2.2118925,0.52190898 2.3492395,0.50484429 2.4865865,0.4877796 3.0695313,0.75602324 3.1731896,0.85768669 3.276848,0.95935015 3.1295733,1.290208 3.1914487,1.4247826 3.253324,1.5593571 3.387249,1.7955369 3.314296,1.9364476 3.241343,2.0773583 3.3288635,2.3182068 3.2728011,2.45155 3.2167388,2.5848932 3.2242455,3.0668181 3.0991263,3.1460808 2.9740071,3.2253435 2.6050869,3.1856294 2.4468576,3.2253037 2.2886284,3.264978 1.7033165,2.9218857 1.622898,2.8068531 z"
       inkscape:transform-center-x="0.24497846"
       inkscape:transform-center-y="0.009808458" />
    <path
       sodipodi:type="star"
       style="fill:#66ff00;fill-opacity:1;stroke:none"
       id="path4026"
       sodipodi:sides="12"
       sodipodi:cx="13.251601"
       sodipodi:cy="2.6528343"
       sodipodi:r1="0.78868806"
       sodipodi:r2="0.76181417"
       sodipodi:arg1="2.3276308"
       sodipodi:arg2="2.5894302"
       inkscape:flatsided="true"
       inkscape:rounded="0.25"
       inkscape:randomized="0.25"
       d="m 12.541336,3.4211675 c -0.08935,-0.0511 -0.136947,-0.3524455 -0.14116,-0.4531317 -0.0042,-0.1006861 0.09922,-0.5280276 0.106345,-0.6279041 0.0071,-0.099877 0.130669,-0.1154616 0.224735,-0.1793496 0.09407,-0.063888 0.106876,-0.3312684 0.219772,-0.336032 0.112896,-0.00476 0.391938,0.064318 0.500503,0.088647 0.108564,0.024329 0.422393,-0.099355 0.508183,-0.024741 0.08579,0.074614 0.06763,0.5862941 0.119901,0.665461 0.05227,0.079167 -0.07354,0.1438595 -0.106345,0.2335601 -0.0328,0.089701 -0.173709,0.479136 -0.224735,0.5736937 -0.05103,0.094558 -0.12949,-0.1178759 -0.219772,-0.058312 -0.09028,0.059564 -0.412209,0.3073781 -0.500509,0.2620331 -0.0883,-0.045345 -0.397567,-0.092824 -0.486918,-0.1439242 z"
       inkscape:transform-center-x="0.0054924111"
       inkscape:transform-center-y="0.044722857" />
    <path
       sodipodi:type="star"
       style="fill:#66ff00;fill-opacity:1;stroke:none"
       id="path4028"
       sodipodi:sides="12"
       sodipodi:cx="8.4733797"
       sodipodi:cy="3.6721882"
       sodipodi:r1="1.3514852"
       sodipodi:r2="1.3054344"
       sodipodi:arg1="-1.7126934"
       sodipodi:arg2="-1.450894"
       inkscape:flatsided="true"
       inkscape:rounded="0.25"
       inkscape:randomized="0.25"
       d="M 8.1833811,2.5329483 C 8.3287162,2.4687034 8.5641674,2.0954629 8.7088627,2.2237275 8.8535581,2.3519922 9.7427392,2.6162157 9.795033,2.7976166 9.8473267,2.9790175 9.5670666,3.2912195 9.5732766,3.4606521 9.5794866,3.6300847 9.933924,3.8129915 9.8944973,3.9910377 9.8550707,4.1690838 9.268241,4.7929525 9.1472485,4.8884725 9.026256,4.9839924 8.5383424,5.1456607 8.3451747,5.1504374 8.1520071,5.1552142 7.9458369,4.8826832 7.8203777,4.7674703 7.6949185,4.6522574 7.5611267,4.9231696 7.4092546,4.8109476 7.2573826,4.6987257 6.907636,3.8398489 6.8831171,3.6573141 6.8585982,3.4747793 7.2292019,3.162259 7.3104857,3.0001602 7.3917696,2.8380613 7.1940476,2.5512619 7.3455632,2.4665701 7.4970788,2.3818784 8.038046,2.5971932 8.1833811,2.5329483 z"
       inkscape:transform-center-x="0.083623917"
       inkscape:transform-center-y="0.0016083856" />
    <path
       sodipodi:type="star"
       style="fill:#66ff00;fill-opacity:1;stroke:none"
       id="path4030"
       sodipodi:sides="12"
       sodipodi:cx="12.009264"
       sodipodi:cy="13.54718"
       sodipodi:r1="1.2621903"
       sodipodi:r2="1.2191823"
       sodipodi:arg1="-2.3918936"
       sodipodi:arg2="-2.1300942"
       inkscape:flatsided="true"
       inkscape:rounded="0.25"
       inkscape:randomized="0.25"
       d="m 11.070116,12.774004 c 0.100191,-0.114191 0.635489,-0.496542 0.8067,-0.542731 0.171211,-0.04619 0.368043,-0.0074 0.543862,-0.02151 0.17582,-0.01412 0.366986,0.491368 0.453759,0.638921 0.08677,0.147553 0.07196,0.255344 0.108786,0.401476 0.03683,0.146132 0.300217,0.349964 0.276865,0.511396 -0.02335,0.161432 -0.03702,0.63793 -0.15096,0.763806 -0.113935,0.125876 -0.290181,0.122457 -0.46037,0.147395 -0.170189,0.02494 -0.711442,0.323804 -0.890851,0.292452 -0.179409,-0.03135 -0.315457,-0.45361 -0.453099,-0.514524 -0.137642,-0.06091 -0.674604,-0.243432 -0.739882,-0.401475 -0.06528,-0.158044 0.277165,-0.41228 0.353581,-0.565916 0.07642,-0.153635 0.05142,-0.595096 0.151609,-0.709286 z"
       inkscape:transform-center-x="0.10013736"
       inkscape:transform-center-y="0.040478842" />
    <path
       sodipodi:type="star"
       style="fill:#66ff00;fill-opacity:1;stroke:none"
       id="path4032"
       sodipodi:sides="12"
       sodipodi:cx="14.653213"
       sodipodi:cy="14.725808"
       sodipodi:r1="0.74365804"
       sodipodi:r2="0.71831851"
       sodipodi:arg1="-2.3864883"
       sodipodi:arg2="-2.1246889"
       inkscape:flatsided="true"
       inkscape:rounded="0.25"
       inkscape:randomized="0.25"
       d="m 14.071021,14.30148 c 0.06645,-0.07547 0.411959,-0.252514 0.509613,-0.2526 0.09765,-8.5e-5 0.220349,-0.237707 0.322577,-0.206805 0.102228,0.0309 0.127522,0.247069 0.206182,0.2777 0.07866,0.03063 0.362231,0.359756 0.411792,0.433374 0.04956,0.07362 -0.27346,0.40558 -0.26677,0.509574 0.0067,0.103993 0.139486,0.0241 0.04953,0.08074 -0.08996,0.05664 -0.426821,0.112251 -0.510002,0.179308 -0.08318,0.06706 -0.254726,0.07942 -0.342616,0.07635 -0.08789,-0.0031 -0.16221,-0.205017 -0.205806,-0.28675 -0.04359,-0.08173 -0.384177,-0.202525 -0.392129,-0.293873 -0.008,-0.09135 -0.12629,-0.01555 -0.104676,-0.105623 0.02161,-0.09007 0.255856,-0.335925 0.322309,-0.411398 z"
       inkscape:transform-center-x="0.016993741"
       inkscape:transform-center-y="-0.10638268" />
    <path
       sodipodi:type="star"
       style="fill:#66ff00;fill-opacity:1;stroke:none"
       id="path4034"
       sodipodi:sides="12"
       sodipodi:cx="13.060472"
       sodipodi:cy="10.489118"
       sodipodi:r1="1.0872715"
       sodipodi:r2="1.0502236"
       sodipodi:arg1="2.1262901"
       sodipodi:arg2="2.3880894"
       inkscape:flatsided="true"
       inkscape:rounded="0.25"
       inkscape:randomized="0.25"
       d="m 12.640036,11.632403 c -0.112324,-0.07013 -0.25272,-0.294668 -0.324092,-0.421139 -0.07137,-0.12647 -0.475331,-0.577231 -0.450809,-0.706577 0.02452,-0.129347 0.184783,-0.192588 0.237556,-0.322882 0.05277,-0.130294 0.534545,-0.4913657 0.654894,-0.5673723 0.120349,-0.076007 0.45416,-0.1019787 0.590413,-0.1210318 0.136253,-0.019053 0.173236,0.064301 0.288018,0.1383343 0.114782,0.074033 0.232528,0.3774938 0.3241,0.4813328 0.09157,0.103838 0.511229,0.02345 0.450809,0.162942 -0.06042,0.139494 -0.170493,0.816604 -0.29617,0.908308 -0.125678,0.09171 -0.479632,0.416046 -0.596289,0.465388 -0.116657,0.04934 -0.462234,0.150057 -0.590413,0.121031 -0.128179,-0.02903 -0.175693,-0.06821 -0.288017,-0.138334 z"
       inkscape:transform-center-x="-0.079984149"
       inkscape:transform-center-y="0.14415293" />
    <path
       sodipodi:type="star"
       style="fill:#66ff00;fill-opacity:1;stroke:none"
       id="path4036"
       sodipodi:sides="12"
       sodipodi:cx="14.175391"
       sodipodi:cy="5.8701701"
       sodipodi:r1="1.0123616"
       sodipodi:r2="0.97786635"
       sodipodi:arg1="0.42141921"
       sodipodi:arg2="0.68321859"
       inkscape:flatsided="true"
       inkscape:rounded="0.25"
       inkscape:randomized="0.25"
       d="m 14.885601,6.2005403 c -0.08509,0.1179293 0.216242,0.2867999 0.09616,0.3421934 -0.120083,0.055393 -0.423179,0.4020338 -0.556481,0.4523743 -0.133301,0.05034 -0.781263,-0.2579211 -0.896393,-0.3074796 -0.115129,-0.049559 -0.173575,-0.044113 -0.243012,-0.1585237 -0.06944,-0.1144106 0.06828,-0.5619342 0.01929,-0.693401 -0.04899,-0.1314669 0.02565,-0.2053418 0.0856,-0.3220279 0.05994,-0.1166861 0.284748,-0.3609202 0.410013,-0.3982402 0.125266,-0.03732 -0.102115,-0.1967987 0.02301,-0.1798279 0.125127,0.016971 0.765114,-0.2564519 0.896393,-0.1987012 0.131279,0.057751 0.404181,0.250149 0.470885,0.3758344 0.0667,0.1256853 -0.0079,0.6332744 -0.01928,0.7494478 -0.01135,0.1161734 -0.201089,0.2204224 -0.28618,0.3383516 z"
       inkscape:transform-center-x="-0.066782615"
       inkscape:transform-center-y="-0.0054079728"
       transform="translate(1.2104828,0.06370962)" />
    <path
       sodipodi:type="star"
       style="fill:#66ff00;fill-opacity:1;stroke:none"
       id="path4038"
       sodipodi:sides="12"
       sodipodi:cx="0.73266065"
       sodipodi:cy="6.0931539"
       sodipodi:r1="0.81214151"
       sodipodi:r2="0.78446846"
       sodipodi:arg1="2.6954871"
       sodipodi:arg2="2.9572865"
       inkscape:flatsided="true"
       inkscape:rounded="0.25"
       inkscape:randomized="0.25"
       d="M 0.16198299,6.3866514 C 0.10976661,6.2990516 0.09405833,6.2758201 0.0969593,6.1643975 0.09986028,6.0529748 -0.12501451,5.8043116 -0.05018931,5.7165797 0.02463589,5.6288478 0.3515776,5.4859983 0.45433213,5.4468241 0.55708666,5.4076499 0.55399772,5.2995912 0.66610834,5.2833305 0.77821895,5.2670698 1.0354561,5.4629307 1.1185088,5.5338545 c 0.083053,0.070924 0.2809334,0.2086309 0.3589248,0.2843241 0.077991,0.075693 0.1373024,0.044811 0.1087991,0.1460756 -0.028503,0.1012644 -0.2184731,0.3880076 -0.2589156,0.4927798 -0.040442,0.1047722 -0.0052,0.1980337 -0.098451,0.2697556 -0.093254,0.071722 -0.36641645,-0.012477 -0.47881778,0.00793 -0.11240132,0.02041 -0.5335176,0.1784451 -0.61332058,0.12368 -0.07980299,-0.054765 0.0774713,-0.3841517 0.025255,-0.4717514 z"
       inkscape:transform-center-x="-0.031366112"
       inkscape:transform-center-y="-0.017029902" />
  </g>
</svg>
