<?xml version="1.0" encoding="UTF-8" standalone="no"?>
<!-- Created with Inkscape (http://www.inkscape.org/) -->

<svg
   xmlns:dc="http://purl.org/dc/elements/1.1/"
   xmlns:cc="http://creativecommons.org/ns#"
   xmlns:rdf="http://www.w3.org/1999/02/22-rdf-syntax-ns#"
   xmlns:svg="http://www.w3.org/2000/svg"
   xmlns="http://www.w3.org/2000/svg"
   xmlns:sodipodi="http://sodipodi.sourceforge.net/DTD/sodipodi-0.dtd"
   xmlns:inkscape="http://www.inkscape.org/namespaces/inkscape"
   width="16px"
   height="16px"
   id="svg2985"
   version="1.1"
   inkscape:version="0.48.4 r9939"
   sodipodi:docname="moonstonebricks.svg"
   inkscape:export-filename="C:\Users\Cliffie\Desktop\ForgeMCP1.6.4\forge\mcp\jars\resourcepacks\TheVectorPack\assets\meloncraft\textures\blocks\moonstoneBricks.png"
   inkscape:export-xdpi="360"
   inkscape:export-ydpi="360">
  <defs
     id="defs2987">
    <inkscape:path-effect
       effect="spiro"
       id="path-effect8078"
       is_visible="true" />
    <inkscape:perspective
       sodipodi:type="inkscape:persp3d"
       inkscape:vp_x="0 : 8 : 1"
       inkscape:vp_y="0 : 1000 : 0"
       inkscape:vp_z="16 : 8 : 1"
       inkscape:persp3d-origin="8 : 5.3333333 : 1"
       id="perspective3043" />
  </defs>
  <sodipodi:namedview
     id="base"
     pagecolor="#ffffff"
     bordercolor="#666666"
     borderopacity="1.0"
     inkscape:pageopacity="0.0"
     inkscape:pageshadow="2"
     inkscape:zoom="31.392433"
     inkscape:cx="8.3815567"
     inkscape:cy="7.0281729"
     inkscape:current-layer="layer1"
     showgrid="true"
     inkscape:grid-bbox="true"
     inkscape:document-units="px"
     inkscape:snap-page="true"
     inkscape:window-width="1920"
     inkscape:window-height="1058"
     inkscape:window-x="-8"
     inkscape:window-y="-8"
     inkscape:window-maximized="1" />
  <metadata
     id="metadata2990">
    <rdf:RDF>
      <cc:Work
         rdf:about="">
        <dc:format>image/svg+xml</dc:format>
        <dc:type
           rdf:resource="http://purl.org/dc/dcmitype/StillImage" />
        <dc:title></dc:title>
      </cc:Work>
    </rdf:RDF>
  </metadata>
  <g
     id="layer1"
     inkscape:label="Layer 1"
     inkscape:groupmode="layer">
    <path
       style="fill:#abc837;stroke:none;stroke-width:1px;stroke-linecap:butt;stroke-linejoin:miter;stroke-opacity:1"
       d="m 7.4858804,4.1818654 -0.9237895,0 -1.3060472,4.2048349 1.9431434,5.5745917 1.6245954,0.86008 L 9.237895,14.247985 7.8362833,13.515325 7.1354775,8.5778292 8.1229766,4.5641231 z"
       id="path4461"
       inkscape:connector-curvature="0" />
    <path
       style="fill:#c83737;stroke:none;stroke-width:1px;stroke-linecap:butt;stroke-linejoin:miter;stroke-opacity:1"
       d="m 8.0274122,4.1818654 c 0,0 2.5483848,1.1786279 2.6758038,1.2423376 0.12742,0.06371 1.815724,1.9112886 1.815724,1.9112886 L 12.64636,11.381052 11.181038,13.897583 9.1104758,14.27984 7.5814449,13.610889 6.7532198,9.1512158 8.059267,3.9907365 z"
       id="path4463"
       inkscape:connector-curvature="0" />
    <path
       style="fill:#de8787;stroke:none;stroke-width:1px;stroke-linecap:butt;stroke-linejoin:miter;stroke-opacity:1"
       d="M 7.8681382,4.4367038 8.8237825,4.5959779 8.6645084,7.7496041 8.3459603,9.7564572 9.078621,11.986294 9.1741854,14.34355 7.6132997,13.738308 6.6258006,9.1512158 z"
       id="path4465"
       inkscape:connector-curvature="0" />
    <path
       sodipodi:type="star"
       style="fill:#917c6f;stroke:none"
       id="path4467"
       sodipodi:sides="7"
       sodipodi:cx="10.735071"
       sodipodi:cy="7.0487983"
       sodipodi:r1="0.38490314"
       sodipodi:r2="0.34678574"
       sodipodi:arg1="1.9974238"
       sodipodi:arg2="2.4462228"
       inkscape:flatsided="true"
       inkscape:rounded="0.1"
       inkscape:randomized="0.25"
       d="m 10.508728,7.3120652 c -0.03347,-0.00994 -0.157957,-0.1016754 -0.157509,-0.1329848 4.48e-4,-0.031309 0.135896,-0.2703854 0.160349,-0.2948729 0.02445,-0.024487 0.09973,-0.2993974 0.136396,-0.2932898 0.03666,0.00611 0.395772,0.2326026 0.418264,0.2582767 0.02249,0.025674 -0.03072,0.3163257 -0.0441,0.3444214 -0.01338,0.028096 -0.07284,0.2013507 -0.107902,0.2137566 -0.03506,0.012406 -0.372028,-0.085367 -0.405496,-0.095307 z"
       inkscape:transform-center-x="0.023610707"
       inkscape:transform-center-y="-0.049160121" />
    <path
       sodipodi:type="star"
       style="fill:#917c6f;stroke:none"
       id="path4469"
       sodipodi:sides="7"
       sodipodi:cx="10.512087"
       sodipodi:cy="9.1830706"
       sodipodi:r1="0.3185481"
       sodipodi:r2="0.28700192"
       sodipodi:arg1="2.2142974"
       sodipodi:arg2="2.6630964"
       inkscape:flatsided="true"
       inkscape:rounded="0.1"
       inkscape:randomized="0.25"
       d="m 10.244686,9.3904391 c -0.0208,-0.012568 -0.04665,-0.1943204 -0.0539,-0.2188773 -0.0072,-0.024557 0.10862,-0.2858948 0.132627,-0.3055584 0.02401,-0.019664 0.148428,-0.00595 0.177953,-0.010178 0.02952,-0.00422 0.303672,0.128902 0.314709,0.1558301 0.01104,0.026928 -0.05999,0.3341122 -0.06525,0.3578297 -0.0053,0.023718 -0.192769,0.1373489 -0.21847,0.1418083 -0.0257,0.00446 -0.266875,-0.108286 -0.287671,-0.1208543 z"
       inkscape:transform-center-x="0.0082346115"
       inkscape:transform-center-y="0.00016897552" />
    <path
       sodipodi:type="star"
       style="fill:#917c6f;stroke:none"
       id="path4471"
       sodipodi:sides="7"
       sodipodi:cx="9.3971691"
       sodipodi:cy="10.712101"
       sodipodi:r1="0.36039606"
       sodipodi:r2="0.58113462"
       sodipodi:arg1="0.78539818"
       sodipodi:arg2="1.2341971"
       inkscape:flatsided="true"
       inkscape:rounded="0.1"
       inkscape:randomized="0.25"
       d="m 9.718648,10.875847 c -0.018204,0.0227 -0.2780566,0.322575 -0.3109291,0.32611 -0.032873,0.0035 -0.1767594,-0.29261 -0.1848755,-0.326795 -0.00812,-0.03418 -0.2187168,-0.275779 -0.2089632,-0.308567 0.00975,-0.03279 0.2262484,-0.142536 0.2611495,-0.140984 0.034901,0.0016 0.2894866,0.03014 0.3177108,0.03547 0.028224,0.0053 0.2820959,0.04984 0.2847927,0.07747 0.0027,0.02762 -0.1406807,0.314594 -0.1588852,0.337293 z"
       inkscape:transform-center-x="-0.05566076"
       inkscape:transform-center-y="-0.030865637" />
    <path
       sodipodi:type="star"
       style="fill:#917c6f;stroke:none"
       id="path4473"
       sodipodi:sides="7"
       sodipodi:cx="11.181038"
       sodipodi:cy="12.081858"
       sodipodi:r1="0.41411251"
       sodipodi:r2="0.47071815"
       sodipodi:arg1="2.7468015"
       sodipodi:arg2="3.1956005"
       inkscape:flatsided="true"
       inkscape:rounded="0.1"
       inkscape:randomized="0.25"
       d="m 10.894417,12.178382 c -0.0016,-0.03478 -0.06229,-0.225917 -0.05573,-0.264203 0.0066,-0.03829 0.350529,-0.126764 0.386018,-0.140425 0.03549,-0.01366 0.21671,-0.142302 0.243936,-0.114712 0.02723,0.02759 0.17355,0.433325 0.182142,0.469015 0.0086,0.03569 -0.109685,0.27146 -0.135016,0.298723 -0.02533,0.02726 -0.446421,0.130007 -0.472788,0.112678 -0.02637,-0.01733 -0.146999,-0.326297 -0.148558,-0.361076 z"
       inkscape:transform-center-x="0.0084837114"
       inkscape:transform-center-y="-0.09829671" />
    <path
       sodipodi:type="star"
       style="fill:#917c6f;stroke:none"
       id="path4475"
       sodipodi:sides="7"
       sodipodi:cx="9.7794268"
       sodipodi:cy="12.973793"
       sodipodi:r1="0.38883751"
       sodipodi:r2="0.3503305"
       sodipodi:arg1="0.96007036"
       sodipodi:arg2="1.4088693"
       inkscape:flatsided="true"
       inkscape:rounded="0.1"
       inkscape:randomized="0.25"
       d="m 10.026544,13.23417 c -0.026681,0.01475 -0.2761795,0.120195 -0.3073373,0.102989 -0.031158,-0.01721 -0.2091905,-0.273132 -0.2234059,-0.301967 -0.014215,-0.02884 -0.038305,-0.312737 -0.019961,-0.34015 0.018344,-0.02741 0.1227547,-0.137828 0.1542731,-0.153642 0.031518,-0.01581 0.4569378,0.178302 0.4752068,0.202376 0.01827,0.02407 0.03854,0.271014 0.03759,0.301053 -9.47e-4,0.03004 -0.08969,0.174593 -0.116369,0.189341 z"
       inkscape:transform-center-x="-0.026654369"
       inkscape:transform-center-y="-0.03402481" />
    <path
       sodipodi:type="star"
       style="fill:#917c6f;stroke:none"
       id="path4477"
       sodipodi:sides="7"
       sodipodi:cx="11.754425"
       sodipodi:cy="10.361699"
       sodipodi:r1="0.25483848"
       sodipodi:r2="0.22960154"
       sodipodi:arg1="3.1415927"
       sodipodi:arg2="3.5903916"
       inkscape:flatsided="true"
       inkscape:rounded="0.1"
       inkscape:randomized="0.25"
       d="m 11.439838,10.332924 c 0.005,-0.0209 0.179147,-0.106643 0.192748,-0.120759 0.0136,-0.01412 0.09846,-0.116524 0.12186,-0.113823 0.0234,0.0027 0.268297,0.195147 0.272754,0.216118 0.0045,0.02097 0.0033,0.112567 9.8e-5,0.133832 -0.0032,0.02126 -0.250623,0.164504 -0.272792,0.173836 -0.02217,0.0093 -0.102696,-0.07387 -0.12182,-0.08468 -0.01912,-0.01081 -0.197843,-0.183625 -0.192848,-0.204522 z"
       inkscape:transform-center-x="0.019495299"
       inkscape:transform-center-y="-0.001126124" />
    <path
       sodipodi:type="star"
       style="fill:#917c6f;stroke:none"
       id="path4479"
       sodipodi:sides="7"
       sodipodi:cx="9.4608787"
       sodipodi:cy="7.4947656"
       sodipodi:r1="0.15927405"
       sodipodi:r2="0.14350096"
       sodipodi:arg1="1.5707963"
       sodipodi:arg2="2.0195953"
       inkscape:flatsided="true"
       inkscape:rounded="0.1"
       inkscape:randomized="0.25"
       d="m 9.4898162,7.6315108 c -0.012572,0.0033 -0.144046,0.01025 -0.1545777,0.00128 -0.010532,-0.00897 -0.068226,-0.1442434 -0.061258,-0.1552045 0.00697,-0.010961 0.093172,-0.1103221 0.1037863,-0.1179608 0.010614,-0.00764 0.1347558,-0.025567 0.1487325,-0.024463 0.013977,0.0011 0.053699,0.07517 0.055683,0.087325 0.00198,0.012155 -0.00135,0.1949157 -0.013132,0.2042061 -0.011781,0.00929 -0.066662,0.00152 -0.079234,0.00482 z"
       inkscape:transform-center-x="0.032820203"
       inkscape:transform-center-y="-0.0086090316" />
    <path
       sodipodi:type="star"
       style="fill:#917c6f;stroke:none"
       id="path4481"
       sodipodi:sides="7"
       sodipodi:cx="9.6201527"
       sodipodi:cy="5.7746059"
       sodipodi:r1="0.35184788"
       sodipodi:r2="0.31700399"
       sodipodi:arg1="1.4801364"
       sodipodi:arg2="1.9289354"
       inkscape:flatsided="true"
       inkscape:rounded="0.1"
       inkscape:randomized="0.25"
       d="M 9.6913957,6.1515357 C 9.6594854,6.1618422 9.3336421,5.9617452 9.3149086,5.9340375 9.296175,5.9063298 9.1885445,5.7485091 9.2022831,5.7214914 9.2160218,5.6944738 9.4323552,5.5644707 9.4607639,5.5581319 c 0.028409,-0.00634 0.2851529,-0.1779801 0.31158,-0.1710621 0.026427,0.00692 0.1287872,0.2459522 0.1406727,0.2757619 0.011885,0.02981 -0.019013,0.2403569 -0.036416,0.2614686 -0.017403,0.021112 -0.153295,0.216929 -0.1852052,0.2272354 z"
       inkscape:transform-center-x="0.06178007"
       inkscape:transform-center-y="-0.0052125342" />
  </g>
</svg>
