<?xml version="1.0" encoding="UTF-8" standalone="no"?>
<!-- Created with Inkscape (http://www.inkscape.org/) -->

<svg
   xmlns:dc="http://purl.org/dc/elements/1.1/"
   xmlns:cc="http://creativecommons.org/ns#"
   xmlns:rdf="http://www.w3.org/1999/02/22-rdf-syntax-ns#"
   xmlns:svg="http://www.w3.org/2000/svg"
   xmlns="http://www.w3.org/2000/svg"
   xmlns:sodipodi="http://sodipodi.sourceforge.net/DTD/sodipodi-0.dtd"
   xmlns:inkscape="http://www.inkscape.org/namespaces/inkscape"
   width="16px"
   height="16px"
   id="svg2985"
   version="1.1"
   inkscape:version="0.48.4 r9939"
   sodipodi:docname="log.svg"
   inkscape:export-filename="C:\Users\Owen\Desktop\TheVectorPack\PNGs\blocks\lapis_ore.png"
   inkscape:export-xdpi="360"
   inkscape:export-ydpi="360">
  <defs
     id="defs2987">
    <inkscape:perspective
       sodipodi:type="inkscape:persp3d"
       inkscape:vp_x="0 : 8 : 1"
       inkscape:vp_y="0 : 1000 : 0"
       inkscape:vp_z="16 : 8 : 1"
       inkscape:persp3d-origin="8 : 5.3333333 : 1"
       id="perspective3043" />
  </defs>
  <sodipodi:namedview
     id="base"
     pagecolor="#ffffff"
     bordercolor="#666666"
     borderopacity="1.0"
     inkscape:pageopacity="0.0"
     inkscape:pageshadow="2"
     inkscape:zoom="31.392433"
     inkscape:cx="6.7877566"
     inkscape:cy="7.8889354"
     inkscape:current-layer="layer1"
     showgrid="true"
     inkscape:grid-bbox="true"
     inkscape:document-units="px"
     inkscape:snap-page="true"
     inkscape:window-width="1366"
     inkscape:window-height="742"
     inkscape:window-x="-4"
     inkscape:window-y="-4"
     inkscape:window-maximized="1" />
  <metadata
     id="metadata2990">
    <rdf:RDF>
      <cc:Work
         rdf:about="">
        <dc:format>image/svg+xml</dc:format>
        <dc:type
           rdf:resource="http://purl.org/dc/dcmitype/StillImage" />
        <dc:title></dc:title>
      </cc:Work>
    </rdf:RDF>
  </metadata>
  <g
     id="layer1"
     inkscape:label="Layer 1"
     inkscape:groupmode="layer">
    <rect
       style="fill:#bb7b23;fill-opacity:1;stroke:none"
       id="rect3889"
       width="2.575247"
       height="7.080195"
       x="6.1267323"
       y="8.9198017" />
    <path
       sodipodi:type="star"
       style="fill:#803300;fill-opacity:1;stroke:none"
       id="path3928"
       sodipodi:sides="6"
       sodipodi:cx="12.964908"
       sodipodi:cy="12.018149"
       sodipodi:r1="0.79827929"
       sodipodi:r2="0.69133013"
       sodipodi:arg1="2.070143"
       sodipodi:arg2="2.5937418"
       inkscape:flatsided="true"
       inkscape:rounded="0"
       inkscape:randomized="1"
       d="m 12.564735,12.659526 -0.84711,0.09231 1.624473,-1.18166 0.702886,0.445322 -0.833902,0.72848 0.05651,0.18409 z"
       inkscape:transform-center-x="0.083603147"
       inkscape:transform-center-y="0.23097364"
       transform="translate(-5.542737,1.2741924)" />
    <path
       sodipodi:type="star"
       style="fill:#c87137;fill-opacity:1;stroke:none"
       id="path3930"
       sodipodi:sides="6"
       sodipodi:cx="10.703216"
       sodipodi:cy="11.189924"
       sodipodi:r1="0.57427078"
       sodipodi:r2="0.49733308"
       sodipodi:arg1="2.5535901"
       sodipodi:arg2="3.0771888"
       inkscape:flatsided="true"
       inkscape:rounded="0"
       inkscape:randomized="1"
       d="m 10.015442,11.831157 -0.2162644,-1.366639 0.3412054,0.08769 1.190106,0.806119 -0.300804,-0.402159 0.175863,0.532567 z"
       inkscape:transform-center-x="0.13838241"
       inkscape:transform-center-y="-0.042086559"
       transform="translate(-2.9624974,-0.79637026)" />
    <path
       sodipodi:type="star"
       style="fill:#803300;fill-opacity:1;stroke:none"
       id="path3932"
       sodipodi:sides="6"
       sodipodi:cx="6.2435427"
       sodipodi:cy="12.750809"
       sodipodi:r1="0.88106054"
       sodipodi:r2="0.76302081"
       sodipodi:arg1="2.2794226"
       sodipodi:arg2="2.8030214"
       inkscape:flatsided="true"
       inkscape:rounded="0"
       inkscape:randomized="1"
       d="m 4.8058649,13.071343 0.8641363,-0.106987 -0.248905,-0.60539 1.8061064,0.219526 -0.7691416,0.920317 0.1539103,-0.20794 z"
       inkscape:transform-center-x="0.22700892"
       inkscape:transform-center-y="0.17807892"
       transform="translate(1.4653213,-0.47782216)" />
    <path
       sodipodi:type="star"
       style="fill:#c87137;fill-opacity:1;stroke:none"
       id="path3934"
       sodipodi:sides="6"
       sodipodi:cx="3.1854811"
       sodipodi:cy="11.126214"
       sodipodi:r1="1.1262376"
       sodipodi:r2="0.97535038"
       sodipodi:arg1="-2.3561945"
       sodipodi:arg2="-1.8325957"
       inkscape:flatsided="true"
       inkscape:rounded="0"
       inkscape:randomized="1"
       d="M 3.4249054,10.759882 2.6552439,9.6625286 5.328969,11.490058 3.1527675,12.610067 1.7913831,12.494604 1.2486677,11.630485 z"
       inkscape:transform-center-x="-0.034763432"
       inkscape:transform-center-y="0.010083785"
       transform="matrix(0.33640713,0,0,1,6.6898921,-0.50967697)" />
    <path
       sodipodi:type="star"
       style="fill:#803300;fill-opacity:1;stroke:none"
       id="path3936"
       sodipodi:sides="6"
       sodipodi:cx="2.3572559"
       sodipodi:cy="14.247985"
       sodipodi:r1="0.36320072"
       sodipodi:r2="0.31454104"
       sodipodi:arg1="2.4805495"
       sodipodi:arg2="3.0041483"
       inkscape:flatsided="true"
       inkscape:rounded="0"
       inkscape:randomized="1"
       d="M 2.1161373,14.772189 1.7314775,14.216164 1.9921594,13.803593 2.3895458,14.288076 2.7742057,14.1177 2.0749734,14.506845 z"
       inkscape:transform-center-x="0.10441435"
       inkscape:transform-center-y="0.039906333"
       transform="translate(5.4471726,0.57338659)" />
    <path
       sodipodi:type="star"
       style="fill:#c87137;fill-opacity:1;stroke:none"
       id="path3938"
       sodipodi:sides="6"
       sodipodi:cx="9.8749914"
       sodipodi:cy="15.331049"
       sodipodi:r1="0.5146302"
       sodipodi:r2="0.44568285"
       sodipodi:arg1="-2.7610863"
       sodipodi:arg2="-2.2374875"
       inkscape:flatsided="true"
       inkscape:rounded="0"
       inkscape:randomized="1"
       d="m 9.5014364,15.033215 0.4234777,-0.350469 -0.1072797,0.668811 0.9618716,0.54586 -0.423478,0.350468 -0.9219808,-0.66881 z"
       inkscape:transform-center-x="-0.23178496"
       inkscape:transform-center-y="0.13426678"
       transform="translate(-2.8987877,-0.44596738)" />
    <path
       transform="translate(-0.67453238,-1.9365185)"
       sodipodi:type="star"
       style="fill:#71c837;fill-opacity:1;stroke:none"
       id="path3984"
       sodipodi:sides="12"
       sodipodi:cx="7.931848"
       sodipodi:cy="7.4629107"
       sodipodi:r1="4.1017323"
       sodipodi:r2="3.9619689"
       sodipodi:arg1="-2.3891496"
       sodipodi:arg2="-2.1273502"
       inkscape:flatsided="true"
       inkscape:rounded="0.25"
       inkscape:randomized="0.25"
       d="M 4.6976903,4.3361336 C 5.1574085,4.0695771 5.5801143,3.0450569 6.0229981,2.6961423 6.465882,2.3472276 8.0356396,2.5919955 8.4931807,2.747587 c 0.4575411,0.1555916 2.1773103,0.84373 2.5052603,1.1835298 0.32795,0.3397998 0.29067,1.590045 0.439778,2.0552857 0.149109,0.4652407 1.589645,2.1697808 1.401074,2.6658634 C 12.650722,9.1483484 11.288934,9.2592438 10.91945,9.5518448 10.549966,9.8444457 10.18478,11.800561 9.7046697,11.911359 9.2245591,12.022156 6.8478281,11.884168 6.4217576,11.69897 5.9956871,11.513773 6.3104884,9.7769923 5.856803,9.5688361 5.4031177,9.36068 3.618926,9.9758223 3.3661582,9.5644166 3.1133905,9.1530109 4.5877026,7.692413 4.8287133,7.2865787 5.069724,6.8807444 4.2379721,4.6026902 4.6976903,4.3361336 z"
       inkscape:transform-center-x="-0.16485508"
       inkscape:transform-center-y="-0.22839803" />
    <path
       transform="translate(-0.67453238,-1.9365185)"
       sodipodi:type="star"
       style="fill:#66ff00;fill-opacity:1;stroke:none"
       id="path4018"
       sodipodi:sides="12"
       sodipodi:cx="8.8237829"
       sodipodi:cy="6.8576694"
       sodipodi:r1="0.77046508"
       sodipodi:r2="0.74421209"
       sodipodi:arg1="2.0899424"
       sodipodi:arg2="2.3517418"
       inkscape:flatsided="true"
       inkscape:rounded="0.25"
       inkscape:randomized="0.25"
       d="M 8.3778962,7.4644264 C 8.3074247,7.4129614 8.4161981,7.2939373 8.3439316,7.2179242 8.2716652,7.141911 8.1486428,7.0133618 8.1235304,6.9239454 8.0984181,6.834529 8.2217757,6.521351 8.2362292,6.4249103 8.2506827,6.3284696 8.3190849,6.3383737 8.3993416,6.2651012 8.4795983,6.1918287 8.8519247,6.1833543 8.9524016,6.2236571 9.0528786,6.2639599 9.206393,5.9956746 9.2943862,6.0448633 9.3823794,6.094052 9.484974,6.1886341 9.5229385,6.2826076 9.5609031,6.376581 9.688578,6.697599 9.7225721,6.7840097 9.7565662,6.8704205 9.6321731,7.0232164 9.5891057,7.1052357 9.5460382,7.187255 9.1408642,7.3339018 9.0611319,7.4095744 8.9813996,7.4852469 8.8203015,7.6410992 8.7198807,7.6708652 8.6194599,7.7006311 8.4483676,7.5158915 8.3778962,7.4644264 z"
       inkscape:transform-center-x="-0.10049342"
       inkscape:transform-center-y="-0.0012158296" />
    <path
       transform="translate(-0.67453238,-1.9365185)"
       sodipodi:type="star"
       style="fill:#66ff00;fill-opacity:1;stroke:none"
       id="path4028"
       sodipodi:sides="12"
       sodipodi:cx="8.4733801"
       sodipodi:cy="3.6721883"
       sodipodi:r1="1.3514853"
       sodipodi:r2="1.3054343"
       sodipodi:arg1="-1.7126934"
       sodipodi:arg2="-1.450894"
       inkscape:flatsided="true"
       inkscape:rounded="0.25"
       inkscape:randomized="0.25"
       d="M 8.1833811,2.5329483 C 8.3287162,2.4687034 8.5641674,2.0954629 8.7088627,2.2237275 8.8535581,2.3519922 9.7427392,2.6162157 9.795033,2.7976166 9.8473267,2.9790175 9.5670666,3.2912195 9.5732766,3.4606521 9.5794866,3.6300847 9.933924,3.8129915 9.8944973,3.9910377 9.8550707,4.1690838 9.268241,4.7929525 9.1472485,4.8884725 9.026256,4.9839924 8.5383424,5.1456607 8.3451747,5.1504374 8.1520071,5.1552142 7.9458369,4.8826832 7.8203777,4.7674703 7.6949185,4.6522574 7.5611267,4.9231696 7.4092546,4.8109476 7.2573826,4.6987257 6.907636,3.8398489 6.8831171,3.6573141 6.8585982,3.4747793 7.2292019,3.162259 7.3104857,3.0001602 7.3917696,2.8380613 7.1940476,2.5512619 7.3455632,2.4665701 7.4970788,2.3818784 8.038046,2.5971932 8.1833811,2.5329483 z"
       inkscape:transform-center-x="0.083623917"
       inkscape:transform-center-y="0.0016083856" />
  </g>
</svg>
