<?xml version="1.0" encoding="UTF-8" standalone="no"?>
<!-- Created with Inkscape (http://www.inkscape.org/) -->

<svg
   xmlns:dc="http://purl.org/dc/elements/1.1/"
   xmlns:cc="http://creativecommons.org/ns#"
   xmlns:rdf="http://www.w3.org/1999/02/22-rdf-syntax-ns#"
   xmlns:svg="http://www.w3.org/2000/svg"
   xmlns="http://www.w3.org/2000/svg"
   xmlns:sodipodi="http://sodipodi.sourceforge.net/DTD/sodipodi-0.dtd"
   xmlns:inkscape="http://www.inkscape.org/namespaces/inkscape"
   width="64"
   height="32"
   id="svg9174"
   version="1.1"
   inkscape:version="0.48.4 r9939"
   sodipodi:docname="armorLayer1.svg">
  <defs
     id="defs9176" />
  <sodipodi:namedview
     id="base"
     pagecolor="#ffffff"
     bordercolor="#666666"
     borderopacity="1.0"
     inkscape:pageopacity="0.0"
     inkscape:pageshadow="2"
     inkscape:zoom="11"
     inkscape:cx="28.761713"
     inkscape:cy="14.644723"
     inkscape:current-layer="layer1"
     showgrid="true"
     inkscape:document-units="px"
     inkscape:grid-bbox="true"
     width="16px"
     inkscape:window-width="1366"
     inkscape:window-height="742"
     inkscape:window-x="-4"
     inkscape:window-y="-4"
     inkscape:window-maximized="1" />
  <metadata
     id="metadata9179">
    <rdf:RDF>
      <cc:Work
         rdf:about="">
        <dc:format>image/svg+xml</dc:format>
        <dc:type
           rdf:resource="http://purl.org/dc/dcmitype/StillImage" />
        <dc:title></dc:title>
      </cc:Work>
    </rdf:RDF>
  </metadata>
  <g
     id="layer1"
     inkscape:label="Layer 1"
     inkscape:groupmode="layer"
     transform="translate(0,-31.999963)">
    <path
       style="fill:#b3b3b3;stroke:none;stroke-width:1px;stroke-linecap:butt;stroke-linejoin:miter;stroke-opacity:1"
       d="m 7.9067395,0.0194887 7.9870925,0 0,8.051375 15.974185,-0.064283 0,6.0104083 -1.960614,0 0,0.964236 -3.969441,0 0,-0.980307 -2.024896,0 0,-0.996378 -4.001582,0 0,-0.996378 -5.0301,0 0,-1.012449 -5.9782668,0 0,1.028519 -4.9818887,0 0,0.964237 -3.9212285,0 0,-4.9818883 7.9388807,0 z"
       id="path9197"
       inkscape:connector-curvature="0"
       transform="translate(0,31.999963)" />
    <path
       style="fill:#b3b3b3;stroke:none;stroke-width:1px;stroke-linecap:butt;stroke-linejoin:miter;stroke-opacity:1"
       d="m -0.04545455,32.022727 15.99999955,0 0,-3.068182 5.022728,0 0,1.045455 1,0 0,1 4,0 0,-1.022727 0.977272,0 0,-1 6.045455,0 L 33,30 l 6,0 0,-0.977273 1,0 0,-3.068182 16.045455,0 0,-6 -8.090909,0 0,-3.954545 L 44,16 l 0,4.045455 -6.045455,0 0,0.954545 -4.045454,0 0,-1.045455 -8.045455,0 0,1 -0.909091,0 0,1.09091 -2,0 0,-1.045455 -1,0 0,-0.954545 -6,0 0,5.954545 -15.99999955,0 z"
       id="path9199"
       inkscape:connector-curvature="0"
       transform="translate(0,31.999963)" />
    <rect
       style="fill:#b3b3b3;fill-opacity:1;stroke:none"
       id="rect9201"
       width="4"
       height="3.9545455"
       x="7.9545455"
       y="16.045454"
       transform="translate(0,31.999963)" />
    <path
       style="fill:#999999;stroke:none"
       d="m 3.8863636,44.931781 4.9772728,-0.931818 -4.9772728,0 z"
       id="path9203"
       inkscape:connector-curvature="0" />
    <path
       style="fill:#808080;stroke:none;stroke-width:1px;stroke-linecap:butt;stroke-linejoin:miter;stroke-opacity:1"
       d="m 8.9090909,12.022727 1.0340909,-1.034091 -1.0340909,0 z"
       id="path9205"
       inkscape:connector-curvature="0"
       transform="translate(0,31.999963)" />
    <path
       style="fill:#808080;stroke:none"
       d="m 14.892046,44.039735 -1.147727,-1.034091 1.147727,0 z"
       id="path9205-7"
       inkscape:connector-curvature="0" />
    <path
       style="fill:#999999;stroke:none"
       d="m 19.897727,44.920418 -5.045455,-0.931818 5.045455,0 z"
       id="path9203-7"
       inkscape:connector-curvature="0" />
    <path
       style="fill:#666666;stroke:none;stroke-width:1px;stroke-linecap:butt;stroke-linejoin:miter;stroke-opacity:1"
       d="m 19.909091,13 3.977273,0.977273 0,-1 z"
       id="path9243"
       inkscape:connector-curvature="0"
       transform="translate(0,31.999963)" />
    <path
       style="fill:#666666;stroke:none"
       d="m 23.852273,46.02269 2.068182,0.977273 0,-1 z"
       id="path9243-0"
       inkscape:connector-curvature="0" />
    <path
       style="fill:#999999;stroke:none"
       d="m 29.875,46.9886 1.999999,-0.977273 -1.999999,0 z"
       id="path9203-9"
       inkscape:connector-curvature="0" />
    <rect
       style="fill:#333333;fill-opacity:1;stroke:none"
       id="rect9292"
       width="0.77272725"
       height="11"
       x="11.5"
       y="-3.376887e-008"
       transform="translate(0,31.999963)" />
    <rect
       style="fill:#333333;fill-opacity:1;stroke:none"
       id="rect9294"
       width="31.863636"
       height="0.68181819"
       x="0"
       y="8.818182"
       transform="translate(0,31.999963)" />
    <rect
       style="fill:#333333;fill-opacity:1;stroke:none"
       id="rect9296"
       width="15.909091"
       height="1.3181819"
       x="0"
       y="30.772728"
       transform="translate(0,31.999963)" />
    <rect
       style="fill:#333333;fill-opacity:1;stroke:none"
       id="rect9298"
       width="15.909091"
       height="0.77272725"
       x="-0.045454547"
       y="28.09091"
       transform="translate(0,31.999963)" />
    <rect
       style="fill:#333333;fill-opacity:1;stroke:none"
       id="rect9306"
       width="2"
       height="8.954545"
       x="22.954546"
       y="22.045454"
       transform="translate(0,31.999963)" />
    <rect
       style="fill:#333333;fill-opacity:1;stroke:none"
       id="rect9308"
       width="4.090909"
       height="9.045455"
       x="33.863636"
       y="20.954546"
       transform="translate(0,31.999963)" />
    <path
       style="fill:#999999;stroke:none"
       d="m 21.841894,52.068145 1.05521,0.954545 0.557244,1 0.995928,0.01136 0.545388,-1.056818 0.924791,-1.011364 0,1.011364 -0.936646,0 0,1.068182 -2.062993,0 0,-1.011364 -1.102634,0 z"
       id="path9310"
       inkscape:connector-curvature="0" />
    <path
       style="fill:#999999;stroke:none;stroke-width:1px;stroke-linecap:butt;stroke-linejoin:miter;stroke-opacity:1"
       d="m 33.876843,19.914902 0.899954,1.028519 2.185603,0 0.964236,-0.964236 0,0.964236 -4.017652,0 z"
       id="path9312"
       inkscape:connector-curvature="0"
       transform="translate(0,31.999963)" />
    <path
       style="fill:#4d4d4d;stroke:none;stroke-width:1px;stroke-linecap:butt;stroke-linejoin:miter;stroke-opacity:1"
       d="m 39.983674,29.043008 -0.964236,0.964237 -0.642824,0.707106 -4.403347,0 -0.964237,-0.707106 -1.767767,-1.028519 -2.828427,0 -1.510637,0.996377 -0.932095,0.996378 -0.578542,0.385695 -2.732004,0 -0.674965,-0.353554 -0.964237,-0.996377 -5.078312,-1.060661 5.046171,0 0,1.060661 0.964236,0 0,0.996377 4.017653,0 0,-1.028519 0.964236,0 0,-1.028519 6.138973,0 0,1.060661 5.946125,0 0,-0.964237 z"
       id="path9314"
       inkscape:connector-curvature="0"
       transform="translate(0,31.999963)" />
    <rect
       style="fill:#4d4d4d;fill-opacity:1;stroke:none"
       id="rect9316"
       width="3.3748279"
       height="3.5355339"
       x="44.258457"
       y="16.250803"
       transform="translate(0,31.999963)" />
    <rect
       style="fill:#4d4d4d;fill-opacity:1;stroke:none"
       id="rect9318"
       width="11.345851"
       height="0.41783583"
       x="39.983677"
       y="25.507475"
       transform="translate(0,31.999963)" />
    <path
       sodipodi:type="star"
       style="fill:#ffffff;fill-opacity:1;stroke:none"
       id="path9369"
       sodipodi:sides="12"
       sodipodi:cx="31.090909"
       sodipodi:cy="21.454545"
       sodipodi:r1="0.92709446"
       sodipodi:r2="0.89550448"
       sodipodi:arg1="1.7681919"
       sodipodi:arg2="2.0299913"
       inkscape:flatsided="true"
       inkscape:rounded="0.02"
       inkscape:randomized="0.25"
       d="m 30.802368,22.524514 c -0.0099,-0.0026 -0.458906,-0.51261 -0.466727,-0.518764 -0.0078,-0.0062 -0.189241,-0.03168 -0.189122,-0.04209 1.18e-4,-0.0104 -0.187729,-0.78908 -0.183373,-0.797856 0.0044,-0.0088 0.508554,-0.360856 0.514904,-0.367282 0.0064,-0.0064 0.249618,-0.06407 0.257888,-0.06955 0.0083,-0.0055 0.720502,-0.06358 0.729024,-0.05992 0.0085,0.0037 0.432932,0.257934 0.441261,0.264762 0.0083,0.0068 0.210244,0.299812 0.214118,0.307367 0.0039,0.0076 -0.09836,0.309472 -0.09648,0.31936 0.0019,0.0099 -0.232098,0.322551 -0.235055,0.330905 -0.003,0.0084 -0.274576,0.31783 -0.282877,0.319138 -0.0083,0.0013 -0.693634,0.316506 -0.703557,0.313917 z"
       transform="translate(0,31.999963)"
       inkscape:transform-center-x="0.049185941"
       inkscape:transform-center-y="0.14217005" />
    <path
       sodipodi:type="star"
       style="fill:#ffffff;fill-opacity:1;stroke:none"
       id="path9371"
       sodipodi:sides="12"
       sodipodi:cx="20.272727"
       sodipodi:cy="21.909091"
       sodipodi:r1="1.0946904"
       sodipodi:r2="1.0573897"
       sodipodi:arg1="2.4149503"
       sodipodi:arg2="2.6767497"
       inkscape:flatsided="true"
       inkscape:rounded="0.02"
       inkscape:randomized="0.25"
       d="m 19.639224,22.372178 c -0.01086,-0.006 -0.327642,-0.501755 -0.326666,-0.512598 9.76e-4,-0.01084 -0.0051,-0.3921 4.93e-4,-0.402565 0.0056,-0.01046 0.31973,-0.225085 0.324916,-0.233775 0.0052,-0.0087 0.581598,-0.176825 0.591932,-0.178868 0.01033,-0.002 0.610132,0.08725 0.622084,0.08679 0.01195,-4.61e-4 0.0081,0.02379 0.01459,0.03167 0.0065,0.0079 0.328368,0.452881 0.326102,0.465315 -0.0023,0.01243 0.216,0.493819 0.216421,0.506122 4.21e-4,0.0123 -0.347953,0.504161 -0.353869,0.515166 -0.0059,0.011 -0.520684,0.07271 -0.532926,0.07619 -0.01224,0.0035 -0.610313,-0.02202 -0.622075,-0.02619 -0.01176,-0.0042 -0.250149,-0.321278 -0.261007,-0.327255 z"
       transform="translate(0,31.999963)"
       inkscape:transform-center-x="-0.087142238"
       inkscape:transform-center-y="0.042805959" />
    <path
       sodipodi:type="star"
       style="fill:#ffffff;fill-opacity:1;stroke:none"
       id="path9373"
       sodipodi:sides="12"
       sodipodi:cx="13.909091"
       sodipodi:cy="10.363636"
       sodipodi:r1="0.36363636"
       sodipodi:r2="0.35124576"
       sodipodi:arg1="3.1415927"
       sodipodi:arg2="3.403392"
       inkscape:flatsided="true"
       inkscape:rounded="0.02"
       inkscape:randomized="0.25"
       d="m 13.486688,10.293421 c -0.001,-0.0041 0.131374,-0.04755 0.132501,-0.05091 0.0011,-0.0034 0.105092,-0.221467 0.10806,-0.22352 0.003,-0.0021 0.237102,-0.070099 0.240657,-0.07115 0.0036,-0.00105 0.0563,0.1666547 0.05878,0.1691057 0.0025,0.0024 0.117106,0.08036 0.117961,0.08381 8.54e-4,0.0034 0.12134,0.103028 0.122735,0.106755 0.0014,0.0037 -0.122062,0.292459 -0.122703,0.296513 -6.41e-4,0.0041 -0.114857,0.136661 -0.117861,0.1396 -0.003,0.0029 -0.05523,0.05186 -0.05884,0.05102 -0.0036,-8.39e-4 -0.238054,-0.146741 -0.240596,-0.148974 -0.0025,-0.0022 -0.105899,-0.178295 -0.108158,-0.181706 -0.0023,-0.0034 -0.1315,-0.166449 -0.132534,-0.170544 z"
       transform="translate(0,31.999963)"
       inkscape:transform-center-x="0.032052969"
       inkscape:transform-center-y="0.0076117669" />
  </g>
</svg>
