<?xml version="1.0" encoding="UTF-8" standalone="no"?>
<!-- Created with Inkscape (http://www.inkscape.org/) -->

<svg
   xmlns:dc="http://purl.org/dc/elements/1.1/"
   xmlns:cc="http://creativecommons.org/ns#"
   xmlns:rdf="http://www.w3.org/1999/02/22-rdf-syntax-ns#"
   xmlns:svg="http://www.w3.org/2000/svg"
   xmlns="http://www.w3.org/2000/svg"
   xmlns:sodipodi="http://sodipodi.sourceforge.net/DTD/sodipodi-0.dtd"
   xmlns:inkscape="http://www.inkscape.org/namespaces/inkscape"
   width="16px"
   height="16px"
   id="svg2985"
   version="1.1"
   inkscape:version="0.48.4 r9939"
   sodipodi:docname="crop_stage_7.svg"
   inkscape:export-filename="C:\Users\Owen\Desktop\TheVectorPack\assets\minecraft\textures\blocks\wheat_stage_7.png"
   inkscape:export-xdpi="360"
   inkscape:export-ydpi="360">
  <defs
     id="defs2987">
    <inkscape:path-effect
       effect="spiro"
       id="path-effect4398"
       is_visible="true" />
    <inkscape:path-effect
       effect="spiro"
       id="path-effect4394"
       is_visible="true" />
    <inkscape:path-effect
       effect="spiro"
       id="path-effect4369"
       is_visible="true" />
    <inkscape:path-effect
       effect="spiro"
       id="path-effect4365"
       is_visible="true" />
    <inkscape:path-effect
       effect="spiro"
       id="path-effect4361"
       is_visible="true" />
    <inkscape:path-effect
       effect="spiro"
       id="path-effect4357"
       is_visible="true" />
    <inkscape:perspective
       sodipodi:type="inkscape:persp3d"
       inkscape:vp_x="0 : 8 : 1"
       inkscape:vp_y="0 : 1000 : 0"
       inkscape:vp_z="16 : 8 : 1"
       inkscape:persp3d-origin="8 : 5.3333333 : 1"
       id="perspective3043" />
    <inkscape:path-effect
       effect="spiro"
       id="path-effect4369-0"
       is_visible="true" />
  </defs>
  <sodipodi:namedview
     id="base"
     pagecolor="#ffffff"
     bordercolor="#666666"
     borderopacity="1.0"
     inkscape:pageopacity="0.0"
     inkscape:pageshadow="2"
     inkscape:zoom="31.392433"
     inkscape:cx="8.7752875"
     inkscape:cy="8.91117"
     inkscape:current-layer="layer1"
     showgrid="true"
     inkscape:grid-bbox="true"
     inkscape:document-units="px"
     inkscape:snap-page="true"
     inkscape:window-width="1366"
     inkscape:window-height="742"
     inkscape:window-x="-4"
     inkscape:window-y="-4"
     inkscape:window-maximized="1" />
  <metadata
     id="metadata2990">
    <rdf:RDF>
      <cc:Work
         rdf:about="">
        <dc:format>image/svg+xml</dc:format>
        <dc:type
           rdf:resource="http://purl.org/dc/dcmitype/StillImage" />
        <dc:title></dc:title>
      </cc:Work>
    </rdf:RDF>
  </metadata>
  <g
     id="layer1"
     inkscape:label="Layer 1"
     inkscape:groupmode="layer">
    <path
       style="fill:#f5d13d;fill-opacity:1;stroke:none"
       d="m 10.735071,6.6028309 c -0.01598,-0.0041 -0.03335,-0.00256 -0.04836,0.00428 -0.01501,0.00685 -0.02756,0.018953 -0.03493,0.033708 -0.0074,0.014755 -0.0095,0.032057 -0.006,0.048172 0.0035,0.016115 0.01272,0.030932 0.02559,0.041255 0.01689,0.013551 0.04002,0.018974 0.06118,0.014342 0.02116,-0.00463 0.03991,-0.019224 0.04959,-0.038594 0.0097,-0.01937 0.01011,-0.043125 0.0011,-0.062828 -0.009,-0.019703 -0.0272,-0.034955 -0.04818,-0.040339 -0.02345,-0.00602 -0.04894,1.877e-4 -0.0694,0.013132 -0.02046,0.012944 -0.03635,0.032093 -0.04909,0.052678 -0.02549,0.04117 -0.04004,0.089508 -0.07264,0.1253188 -0.02421,0.026605 -0.05672,0.044276 -0.09003,0.05786 -0.03331,0.013585 -0.06802,0.023576 -0.101102,0.037704 -0.07067,0.030181 -0.131989,0.078346 -0.191129,0.1274197 C 9.9764137,7.1706783 9.8034745,7.3387113 9.6201527,7.4947656 9.5227432,7.5776863 9.4221725,7.6574389 9.3334594,7.7496041 9.2447691,7.8417456 9.168701,7.9455141 9.0786209,8.0362974 9.0045181,8.1109786 8.9209878,8.1768322 8.8556373,8.2592811 8.798859,8.3309149 8.7568958,8.4137742 8.6963632,8.4822648 8.6466117,8.538557 8.585333,8.5839492 8.5370892,8.6415388 c -0.043742,0.052215 -0.076459,0.1140774 -0.1274193,0.1592741 -0.011303,0.010025 -0.023401,0.019127 -0.034657,0.029205 -0.011255,0.010079 -0.021761,0.021273 -0.029053,0.034505 -0.00577,0.010464 -0.00939,0.021944 -0.013759,0.033064 -0.00437,0.01112 -0.00968,0.022169 -0.018096,0.030646 -0.00535,0.00539 -0.011791,0.00956 -0.017703,0.014334 -0.00591,0.00477 -0.011475,0.010409 -0.014152,0.017521 -0.00191,0.00506 -0.00224,0.01061 -0.00177,0.016001 4.667e-4,0.00539 0.0017,0.010681 0.00284,0.01597 0.00114,0.00529 0.0022,0.010633 0.0023,0.016043 1.008e-4,0.00541 -7.997e-4,0.010936 -0.00337,0.015696 -0.00361,0.00668 -0.01009,0.011223 -0.016262,0.015644 -0.00309,0.00221 -0.00616,0.00446 -0.0089,0.00709 -0.00274,0.00263 -0.00515,0.00566 -0.00669,0.00912 -0.00218,0.00492 -0.00251,0.010477 -0.0021,0.015845 4.112e-4,0.00537 0.00153,0.010657 0.0021,0.01601 0.00215,0.019934 -0.00332,0.04027 -0.013373,0.057616 -0.010056,0.017346 -0.024506,0.031854 -0.04058,0.043838 -0.032147,0.023968 -0.070436,0.038049 -0.1053214,0.05782 -0.00669,0.00379 -0.013313,0.00783 -0.019024,0.012992 -0.00571,0.00516 -0.01051,0.011527 -0.012831,0.018863 -0.00324,0.010232 -0.00144,0.021288 2.964e-4,0.031879 0.00173,0.010591 0.00332,0.021727 -2.964e-4,0.031831 -0.00197,0.0055 -0.00541,0.010395 -0.00956,0.014498 -0.00415,0.0041 -0.00901,0.00744 -0.014086,0.010322 -0.010154,0.00576 -0.021247,0.00977 -0.031232,0.015826 -0.00499,0.00303 -0.00971,0.00658 -0.013623,0.010908 -0.00391,0.00433 -0.00701,0.00948 -0.0085,0.015126 -0.00149,0.00564 -0.00131,0.011798 9.767e-4,0.017169 0.00229,0.00537 0.00677,0.00987 0.012313,0.011716 0.00506,0.00169 0.010558,0.00121 0.015873,7.483e-4 0.00532,-4.626e-4 0.010646,-7.483e-4 0.015982,-7.483e-4 l 0.031855,0 c 0.038661,0 0.077022,-0.00578 0.1145847,-0.01493 0.018781,-0.00457 0.037903,-0.00896 0.057217,-0.00816 0.00966,4.023e-4 0.019319,0.00216 0.028232,0.0059 0.00891,0.00374 0.017067,0.00952 0.02295,0.017184 0.00477,0.00622 0.00796,0.013524 0.012603,0.019842 0.00232,0.00316 0.00503,0.00608 0.00827,0.00828 0.00324,0.0022 0.00706,0.00365 0.010982,0.00373 0.00565,1.135e-4 0.010942,-0.00256 0.016438,-0.0039 0.00275,-6.668e-4 0.00563,-9.985e-4 0.0084,-4.673e-4 0.00278,5.312e-4 0.00545,0.002 0.00701,0.00436 0.00154,0.00232 0.00186,0.00528 0.0015,0.00804 -3.608e-4,0.00276 -0.00135,0.00539 -0.00226,0.00802 -9.168e-4,0.00263 -0.00178,0.00532 -0.00187,0.00811 -4.53e-5,0.00139 1.06e-4,0.0028 5.301e-4,0.00412 4.241e-4,0.00133 0.00113,0.00257 0.0021,0.00356 9.604e-4,9.731e-4 0.00217,0.00168 0.00346,0.00214 0.00129,4.583e-4 0.00266,6.704e-4 0.00402,7.168e-4 0.00273,9.27e-5 0.00544,-4.504e-4 0.00812,-0.00102 0.00535,-0.00113 0.010788,-0.00184 0.016256,-0.00184 0.010618,0 0.021237,0 0.031855,0 0.06371,0 0.1274193,0 0.1911289,0 0.021237,0 0.042473,0 0.06371,0 0.010636,0 0.021268,3.257e-4 0.03189,8.544e-4 0.010622,5.286e-4 0.021364,0.00109 0.03182,-8.544e-4 0.019013,-0.00354 0.03542,-0.015284 0.050093,-0.02788 0.014674,-0.012596 0.028531,-0.026502 0.045472,-0.03583 0.019261,-0.010606 0.041365,-0.014663 0.063116,-0.017886 0.021751,-0.00322 0.043873,-0.00584 0.064303,-0.013969 0.024776,-0.00986 0.045709,-0.02729 0.065463,-0.045202 0.019754,-0.017912 0.039021,-0.03676 0.061956,-0.050363 0.024674,-0.014635 0.052615,-0.02262 0.080105,-0.030823 0.02749,-0.0082 0.055302,-0.01697 0.079169,-0.032887 0.03757,-0.025056 0.061945,-0.065413 0.095564,-0.095564 0.028546,-0.025601 0.06311,-0.043291 0.095565,-0.06371 0.064876,-0.040816 0.1224727,-0.093344 0.1911288,-0.1274193 0.042629,-0.021158 0.089367,-0.03513 0.1274193,-0.06371 0.024057,-0.018069 0.04366,-0.041277 0.06371,-0.06371 0.045678,-0.051106 0.096332,-0.100277 0.1592738,-0.1274193 0.030849,-0.013303 0.063802,-0.020926 0.09557,-0.031855 0.03178,-0.010934 0.0626,-0.025246 0.09556,-0.031855 0.03651,-0.00732 0.07417,-0.00521 0.111349,-0.00322 0.03718,0.00199 0.0744,0.00322 0.111635,0.00322 l 0.03186,0 c 0.0054,0 0.01082,5.868e-4 0.01615,0.00153 0.0027,4.702e-4 0.0054,9.218e-4 0.0081,8.499e-4 0.0027,-7.2e-5 0.0055,-7.23e-4 0.0076,-0.00238 0.0022,-0.00171 0.0036,-0.00438 0.0041,-0.00714 5.06e-4,-0.00276 2.22e-4,-0.00561 -3.8e-4,-0.00835 -0.0012,-0.00548 -0.0037,-0.010753 -0.0037,-0.016363 -2.1e-5,-0.00397 0.0012,-0.0079 0.0032,-0.011327 0.002,-0.00342 0.0048,-0.00636 0.0079,-0.00884 0.0062,-0.00496 0.01363,-0.0081 0.02073,-0.011683 0.03393,-0.017143 0.06169,-0.045928 0.07842,-0.08007 0.01673,-0.034142 0.02247,-0.073416 0.01714,-0.1110591 -7.54e-4,-0.00532 -0.0017,-0.01062 -0.002,-0.015984 -2.95e-4,-0.00536 1.08e-4,-0.010849 0.002,-0.015871 0.0027,-0.0071 0.0082,-0.012776 0.0141,-0.017582 0.0059,-0.00481 0.01231,-0.00898 0.01776,-0.014273 0.0086,-0.00834 0.01441,-0.019125 0.01901,-0.030178 0.0046,-0.011054 0.0081,-0.022542 0.01285,-0.033532 0.0094,-0.021815 0.02362,-0.041421 0.03186,-0.06371 0.0076,-0.020644 0.0099,-0.042808 0.01305,-0.064586 0.0032,-0.021778 0.0075,-0.043926 0.01881,-0.062833 0.01,-0.016725 0.02474,-0.02993 0.03769,-0.044468 0.0065,-0.00727 0.01256,-0.014957 0.01727,-0.023473 0.0047,-0.00852 0.008,-0.017914 0.0087,-0.027623 7.77e-4,-0.010728 -0.0016,-0.021391 -0.003,-0.032056 -0.0014,-0.010665 -0.0017,-0.021985 0.003,-0.031654 0.0033,-0.0068 0.0088,-0.012245 0.01464,-0.017099 0.0058,-0.00485 0.01199,-0.00928 0.01721,-0.014756 0.0082,-0.00865 0.0137,-0.019547 0.01822,-0.030598 0.0045,-0.011051 0.0082,-0.022455 0.01364,-0.033111 0.0054,-0.010665 0.01238,-0.020432 0.01854,-0.030677 0.0062,-0.010244 0.01157,-0.021212 0.01332,-0.033034 0.0016,-0.010553 1.67e-4,-0.02129 -9.28e-4,-0.031903 -0.0011,-0.010613 -0.0019,-0.021508 9.28e-4,-0.031807 0.004,-0.014781 0.0149,-0.026743 0.02687,-0.036302 0.01196,-0.00956 0.02531,-0.017339 0.03684,-0.027408 0.01815,-0.015841 0.03119,-0.036839 0.04083,-0.058918 0.0096,-0.022079 0.01609,-0.045387 0.02288,-0.068501 0.02029,-0.069046 0.04536,-0.1395656 0.09556,-0.1911288 0.01048,-0.010763 0.02195,-0.020571 0.03186,-0.031855 0.01748,-0.019893 0.02971,-0.043925 0.0388,-0.0688 0.0091,-0.024875 0.01515,-0.050725 0.02152,-0.076429 0.0064,-0.025704 0.01309,-0.051437 0.02339,-0.075833 0.0103,-0.024396 0.02435,-0.047561 0.04371,-0.065632 0.01102,-0.010287 0.02386,-0.019079 0.03186,-0.031855 0.0057,-0.00918 0.0086,-0.019947 0.0095,-0.030742 8.65e-4,-0.010794 -2.14e-4,-0.021658 -0.0019,-0.032351 -0.0034,-0.021385 -0.0094,-0.042747 -0.0076,-0.064327 4.55e-4,-0.00534 0.0014,-0.010637 0.0017,-0.015986 3.53e-4,-0.00535 1.01e-4,-0.010835 -0.0017,-0.015869 -0.0015,-0.00421 -0.0042,-0.00799 -0.0075,-0.011034 -0.0033,-0.00304 -0.0072,-0.00535 -0.01145,-0.00689 -0.0084,-0.00308 -0.01773,-0.00309 -0.02653,-0.00135 -0.01759,0.00349 -0.03312,0.013565 -0.05012,0.01927 -0.0052,0.00174 -0.01054,0.00308 -0.016,0.0033 -0.0055,2.238e-4 -0.01104,-7.118e-4 -0.01586,-0.0033 -0.0067,-0.00359 -0.01131,-0.00997 -0.01578,-0.016101 -0.0045,-0.00613 -0.0093,-0.012436 -0.01607,-0.015754 -0.0041,-0.00197 -0.0086,-0.00276 -0.01315,-0.00263 -0.0045,1.337e-4 -0.009,0.00116 -0.01322,0.00266 -0.0085,0.003 -0.01623,0.00785 -0.0244,0.011679 -0.0082,0.00383 -0.01722,0.00668 -0.02614,0.00529 -0.0045,-6.981e-4 -0.0088,-0.00249 -0.01221,-0.00544 -0.0034,-0.00295 -0.0059,-0.00709 -0.0064,-0.011563 -7.08e-4,-0.00545 0.0013,-0.010832 0.0025,-0.016203 5.83e-4,-0.00269 9.58e-4,-0.00545 6.74e-4,-0.00818 -2.85e-4,-0.00273 -0.0013,-0.00545 -0.0031,-0.00747 -0.0019,-0.00204 -0.0046,-0.00324 -0.0073,-0.00368 -0.0027,-4.466e-4 -0.0056,-1.862e-4 -0.0083,3.577e-4 -0.0054,0.00109 -0.01073,0.00331 -0.01628,0.00333 -0.004,1.29e-5 -0.0079,-0.00113 -0.01141,-0.00304 -0.0035,-0.00191 -0.0065,-0.00456 -0.0091,-0.00758 -0.0052,-0.00603 -0.0085,-0.013417 -0.01167,-0.020706 -0.0032,-0.00729 -0.0064,-0.014704 -0.01138,-0.020885 -0.0025,-0.00309 -0.0055,-0.00585 -0.0089,-0.0079 -0.0034,-0.00205 -0.0073,-0.00339 -0.01125,-0.00361 -0.0055,-2.944e-4 -0.01078,0.0015 -0.01616,0.00246 -0.0027,4.802e-4 -0.0054,7.531e-4 -0.0082,4.485e-4 -0.0027,-3.046e-4 -0.0054,-0.00122 -0.0075,-0.00291 -0.0022,-0.00177 -0.0038,-0.00433 -0.0046,-0.00707 -7.94e-4,-0.00274 -8.69e-4,-0.00565 -4.98e-4,-0.00848 7.41e-4,-0.00566 0.0032,-0.010917 0.0051,-0.016305 0.0077,-0.022048 0.0053,-0.047372 -0.0062,-0.067643 -0.01158,-0.020271 -0.03221,-0.035141 -0.05511,-0.039719 -0.02289,-0.00458 -0.04766,0.00121 -0.06615,0.015469 -0.01849,0.014256 -0.03039,0.036733 -0.03178,0.060039 l -3.5e-5,4.5e-6"
       id="path4355"
       inkscape:path-effect="#path-effect4357"
       inkscape:original-d="m 10.735071,6.6028309 c -0.02124,0.042473 -0.02124,0.1486558 -0.06371,0.1274193 -0.04247,-0.021237 0.108759,-0.1424358 0.06371,-0.1274193 -0.254838,0.084946 -0.08919,0.123172 -0.191129,0.1911289 -0.05927,0.039511 -0.13005,0.058917 -0.191128,0.095564 -0.06566,0.039395 -0.129383,0.082139 -0.191129,0.1274197 C 9.7646452,7.3081056 9.9759978,7.1598523 9.6201527,7.4947656 9.5270444,7.582397 9.4238707,7.6591928 9.3334594,7.7496041 9.2430481,7.8400154 9.1660703,7.9430181 9.0786209,8.0362974 9.0067281,8.1129831 8.9240455,8.1794714 8.8556373,8.2592811 8.7961928,8.328633 8.7548388,8.412094 8.6963632,8.4822648 c -0.048067,0.05768 -0.1090465,0.1034656 -0.159274,0.159274 -0.045483,0.050537 -0.083172,0.1076521 -0.1274193,0.1592741 -0.019545,0.022803 -0.04569,0.039683 -0.06371,0.06371 -0.014246,0.018994 -0.018684,0.043954 -0.031855,0.06371 -0.00833,0.012494 -0.025139,0.018424 -0.031855,0.031855 -0.00849,0.016988 0.00849,0.046722 0,0.06371 -0.00672,0.013431 -0.025139,0.018424 -0.031855,0.031855 -0.00475,0.0095 0.00589,0.02302 0,0.031855 -0.020982,0.031474 -0.123754,0.1237539 -0.1592741,0.159274 -0.010618,0.010618 -0.025139,0.018424 -0.031855,0.031855 -0.00856,0.017127 0.00856,0.046583 0,0.06371 -0.0091,0.018201 -0.094728,0.064546 -0.06371,0.095565 0.00751,0.00751 0.021237,0 0.031855,0 0.010618,0 0.021236,0 0.031855,0 0.028936,0 0.2023044,-0.00689 0.2229837,0 0.014246,0.00475 0.018424,0.025139 0.031855,0.031855 0.0095,0.00475 0.024347,-0.00751 0.031855,0 0.00751,0.00751 -0.00751,0.024347 0,0.031855 0.00751,0.00751 0.021236,0 0.031855,0 0.010618,0 0.021237,0 0.031855,0 0.06371,0 0.1274193,0 0.1911289,0 0.021236,0 0.042473,0 0.06371,0 0.021237,0 0.043992,0.00789 0.06371,0 0.035547,-0.014219 0.060375,-0.048629 0.095565,-0.06371 0.04024,-0.017246 0.088261,-0.012276 0.1274192,-0.031855 0.047486,-0.023743 0.081009,-0.069781 0.1274192,-0.095565 0.049985,-0.02777 0.1107846,-0.033404 0.1592741,-0.06371 0.038202,-0.023876 0.060956,-0.066724 0.095564,-0.095564 0.029411,-0.024509 0.06371,-0.042473 0.095565,-0.06371 0.06371,-0.042473 0.1246479,-0.08943 0.1911288,-0.1274193 0.04123,-0.02356 0.087908,-0.037369 0.1274193,-0.06371 0.024989,-0.016659 0.042473,-0.042473 0.06371,-0.06371 0.059258,-0.059258 0.078905,-0.087235 0.1592738,-0.1274193 0.03003,-0.015016 0.06371,-0.021236 0.09557,-0.031855 0.03186,-0.010618 0.06244,-0.026335 0.09556,-0.031855 0.04315,-0.00719 0.170236,0 0.222984,0 0.01062,0 0.02124,0 0.03186,0 0.01062,0 0.02435,0.00751 0.03186,0 0.0075,-0.00751 -0.0047,-0.022358 0,-0.031855 0.0067,-0.013431 0.02352,-0.01936 0.03186,-0.031855 0.0168,-0.025207 0.08619,-0.1630059 0.09556,-0.1911289 0.0034,-0.010073 -0.0047,-0.022358 0,-0.031855 0.0067,-0.013431 0.02353,-0.01936 0.03186,-0.031855 0.01317,-0.019755 0.02124,-0.042473 0.03186,-0.06371 0.01062,-0.021237 0.0261,-0.040675 0.03186,-0.06371 0.02758,-0.1103354 -0.04034,-0.019132 0.03186,-0.1274193 0.0486,-0.072894 0.02521,0.019919 0.06371,-0.095564 0.0067,-0.020147 -0.0095,-0.044715 0,-0.06371 0.0067,-0.013431 0.02352,-0.01936 0.03185,-0.031855 0.01317,-0.019756 0.02124,-0.042473 0.03186,-0.06371 0.01062,-0.021236 0.0261,-0.040675 0.03186,-0.06371 0.0052,-0.020602 -0.0067,-0.043563 0,-0.06371 0.0095,-0.028492 0.04705,-0.038721 0.06371,-0.06371 0.02634,-0.039511 0.03522,-0.08943 0.06371,-0.1274193 0.156235,-0.2083131 -0.03332,0.1310931 0.09556,-0.1911288 0.0056,-0.013942 0.02352,-0.01936 0.03186,-0.031855 0.05497,-0.082451 0.08522,-0.2022877 0.127419,-0.2866933 0.0067,-0.013431 0.02514,-0.018424 0.03186,-0.031855 0.0042,-0.00838 0,-0.1107618 0,-0.1274193 0,-0.010618 0.01007,-0.028497 0,-0.031855 -0.03022,-0.010073 -0.06371,0 -0.09557,0 -0.01062,0 -0.02236,0.00475 -0.03186,0 -0.01343,-0.00672 -0.01761,-0.027106 -0.03185,-0.031855 -1.44e-4,-4.81e-5 -0.09553,3.04e-5 -0.09556,0 -0.0075,-0.00751 0.0075,-0.024347 0,-0.031855 -0.0075,-0.00751 -0.02236,0.00475 -0.03186,0 -0.04252,-0.021259 -0.02119,-0.042451 -0.06371,-0.06371 -0.0095,-0.00475 -0.02435,0.00751 -0.03186,0 -0.0075,-0.00751 0.0099,-0.027911 0,-0.031855 -0.05027,-0.020108 -0.106182,-0.021237 -0.159274,-0.031855 z"
       inkscape:connector-curvature="0" />
    <path
       style="fill:#f5d13d;stroke:none;stroke-width:1px;stroke-linecap:butt;stroke-linejoin:miter;stroke-opacity:1;fill-opacity:1"
       d="M 8.059267,4.2137202 C 8.0469043,4.2599054 8.0250878,4.3035383 7.995557,4.3411394 7.9441422,4.4066051 7.8718712,4.451621 7.8044285,4.5004135 7.7250278,4.5578572 7.6506198,4.6221227 7.5814449,4.6915423 7.4911694,4.7821372 7.4099944,4.8812638 7.3266064,4.9782356 7.2138872,5.1093166 7.0968926,5.2367112 6.9762035,5.3604933 6.8399223,5.5002672 6.7001295,5.6365673 6.5620909,5.7746059 6.2753977,6.0612993 5.9887044,6.3479926 5.7020111,6.6346858 5.6170649,6.7196319 5.5321188,6.8045781 5.4471726,6.8895242 5.4046983,6.9319985 5.3611683,6.9734356 5.3197533,7.0169435 5.2625462,7.0770415 5.2109214,7.1421935 5.1604793,7.2080723 5.1191339,7.2620705 5.078457,7.3167069 5.03306,7.3673464 4.9675253,7.4404492 4.8923421,7.504892 4.8100764,7.5584753 c -0.07273,0.040812 -0.1378708,0.095096 -0.1911289,0.159274 -0.019287,0.023241 -0.037699,0.048362 -0.06371,0.06371 -0.028231,0.016657 -0.062147,0.019881 -0.093251,0.030226 -0.015552,0.00517 -0.03071,0.012319 -0.042966,0.0232 -0.012257,0.010881 -0.021433,0.02583 -0.023057,0.042139 -0.00105,0.010576 0.00105,0.021278 0,0.031855 -5.321e-4,0.00539 -0.00187,0.010666 -0.00241,0.016051 -5.351e-4,0.00538 -1.976e-4,0.011062 0.00241,0.015804 0.00202,0.00368 0.00532,0.00658 0.00907,0.00846 0.00375,0.00188 0.00795,0.0028 0.01214,0.00302 0.00839,4.404e-4 0.016674,-0.00174 0.024759,-0.00402 0.00808,-0.00228 0.016172,-0.00463 0.024469,-0.00594 0.0083,-0.00131 0.016723,-0.00152 0.025123,-0.00152 l 0.2866933,0 c 0.031865,0 0.063804,-0.00257 0.095564,0 0.05526,0.00448 0.1069458,0.029529 0.1530898,0.060261 0.046144,0.030732 0.088059,0.0674 0.1336035,0.099013 0.075512,0.052415 0.1630253,0.091119 0.2548385,0.095565 0.031821,0.00154 0.063706,0 0.095564,0 l 0.1911289,0 c 0.063724,0 0.1275511,0.00431 0.1911288,0 0.1446869,-0.00981 0.2778391,-0.077821 0.4141126,-0.1274193 0.09871,-0.035927 0.2031078,-0.063796 0.2866932,-0.1274192 0.071781,-0.054637 0.1230428,-0.1319513 0.1911289,-0.1911289 0.09806,-0.085229 0.2277182,-0.1300876 0.3185481,-0.2229837 0.047564,-0.048646 0.08228,-0.1083703 0.1274193,-0.159274 0.059861,-0.067505 0.1373277,-0.1187019 0.1911288,-0.1911289 0.022835,-0.030741 0.040964,-0.064757 0.06371,-0.095564 0.044667,-0.060496 0.1055581,-0.1066504 0.1592744,-0.1592763 0.048689,-0.047701 0.091813,-0.1011514 0.1274192,-0.159274 0.049635,-0.081023 0.084225,-0.1702062 0.1274193,-0.2548385 0.0324,-0.063483 0.069777,-0.124684 0.095564,-0.1911288 0.050682,-0.1305936 0.053983,-0.275788 0.031855,-0.4141126 -0.00255,-0.015921 -0.00542,-0.031836 -0.00622,-0.04794 -7.985e-4,-0.016103 5.501e-4,-0.032533 0.00622,-0.047624 0.00419,-0.011144 0.010616,-0.021279 0.016745,-0.031485 0.00613,-0.010206 0.012063,-0.020716 0.01511,-0.032225 0.00409,-0.015447 0.00292,-0.031738 0.0018,-0.047678 -0.00112,-0.01594 -0.0018,-0.031908 -0.0018,-0.047887 0,-0.06371 0,-0.1274192 0,-0.1911288 0,-0.2017471 0,-0.4034943 0,-0.6052414 0,-0.031995 -0.00161,-0.063962 -0.00422,-0.09585 -0.00261,-0.031888 -0.00532,-0.064737 0.00422,-0.095279 0.00709,-0.022708 0.020741,-0.042678 0.031855,-0.06371 0.015759,-0.029822 0.026569,-0.062251 0.031855,-0.095564 0.034002,-0.00134 0.067561,-0.012524 0.095565,-0.031855 0.010527,-0.00727 0.020457,-0.015864 0.026956,-0.026881 0.00325,-0.00551 0.0056,-0.011585 0.00655,-0.017908 9.57e-4,-0.00632 4.972e-4,-0.012898 -0.00166,-0.018921 -0.00203,-0.00569 -0.00554,-0.010858 -0.00673,-0.016777 -5.98e-4,-0.00296 -5.792e-4,-0.0061 5.099e-4,-0.00892 5.445e-4,-0.00141 0.00135,-0.00272 0.00241,-0.0038 0.00106,-0.00108 0.00237,-0.00191 0.00381,-0.00236 0.00154,-4.817e-4 0.00321,-5.128e-4 0.0048,-2.347e-4 0.00159,2.781e-4 0.00312,8.573e-4 0.00457,0.00157 0.0029,0.00143 0.00551,0.0034 0.00842,0.00482 0.00145,7.099e-4 0.00298,0.00128 0.00458,0.00155 0.0016,2.689e-4 0.00326,2.257e-4 0.0048,-2.694e-4 0.00154,-4.951e-4 0.00295,-0.00146 0.00385,-0.0028 9.013e-4,-0.00134 0.00126,-0.00307 8.303e-4,-0.00463 -3.805e-4,-0.00138 -0.00135,-0.00257 -0.00256,-0.00334 -0.00121,-7.781e-4 -0.00263,-0.00117 -0.00406,-0.00128 -0.00286,-2.086e-4 -0.00568,6.692e-4 -0.0084,0.00159 -0.00272,9.196e-4 -0.00544,0.00188 -0.00826,0.00241 -0.00282,5.349e-4 -0.0057,6.205e-4 -0.00857,6.205e-4 l -0.06371,0 c -0.020768,0 -0.041845,-4.536e-4 -0.061714,-0.0065 -0.019868,-0.00605 -0.038148,-0.017725 -0.051077,-0.033977 -0.012929,-0.016253 -0.020273,-0.036613 -0.022082,-0.057302 -0.00181,-0.020689 0.00165,-0.041553 0.00745,-0.061494 0.015995,-0.054972 0.049129,-0.1039098 0.06371,-0.1592741 0.010938,-0.04153 0.010938,-0.085889 0,-0.1274192"
       id="path4359"
       inkscape:path-effect="#path-effect4361"
       inkscape:original-d="M 8.059267,4.2137202 C 8.03803,4.2561932 8.021898,4.3016282 7.995557,4.3411394 7.9599901,4.3944903 7.8397609,4.4715052 7.8044285,4.5004135 7.7286615,4.5624047 7.6506675,4.6223197 7.5814449,4.6915423 7.4910336,4.7819536 7.41239,4.8834222 7.3266064,4.9782356 7.2106371,5.1064122 7.0959096,5.2357994 6.9762035,5.3604933 6.8410112,5.5013186 6.7001284,5.6365684 6.5620909,5.7746059 6.2753976,6.0612992 5.9887043,6.3479925 5.7020111,6.6346858 5.6170649,6.7196319 5.5321187,6.8045781 5.4471726,6.8895242 5.4046995,6.9319973 5.3588438,6.971338 5.3197533,7.0169435 5.0536576,7.3273885 5.4918578,6.8766938 5.1604793,7.2080723 4.9436051,7.4249465 5.2741668,7.0860551 5.03306,7.3673464 4.8416419,7.5906676 4.9791555,7.417576 4.8100764,7.5584753 4.5830692,7.7854824 4.840694,7.5403521 4.6189475,7.7177493 c -0.023452,0.018761 -0.038721,0.04705 -0.06371,0.06371 -0.00327,0.00218 -0.1373483,0.051713 -0.1592741,0.095565 -0.00475,0.0095 0,0.021237 0,0.031855 0,0.010618 -0.0095,0.027106 0,0.031855 0.028492,0.014246 0.06371,0 0.095565,0 0.095564,0 0.1911288,0 0.2866933,0 0.031855,0 0.064661,-0.00773 0.095564,0 0.2248642,0.056216 0.098399,0.054666 0.2866933,0.159274 0.00493,0.00274 0.2139666,0.088753 0.2548385,0.095565 0.031421,0.00524 0.06371,0 0.095564,0 0.06371,0 0.1274192,0 0.1911289,0 0.06371,0 0.1276069,0.00489 0.1911288,0 C 6.1602698,8.1750243 6.0739807,8.1770133 6.3072518,8.068154 6.4020188,8.02393 6.506931,7.998744 6.593945,7.9407348 6.668912,7.8907568 6.7153411,7.80666 6.7850739,7.7496059 7.0557637,7.5281325 6.8376739,7.7925699 7.103622,7.5266222 7.151698,7.4785462 7.186794,7.4189701 7.2310413,7.3673482 7.2895043,7.2991412 7.3637072,7.2444261 7.4221701,7.1762193 c 0.024915,-0.029068 0.0392,-0.066153 0.06371,-0.095564 C 7.6186088,6.921379 7.5389718,7.0452589 7.6451545,6.921379 7.6894019,6.8697571 7.7317797,6.8164971 7.7725737,6.762105 7.867711,6.6352553 7.822499,6.6777532 7.899993,6.5072665 7.929468,6.4424215 7.969103,6.3822726 7.995557,6.3161377 8.047936,6.1851914 8.027412,6.0396034 8.027412,5.9020251 c 0,-0.031855 -0.00625,-0.064328 0,-0.095564 0.00466,-0.023282 0.027198,-0.040427 0.031855,-0.06371 0.00625,-0.031236 0,-0.06371 0,-0.095565 0,-0.06371 0,-0.1274192 0,-0.1911288 0,-0.2017472 0,-0.4034943 0,-0.6052414 0,-0.00832 -0.00534,-0.1751139 0,-0.1911289 C 8.066777,4.637162 8.083614,4.618502 8.091122,4.595977 8.110736,4.537134 8.042515,4.580875 8.122977,4.500413 8.124957,4.410718 8.194798,4.492303 8.218542,4.468558 8.235331,4.451769 8.242889,4.427373 8.250397,4.404848 c 0.00336,-0.010073 -0.00751,-0.024346 0,-0.031855 0.00751,-0.00751 0.031855,-0.010618 0.031855,0 0,0.010618 -0.021237,0 -0.031855,0 -0.021333,0 -0.042377,0 -0.06371,0 -0.079331,0 -0.1105814,0.00911 -0.1274193,-0.159274 -0.00569,-0.056897 0.045627,-0.1050273 0.06371,-0.1592741 0.00666,-0.019994 0,-0.101775 0,-0.1274192"
       inkscape:connector-curvature="0" />
    <path
       style="fill:#f5d13d;fill-opacity:1;stroke:none"
       d="m 11.594605,4.1793559 -0.191662,0.1462319 c -0.05092,0.00425 -0.100744,0.021139 -0.143746,0.048744 -0.07695,0.0494 -0.128214,0.1291239 -0.191663,0.1949768 C 10.931193,4.7108162 10.7406,4.7862567 10.588376,4.9105188 10.35739,5.0990745 10.229092,5.3870754 10.013387,5.5929373 9.9054049,5.6959921 9.7780551,5.7760198 9.6572392,5.8636778 9.5364233,5.9513359 9.4192138,6.0497826 9.3425673,6.1778675 9.3089509,6.2340443 9.2838399,6.2947959 9.2556619,6.3538881 9.2274839,6.4129803 9.195646,6.4712848 9.1509044,6.5190769 9.0804124,6.5943751 8.9822048,6.6391196 8.9113258,6.7140536 c -0.057501,0.06079 -0.093908,0.138129 -0.1268033,0.2150684 -0.032895,0.076939 -0.063738,0.1558277 -0.1127753,0.2236293 -0.03039,0.042019 -0.067173,0.078917 -0.1019577,0.1173767 -0.034785,0.03846 -0.068066,0.079218 -0.089705,0.1263443 -0.018333,0.039926 -0.027771,0.083229 -0.03993,0.1254468 -0.012159,0.042218 -0.027686,0.084599 -0.055902,0.118274 -0.025921,0.030936 -0.060936,0.05263 -0.095421,0.0736 -0.034485,0.02097 -0.069676,0.04225 -0.096242,0.072634 -0.023937,0.027377 -0.039705,0.060862 -0.053266,0.094605 -0.013561,0.033743 -0.025293,0.06837 -0.042566,0.1003718 -0.04921,0.091171 -0.1394144,0.1542564 -0.1916628,0.2437211 -0.018267,0.031278 -0.031525,0.065189 -0.047916,0.097489 -0.016403,0.032324 -0.036037,0.063243 -0.047916,0.097489 -0.00845,0.02437 -0.012802,0.049935 -0.018889,0.075002 -0.00609,0.025067 -0.014153,0.050155 -0.029027,0.07123 -0.013187,0.018685 -0.031126,0.033389 -0.048635,0.048103 -0.017508,0.014713 -0.035084,0.029988 -0.047197,0.049386 -0.01787,0.028619 -0.022205,0.0634 -0.025555,0.096973 -0.00335,0.033573 -0.00644,0.068256 -0.022361,0.098003 -0.018961,0.035428 -0.054077,0.059906 -0.07388,0.09487 -0.0099,0.017482 -0.015719,0.038054 -0.012027,0.057804 0.00185,0.00987 0.00609,0.019365 0.012659,0.026964 0.00657,0.0076 0.01551,0.013234 0.025333,0.015339 0.00783,0.00168 0.015933,0.00119 0.023923,7.376e-4 0.00799,-4.563e-4 0.01599,-7.376e-4 0.023993,-7.376e-4 l 0.047916,0 c 0.047976,0 0.09594,0.00129 0.1438704,0.0034 0.04793,0.0021 0.096277,0.00434 0.143624,-0.0034 0.1000841,-0.016363 0.1881024,-0.077343 0.2874942,-0.097489 0.094174,-0.019088 0.1914057,-2.928e-4 0.2874944,0 0.124758,3.802e-4 0.2476142,-0.030585 0.3659019,-0.070243 0.1182877,-0.039658 0.2335499,-0.088182 0.3528338,-0.124734 0.096899,-0.029693 0.1970652,-0.051732 0.2874944,-0.097489 0.083532,-0.042267 0.1562477,-0.1035721 0.2395786,-0.1462334 0.042105,-0.021556 0.086592,-0.038177 0.1287265,-0.059675 0.042135,-0.021499 0.082616,-0.048606 0.1108521,-0.086556 0.02169,-0.029153 0.03524,-0.063434 0.04792,-0.097489 0.04313,-0.1158726 0.0795,-0.235578 0.143748,-0.3412093 0.01898,-0.031208 0.04029,-0.060989 0.05833,-0.092756 0.01803,-0.031766 0.03288,-0.065987 0.0375,-0.1022211 0.0021,-0.016161 0.0021,-0.032583 0,-0.048744 -0.01513,-0.067686 0.0031,-0.1420142 0.04792,-0.1949768 0.02947,-0.034851 0.06919,-0.060434 0.09583,-0.097489 0.02118,-0.02946 0.03288,-0.06447 0.04792,-0.097489 0.0484,-0.106222 0.131759,-0.1922815 0.191663,-0.2924652 0.04851,-0.081119 0.08205,-0.1721214 0.143746,-0.2437209 0.04467,-0.051839 0.102584,-0.091567 0.143747,-0.1462319 0.04368,-0.058002 0.06568,-0.1289254 0.09583,-0.1949767 0.03008,-0.065902 0.06875,-0.1277865 0.09583,-0.1949768 0.03839,-0.095239 0.05274,-0.1992581 0.09583,-0.292465 0.0152,-0.032875 0.03385,-0.064116 0.04792,-0.097489 0.01994,-0.047287 0.03033,-0.098026 0.04792,-0.1462334 0.01764,-0.048351 0.04275,-0.095023 0.04792,-0.1462319 0.0049,-0.048602 -0.0086,-0.098143 0,-0.1462319 0.0064,-0.036023 0.02501,-0.068956 0.04792,-0.097489 0.02384,-0.029685 0.0526,-0.055421 0.07381,-0.087034 0.01061,-0.015806 0.01927,-0.033109 0.0237,-0.051621 0.0044,-0.018512 0.0045,-0.038313 -0.0017,-0.056322 -0.0061,-0.017934 -0.01818,-0.033651 -0.02245,-0.052122 -0.0021,-0.00924 -0.0022,-0.019199 0.0015,-0.027923 0.0019,-0.00436 0.0046,-0.00836 0.0082,-0.011447 0.0036,-0.00309 0.008,-0.00526 0.01269,-0.006 0.0041,-6.425e-4 0.0083,-2.007e-4 0.01232,6.254e-4 0.004,8.261e-4 0.008,0.00203 0.01205,0.00294 0.004,9.071e-4 0.0082,0.00152 0.0123,0.00112 0.0041,-3.959e-4 0.0082,-0.00187 0.01124,-0.00468 0.0031,-0.00289 0.0049,-0.00702 0.0055,-0.011218 5.92e-4,-0.0042 9e-5,-0.00848 -8.06e-4,-0.012627 -0.0018,-0.00829 -0.0052,-0.016435 -0.0047,-0.024899 3.67e-4,-0.0059 0.0027,-0.011591 0.006,-0.016471 0.0033,-0.00488 0.0077,-0.009 0.01241,-0.012582 0.0094,-0.00717 0.02025,-0.012325 0.02951,-0.019691 0.01374,-0.010935 0.02348,-0.026477 0.02875,-0.04323 0.0053,-0.016753 0.0062,-0.034678 0.0043,-0.052132 -0.0039,-0.034907 -0.01902,-0.067403 -0.03302,-0.099615 -0.01721,-0.039589 -0.03322,-0.080526 -0.03676,-0.1235499 -0.0018,-0.021512 -3.36e-4,-0.0434 0.0055,-0.064168 0.0059,-0.020768 0.0163,-0.040399 0.03121,-0.056003 0.0079,-0.00827 0.01697,-0.015338 0.02554,-0.022923 0.0086,-0.00758 0.01677,-0.015845 0.02238,-0.025821 0.0056,-0.010011 0.0084,-0.021492 0.0088,-0.032973 3.23e-4,-0.01148 -0.0018,-0.022961 -0.0056,-0.03381 -0.0075,-0.021698 -0.02141,-0.040591 -0.0361,-0.058247 -0.01469,-0.017656 -0.03048,-0.034544 -0.04282,-0.053918 -0.01234,-0.019375 -0.02118,-0.041828 -0.02011,-0.064773 9.66e-4,-0.020674 0.01,-0.040361 0.02231,-0.056968 0.01235,-0.016607 0.02798,-0.030465 0.04384,-0.04376 0.01586,-0.013294 0.03215,-0.026215 0.04622,-0.041387 0.01408,-0.015172 0.02599,-0.032881 0.03139,-0.052862 0.0043,-0.01587 0.0043,-0.032874 0,-0.048744 l 0.04792,-0.048745"
       id="path4363"
       inkscape:path-effect="#path-effect4365"
       inkscape:original-d="m 11.594605,4.1793559 c -0.06389,0.048744 -0.127775,0.097489 -0.191662,0.1462319 -0.04792,0.016248 -0.100438,0.022309 -0.143746,0.048744 -0.07747,0.047289 -0.116486,0.1439932 -0.191663,0.1949768 C 10.757503,4.7795697 10.942605,4.5224451 10.588376,4.9105188 10.243085,5.2888004 10.344862,5.311932 10.013387,5.5929373 9.6568874,5.8951572 9.6513368,5.7780937 9.3425673,6.1778675 9.2630107,6.2808729 9.2324455,6.4176916 9.1509044,6.5190769 9.0861429,6.5995975 8.973681,6.6315909 8.9113258,6.7140536 8.811064,6.8466468 8.7606698,7.0120356 8.6717472,7.1527513 c -0.055303,0.087515 -0.1390459,0.1545089 -0.1916628,0.243721 -0.044252,0.075029 -0.044225,0.173722 -0.095832,0.2437208 -0.047916,0.064992 -0.1396912,0.084551 -0.1916629,0.1462335 -0.046485,0.05517 -0.060393,0.1318863 -0.095832,0.1949766 -0.1876124,0.3339983 -0.00277,-0.012486 -0.1916628,0.2437211 -0.021429,0.029065 -0.031945,0.064992 -0.047916,0.097489 -0.015972,0.032497 -0.034652,0.063756 -0.047916,0.097489 -0.018759,0.047705 -0.02193,0.1021744 -0.047916,0.1462319 -0.023243,0.039407 -0.072589,0.058082 -0.095832,0.097489 -0.2334313,0.395779 0.00915,0.020812 -0.047916,0.1949767 -0.020347,0.062095 -0.085352,0.1188107 -0.047916,0.1949767 0.00714,0.014537 0.031943,0 0.047916,0 0.015972,0 0.031945,0 0.047916,0 0.07285,0 0.2302095,0.012945 0.2874944,0 0.09861,-0.022292 0.1878535,-0.080594 0.2874942,-0.097489 0.094528,-0.016027 0.1925035,0.012884 0.2874944,0 0.2943618,-0.039927 0.4530888,-0.1048966 0.7187357,-0.1949766 0.095832,-0.032497 0.1955335,-0.054965 0.2874944,-0.097489 0.084784,-0.039205 0.1587178,-0.099227 0.2395786,-0.1462334 0.088224,-0.051286 0.1614349,-0.066738 0.2395788,-0.1462319 0.02525,-0.02569 0.03194,-0.064992 0.04792,-0.097489 0.317833,-0.6466564 -0.067763,0.1608476 0.143748,-0.3412093 0.02814,-0.066789 0.0693,-0.12751 0.09583,-0.1949767 0.0059,-0.015088 0,-0.032497 0,-0.048744 0.01597,-0.064992 0.01846,-0.1350569 0.04792,-0.1949768 0.0202,-0.041104 0.06873,-0.060723 0.09583,-0.097489 0.02143,-0.029066 0.02954,-0.066334 0.04792,-0.097489 0.05926,-0.1004698 0.130619,-0.1931082 0.191663,-0.2924652 0.04936,-0.080342 0.08787,-0.1679275 0.143746,-0.2437209 0.04066,-0.055148 0.104361,-0.090138 0.143747,-0.1462319 0.04152,-0.059128 0.06389,-0.1299842 0.09583,-0.1949767 0.03194,-0.064992 0.06769,-0.1281878 0.09583,-0.1949768 0.03979,-0.094453 0.05831,-0.1970532 0.09583,-0.292465 0.01327,-0.033733 0.03465,-0.063756 0.04792,-0.097489 0.01876,-0.047706 0.03194,-0.097489 0.04792,-0.1462334 0.01597,-0.048745 0.03961,-0.09555 0.04792,-0.1462319 0.0079,-0.04808 -0.0094,-0.098435 0,-0.1462319 0.007,-0.035626 0.03194,-0.064992 0.04792,-0.097489 0.03194,-0.064992 0.07324,-0.1260424 0.09583,-0.1949767 0.01011,-0.030829 -0.02259,-0.07451 0,-0.097489 0.0113,-0.011492 0.03662,0.011492 0.04791,0 0.01128,-0.011492 -0.0071,-0.034212 0,-0.048744 0.01008,-0.020552 0.03782,-0.028192 0.04792,-0.048744 0.0063,-0.012823 0,-0.1694874 0,-0.1949768 0,-0.01927 -0.01023,-0.2229031 0,-0.2437209 0.01008,-0.020552 0.05162,-0.026079 0.04792,-0.048744 -0.01414,-0.086308 -0.105329,-0.1567577 -0.09583,-0.2437211 0.0089,-0.080744 0.102661,-0.125314 0.143756,-0.1949766 0.0083,-0.01394 0,-0.032497 0,-0.048744 0.01597,-0.016248 0.03195,-0.032497 0.04792,-0.048745"
       inkscape:connector-curvature="0" />
    <path
       style="fill:#f5d13d;fill-opacity:1;stroke:none"
       d="m 9.7738083,3.9356349 c 0.020204,0.064011 0.016894,0.1351614 -0.00917,0.1970202 -0.026059,0.061859 -0.074659,0.1139303 -0.1345752,0.1441891 -0.032072,0.016197 -0.067559,0.026572 -0.095832,0.048744 -0.032067,0.025148 -0.05141,0.062705 -0.070381,0.098771 -0.018971,0.036066 -0.03973,0.073189 -0.073359,0.096205 -0.020974,0.014355 -0.045653,0.022242 -0.070287,0.0285 -0.024634,0.00626 -0.049734,0.011114 -0.073453,0.020245 -0.054248,0.020884 -0.097394,0.062403 -0.1437405,0.097489 C 9.0283691,4.7233078 8.9433538,4.7642626 8.863436,4.8130308 8.6386977,4.9501726 8.4572126,5.1471443 8.2884468,5.3492168 8.1931019,5.4633785 8.1007149,5.580104 8.0009523,5.6904261 7.8481201,5.8594351 7.6786953,6.0126286 7.5217951,6.177868 7.3946856,6.3117333 7.2750388,6.4546476 7.1863861,6.6165657 c -0.034784,0.06353 -0.0646,0.1296272 -0.095832,0.1949767 -0.015615,0.032672 -0.031591,0.065171 -0.047924,0.097489 l -0.047923,0.1949769 c -0.027654,0.024752 -0.045209,0.060474 -0.047909,0.097489 -0.00306,0.041922 0.012056,0.082725 0.020264,0.1239494 0.0041,0.020612 0.0065,0.04179 0.004,0.062658 -0.0025,0.020868 -0.010176,0.041521 -0.024267,0.057114 -0.00769,0.00851 -0.017056,0.015307 -0.025831,0.022701 -0.00877,0.00739 -0.017185,0.015672 -0.022092,0.026044 -0.00352,0.00743 -0.00509,0.015681 -0.00542,0.023898 -3.338e-4,0.00822 5.368e-4,0.016437 0.00172,0.024576 0.00236,0.016278 0.00596,0.032723 0.00371,0.049015 -0.0025,0.018055 -0.011985,0.034314 -0.021898,0.049611 -0.00991,0.015296 -0.020599,0.030477 -0.026026,0.047878 -0.00731,0.023443 -0.00443,0.04871 -0.0011,0.073041 0.00332,0.024331 0.00698,0.049349 0.0011,0.073191 -0.00204,0.00829 -0.00523,0.016331 -0.00629,0.024802 -5.329e-4,0.00424 -5.229e-4,0.00857 4.314e-4,0.012734 9.542e-4,0.00416 0.00289,0.00815 0.00586,0.011208 0.00295,0.00303 0.00683,0.00507 0.010929,0.00613 0.0041,0.00106 0.0084,0.00117 0.012599,6.818e-4 0.0084,-9.675e-4 0.01634,-0.00423 0.024396,-0.00681 0.038271,-0.012266 0.07961,-0.00921 0.1195233,-0.00452 0.039913,0.00469 0.080375,0.010887 0.1200552,0.00452 0.036016,-0.00578 0.070645,-0.022359 0.095832,-0.048744 0.0079,-0.00828 0.01483,-0.01743 0.022344,-0.026063 0.00751,-0.00863 0.015735,-0.016844 0.02558,-0.022681 0.013928,-0.00826 0.030408,-0.011342 0.046596,-0.011677 0.016188,-3.35e-4 0.032311,0.00188 0.048336,0.00419 0.032052,0.00462 0.064348,0.00748 0.09673,0.00748 0.1277755,0 0.255551,0 0.3833265,0 0.2555506,0 0.5111011,0 0.7666517,0 0.079859,0 0.159719,0 0.2395785,0 0.047943,0 0.096106,0.00543 0.1437405,0 0.050502,-0.00575 0.097614,-0.027426 0.1437556,-0.048745 0.032553,-0.015041 0.065203,-0.030095 0.095832,-0.048744 0.090287,-0.054974 0.1613996,-0.1424392 0.191664,-0.243721 0.023732,-0.079421 0.022558,-0.1648022 0.047909,-0.2437208 0.018993,-0.059126 0.052164,-0.1124571 0.081939,-0.1669554 0.029775,-0.054498 0.056855,-0.1123497 0.061801,-0.174254 0.00389,-0.048644 -0.00611,-0.097816 0,-0.1462319 0.00741,-0.058756 0.038091,-0.1122286 0.074697,-0.158782 0.036606,-0.046553 0.079541,-0.087785 0.1169658,-0.1336832 0.091876,-0.1126759 0.1483839,-0.2514795 0.176178,-0.3941839 0.027794,-0.1427043 0.027886,-0.2896112 0.015484,-0.4344671 -0.0014,-0.01624 -0.0029,-0.032709 0,-0.048744 0.0033,-0.017895 0.01193,-0.034321 0.0213,-0.049911 0.0094,-0.01559 0.01963,-0.030779 0.02661,-0.047578 0.0095,-0.0229 0.01258,-0.048108 0.01164,-0.072887 -9.46e-4,-0.024778 -0.0058,-0.049247 -0.01164,-0.073345 -0.0039,-0.016227 -0.0083,-0.032454 -0.0096,-0.049108 -0.0012,-0.016654 0.001,-0.034031 0.0096,-0.048381 0.0058,-0.00983 0.01434,-0.017771 0.023,-0.025239 0.0087,-0.00747 0.01766,-0.014671 0.02492,-0.023505 0.01582,-0.019257 0.02215,-0.044858 0.02285,-0.069773 7.02e-4,-0.024915 -0.0036,-0.049674 -0.0082,-0.074186 -0.009,-0.049024 -0.01469,-0.098656 -0.01469,-0.1485061 l 0,-0.3412093 c 0,-0.016272 4.73e-4,-0.032539 0.0012,-0.048793 7.67e-4,-0.016254 0.0016,-0.032671 -0.0012,-0.048696 -0.0032,-0.017935 -0.01093,-0.034744 -0.01992,-0.050583 -0.009,-0.015839 -0.01926,-0.03093 -0.028,-0.046906 -0.01739,-0.031787 -0.0286,-0.066829 -0.04791,-0.097489 -0.03453,-0.054823 -0.091428,-0.090653 -0.1414004,-0.1318927 -0.024986,-0.02062 -0.048763,-0.043175 -0.06697,-0.069971 -0.018206,-0.026796 -0.030654,-0.058211 -0.031208,-0.090602 -7.547e-4,-0.044096 0.020101,-0.085449 0.042167,-0.1236348 0.022066,-0.038186 0.046358,-0.076593 0.053665,-0.120086 0.00271,-0.016106 0.00298,-0.032687 0,-0.048744 -0.00588,-0.031663 -0.02486,-0.060685 -0.051512,-0.078761 C 9.7914848,3.5463338 9.7575,3.539433 9.7259084,3.5456824"
       id="path4367"
       inkscape:path-effect="#path-effect4369"
       inkscape:original-d="m 9.7738083,3.9356349 c -0.026729,0.08157 -0.041456,0.2718335 -0.1437404,0.3412093 -0.029723,0.020153 -0.070577,0.023054 -0.095832,0.048744 -0.056467,0.057445 -0.082399,0.142968 -0.1437404,0.1949767 -0.038808,0.032893 -0.09857,0.025766 -0.1437405,0.048745 -0.051504,0.0262 -0.094915,0.06644 -0.1437405,0.097489 -0.07897,0.050214 -0.163283,0.091902 -0.2395785,0.1462319 C 8.6505296,4.9646413 8.4640521,5.1568339 8.2884468,5.3492168 8.1882526,5.4589886 8.100456,5.5800006 8.0009523,5.6904261 7.8483219,5.859811 7.6728986,6.0070721 7.5217951,6.177868 7.4921475,6.211387 7.226032,6.5520346 7.1863861,6.6165657 c -0.03786,0.061618 -0.063883,0.1299842 -0.095832,0.1949767 -0.015975,0.032497 -0.036627,0.063021 -0.047924,0.097489 -0.015974,0.064992 -0.031949,0.1299843 -0.047923,0.1949769 -0.015975,0.032497 -0.036627,0.063021 -0.047909,0.097489 -0.015313,0.046708 0.014741,0.1985638 0,0.2437209 -0.00707,0.021799 -0.040779,0.026945 -0.047923,0.048745 -0.010078,0.030829 0.00782,0.065962 0,0.097489 -0.00872,0.035247 -0.039259,0.062241 -0.047924,0.097489 -0.011582,0.047289 0,0.097489 0,0.1462319 0,0.016248 -0.011281,0.037256 0,0.048744 0.011281,0.011492 0.031949,0 0.047924,0 0.040117,0 0.2031395,0.00927 0.2395785,0 0.034642,-0.00881 0.066109,-0.02859 0.095832,-0.048744 0.018802,-0.012747 0.025767,-0.044238 0.047924,-0.048744 0.06265,-0.012747 0.127781,0 0.1916625,0 0.127781,0 0.2555515,0 0.3833265,0 0.2555502,0 0.5111017,0 0.7666517,0 0.079857,0 0.1597195,0 0.2395785,0 0.047924,0 0.096479,0.00802 0.1437405,0 0.049819,-0.00845 0.096855,-0.029661 0.1437556,-0.048745 0.033167,-0.013496 0.067267,-0.026945 0.095832,-0.048744 0.06101,-0.046553 0.1670629,-0.1769866 0.191664,-0.243721 0.028595,-0.077573 0.019314,-0.1661468 0.047909,-0.2437208 0.1305337,-0.3541038 0.083949,0.084569 0.1437405,-0.3412094 0.00677,-0.048255 -0.015147,-0.099989 0,-0.1462319 0.00196,-0.00592 0.1859511,-0.2808445 0.1916625,-0.2924652 0.083753,-0.1704076 0.1708746,-0.7123376 0.1916621,-0.828651 0.0029,-0.015986 -0.0051,-0.033329 0,-0.048744 0.01128,-0.034468 0.04091,-0.061861 0.04791,-0.097489 0.0093,-0.047797 0,-0.097489 0,-0.1462319 0,-0.032497 -0.01008,-0.06666 0,-0.097489 0.0071,-0.021799 0.03782,-0.028192 0.04792,-0.048744 0.0084,-0.016993 0,-0.256683 0,-0.2924652 0,-0.1137366 0,-0.2274729 0,-0.3412093 0,-0.032495 0.0078,-0.065962 0,-0.097489 -0.0087,-0.035247 -0.03195,-0.064992 -0.04792,-0.097489 -0.01598,-0.032497 -0.02649,-0.068423 -0.04791,-0.097489 -0.074848,-0.101521 -0.2067552,-0.1700352 -0.2395781,-0.2924652 -0.022638,-0.084415 0.068636,-0.1607126 0.095832,-0.2437208 0.00511,-0.015414 0,-0.032497 0,-0.048744 0,-0.121432 -0.056904,-0.097489 -0.1437405,-0.097489"
       inkscape:connector-curvature="0" />
    <path
       style="fill:#f5d13d;fill-opacity:1;stroke:none"
       d="m 8.0388027,6.7325366 c 0.020204,0.064011 0.016894,0.1351614 -0.00917,0.1970202 -0.026059,0.061859 -0.074659,0.1139303 -0.1345752,0.1441891 -0.032072,0.016197 -0.067559,0.026572 -0.095832,0.048744 -0.032067,0.025148 -0.05141,0.062705 -0.070381,0.098771 -0.018971,0.036066 -0.03973,0.073189 -0.073359,0.096205 -0.020974,0.014355 -0.045653,0.022242 -0.070287,0.0285 -0.024634,0.00626 -0.049734,0.011114 -0.073453,0.020245 -0.054248,0.020884 -0.097394,0.062403 -0.1437405,0.097489 C 7.2933635,7.5202095 7.2083482,7.5611643 7.1284304,7.6099325 6.9036921,7.7470743 6.722207,7.944046 6.5534412,8.1461185 6.4580963,8.2602802 6.3657093,8.3770057 6.2659467,8.4873278 6.1131144,8.6563368 5.9436895,8.8095302 5.7867894,8.9747697 c -0.1271095,0.1338655 -0.246756,0.2767801 -0.335409,0.438698 -0.034784,0.06353 -0.0646,0.1296266 -0.095832,0.194976 -0.015615,0.032672 -0.031591,0.065171 -0.047924,0.09749 l -0.047923,0.194977 c -0.027654,0.024752 -0.045209,0.060475 -0.047909,0.09749 -0.00306,0.041922 0.012055,0.082724 0.020262,0.1239493 0.0041,0.02061 0.0065,0.04179 0.004,0.06266 -0.0025,0.02087 -0.010175,0.04152 -0.024265,0.05711 -0.00769,0.0085 -0.017056,0.01531 -0.025831,0.0227 -0.00877,0.0074 -0.017185,0.01567 -0.022092,0.02605 -0.00352,0.0074 -0.00509,0.01568 -0.00542,0.0239 -3.338e-4,0.0082 5.368e-4,0.01644 0.00172,0.02458 0.00236,0.01628 0.00596,0.03272 0.00371,0.04902 -0.0025,0.01805 -0.011986,0.03431 -0.021899,0.04961 -0.00991,0.0153 -0.020599,0.03048 -0.026025,0.04788 -0.00731,0.02344 -0.00443,0.04871 -0.0011,0.07304 0.00332,0.02433 0.00698,0.04935 0.0011,0.07319 -0.00204,0.0083 -0.00523,0.01633 -0.00629,0.0248 -5.329e-4,0.0042 -5.229e-4,0.0086 4.313e-4,0.01273 9.541e-4,0.0042 0.00289,0.0081 0.00586,0.01121 0.00295,0.003 0.00683,0.0051 0.010929,0.0061 0.0041,0.0011 0.0084,0.0012 0.0126,6.82e-4 0.0084,-9.68e-4 0.01634,-0.0042 0.024396,-0.0068 0.03827,-0.01227 0.07961,-0.0092 0.1195233,-0.0045 0.039913,0.0047 0.080375,0.01089 0.1200552,0.0045 0.036016,-0.0058 0.070644,-0.02236 0.095832,-0.04874 0.0079,-0.0083 0.01483,-0.01743 0.022344,-0.02606 0.00751,-0.0086 0.015735,-0.01684 0.02558,-0.02268 0.013928,-0.0083 0.030408,-0.01134 0.046596,-0.01168 0.016188,-3.35e-4 0.032311,0.0019 0.048336,0.0042 0.032052,0.0046 0.064348,0.0075 0.09673,0.0075 0.1277755,0 0.2555511,0 0.3833266,0 0.2555506,0 0.5111011,0 0.7666517,0 0.07986,0 0.159719,0 0.2395785,0 0.047943,0 0.096106,0.0054 0.1437405,0 0.050502,-0.0058 0.097614,-0.02743 0.1437556,-0.04875 0.032552,-0.01504 0.065203,-0.03009 0.095832,-0.04874 0.090289,-0.05497 0.1614005,-0.142439 0.191664,-0.243721 0.023731,-0.07942 0.022558,-0.164803 0.047909,-0.2437213 0.018993,-0.059126 0.052164,-0.1124569 0.081939,-0.1669552 0.029775,-0.054498 0.056855,-0.1123496 0.061801,-0.1742538 0.00389,-0.048645 -0.00611,-0.097816 0,-0.146232 0.00741,-0.058756 0.038091,-0.1122285 0.074697,-0.1587819 0.036606,-0.046553 0.079541,-0.087786 0.1169658,-0.1336831 0.091876,-0.1126759 0.148384,-0.2514796 0.176178,-0.394184 0.027794,-0.1427044 0.027886,-0.2896113 0.015484,-0.4344672 -0.00139,-0.01624 -0.00293,-0.032709 0,-0.048744 0.00327,-0.017895 0.01193,-0.034321 0.021303,-0.04991 0.00937,-0.01559 0.019629,-0.030779 0.026607,-0.047579 0.00951,-0.0229 0.012585,-0.048108 0.011639,-0.072887 -9.459e-4,-0.024778 -0.0058,-0.049247 -0.011639,-0.073345 -0.00393,-0.016227 -0.00835,-0.032454 -0.00955,-0.049108 -0.00121,-0.016654 0.00102,-0.034031 0.00955,-0.048381 0.00585,-0.00983 0.014344,-0.017771 0.023002,-0.025239 0.00866,-0.00747 0.017659,-0.014671 0.024918,-0.023505 0.015825,-0.019257 0.022145,-0.044858 0.022847,-0.069773 7.02e-4,-0.024915 -0.00364,-0.049674 -0.00816,-0.074186 -0.00904,-0.049024 -0.014689,-0.098656 -0.014689,-0.1485061 l 0,-0.3412093 c 0,-0.016272 4.727e-4,-0.032539 0.00124,-0.048793 7.673e-4,-0.016254 0.00158,-0.032671 -0.00124,-0.048696 -0.00316,-0.017935 -0.01093,-0.034744 -0.019918,-0.050583 -0.00899,-0.015839 -0.01926,-0.03093 -0.028002,-0.046906 C 8.3089059,7.0907175 8.2977,7.055675 8.2783894,7.0250151 8.2438598,6.9701916 8.1869609,6.9343621 8.136989,6.8931224 c -0.024986,-0.02062 -0.048763,-0.043175 -0.066969,-0.069971 -0.018206,-0.026796 -0.030654,-0.058211 -0.031208,-0.090602 -7.547e-4,-0.044097 0.020101,-0.085449 0.042167,-0.1236348 0.022066,-0.038186 0.046358,-0.076593 0.053665,-0.120086 0.00271,-0.016106 0.00298,-0.032687 0,-0.048744 -0.00588,-0.031663 -0.02486,-0.060685 -0.051512,-0.078761 -0.026652,-0.018076 -0.060637,-0.024977 -0.092229,-0.018728"
       id="path4367-1"
       inkscape:path-effect="#path-effect4369-0"
       inkscape:original-d="m 8.0388027,6.7325366 c -0.026729,0.08157 -0.041456,0.2718335 -0.1437404,0.3412093 -0.029723,0.020153 -0.070577,0.023054 -0.095832,0.048744 -0.056467,0.057445 -0.082399,0.142968 -0.1437404,0.1949767 -0.038808,0.032893 -0.09857,0.025766 -0.1437405,0.048745 -0.051504,0.0262 -0.094915,0.06644 -0.1437405,0.097489 -0.07897,0.050214 -0.163283,0.091902 -0.2395785,0.1462319 C 6.915524,7.761543 6.7290465,7.9537356 6.5534412,8.1461185 6.453247,8.2558903 6.3654504,8.3769023 6.2659467,8.4873278 6.1133163,8.6567127 5.9378929,8.8039738 5.7867894,8.9747697 c -0.029648,0.033519 -0.2957631,0.374167 -0.335409,0.438698 -0.03786,0.06162 -0.063883,0.129984 -0.095832,0.194976 -0.015975,0.0325 -0.036627,0.06302 -0.047924,0.09749 -0.015974,0.06499 -0.031949,0.129985 -0.047923,0.194977 -0.015975,0.0325 -0.036627,0.06302 -0.047909,0.09749 -0.015313,0.04671 0.014741,0.1985643 0,0.2437213 -0.00707,0.0218 -0.040779,0.02695 -0.047923,0.04875 -0.010078,0.03083 0.00782,0.06596 0,0.09749 -0.00872,0.03525 -0.039259,0.06224 -0.047924,0.09749 -0.011582,0.04729 0,0.09749 0,0.146232 0,0.01625 -0.011281,0.03726 0,0.04874 0.011281,0.01149 0.031949,0 0.047924,0 0.040117,0 0.2031395,0.0093 0.2395785,0 0.034642,-0.0088 0.066109,-0.02859 0.095832,-0.04874 0.018802,-0.01275 0.025767,-0.04424 0.047924,-0.04874 0.06265,-0.01275 0.127781,0 0.1916625,0 0.127781,0 0.2555515,0 0.3833266,0 0.2555502,0 0.5111017,0 0.7666517,0 0.079857,0 0.1597195,0 0.2395785,0 0.047924,0 0.096479,0.008 0.1437405,0 0.049819,-0.0084 0.096855,-0.02966 0.1437556,-0.04875 0.033167,-0.0135 0.067267,-0.02695 0.095832,-0.04874 0.06101,-0.04655 0.1670629,-0.176986 0.191664,-0.243721 0.028595,-0.07757 0.019314,-0.166147 0.047909,-0.2437213 0.1305337,-0.354103 0.083949,0.08457 0.1437405,-0.341209 0.00677,-0.04826 -0.015147,-0.09999 0,-0.146232 0.00196,-0.0059 0.1859511,-0.280844 0.1916625,-0.292465 0.083753,-0.1704078 0.1708746,-0.7123378 0.1916621,-0.8286512 0.0029,-0.015986 -0.0051,-0.033329 0,-0.048744 0.01128,-0.034468 0.04091,-0.061861 0.04791,-0.097489 0.0093,-0.047797 0,-0.097489 0,-0.1462319 0,-0.032497 -0.01008,-0.06666 0,-0.097489 0.0071,-0.021799 0.03782,-0.028192 0.04792,-0.048744 0.0084,-0.016993 0,-0.256683 0,-0.2924652 0,-0.1137366 0,-0.2274729 0,-0.3412093 0,-0.032495 0.0078,-0.065962 0,-0.097489 -0.0087,-0.035247 -0.03195,-0.064992 -0.04792,-0.097489 -0.01598,-0.032497 -0.02649,-0.068423 -0.04791,-0.097489 -0.074848,-0.101521 -0.2067552,-0.1700352 -0.2395781,-0.2924652 -0.022638,-0.084415 0.068636,-0.1607126 0.095832,-0.2437208 0.00511,-0.015414 0,-0.032497 0,-0.048744 0,-0.121432 -0.056904,-0.097489 -0.1437405,-0.097489"
       inkscape:connector-curvature="0" />
    <path
       style="fill:none;stroke:#d35f5f;stroke-width:1px;stroke-linecap:butt;stroke-linejoin:miter;stroke-opacity:1"
       d="M 5.7657207,6.3479925 9.2060402,9.5971831"
       id="path4400"
       inkscape:connector-curvature="0" />
  </g>
</svg>
