<?xml version="1.0" encoding="UTF-8" standalone="no"?>
<!-- Created with Inkscape (http://www.inkscape.org/) -->

<svg
   xmlns:dc="http://purl.org/dc/elements/1.1/"
   xmlns:cc="http://creativecommons.org/ns#"
   xmlns:rdf="http://www.w3.org/1999/02/22-rdf-syntax-ns#"
   xmlns:svg="http://www.w3.org/2000/svg"
   xmlns="http://www.w3.org/2000/svg"
   xmlns:sodipodi="http://sodipodi.sourceforge.net/DTD/sodipodi-0.dtd"
   xmlns:inkscape="http://www.inkscape.org/namespaces/inkscape"
   width="16px"
   height="16px"
   id="svg2985"
   version="1.1"
   inkscape:version="0.48.4 r9939"
   sodipodi:docname="lampOn.svg"
   inkscape:export-filename="C:\Users\Owen\Desktop\ForgeMCP1.6.4\forge\mcp\jars\resourcepacks\TheVectorPack\assets\cliffiesdecor\textures\blocks\rLampOn.png"
   inkscape:export-xdpi="360"
   inkscape:export-ydpi="360">
  <defs
     id="defs2987">
    <inkscape:path-effect
       effect="spiro"
       id="path-effect4413"
       is_visible="true" />
    <inkscape:perspective
       sodipodi:type="inkscape:persp3d"
       inkscape:vp_x="0 : 8 : 1"
       inkscape:vp_y="0 : 1000 : 0"
       inkscape:vp_z="16 : 8 : 1"
       inkscape:persp3d-origin="8 : 5.3333333 : 1"
       id="perspective3043" />
  </defs>
  <sodipodi:namedview
     id="base"
     pagecolor="#ffffff"
     bordercolor="#666666"
     borderopacity="1.0"
     inkscape:pageopacity="0.0"
     inkscape:pageshadow="2"
     inkscape:zoom="31.392433"
     inkscape:cx="8.3293373"
     inkscape:cy="8.5194966"
     inkscape:current-layer="layer1"
     showgrid="true"
     inkscape:grid-bbox="true"
     inkscape:document-units="px"
     inkscape:snap-page="true"
     inkscape:window-width="1366"
     inkscape:window-height="746"
     inkscape:window-x="-8"
     inkscape:window-y="-8"
     inkscape:window-maximized="1" />
  <metadata
     id="metadata2990">
    <rdf:RDF>
      <cc:Work
         rdf:about="">
        <dc:format>image/svg+xml</dc:format>
        <dc:type
           rdf:resource="http://purl.org/dc/dcmitype/StillImage" />
        <dc:title></dc:title>
      </cc:Work>
    </rdf:RDF>
  </metadata>
  <g
     id="layer1"
     inkscape:label="Layer 1"
     inkscape:groupmode="layer">
    <rect
       style="fill:#800000;fill-opacity:1;fill-rule:nonzero;stroke:none"
       id="rect4407"
       width="16"
       height="16"
       x="0"
       y="0" />
    <path
       style="fill:none;stroke:#aa0000;stroke-width:0.94191182px;stroke-linecap:butt;stroke-linejoin:miter;stroke-opacity:1"
       d="m 0.44877806,0.48063288 15.07058894,0 0,15.07058912 -15.07058894,0 z"
       id="path4409"
       inkscape:connector-curvature="0" />
    <path
       style="fill:none;stroke:#aa0000;stroke-width:1px;stroke-linecap:butt;stroke-linejoin:miter;stroke-opacity:1"
       d="m 4.5870927,0 0,1.4104967 c 0,0.1061926 -0.00467,0.2124584 0,0.3185481 0.010846,0.2462675 0.088508,0.4862554 0.095565,0.7326606 0.00426,0.1487209 -0.017292,0.2981938 0,0.4459674 0.013805,0.1179755 0.052118,0.2321895 0.06371,0.3504029 0.014521,0.1480764 -0.01331,0.2977772 0,0.4459674 0.014544,0.1619335 0.077642,0.3162276 0.095564,0.4778221 0.018739,0.1689558 0,0.3396852 0,0.509677 0,0.1805106 0,0.3610212 0,0.5415318 0,0.5202952 0,1.0405905 0,1.5608857 0,0.1380375 0,0.276075 0,0.4141125 0,0.1274604 0.010443,0.2552259 0,0.3822578 -0.00702,0.085344 -0.026542,0.1693714 -0.031855,0.2548385 -0.00527,0.084798 0,0.1698766 0,0.2548384 0,0.095564 0,0.1911289 0,0.2866933 0,0.084946 0,0.1698923 0,0.2548385 0,0.063711 0.00149,0.1274351 0,0.1911289 -0.00209,0.089124 -0.011963,0.1784297 -0.00385,0.2672083 0.00811,0.088779 0.036444,0.1793694 0.099419,0.2424687 0.024693,0.024742 0.053948,0.044532 0.078945,0.068968 0.012498,0.012218 0.023952,0.02565 0.032684,0.040791 0.00873,0.01514 0.014689,0.032072 0.01579,0.049515 6.692e-4,0.010599 0,0.021235 0,0.031855 0,0.021237 0,0.042473 0,0.06371 0,0.095564 0,0.1911289 0,0.2866933 0,0.1698921 0,0.3397851 0,0.5096771 0,0.03722 0.00111,0.07443 0.0029,0.111608 0.00179,0.03718 0.0037,0.07475 -0.0029,0.111376 -0.00778,0.04315 -0.027557,0.08379 -0.031855,0.127419 -0.00312,0.03172 0,0.06369 0,0.09556 l 0,0.477822 c 0,0.0425 0.00526,0.08524 0,0.127419 -0.00543,0.0435 -0.025501,0.08405 -0.031855,0.127419 -0.00385,0.02629 -0.00274,0.05303 -0.00169,0.07958 0.00105,0.02655 0.00169,0.05312 0.00169,0.07969 0,0.127419 0,0.254839 0,0.382258 0,0.05309 0,0.106183 0,0.159274 0,0.03185 6.03e-4,0.06371 0,0.09556 -0.00405,0.213826 -0.080355,0.423881 -0.06371,0.637096 0.00249,0.03189 0.00702,0.06435 0,0.09556 -0.00739,0.03284 -0.027192,0.06224 -0.031855,0.09557 -0.00295,0.02106 3.48e-4,0.04245 0,0.06371 -6.353e-4,0.03882 -0.01336,0.07635 -0.027377,0.112553 -0.014017,0.0362 -0.029574,0.0722 -0.036333,0.110431 -0.00742,0.04195 -0.00396,0.08496 -3.59e-4,0.127404 0.0036,0.04244 0.0073,0.08541 3.59e-4,0.127434 -0.00714,0.04323 -0.025347,0.08409 -0.031855,0.12742 -0.00474,0.03153 -0.00336,0.06363 -0.00208,0.09549 0.00129,0.03186 0.00208,0.06374 0.00208,0.09563 l 0,1.178628 c 0,0.03209 -0.0021,0.06414 -0.00549,0.09605 -0.0017,0.01596 -0.00333,0.03196 -0.00309,0.04801 2.342e-4,0.01604 0.00243,0.03225 0.00859,0.04707 0.00299,0.0072 0.00694,0.01405 0.012253,0.01974 0.00532,0.0057 0.012066,0.01016 0.019602,0.01212 0.010406,0.0027 0.021364,4.9e-4 0.031964,-0.0013 0.0053,-8.93e-4 0.010643,-0.0017 0.016018,-0.0017 0.00538,-3e-6 0.010814,8.03e-4 0.015728,0.003 0.00693,0.0031 0.012409,0.0087 0.017209,0.01451 0.0048,0.0059 0.00913,0.01215 0.014646,0.01735 0.012038,0.01133 0.028915,0.01649 0.045441,0.01701 0.016526,5.16e-4 0.032884,-0.0032 0.048796,-0.0077 0.015912,-0.0045 0.031662,-0.0098 0.047974,-0.01248 0.016312,-0.0027 0.033469,-0.0027 0.048917,0.0032 0.011171,0.0043 0.020964,0.01139 0.031017,0.01786 0.010053,0.0065 0.020835,0.01247 0.032693,0.014 0.010539,0.0014 0.021228,0 0.031855,0 l 0.06371,0 c 0.010637,0 0.02127,-3.37e-4 0.031893,-8.85e-4 0.010623,-5.47e-4 0.021373,-0.0011 0.031817,8.85e-4 0.011713,0.0023 0.022531,0.0078 0.032777,0.0139 0.010247,0.0061 0.020142,0.01287 0.030933,0.01796 0.029768,0.01403 0.065796,0.01403 0.095564,0 0.043261,0.03924 0.1008826,0.06229 0.1592741,0.06371 0.010616,2.58e-4 0.021236,0 0.031855,0 0.042473,0 0.084946,0 0.1274193,0 0.06371,0 0.1274192,0 0.1911288,0 0.2123654,0 0.4247308,0 0.6370962,0 0.5521501,0 1.1043001,0 1.6564502,0 0.053091,0 0.1061827,0 0.159274,0 0.00532,0 0.010629,1.37e-4 0.01594,3.59e-4 0.00531,2.22e-4 0.010663,4.59e-4 0.015915,-3.59e-4 0.011844,-0.0018 0.02208,-0.009 0.031847,-0.01595 0.00977,-0.0069 0.020015,-0.01409 0.031863,-0.01591 0.010688,-0.0016 0.02147,0.0012 0.032125,0.0031 0.00533,9.2e-4 0.010734,0.0016 0.016132,0.0013 0.0054,-2.97e-4 0.010815,-0.0016 0.015453,-0.0044 0.00651,-0.0039 0.010989,-0.01034 0.015469,-0.01646 0.00448,-0.0061 0.00944,-0.01234 0.016386,-0.01539 0.00493,-0.0022 0.010477,-0.0025 0.015849,-0.0022 0.00537,3.81e-4 0.010664,0.0015 0.016006,0.0022 0.028963,0.0037 0.058223,-0.0053 0.084265,-0.01854 0.026042,-0.0132 0.049745,-0.03053 0.07501,-0.04517 0.096347,-0.0558 0.2102173,-0.06986 0.3185481,-0.09556 0.0426,-0.01011 0.084727,-0.02215 0.1274192,-0.03186 0.085526,-0.01945 0.1739819,-0.02972 0.2548385,-0.06371 0.03113,-0.01309 0.061856,-0.02985 0.095564,-0.03186 0.015993,-9.53e-4 0.031963,0.0015 0.047918,0.003 0.015955,0.0015 0.032373,0.0019 0.047647,-0.003 0.018378,-0.0058 0.033534,-0.01872 0.04803,-0.03142 0.014496,-0.01271 0.029369,-0.02583 0.047534,-0.03229 0.015133,-0.0054 0.031595,-0.0057 0.047609,-0.0045 0.016014,0.0012 0.031907,0.0039 0.047955,0.0045 0.043997,0.0016 0.086869,-0.01282 0.1281138,-0.02822 0.04124,-0.0154 0.08283,-0.03215 0.126725,-0.03549 0.04241,-0.0032 0.08534,0.0062 0.127419,0 0.03336,-0.0049 0.06442,-0.01947 0.09515,-0.03336 0.03073,-0.01389 0.06238,-0.02749 0.09598,-0.03035 0.03178,-0.0027 0.06396,0.0044 0.09556,0 0.03334,-0.0046 0.06354,-0.02152 0.09557,-0.03185 0.04171,-0.01346 0.08666,-0.01575 0.127419,-0.03186 0.01577,-0.0062 0.03067,-0.01445 0.0463,-0.02104 0.01562,-0.0066 0.03233,-0.01157 0.04926,-0.01082 0.01081,4.78e-4 0.02138,0.0033 0.03213,0.0046 0.01075,0.0013 0.02221,8.67e-4 0.03158,-0.0046 0.0065,-0.0038 0.01153,-0.0097 0.01625,-0.01557 0.0047,-0.0059 0.0094,-0.01197 0.01561,-0.01629 0.009,-0.0063 0.02047,-0.0083 0.03144,-0.0076 0.01097,6.55e-4 0.02163,0.0038 0.03216,0.0069 0.01053,0.0032 0.02114,0.0064 0.03209,0.0073 0.01095,9.08e-4 0.02244,-6.84e-4 0.03173,-0.0066 0.0066,-0.0042 0.01177,-0.0103 0.01605,-0.01683 0.0043,-0.0065 0.0078,-0.01354 0.01178,-0.02026 0.004,-0.0067 0.0085,-0.01323 0.01452,-0.01826 0.006,-0.005 0.01355,-0.0085 0.02136,-0.0084 0.0055,9.4e-5 0.01076,0.0019 0.01616,0.0028 0.0027,4.38e-4 0.0055,6.4e-4 0.0082,2.69e-4 0.0027,-3.71e-4 0.0054,-0.0013 0.0075,-0.0031 0.0022,-0.0018 0.0038,-0.0043 0.0046,-0.0071 8.22e-4,-0.0027 9.4e-4,-0.0057 6.01e-4,-0.0085 -6.79e-4,-0.0057 -0.0031,-0.01096 -0.0052,-0.01628 -0.0119,-0.0304 -0.01244,-0.06539 0,-0.09557 0.0091,-0.02199 0.02457,-0.04107 0.03186,-0.06371 0.0049,-0.01529 0.0059,-0.03161 0.0051,-0.04766 -7.92e-4,-0.01604 -0.0033,-0.03195 -0.0051,-0.04791 -0.0048,-0.04229 -0.0047,-0.08512 0,-0.127419 0.006,-0.05385 0.01927,-0.106575 0.03186,-0.159274 0.02035,-0.08518 0.03889,-0.170858 0.06371,-0.254838 0.03144,-0.106362 0.07295,-0.209966 0.09556,-0.318549 0.02394,-0.114953 0.02621,-0.23312 0.03186,-0.350402 0.0149,-0.309316 0.05384,-0.616938 0.09556,-0.92379 0.02734,-0.201097 0.05593,-0.402443 0.06371,-0.605241 0.0077,-0.201613 0,-0.40348 0,-0.605242 0,-0.382258 0,-0.764515 0,-1.146773 0,-1.1255368 0,-2.2510735 0,-3.3766103 0,-0.3504029 0,-0.7008059 0,-1.0512088 0,-0.159274 0,-0.3185481 0,-0.4778221 0,-0.1380479 -0.0055,-0.2761732 0,-0.4141126 0.0059,-0.1489451 0.02881,-0.2969363 0.03186,-0.4459673 0.0024,-0.1168061 -0.0074,-0.2338082 0,-0.3504029 0.01365,-0.2144955 0.08525,-0.4224142 0.09556,-0.6370963 0.0092,-0.1912146 -0.03047,-0.3843919 0,-0.5733865 0.01029,-0.063819 0.02852,-0.1265722 0.03186,-0.1911289 0.0044,-0.085051 -0.01716,-0.1714201 0,-0.2548385 0.0088,-0.042944 0.02775,-0.083769 0.03186,-0.1274192 0.003,-0.031728 0,-0.063697 0,-0.095565 0,-0.031855 0,-0.063709 0,-0.095564 0,-0.095564 0,-0.1911289 0,-0.2866933 0,-0.2973116 0,-0.5946231 0,-0.8919347 0,-0.12741924 0,-0.25483849 0,-0.38225773 0,-0.0106183 0,-0.0212365 0,-0.0318548 0,-0.005485 -7.47e-4,-0.0109352 -0.0019,-0.0162902 -5.94e-4,-0.002678 -0.0012,-0.005395 -0.0011,-0.008135 4.9e-5,-0.00137 2.74e-4,-0.002742 7.56e-4,-0.004026 4.82e-4,-0.001284 0.0012,-0.002479 0.0022,-0.003404 0.001,-9.4807e-4 0.0023,-0.001591 0.0037,-0.001936 0.0014,-3.4489e-4 0.0028,-3.9911e-4 0.0042,-2.5591e-4 0.0028,2.8641e-4 0.0055,0.001342 0.0081,0.002372 0.0026,0.00103 0.0053,0.002056 0.0081,0.002278 0.0014,1.1096e-4 0.0028,1.554e-5 0.0042,-3.7622e-4 0.0014,-3.9176e-4 0.0026,-0.001087 0.0036,-0.002082 9.94e-4,-9.9471e-4 0.0017,-0.002269 0.0021,-0.00362 3.92e-4,-0.001351 4.87e-4,-0.002778 3.76e-4,-0.00418 -2.22e-4,-0.002804 -0.0012,-0.005475 -0.0023,-0.008093 -0.001,-0.002618 -0.0021,-0.005272 -0.0024,-0.00807 -1.43e-4,-0.001399 -8.8e-5,-0.002827 2.57e-4,-0.00419 3.45e-4,-0.001364 9.87e-4,-0.002663 0.0019,-0.003702 9.24e-4,-0.001013 0.0021,-0.00176 0.0034,-0.002242 0.0013,-4.8197e-4 0.0027,-7.0627e-4 0.004,-7.5596e-4 0.0027,-9.939e-5 0.0055,4.7009e-4 0.0081,0.001064 0.0054,0.001187 0.0108,0.001934 0.01629,0.001934 0.06371,0 0.127419,0 0.191129,0 0.08495,0 0.169893,0 0.254839,0 0.02135,0 0.04268,-0.001201 0.06395,-0.003145 0.02126,-0.001944 0.04333,-0.003943 0.06347,0.003145 0.01125,0.003957 0.02128,0.0106522 0.0314,0.0169644 0.01011,0.006312 0.02066,0.0123929 0.03231,0.0148904 0.01041,0.002229 0.02119,0.001587 0.03181,9.806e-4 0.01062,-6.0671e-4 0.02126,-9.806e-4 0.0319,-9.806e-4 0.02124,0 0.04247,0 0.06371,0 0.06371,0 0.127419,0 0.191129,0 0.01062,0 0.02124,0 0.03186,0 0.0054,0 0.01087,-6.6653e-4 0.01621,-0.001731 0.0027,-5.3209e-4 0.0054,-0.001043 0.0081,-9.5783e-4 0.0027,8.5e-5 0.0055,8.4307e-4 0.0075,0.002689 0.001,9.3929e-4 0.0018,0.00213 0.0023,0.003418 5.16e-4,0.001287 7.77e-4,0.002669 8.41e-4,0.004055 1.29e-4,0.002771 -5.18e-4,0.005518 -0.0013,0.008175 -7.96e-4,0.002657 -0.0017,0.005277 -0.0023,0.008003 -5.12e-4,0.002726 -5.61e-4,0.005612 4.23e-4,0.008205 0.001,0.002655 0.0031,0.004847 0.0055,0.006281 0.0025,0.001434 0.0053,0.002146 0.0081,0.002328 0.0057,3.6323e-4 0.01126,-0.001272 0.01668,-0.002983 0.0054,-0.001711 0.01083,-0.003487 0.01643,-0.004477 0.0056,-9.9049e-4 0.0113,-0.001148 0.01698,-0.001148 0.04247,0 0.08495,0 0.127419,0 0.05309,0 0.106183,0 0.159274,0 0.05312,0 0.106422,-0.005297 0.159274,0 0.08731,0.008751 0.167484,0.0553824 0.254839,0.0637096 0.06351,0.006054 0.127899,-0.008485 0.191129,0 0.05377,0.007216 0.105029,0.0309013 0.159274,0.0318548 0.03194,5.615e-4 0.06434,-0.0068 0.09556,0 0.01647,0.003589 0.03182,0.0109804 0.04727,0.0177412 0.01545,0.006761 0.03147,0.0130207 0.04829,0.0141136 0.01064,6.913e-4 0.02129,-7.0901e-4 0.03192,-0.001581 0.01063,-8.716e-4 0.02149,-0.001195 0.03179,0.001581 0.01153,0.003107 0.02165,0.009896 0.03164,0.0164265 0.01,0.00653 0.02038,0.0130296 0.03207,0.0154283 0.01045,0.002144 0.02127,8.6753e-4 0.03187,-3.1275e-4 0.01061,-0.00118 0.02148,-0.002241 0.03184,3.1275e-4 0.01162,0.002863 0.02163,0.0100185 0.0315,0.0167757 0.0099,0.006757 0.02036,0.0134272 0.03221,0.0150791 0.01053,0.001468 0.02128,-0.001171 0.03185,0 0.01189,0.001318 0.02271,0.007346 0.03274,0.0138737 0.01003,0.006528 0.01978,0.0137545 0.03097,0.0179811 0.01008,0.003806 0.021,0.005027 0.03177,0.004651 0.01077,-3.762e-4 0.02142,-0.002311 0.03194,-0.004651 0.0053,-0.001179 0.0106,-0.002466 0.01602,-0.002812 0.0054,-3.457e-4 0.01102,3.0356e-4 0.01583,0.002812 0.0034,0.00176 0.0062,0.004372 0.0087,0.007261 0.0025,0.002889 0.0046,0.006067 0.0068,0.009203 0.0022,0.003136 0.0044,0.006253 0.007,0.008983 0.0027,0.00273 0.0058,0.005078 0.0093,0.006408 0.005,0.00187 0.01055,0.001622 0.01587,0.001012 0.0053,-6.1082e-4 0.01066,-0.001561 0.01599,-0.001012 0.0062,6.3648e-4 0.01206,0.003316 0.01681,0.007304 0.0047,0.003988 0.0084,0.009248 0.0107,0.0149936 0.0047,0.0114909 0.0042,0.0245596 9.75e-4,0.0365482 -0.0064,0.0239772 -0.02267,0.0444607 -0.02849,0.0685733 -0.0044,0.0182644 -0.0024,0.0378761 0.0048,0.0552315 0.0072,0.0173554 0.01946,0.0324489 0.03446,0.0437671 0.02999,0.0226365 0.06977,0.029581 0.107082,0.0251043 0.03731,-0.004477 0.07259,-0.0194522 0.105743,-0.0371415 0.03315,-0.0176892 0.06475,-0.0382345 0.09833,-0.0551067 0.01536,-0.007717 0.03148,-0.0147528 0.0486,-0.0162431 0.0086,-7.4514e-4 0.0173,-6.21e-5 0.02548,0.002564 0.0082,0.002626 0.01579,0.007243 0.02149,0.0136794 0.009,0.010191 0.01268,0.0241966 0.01309,0.0377973 4.1e-4,0.0136007 -0.0021,0.027108 -0.0047,0.0404659 -0.0052,0.0267158 -0.0084,0.0537971 -0.0084,0.0810108 l 0,0.38225774 c 0,0.074335 -0.0033,0.1487208 0,0.2229837 0.01046,0.2375525 0.109312,0.4637136 0.127419,0.7008058 0.0094,0.1225233 -0.0031,0.2455096 -0.0076,0.3683064 -0.0045,0.1227968 -7.48e-4,0.2482304 0.03944,0.3643542 0.02202,0.063622 0.0549,0.1243839 0.06371,0.1911289 0.0083,0.063214 0,0.1273666 0,0.1911289 0,0.06371 0,0.1274192 0,0.1911288 0,0.2548385 0,0.509677 0,0.7645155 0,0.074328 0,0.1486558 0,0.2229837 0,0.015945 -4.03e-4,0.031886 -0.0011,0.047818 -6.54e-4,0.015932 -0.0014,0.031985 0.0011,0.047746 0.0044,0.028443 0.01882,0.054168 0.03276,0.079339 0.01394,0.025171 0.02787,0.051327 0.03095,0.079935 0.0023,0.021126 0,0.042462 0,0.06371 l 0,0.1911288 c 0,0.010725 -8.12e-4,0.021428 -0.0021,0.032072 -6.56e-4,0.00532 -0.0013,0.010667 -0.0012,0.016029 9.2e-5,0.00536 9.51e-4,0.010796 0.0033,0.015609 0.0033,0.00679 0.0094,0.011807 0.01538,0.016409 0.006,0.0046 0.01229,0.00914 0.01648,0.015446 0.0045,0.00674 0.0062,0.015008 0.0064,0.0231 1.87e-4,0.00809 -0.001,0.016147 -0.0023,0.024143 -0.0025,0.015992 -0.0041,0.032131 -0.0041,0.04832 l 0,0.4141125 c 0,0.00534 3.2e-4,0.010678 8.37e-4,0.015995 5.17e-4,0.00532 0.001,0.01086 -8.37e-4,0.01586 -0.001,0.00277 -0.0028,0.00525 -0.0051,0.00721 -0.0022,0.00196 -0.0049,0.00341 -0.0077,0.00435 -0.0056,0.00188 -0.01177,0.0017 -0.01756,4.308e-4 -0.01158,-0.00253 -0.02191,-0.00917 -0.03342,-0.011992 -0.01035,-0.00254 -0.0212,-0.00188 -0.03181,-9.097e-4 -0.01062,9.743e-4 -0.02132,0.00225 -0.0319,9.097e-4 -0.01927,-0.00244 -0.03643,-0.013369 -0.05133,-0.025826 -0.0149,-0.012457 -0.02832,-0.026738 -0.04422,-0.037884 -0.01948,-0.01365 -0.042,-0.02213 -0.06371,-0.031855 -0.04334,-0.019419 -0.08412,-0.044194 -0.12742,-0.06371 -0.08974,-0.040446 -0.188462,-0.057434 -0.286693,-0.06371 -0.158981,-0.010157 -0.318517,0 -0.477822,0 l -0.605241,0 c -0.222999,0 -0.446109,0.00837 -0.668951,0 -0.276746,-0.010397 -0.551416,-0.055164 -0.828225,-0.06371 -0.254777,-0.00787 -0.510059,0.015 -0.764516,0 C 11.0569,5.4336911 10.688552,5.3280693 10.320959,5.233074 10.161352,5.1918276 10.001202,5.1524624 9.8431365,5.1056547 9.694852,5.0617433 9.5482549,5.0112446 9.3971692,4.9782355 9.26861,4.950148 9.1358971,4.9344286 9.0149114,4.8826711 8.9056222,4.8359174 8.809132,4.7609902 8.6963633,4.723397 8.6229429,4.6989212 8.5442101,4.690875 8.4733797,4.6596874 8.4031442,4.6287617 8.344683,4.576896 8.2822508,4.5322681 8.1603978,4.445165 8.0175494,4.3835484 7.8681382,4.3729941 c -0.063572,-0.00449 -0.1273989,2.189e-4 -0.1911288,0 C 7.5696356,4.3726252 7.4627655,4.3582687 7.3554337,4.3552414 7.2481019,4.3522141 7.1379984,4.3611619 7.0399132,4.4048491 6.9482953,4.4456558 6.8721818,4.5144102 6.7850747,4.5641232 6.6941904,4.6159919 6.5927661,4.6463557 6.4983814,4.6915424 6.3539763,4.7606764 6.2279785,4.8636895 6.1161237,4.9782357 c -0.013637,0.013965 -0.02716,0.028181 -0.042741,0.039937 -0.015581,0.011757 -0.033496,0.021053 -0.052824,0.023773 -0.021049,0.00296 -0.042453,0 -0.06371,0 -0.031855,0 -0.063709,0 -0.095564,0 -0.1805106,0 -0.3610212,0 -0.5415318,0 -0.1592741,0 -0.3185481,0 -0.4778222,0 -0.1699306,0 -0.340145,0.011633 -0.5096769,0 C 4.1492342,5.0293869 3.9708802,4.9809794 3.7907225,4.9463807 3.643211,4.9180516 3.4940798,4.8989288 3.3447551,4.8826711 3.207088,4.8676827 3.0690567,4.8551075 2.9306426,4.8508162 c -0.1910459,-0.00592 -0.3822489,0 -0.5733866,0 -0.4141125,0 -0.8282251,0 -1.2423376,0 -0.14865579,0 -0.29731158,0 -0.44596737,0 -0.0637096,0 -0.12741925,0 -0.19112887,0 -0.0160097,0 -0.0320033,-8.734e-4 -0.0479504,-0.00229 -0.0159471,-0.00141 -0.0324589,-0.00287 -0.047614,0.00229 -0.0113431,0.00386 -0.021056,0.011278 -0.0309931,0.017975 -0.009937,0.0067 -0.0207713,0.012933 -0.0327165,0.01388 -0.0087,6.902e-4 -0.0173845,-0.00149 -0.0256011,-0.00443 -0.008217,-0.00294 -0.0161566,-0.00665 -0.0245017,-0.00921 -0.008345,-0.00255 -0.0172908,-0.00392 -0.0258083,-0.00202 -0.004259,9.502e-4 -0.008359,0.00272 -0.0118222,0.00538 -0.003463,0.00265 -0.006273,0.00621 -0.007831,0.010282 -0.001912,0.005 -0.001887,0.01053 -0.001375,0.015861 5.116e-4,0.00533 0.001484,0.01064 0.001375,0.015994 -1.0903e-4,0.00538 -0.001308,0.010677 -0.001877,0.016029 -5.695e-4,0.00535 -4.6203e-4,0.010978 0.001877,0.015826 0.001449,0.003 0.003732,0.0056 0.006535,0.0074 0.002804,0.0018 0.006121,0.0028 0.009454,0.00283 0.003333,2.53e-5 0.006671,-9.277e-4 0.009477,-0.00273 0.002805,-0.0018 0.005066,-0.00444 0.006388,-0.0075 0.001108,-0.00256 0.001558,-0.00541 0.0013,-0.00819 -2.5779e-4,-0.00278 -0.001222,-0.00549 -0.002774,-0.00781 -0.003104,-0.00464 -0.00862,-0.00756 -0.0142053,-0.00755 -0.005585,1.01e-5 -0.0110772,0.00294 -0.0142296,0.00755 -0.003152,0.00461 -0.003889,0.010772 -0.001945,0.016007 0.001332,0.00359 0.003805,0.00666 0.006659,0.00921 0.002854,0.00255 0.006097,0.00462 0.009321,0.00668 0.003224,0.00206 0.006461,0.00414 0.0093,0.0067 0.002839,0.00257 0.005286,0.00566 0.006575,0.00927 0.001799,0.00503 0.001292,0.01055 7.9847e-4,0.015866 -4.9358e-4,0.00532 -7.9847e-4,0.01065 -7.9847e-4,0.015989 0,0.021237 0,0.042473 0,0.06371 0,0.053091 0,0.1061827 0,0.1592741 0,0.1698923 0,0.3397846 0,0.5096769 0,0.1911289 0,0.3822577 0,0.5733866 0,0.063769 -0.008858,0.1279781 0,0.1911289 0.009348,0.066645 0.0441862,0.126726 0.0637096,0.1911289 0.0203253,0.067048 0.0237924,0.1378454 0.0283237,0.2077599 0.004531,0.069915 0.0105041,0.1408585 0.0353859,0.2063526 0.0203573,0.053585 0.0531574,0.1029324 0.0637096,0.1592741 0.009795,0.052301 -4.5712e-4,0.1060658 0,0.159274 6.2404e-4,0.072637 0.0212539,0.1436876 0.0471027,0.2115728 0.0258489,0.067885 0.0570764,0.1337179 0.0803165,0.2025398 0.0280281,0.083001 0.0441431,0.169446 0.0637096,0.2548384 0.019557,0.085351 0.0426193,0.1698537 0.0637096,0.2548385 0.0260947,0.1051503 0.0491965,0.2111847 0.0637096,0.3185481 0.0229525,0.1697956 0.0244452,0.3428967 0.0637096,0.509677 0.0325471,0.1382475 0.090974,0.2721597 0.0955644,0.4141125 0.00103,0.03184 0,0.063708 0,0.095565 l 0,0.2548385 c 0,0.095619 0.0104072,0.1916422 0,0.2866932 -0.0131975,0.120535 -0.0700708,0.231857 -0.0955644,0.350403 -0.0135826,0.06316 -0.0181672,0.127993 -0.0318548,0.191129 -0.0284835,0.131385 -0.0954741,0.251672 -0.12741924,0.382258 -0.0128671,0.0526 -0.0199388,0.106452 -0.0318548,0.159274 -0.0273874,0.121405 -0.0798426,0.2354 -0.12741924,0.350403 -0.0168723,0.04078 -0.0334465,0.08331 -0.0318548,0.127419 5.8011e-4,0.01608 0.00358,0.03196 0.004932,0.04799 0.001351,0.01603 9.6959e-4,0.0326 -0.004932,0.04757 -0.00439,0.01113 -0.011623,0.02086 -0.0181211,0.03091 -0.006498,0.01005 -0.0124474,0.02091 -0.0137337,0.0328 -8.6002e-4,0.008 4.1245e-4,0.01596 0.001549,0.02388 0.001137,0.0079 0.002139,0.016 7.4926e-4,0.02388 -6.9492e-4,0.0039 -0.001997,0.0078 -0.004074,0.01121 -0.002077,0.0034 -0.004949,0.0064 -0.008438,0.0083 -0.003488,0.002 -0.007602,0.0029 -0.0115614,0.0023 -0.003959,-5.73e-4 -0.007724,-0.0027 -0.0100804,-0.0059 -0.001609,-0.0022 -0.002536,-0.0049 -0.002922,-0.0076 -3.867e-4,-0.0027 -2.5152e-4,-0.0055 1.21e-4,-0.0082 7.4503e-4,-0.0054 0.002432,-0.01068 0.002801,-0.01613 3.6156e-4,-0.0053 -5.5091e-4,-0.01066 -0.001096,-0.01598 -5.4506e-4,-0.0053 -7.015e-4,-0.01083 0.001096,-0.01587 0.001913,-0.0054 0.005977,-0.0098 0.0108639,-0.01274 0.004887,-0.0029 0.0105582,-0.0044 0.0162385,-0.0047 0.0113605,-7.49e-4 0.0225635,0.0026 0.033405,0.006 0.0108415,0.0035 0.0216834,0.0071 0.0328888,0.0091 0.0112055,0.002 0.022638,0.0023 0.0340231,0.0023 l 0.66895104,0 c 0.1703234,0 0.3395671,0.02332 0.509677,0.03185 0.1272748,0.0064 0.2548231,0 0.3822577,0 l 0.4778222,0 c 0.2017594,0 0.4036098,0.0072 0.6052414,0 0.2883974,-0.01027 0.573752,-0.05958 0.8600799,-0.09556 0.4340248,-0.05454 0.8713458,-0.07856 1.3060472,-0.127419 0.8746188,-0.09831 1.7361166,-0.296903 2.6120945,-0.382258 0.9236954,-0.09 1.8609443,-0.0527 2.7713683,0.12742 0.46546,0.09209 0.923431,0.221242 1.369757,0.382257 0.321427,0.115957 0.645826,0.25025 0.987499,0.254839 0.03185,4.28e-4 0.06371,0 0.09557,0 0.08495,0 0.169892,0 0.254838,0 0.254839,0 0.509677,0 0.764516,0 0.05309,0 0.106183,0 0.159274,0 0.04249,0 0.08513,-0.0042 0.127419,0 0.06707,0.0066 0.127888,0.0404 0.191129,0.06371 0.05105,0.01881 0.104879,0.03102 0.159274,0.03185 0.01062,1.62e-4 0.02124,0 0.03186,0 0.02124,0 0.04247,0 0.06371,0 0.06371,0 0.127419,0 0.191129,0 0.01065,0 0.02129,-4.12e-4 0.03191,-0.0011 0.01062,-6.68e-4 0.02144,-0.0014 0.0318,0.0011 0.01162,0.0027 0.02187,0.0094 0.03186,0.01593 0.01,0.0065 0.02024,0.01318 0.03186,0.01593 0.01036,0.0025 0.02117,0.0017 0.0318,0.0011 0.01063,-6.67e-4 0.02126,-0.0011 0.03191,-0.0011 l 0.222984,0 0.454852,0"
       id="path4411"
       inkscape:path-effect="#path-effect4413"
       inkscape:original-d="m 4.5870927,0 c 0,0.47016556 0,0.94033113 0,1.4104967 0,0.1061827 -0.00961,0.2128015 0,0.3185481 0.064664,0.7113016 0.068654,0.0599 0.095565,0.7326606 0.00594,0.148537 -0.011855,0.297785 0,0.4459674 0.00947,0.1183378 0.054243,0.2320651 0.06371,0.3504029 0.011855,0.1481824 -0.015297,0.2981007 0,0.4459674 0.016714,0.1615661 0.079919,0.3161491 0.095564,0.4778221 0.016365,0.1691024 0,0.3397847 0,0.509677 0,0.1805106 0,0.3610212 0,0.5415318 0,0.5202952 0,1.0405905 0,1.5608857 0,0.1380375 0,0.276075 0,0.4141125 0,0.1274193 0.00636,0.2549975 0,0.3822578 -0.00428,0.0855 -0.026515,0.1693979 -0.031855,0.2548385 -0.0053,0.084781 0,0.1698923 0,0.2548384 0,0.095565 0,0.1911289 0,0.2866933 0,0.084946 0,0.1698924 0,0.2548385 0,0.06371 -0.00397,0.1275433 0,0.1911289 0.00946,0.151399 0.016407,0.3645542 0.095565,0.509677 0.032557,0.059688 0.089705,0.1027028 0.1274192,0.159274 0.00589,0.00883 0,0.021237 0,0.031855 0,0.021237 0,0.042473 0,0.06371 0,0.095565 0,0.1911289 0,0.2866933 0,0.1698931 0,0.3397851 0,0.5096771 0,0.07433 0.00922,0.14923 0,0.222984 -0.00543,0.04344 -0.025663,0.08408 -0.031855,0.127419 -0.0045,0.03153 0,0.06371 0,0.09556 0,0.159274 0,0.318548 0,0.477822 0,0.04247 0.00527,0.08527 0,0.127419 -0.00543,0.04344 -0.02702,0.08391 -0.031855,0.127419 -0.00586,0.05277 0,0.106183 0,0.159274 0,0.12742 0,0.254839 0,0.382258 0,0.05309 0,0.106183 0,0.159274 0,0.03186 0.00302,0.06385 0,0.09556 -0.020235,0.212463 -0.045221,0.424474 -0.06371,0.637096 -0.00276,0.03173 0.00524,0.06414 0,0.09556 -0.00552,0.03312 -0.02527,0.06264 -0.031855,0.09557 -0.00416,0.02082 0.00416,0.04288 0,0.06371 -0.045382,0.226912 -0.024124,-0.05411 -0.06371,0.222984 -0.012013,0.08409 0.00938,0.170412 0,0.254838 -0.00483,0.04351 -0.026425,0.08398 -0.031855,0.12742 -0.00707,0.05659 0,0.130167 0,0.191129 0,0.392876 0,0.785752 0,1.178628 0,0.02258 -0.00412,0.182892 0,0.191128 0.00672,0.01343 0.018424,0.02514 0.031855,0.03186 0.018995,0.0095 0.044715,-0.0095 0.06371,0 0.013431,0.0067 0.018424,0.02514 0.031855,0.03186 0.018398,0.0092 0.1598761,-0.0078 0.1911288,0 0.023034,0.0058 0.041185,0.02435 0.06371,0.03186 0.010073,0.0034 0.021237,0 0.031855,0 0.021237,0 0.042473,0 0.06371,0 0.021237,0 0.043107,-0.0052 0.06371,0 0.023034,0.0058 0.040427,0.0272 0.06371,0.03186 0.031236,0.0062 0.06371,0 0.095564,0 0.053091,0.02124 0.1050273,0.04563 0.1592741,0.06371 0.010073,0.0034 0.021237,0 0.031855,0 0.042473,0 0.084946,0 0.1274193,0 0.06371,0 0.1274192,0 0.1911288,0 0.2123654,0 0.4247308,0 0.6370962,0 0.5521501,0 1.1043001,0 1.6564502,0 0.053091,0 0.1061827,0 0.159274,0 0.010618,0 0.021781,0.0034 0.031855,0 0.022525,-0.0075 0.040675,-0.0261 0.06371,-0.03186 0.020602,-0.0052 0.043563,0.0067 0.06371,0 0.014246,-0.0047 0.018424,-0.02514 0.031855,-0.03185 0.0095,-0.0047 0.021781,0.0034 0.031855,0 0.1977262,-0.06591 -0.1058701,0.0026 0.1592741,-0.06371 0.5032796,-0.12582 -0.1950894,0.07565 0.3185481,-0.09556 0.041534,-0.01384 0.084946,-0.02124 0.1274192,-0.03186 0.084946,-0.02124 0.170647,-0.03965 0.2548385,-0.06371 0.032286,-0.0092 0.062443,-0.02633 0.095564,-0.03186 0.031421,-0.0052 0.065344,0.01007 0.095565,0 0.03632,-0.01211 0.059244,-0.0516 0.095564,-0.06371 0.03022,-0.01007 0.06403,0.0045 0.095564,0 0.08668,-0.01238 0.1679538,-0.05285 0.2548388,-0.06371 0.04214,-0.0053 0.08537,0.006 0.127419,0 0.06648,-0.0095 0.124887,-0.05267 0.191129,-0.06371 0.03142,-0.0052 0.06414,0.0052 0.09556,0 0.03312,-0.0055 0.06328,-0.02263 0.09557,-0.03185 0.04209,-0.01203 0.08532,-0.01983 0.127419,-0.03186 0.03229,-0.0092 0.06264,-0.02527 0.09556,-0.03186 0.02082,-0.0042 0.04356,0.0067 0.06371,0 0.01425,-0.0047 0.01761,-0.02711 0.03186,-0.03186 0.0384,-0.0128 0.08902,0.0128 0.127419,0 0.02849,-0.0095 0.03685,-0.05028 0.06371,-0.06371 0.0095,-0.0047 0.02435,0.0075 0.03185,0 0.0075,-0.0075 0,-0.02124 0,-0.03186 0,-0.03186 -0.0062,-0.06433 0,-0.09557 0.0047,-0.02328 0.0272,-0.04043 0.03186,-0.06371 0.0062,-0.03124 0,-0.06371 0,-0.09557 0,-0.04247 -0.0047,-0.08521 0,-0.127419 0.006,-0.05381 0.01968,-0.106518 0.03186,-0.159274 0.01969,-0.08532 0.04028,-0.170472 0.06371,-0.254838 0.02967,-0.106814 0.07482,-0.209648 0.09556,-0.318549 0.02195,-0.115211 0.01788,-0.233955 0.03186,-0.350402 0.172743,-1.43953 -0.03819,0.592055 0.09556,-0.92379 0.01783,-0.202077 0.05305,-0.40266 0.06371,-0.605241 0.0106,-0.201469 0,-0.403495 0,-0.605242 0,-0.382258 0,-0.764515 0,-1.146773 0,-1.125537 0,-2.2510737 0,-3.3766103 0,-0.3504029 0,-0.7008059 0,-1.0512088 0,-0.159274 0,-0.3185481 0,-0.4778221 0,-0.1380375 -0.0051,-0.2761696 0,-0.4141126 0.0055,-0.1489324 0.0259,-0.2970519 0.03186,-0.4459673 0.0047,-0.1167077 -0.01107,-0.2341281 0,-0.3504029 0.0881,-0.9250869 0.04952,0.2838068 0.09556,-0.6370963 0.0095,-0.1908904 -0.01362,-0.3827434 0,-0.5733865 0.0046,-0.064424 0.02543,-0.126861 0.03186,-0.1911289 0.0085,-0.084525 -0.01054,-0.1705483 0,-0.2548385 0.0054,-0.043442 0.02566,-0.084079 0.03186,-0.1274192 0.0045,-0.031535 0,-0.06371 0,-0.095565 0,-0.031855 0,-0.06371 0,-0.095564 0,-0.095564 0,-0.1911289 0,-0.2866933 0,-0.2973116 0,-0.5946231 0,-0.8919347 0,-0.12741924 0,-0.25483849 0,-0.38225773 0,-0.0106183 0,-0.0212365 0,-0.0318548 0,-0.0106183 -0.0075,-0.0243466 0,-0.0318548 0.0075,-0.007508 0.02435,0.007508 0.03186,0 0.0075,-0.007508 -0.0075,-0.0243466 0,-0.0318548 0.0075,-0.007508 0.02124,0 0.03185,0 0.06371,0 0.12742,0 0.191129,0 0.08495,0 0.169893,0 0.254839,0 0.03653,0 0.09442,-0.00825 0.127419,0 0.02303,0.005759 0.04068,0.0260962 0.06371,0.0318548 0.0206,0.005151 0.04247,0 0.06371,0 0.02124,0 0.04247,0 0.06371,0 0.06371,0 0.127419,0 0.191129,0 0.01062,0 0.02124,0 0.03186,0 0.01062,0 0.02435,-0.007508 0.03185,0 0.0075,0.007508 -0.0095,0.0271062 0,0.0318548 0.01899,0.009497 0.04247,0 0.06371,0 0.04247,0 0.08495,0 0.127419,0 0.05309,0 0.106183,0 0.159274,0 0.05309,0 0.1068,-0.008073 0.159274,0 0.08654,0.0133142 0.168158,0.0513267 0.254839,0.0637096 0.06307,0.00901 0.127681,-0.005768 0.191129,0 0.05392,0.004902 0.105549,0.0251392 0.159274,0.0318548 0.03161,0.003951 0.06414,-0.005237 0.09556,0 0.03312,0.00552 0.06264,0.0252696 0.09556,0.0318548 0.02082,0.004165 0.04311,-0.005151 0.06371,0 0.02303,0.005759 0.04068,0.0260962 0.06371,0.0318548 0.0206,0.005151 0.04311,-0.005151 0.06371,0 0.02304,0.005759 0.04118,0.0243466 0.06371,0.0318548 0.01007,0.003358 0.02178,-0.003358 0.03185,0 0.02252,0.007508 0.04068,0.0260963 0.06371,0.0318548 0.0206,0.005151 0.04247,0 0.06371,0 0.01062,0 0.02236,-0.004749 0.03185,0 0.01343,0.006716 0.01842,0.0251392 0.03186,0.0318548 0.0095,0.004749 0.02435,-0.007508 0.03186,0 0.0066,0.0066 -0.0034,0.12571668 0,0.12741924 0.09518,0.0475907 0.243935,0.0318548 0.350402,0.0318548 0.0077,0 0.09454,-0.001024 0.09557,0 7.95e-4,7.9497e-4 0,0.14730688 0,0.15927405 0,0.12741924 0,0.25483844 0,0.38225774 0,0.074328 -0.0044,0.148784 0,0.2229837 0.03428,0.5826992 0.01908,0.050758 0.127419,0.7008058 0.151244,0.9074633 -0.06835,-0.1190495 0.03186,0.7326606 0.0078,0.066696 0.05267,0.1248868 0.06371,0.1911289 0.01047,0.062843 0,0.1274192 0,0.1911289 0,0.06371 0,0.1274192 0,0.1911288 0,0.2548385 0,0.509677 0,0.7645155 0,0.074328 0,0.1486558 0,0.2229837 0,0.031855 -0.0077,0.064661 0,0.095564 0.01387,0.055474 0.04563,0.1050273 0.06371,0.159274 0.0067,0.020147 0,0.042473 0,0.06371 0,0.06371 0,0.1274192 0,0.1911288 0,0.021237 -0.0067,0.043563 0,0.06371 0.0047,0.014246 0.02514,0.018424 0.03186,0.031855 0.0048,0.00969 0,0.081218 0,0.095564 0,0.1380375 0,0.276075 0,0.4141125 0,0.010618 0.0095,0.027106 0,0.031855 -0.019,0.0095 -0.04247,0 -0.06371,0 -0.02124,0 -0.04399,0.00789 -0.06371,0 -0.03555,-0.014219 -0.06274,-0.044012 -0.09556,-0.06371 -0.02036,-0.012216 -0.04247,-0.021236 -0.06371,-0.031855 -0.04247,-0.021237 -0.08203,-0.049745 -0.12742,-0.06371 -0.09357,-0.02879 -0.189135,-0.05558 -0.286693,-0.06371 -0.158724,-0.013227 -0.318548,0 -0.477822,0 -0.201747,0 -0.403494,0 -0.605241,0 -0.222984,0 -0.446169,0.00948 -0.668951,0 -0.276641,-0.011772 -0.551556,-0.052643 -0.828225,-0.06371 -0.254635,-0.010185 -0.510295,0.017736 -0.764516,0 C 11.057239,5.4296411 10.686183,5.3273253 10.320959,5.233074 10.161348,5.1918841 10.002041,5.1494904 9.8431365,5.1056547 9.6940991,5.064541 9.5464576,5.0184285 9.3971692,4.9782355 9.2703445,4.9440904 9.1383446,4.9275559 9.0149114,4.8826711 8.903343,4.8421007 8.8061373,4.7685981 8.6963633,4.723397 8.6248837,4.6939642 8.5435669,4.6920815 8.4733797,4.6596874 8.4038577,4.6276003 8.349668,4.5685697 8.2822508,4.5322681 8.2262736,4.5021266 7.9460317,4.3859763 7.8681382,4.3729941 c -0.062843,-0.010474 -0.1274192,0 -0.1911288,0 -0.089535,0 -0.510005,-0.015804 -0.6370962,0.031855 -0.093794,0.035173 -0.1663072,0.1124045 -0.2548385,0.1592741 -0.092425,0.048931 -0.1955458,0.076149 -0.2866933,0.1274192 -0.135625,0.076289 -0.2578646,0.1933985 -0.3822577,0.2866933 -0.030628,0.022971 -0.060018,0.049491 -0.095565,0.06371 -0.019718,0.00789 -0.042473,0 -0.06371,0 -0.031855,0 -0.06371,0 -0.095564,0 -0.1805106,0 -0.3610212,0 -0.5415318,0 -0.1592741,0 -0.3185481,0 -0.4778222,0 -0.1698923,0 -0.3404823,0.015381 -0.5096769,0 C 4.1497073,5.0253499 3.9716835,4.975568 3.7907225,4.9463807 3.6424734,4.9224695 3.4940017,4.899254 3.3447551,4.8826711 3.2071566,4.8673823 3.0689572,4.8568299 2.9306426,4.8508162 c -0.1909485,-0.0083 -0.3822577,0 -0.5733866,0 -0.4141125,0 -0.8282251,0 -1.2423376,0 -0.14865581,0 -0.29731159,0 -0.44596737,0 -0.0637096,0 -0.12741925,0 -0.19112887,0 -0.0318548,0 -0.0643282,-0.00625 -0.0955644,0 -0.0232821,0.00466 -0.0411849,0.024347 -0.0637096,0.031855 -0.0123954,0.00413 -0.090621,-0.00494 -0.0955644,0 -0.007508,0.00751 0,0.021237 0,0.031855 0,0.010618 -0.007508,0.024347 0,0.031855 0.007508,0.00751 0.0318548,-0.010618 0.0318548,0 0,0.010618 -0.0318548,-0.010618 -0.0318548,0 0,0.015017 0.0251392,0.018424 0.0318548,0.031855 0.004749,0.0095 0,0.021236 0,0.031855 0,0.021237 0,0.042473 0,0.06371 0,0.053091 0,0.1061827 0,0.1592741 0,0.1698923 0,0.3397846 0,0.5096769 0,0.1911289 0,0.3822578 0,0.5733866 0,0.06371 -0.0104738,0.1282861 0,0.1911289 0.0110404,0.066242 0.048609,0.1256928 0.0637096,0.1911289 0.0251168,0.1088394 0.0331651,0.302116 0.0637096,0.4141125 0.0150453,0.055166 0.0524955,0.1032033 0.0637096,0.1592741 0.0104121,0.05206 -0.008728,0.106905 0,0.159274 0.0202947,0.1217685 0.0930085,0.2936751 0.12741924,0.4141126 0.0240547,0.084192 0.0424731,0.1698923 0.0637096,0.2548384 0.0212365,0.084946 0.0447151,0.1693631 0.0637096,0.2548385 0.0234904,0.105707 0.0459076,0.2117359 0.0637096,0.3185481 0.0281475,0.1688849 0.0321568,0.3413951 0.0637096,0.509677 0.026064,0.1390077 0.0779355,0.2730814 0.0955644,0.4141125 0.003951,0.031609 0,0.06371 0,0.095565 0,0.084946 0,0.1698923 0,0.2548385 0,0.095564 0.0157107,0.1924292 0,0.2866932 -0.0199033,0.11942 -0.0678353,0.232555 -0.0955644,0.350403 -0.0147933,0.06287 -0.0161898,0.128469 -0.0318548,0.191129 -0.0325754,0.130302 -0.0920795,0.252679 -0.12741924,0.382258 -0.0142459,0.05224 -0.0187233,0.106748 -0.0318548,0.159274 -0.0301886,0.120754 -0.0883085,0.233071 -0.12741924,0.350403 -0.0138445,0.04153 -0.0256634,0.08408 -0.0318548,0.127419 -0.004505,0.03153 0.006247,0.06433 0,0.09556 -0.004656,0.02328 -0.0212365,0.04247 -0.0318548,0.06371 -0.0106183,0.02124 -0.0150658,0.04692 -0.0318548,0.06371 -0.007508,0.0075 0,-0.02124 0,-0.03186 0,-0.01062 -0.0103012,-0.02928 0,-0.03185 0.0412049,-0.0103 0.0849462,0 0.12741924,0 0.22298368,0 0.44596735,0 0.66895104,0 0.8452106,0 -0.33814475,-0.01054 0.509677,0.03185 0.1272602,0.0064 0.2548385,0 0.3822577,0 0.1592741,0 0.3185481,0 0.4778222,0 0.2017471,0 0.4039219,0.01313 0.6052414,0 0.2878461,-0.01877 0.5731386,-0.06603 0.8600799,-0.09556 0.4351166,-0.04479 0.8729171,-0.06634 1.3060472,-0.127419 1.6628629,-0.234506 0.766978,-0.272429 2.6120945,-0.382258 0.6923524,-0.04121 2.1405573,0.01651 2.7713683,0.12742 0.46687,0.08209 0.912144,0.258578 1.369757,0.382257 0.328176,0.0887 0.657118,0.174747 0.987499,0.254839 0.03096,0.0075 0.06371,0 0.09557,0 0.08495,0 0.169892,0 0.254838,0 0.254839,0 0.509677,0 0.764516,0 0.05309,0 0.106182,0 0.159274,0 0.04247,0 0.08537,-0.006 0.127419,0 0.06648,0.0095 0.124887,0.05267 0.191129,0.06371 0.362316,0.06039 -0.114056,-0.05926 0.159274,0.03185 0.01007,0.0034 0.02124,0 0.03186,0 0.02124,0 0.04247,0 0.06371,0 0.06371,0 0.127419,0 0.191129,0 0.02124,0 0.04311,-0.0052 0.06371,0 0.02303,0.0058 0.04068,0.0261 0.06371,0.03186 0.0206,0.0052 0.04247,0 0.06371,0 0.07433,0 0.148656,0 0.222984,0 0.151617,0 0.303235,0 0.454852,0"
       inkscape:connector-curvature="0" />
  </g>
</svg>
