<?xml version="1.0" encoding="UTF-8" standalone="no"?>
<!-- Created with Inkscape (http://www.inkscape.org/) -->

<svg
   xmlns:dc="http://purl.org/dc/elements/1.1/"
   xmlns:cc="http://creativecommons.org/ns#"
   xmlns:rdf="http://www.w3.org/1999/02/22-rdf-syntax-ns#"
   xmlns:svg="http://www.w3.org/2000/svg"
   xmlns="http://www.w3.org/2000/svg"
   xmlns:sodipodi="http://sodipodi.sourceforge.net/DTD/sodipodi-0.dtd"
   xmlns:inkscape="http://www.inkscape.org/namespaces/inkscape"
   width="16px"
   height="16px"
   id="svg2985"
   version="1.1"
   inkscape:version="0.48.4 r9939"
   sodipodi:docname="wool.svg"
   inkscape:export-filename="C:\Users\Owen\Desktop\ForgeMCP1.6.4\forge\mcp\jars\resourcepacks\TheVectorPack\assets\cliffiesdecor\textures\blocks\rWool.png"
   inkscape:export-xdpi="360"
   inkscape:export-ydpi="360">
  <defs
     id="defs2987">
    <inkscape:perspective
       sodipodi:type="inkscape:persp3d"
       inkscape:vp_x="0 : 8 : 1"
       inkscape:vp_y="0 : 1000 : 0"
       inkscape:vp_z="16 : 8 : 1"
       inkscape:persp3d-origin="8 : 5.3333333 : 1"
       id="perspective3043" />
  </defs>
  <sodipodi:namedview
     id="base"
     pagecolor="#ffffff"
     bordercolor="#666666"
     borderopacity="1.0"
     inkscape:pageopacity="0.0"
     inkscape:pageshadow="2"
     inkscape:zoom="31.392433"
     inkscape:cx="4.8449222"
     inkscape:cy="6.9471746"
     inkscape:current-layer="layer1"
     showgrid="true"
     inkscape:grid-bbox="true"
     inkscape:document-units="px"
     inkscape:snap-page="true"
     inkscape:window-width="1366"
     inkscape:window-height="746"
     inkscape:window-x="-8"
     inkscape:window-y="-8"
     inkscape:window-maximized="1" />
  <metadata
     id="metadata2990">
    <rdf:RDF>
      <cc:Work
         rdf:about="">
        <dc:format>image/svg+xml</dc:format>
        <dc:type
           rdf:resource="http://purl.org/dc/dcmitype/StillImage" />
        <dc:title></dc:title>
      </cc:Work>
    </rdf:RDF>
  </metadata>
  <g
     id="layer1"
     inkscape:label="Layer 1"
     inkscape:groupmode="layer">
    <rect
       style="fill:#db2b2b;fill-opacity:1;stroke:none"
       id="rect4104"
       width="15.936543"
       height="16"
       x="0.0044250702"
       y="0" />
    <rect
       style="fill:#800000;fill-opacity:1;stroke:none"
       id="rect4106"
       width="15.842296"
       height="0.73266065"
       x="0.099021465"
       y="1.4423516" />
    <rect
       style="fill:#800000;fill-opacity:1;stroke:none"
       id="rect4106-8"
       width="15.842296"
       height="0.73266065"
       x="0.1577044"
       y="6.4913392" />
    <rect
       style="fill:#800000;fill-opacity:1;stroke:none"
       id="rect4106-1"
       width="15.842296"
       height="0.73266065"
       x="0.094622545"
       y="12.352623" />
    <rect
       style="fill:#800000;fill-opacity:1;stroke:none"
       id="rect4106-9"
       width="15.842296"
       height="0.73266065"
       x="0.094622545"
       y="9.3901272" />
    <rect
       style="fill:#800000;fill-opacity:1;stroke:none"
       id="rect4106-89"
       width="15.842296"
       height="0.73266065"
       x="0"
       y="3.9748089" />
    <rect
       style="fill:#800000;fill-opacity:1;stroke:none"
       id="rect4106-7"
       width="15.842296"
       height="0.73266065"
       x="0.094622545"
       y="14.359477" />
    <path
       transform="matrix(0.99603395,0,0,1,0.004425,0)"
       sodipodi:type="star"
       style="fill:#ff0000;fill-opacity:1;stroke:none"
       id="path4156"
       sodipodi:sides="12"
       sodipodi:cx="4.9374957"
       sodipodi:cy="3.0350921"
       sodipodi:r1="0.69935638"
       sodipodi:r2="0.67552638"
       sodipodi:arg1="2.0955921"
       sodipodi:arg2="2.3573915"
       inkscape:flatsided="true"
       inkscape:rounded="0.25"
       inkscape:randomized="0.25"
       d="M 4.4637019,3.509594 C 4.3938239,3.4595076 4.5140706,3.4735281 4.492539,3.3965567 4.4710073,3.3195853 4.1778054,3.2820643 4.1900513,3.2018629 c 0.012246,-0.080201 -0.04669,-0.3271585 -0.027463,-0.4219153 0.019226,-0.094757 0.2527825,-0.28828 0.3212065,-0.3541302 0.068424,-0.06585 0.2062074,0.063426 0.2930237,0.04931 0.086816,-0.014116 0.3627704,0.023554 0.4318049,0.09833 0.069034,0.074775 0.2896818,0.033748 0.3208411,0.1130373 0.031159,0.079289 -0.049481,0.1400199 -0.047185,0.2334118 0.0023,0.093392 0.068013,0.301671 0.027458,0.3831973 C 5.4691816,3.38463 5.2671814,3.6837417 5.1885361,3.6959518 5.1098908,3.7081619 4.9785375,3.671248 4.8955124,3.6466417 4.8124874,3.6220354 4.5335798,3.5596804 4.4637019,3.509594 z"
       inkscape:transform-center-x="0.089473586"
       inkscape:transform-center-y="0.017590798" />
    <path
       sodipodi:type="star"
       style="fill:#ff0000;fill-opacity:1;stroke:none"
       id="path4158"
       sodipodi:sides="12"
       sodipodi:cx="13.44273"
       sodipodi:cy="6.093154"
       sodipodi:r1="0.96410149"
       sodipodi:r2="0.93125057"
       sodipodi:arg1="-3.0090411"
       sodipodi:arg2="-2.7472417"
       inkscape:flatsided="true"
       inkscape:rounded="0.25"
       inkscape:randomized="0.25"
       d="m 12.619927,5.7987266 c -0.0018,-0.1278107 0.08216,-0.2991326 0.151067,-0.4179054 0.0689,-0.1187727 0.338881,-0.26538 0.436615,-0.3342657 0.09773,-0.068886 0.09242,0.076497 0.206407,0.097787 0.11399,0.021291 0.300033,0.3360204 0.392051,0.4115046 0.09202,0.075484 0.581568,-0.088862 0.589373,0.04996 0.0078,0.138822 0.201836,0.4475279 0.194459,0.584873 -0.0074,0.1373452 -0.506212,0.6033174 -0.607123,0.6937772 -0.100912,0.09046 0.119746,0.032876 0.01945,0.111769 -0.100297,0.078893 -0.776899,0.056114 -0.905483,0.070562 -0.128584,0.014448 -0.0966,0.00356 -0.175025,-0.097803 C 12.843291,6.8676199 12.441685,6.7641252 12.35833,6.6594715 12.274974,6.5548177 12.621701,5.9265373 12.619927,5.7987266 z"
       inkscape:transform-center-x="-0.024917962"
       inkscape:transform-center-y="-0.032344515"
       transform="matrix(0.99603395,0,0,0.75062023,-0.02730345,1.0627963)" />
    <path
       transform="matrix(0.99603395,0,0,1,0.004425,0)"
       sodipodi:type="star"
       style="fill:#ff0000;fill-opacity:1;stroke:none"
       id="path4160"
       sodipodi:sides="12"
       sodipodi:cx="3.1217716"
       sodipodi:cy="8.354845"
       sodipodi:r1="0.57338661"
       sodipodi:r2="0.55384892"
       sodipodi:arg1="3.1415927"
       sodipodi:arg2="3.403392"
       inkscape:flatsided="true"
       inkscape:rounded="0.25"
       inkscape:randomized="0.25"
       d="m 2.5306246,8.4235409 c -0.00403,-0.077594 -0.083638,-0.3912515 -0.030091,-0.4327253 0.053546,-0.041474 0.1292088,-0.022427 0.1930076,-0.036183 0.063799,-0.013756 0.4864155,-0.2686758 0.5632727,-0.2508637 0.076857,0.017812 0.1179371,0.25258 0.1785882,0.2953096 0.060651,0.04273 0.1414615,0.040462 0.1927587,0.102852 0.051297,0.06239 -0.060452,0.05672 -0.045031,0.1233497 0.015422,0.06663 0.091263,0.4736512 0.045252,0.5402854 -0.046012,0.066634 -0.1258225,0.00928 -0.1927172,0.029206 C 3.3687697,8.8146942 3.3273117,9.0139291 3.2572513,8.9992949 3.187191,8.9846606 2.7717447,8.7655925 2.6938035,8.7503256 2.6158623,8.7350588 2.5432365,8.7074648 2.5007544,8.6544507 2.4582722,8.6014367 2.5346585,8.5011343 2.5306246,8.4235409 z"
       inkscape:transform-center-x="0.05899253"
       inkscape:transform-center-y="-0.0033753999" />
    <path
       transform="matrix(0.99603395,0,0,1,0.004425,0)"
       sodipodi:type="star"
       style="fill:#ff0000;fill-opacity:1;stroke:none"
       id="path4162"
       sodipodi:sides="12"
       sodipodi:cx="13.251601"
       sodipodi:cy="11.158069"
       sodipodi:r1="0.86537272"
       sodipodi:r2="0.83588588"
       sodipodi:arg1="-3.0309354"
       sodipodi:arg2="-2.769136"
       inkscape:flatsided="true"
       inkscape:rounded="0.25"
       inkscape:randomized="0.25"
       d="m 12.445179,11.191333 c -0.008,-0.107476 -0.0311,-0.373829 0.0079,-0.485809 0.03897,-0.111981 0.168217,-0.490718 0.279924,-0.545109 0.111706,-0.05439 0.701271,0.225742 0.803172,0.233972 0.1019,0.0082 0.01017,-0.02712 0.101075,0.01025 0.09091,0.03737 0.534834,0.357641 0.557842,0.462324 0.02301,0.104682 -0.144193,0.471437 -0.132191,0.570003 0.012,0.09857 0.0055,0.116201 -0.03076,0.227659 -0.03625,0.111458 -0.167184,0.282682 -0.256591,0.360043 -0.08941,0.07736 -0.728474,0.02301 -0.826491,0.04691 -0.09802,0.0239 -0.01424,0.02633 -0.101082,-0.05816 -0.08684,-0.08449 -0.484121,-0.377656 -0.557842,-0.462324 -0.07372,-0.08467 0.163103,-0.252285 0.155078,-0.359762 z"
       inkscape:transform-center-x="0.014994312"
       inkscape:transform-center-y="-0.038367939" />
    <path
       sodipodi:type="star"
       style="fill:#ff0000;fill-opacity:1;stroke:none"
       id="path4164"
       sodipodi:sides="12"
       sodipodi:cx="6.3391075"
       sodipodi:cy="10.90323"
       sodipodi:r1="0.79637027"
       sodipodi:r2="0.7692346"
       sodipodi:arg1="3.1415927"
       sodipodi:arg2="3.403392"
       inkscape:flatsided="true"
       inkscape:rounded="0.25"
       inkscape:randomized="0.25"
       d="m 5.5083547,10.909626 c 0.035156,-0.09842 0.1920472,-0.485192 0.2684464,-0.554268 0.076399,-0.06908 0.1522272,0.125563 0.227107,0.04169 0.07488,-0.08387 0.1616817,-0.116898 0.2555348,-0.128478 0.093853,-0.01158 0.5873149,-0.25483 0.6535663,-0.176857 0.066251,0.07797 0.181389,0.365541 0.2270812,0.448322 0.045692,0.08278 -0.1577423,0.211084 -0.1505898,0.309005 0.00715,0.09792 0.1937521,0.347777 0.1512173,0.428048 -0.042535,0.08027 -0.139941,0.271171 -0.2271133,0.312402 -0.087172,0.04123 -0.5401601,0.115498 -0.65372,0.128478 -0.1135598,0.01298 -0.1759521,-0.150314 -0.2553811,-0.221328 -0.079429,-0.07101 -0.2008717,0.08972 -0.2270749,-0.006 -0.026203,-0.09577 -0.3042303,-0.482547 -0.2690739,-0.58097 z"
       inkscape:transform-center-x="0.012905258"
       inkscape:transform-center-y="-0.0057109508"
       transform="matrix(0.99603395,0,0,1,0.09961038,0.28669329)" />
    <path
       sodipodi:type="star"
       style="fill:#ff0000;fill-opacity:1;stroke:none"
       id="path4166"
       sodipodi:sides="12"
       sodipodi:cx="4.2048349"
       sodipodi:cy="13.961292"
       sodipodi:r1="0.78093028"
       sodipodi:r2="0.75432074"
       sodipodi:arg1="-2.9361973"
       sodipodi:arg2="-2.6743979"
       inkscape:flatsided="true"
       inkscape:rounded="0.25"
       inkscape:randomized="0.25"
       d="m 3.6288818,13.647962 c 0.032612,-0.09779 0.04266,-0.178516 0.093223,-0.272476 0.050563,-0.09396 0.2836928,-0.100222 0.3918945,-0.113819 0.1082018,-0.0136 0.2862405,-0.158495 0.3897777,-0.172005 0.1035372,-0.01351 0.074593,0.05532 0.1599389,0.111161 0.085346,0.05584 0.2402523,0.415993 0.2965548,0.490937 0.056302,0.07494 0.1826174,0.155212 0.1589114,0.258711 -0.023706,0.1035 -0.2615194,0.359475 -0.3083044,0.449611 -0.046785,0.09014 -0.1065604,0.415304 -0.1982709,0.460425 -0.09171,0.04512 -0.5006086,0.06648 -0.604451,0.03564 -0.1038423,-0.03084 -0.063628,-0.305482 -0.1388955,-0.364636 -0.075267,-0.05915 -0.4300467,-0.179354 -0.472334,-0.268104 -0.042287,-0.08875 0.1993437,-0.517656 0.2319556,-0.615445 z"
       inkscape:transform-center-x="-0.052001341"
       inkscape:transform-center-y="0.022728033"
       transform="matrix(0.99603395,0,0,0.59803731,0.09961038,5.3245746)" />
    <path
       sodipodi:type="star"
       style="fill:#ff0000;fill-opacity:1;stroke:none"
       id="path4168"
       sodipodi:sides="12"
       sodipodi:cx="11.627006"
       sodipodi:cy="2.1750121"
       sodipodi:r1="1.3371434"
       sodipodi:r2="1.2915813"
       sodipodi:arg1="2.9255077"
       sodipodi:arg2="3.1873071"
       inkscape:flatsided="true"
       inkscape:rounded="0.25"
       inkscape:randomized="0.25"
       d="M 9.9962493,2.3716926 C 9.9484239,2.1978298 10.542899,1.7253749 10.62027,1.5732328 c 0.07737,-0.1521421 -0.295423,0.018376 -0.171051,-0.1096263 0.124373,-0.1280021 0.79153,-0.1978935 0.954945,-0.2882903 0.163416,-0.090397 0.311612,-0.42715714 0.451476,-0.36578678 0.139865,0.0613704 0.566746,0.34958178 0.667955,0.51124068 0.101209,0.1616588 0.510972,0.5044726 0.587151,0.6820967 0.07618,0.1776242 0.111343,0.3453025 0.0806,0.5125036 -0.03074,0.1672011 -0.453486,0.2903089 -0.532886,0.4533393 -0.0794,0.1630304 -0.793279,0.2265348 -0.954945,0.2882903 -0.161666,0.061755 -0.233492,0.06653 -0.416111,0.022074 C 11.104789,3.2346179 10.678696,3.2533994 10.583411,3.1278169 10.488127,3.0022343 10.044075,2.5455554 9.9962493,2.3716926 z"
       inkscape:transform-center-x="0.028912107"
       inkscape:transform-center-y="-0.07102145"
       transform="matrix(0.99603395,0,0,0.59329906,0.09961038,1.8871038)" />
    <path
       sodipodi:type="star"
       style="fill:#ff0000;fill-opacity:1;stroke:none"
       id="path4170"
       sodipodi:sides="12"
       sodipodi:cx="8.6645088"
       sodipodi:cy="5.5197673"
       sodipodi:r1="0.86007988"
       sodipodi:r2="0.83077335"
       sodipodi:arg1="3.1415927"
       sodipodi:arg2="3.403392"
       inkscape:flatsided="true"
       inkscape:rounded="0.25"
       inkscape:randomized="0.25"
       d="m 7.9642969,5.3074719 c 0.0098,-0.1232923 -0.034973,-0.2197151 0.045534,-0.3052899 0.080507,-0.085575 -0.071129,0.027332 0.010975,-0.038911 0.082104,-0.066243 0.3387369,-0.5099675 0.4405006,-0.5014591 0.1017638,0.00851 0.3798842,0.4342024 0.4636423,0.5018726 0.083758,0.06767 0.342723,0.2568039 0.4181358,0.3371291 0.075413,0.080325 0.073279,0.2895277 0.045825,0.4044662 -0.027454,0.1149386 -0.00927,0.1156273 -0.045548,0.2100577 C 9.3070802,6.0097679 9.0190396,6.0982664 8.9255297,6.1527391 8.8320198,6.2072117 8.5582003,6.4754146 8.4618528,6.5033237 8.3655052,6.5312327 8.1251262,6.1742719 8.0213867,6.1523256 7.9176473,6.1303794 8.0336548,6.1526335 8.0101077,6.0467459 7.9865606,5.9408583 7.9544941,5.4307641 7.9642969,5.3074719 z"
       inkscape:transform-center-x="-0.018880505"
       inkscape:transform-center-y="-0.027950832"
       transform="matrix(0.99603395,0,0,0.76613876,0.004425,1.521239)" />
  </g>
</svg>
