<?xml version="1.0" encoding="UTF-8" standalone="no"?>
<!-- Created with Inkscape (http://www.inkscape.org/) -->

<svg
   xmlns:dc="http://purl.org/dc/elements/1.1/"
   xmlns:cc="http://creativecommons.org/ns#"
   xmlns:rdf="http://www.w3.org/1999/02/22-rdf-syntax-ns#"
   xmlns:svg="http://www.w3.org/2000/svg"
   xmlns="http://www.w3.org/2000/svg"
   xmlns:sodipodi="http://sodipodi.sourceforge.net/DTD/sodipodi-0.dtd"
   xmlns:inkscape="http://www.inkscape.org/namespaces/inkscape"
   width="16px"
   height="16px"
   id="svg2985"
   version="1.1"
   inkscape:version="0.48.4 r9939"
   sodipodi:docname="wool.svg"
   inkscape:export-filename="C:\Users\Owen\Desktop\ForgeMCP1.6.4\forge\mcp\jars\resourcepacks\TheVectorPack\assets\cliffiesdecor\textures\blocks\rWool.png"
   inkscape:export-xdpi="360"
   inkscape:export-ydpi="360">
  <defs
     id="defs2987">
    <inkscape:perspective
       sodipodi:type="inkscape:persp3d"
       inkscape:vp_x="0 : 8 : 1"
       inkscape:vp_y="0 : 1000 : 0"
       inkscape:vp_z="16 : 8 : 1"
       inkscape:persp3d-origin="8 : 5.3333333 : 1"
       id="perspective3043" />
  </defs>
  <sodipodi:namedview
     id="base"
     pagecolor="#ffffff"
     bordercolor="#666666"
     borderopacity="1.0"
     inkscape:pageopacity="0.0"
     inkscape:pageshadow="2"
     inkscape:zoom="31.392433"
     inkscape:cx="7.2662372"
     inkscape:cy="7.08883"
     inkscape:current-layer="layer1"
     showgrid="true"
     inkscape:grid-bbox="true"
     inkscape:document-units="px"
     inkscape:snap-page="true"
     inkscape:window-width="1366"
     inkscape:window-height="746"
     inkscape:window-x="-8"
     inkscape:window-y="-8"
     inkscape:window-maximized="1" />
  <metadata
     id="metadata2990">
    <rdf:RDF>
      <cc:Work
         rdf:about="">
        <dc:format>image/svg+xml</dc:format>
        <dc:type
           rdf:resource="http://purl.org/dc/dcmitype/StillImage" />
        <dc:title></dc:title>
      </cc:Work>
    </rdf:RDF>
  </metadata>
  <g
     id="layer1"
     inkscape:label="Layer 1"
     inkscape:groupmode="layer">
    <rect
       style="fill:#fe0000;fill-opacity:1;stroke:none"
       id="rect3889"
       width="16"
       height="15.999997"
       x="0"
       y="0" />
    <path
       sodipodi:type="star"
       style="fill:#ce0000;fill-opacity:1;stroke:none"
       id="path3918"
       sodipodi:sides="6"
       sodipodi:cx="5.3516083"
       sodipodi:cy="8.3229904"
       sodipodi:r1="0.41411254"
       sodipodi:r2="0.35863197"
       sodipodi:arg1="1.5707963"
       sodipodi:arg2="2.0943951"
       inkscape:flatsided="true"
       inkscape:rounded="1"
       inkscape:randomized="1"
       d="M 5.4370371,8.9429478 C 5.0132218,8.573006 4.8303199,9.3266073 4.765409,8.7395478 4.7004981,8.1524883 4.7703136,8.3873274 4.7653824,8.1420251 4.7604511,7.8967228 5.245603,7.4300186 5.436118,7.5846485 5.6266331,7.7392784 5.7399905,7.7193118 6.0630838,8.1422905 6.3861771,8.5652691 6.5155008,8.6392524 6.0631104,8.7398131 5.6107201,8.8403739 5.8608523,9.3128897 5.4370371,8.9429478 z"
       inkscape:transform-center-x="-0.06263811"
       inkscape:transform-center-y="-0.059192237" />
    <path
       sodipodi:type="star"
       style="fill:#ce0000;fill-opacity:1;stroke:none"
       id="path3920"
       sodipodi:sides="6"
       sodipodi:cx="13.060472"
       sodipodi:cy="6.5072665"
       sodipodi:r1="0.48205075"
       sodipodi:r2="0.41746819"
       sodipodi:arg1="3.0090411"
       sodipodi:arg2="3.5326399"
       inkscape:flatsided="true"
       inkscape:rounded="1"
       inkscape:randomized="1"
       d="m 12.56535,6.2622742 c 0.505962,-0.351928 0.333149,-0.076684 0.598971,0.2353915 0.265822,0.3120755 -0.237757,-0.4387731 0.364447,-0.3967264 0.602203,0.042047 0.266917,0.3837503 0.293589,0.8223585 0.02667,0.4386083 -0.255576,-0.7823217 -0.598971,-0.2353914 -0.343396,0.5469303 -0.0291,-0.1001727 -0.36347,0.3732634 C 12.525551,7.534606 12.059389,6.6142023 12.56535,6.2622742 z"
       inkscape:transform-center-x="-0.13338194"
       inkscape:transform-center-y="0.073788048" />
    <path
       sodipodi:type="star"
       style="fill:#ce0000;fill-opacity:1;stroke:none"
       id="path3922"
       sodipodi:sides="6"
       sodipodi:cx="9.3334599"
       sodipodi:cy="5.8383155"
       sodipodi:r1="0.54989928"
       sodipodi:r2="0.47622675"
       sodipodi:arg1="1.7454685"
       sodipodi:arg2="2.2690673"
       inkscape:flatsided="true"
       inkscape:rounded="1"
       inkscape:randomized="1"
       d="M 9.365909,6.8661312 C 9.2085144,6.2900029 9.369973,6.3735138 8.9564739,6.2196233 8.5429748,6.0657328 8.9806495,6.1240833 9.2238039,5.8252738 9.4669583,5.5264643 8.8654664,5.0474567 9.4053917,5.1181731 c 0.5399253,0.070716 -0.428846,-0.00379 -0.085689,0.052574 0.3431568,0.056359 0.7540184,0.3355977 0.8325044,0.6378995 0.07848,0.3023017 -0.6289035,1.6336131 -0.786298,1.0574849 z"
       inkscape:transform-center-x="-0.22088038"
       inkscape:transform-center-y="0.15383666" />
    <path
       sodipodi:type="star"
       style="fill:#ce0000;fill-opacity:1;stroke:none"
       id="path3924"
       sodipodi:sides="6"
       sodipodi:cx="6.3391075"
       sodipodi:cy="5.9020252"
       sodipodi:r1="0.2866933"
       sodipodi:r2="0.24828368"
       sodipodi:arg1="3.1415927"
       sodipodi:arg2="3.6651915"
       inkscape:flatsided="true"
       inkscape:rounded="1"
       inkscape:randomized="1"
       d="M 6.1823377,6.0858589 C 6.3010784,5.9610616 6.2059198,6.0349703 6.3595371,5.7421526 6.5131544,5.4493349 6.475464,5.3575643 6.6570794,5.6547308 6.8386948,5.9518972 6.8378887,5.4521449 6.834537,5.8650995 6.8311852,6.2780541 6.8330232,6.3930242 6.6573375,6.2088059 6.4816519,6.0245875 6.5259647,6.4651571 6.3597952,6.2962277 6.1936258,6.1272983 6.063597,6.2106562 6.1823377,6.0858589 z"
       inkscape:transform-center-x="-0.1693298"
       inkscape:transform-center-y="0.073454006" />
    <path
       sodipodi:type="star"
       style="fill:#ce0000;fill-opacity:1;stroke:none"
       id="path3926"
       sodipodi:sides="6"
       sodipodi:cx="2.4209657"
       sodipodi:cy="5.8064604"
       sodipodi:r1="0.57691514"
       sodipodi:r2="0.49962318"
       sodipodi:arg1="1.6814535"
       sodipodi:arg2="2.2050523"
       inkscape:flatsided="true"
       inkscape:rounded="1"
       inkscape:randomized="1"
       d="M 2.3791089,6.5222838 C 2.1048936,5.7519095 1.8190931,6.5121918 1.8305853,6.203032 1.8420775,5.8938722 1.6752362,5.6003541 2.2666174,5.0003319 2.8579985,4.4003097 1.5600733,5.4627633 2.0985303,5.3703913 2.6369872,5.2780193 3.3542016,4.3858857 3.2814351,5.0665296 3.2086686,5.7471735 3.5692692,6.1886313 2.8454031,6.2692297 2.1215369,6.3498281 2.6533242,7.2926581 2.3791089,6.5222838 z"
       inkscape:transform-center-x="-0.13504456"
       inkscape:transform-center-y="-0.045152541" />
    <path
       sodipodi:type="star"
       style="fill:#ce0000;fill-opacity:1;stroke:none"
       id="path3928"
       sodipodi:sides="6"
       sodipodi:cx="12.964908"
       sodipodi:cy="12.018149"
       sodipodi:r1="0.79827929"
       sodipodi:r2="0.69133013"
       sodipodi:arg1="2.070143"
       sodipodi:arg2="2.5937418"
       inkscape:flatsided="true"
       inkscape:rounded="1"
       inkscape:randomized="1"
       d="m 12.564735,12.659526 c -0.361183,-0.238032 -0.483715,0.388308 -0.84711,0.09231 -0.363394,-0.295998 0.973449,-1.810056 1.624473,-1.18166 0.651025,0.628396 0.01979,0.04866 0.702886,0.445322 0.683096,0.396659 -1.735443,0.08667 -0.833902,0.72848 0.901542,0.641812 0.674643,-0.296744 0.05651,0.18409 -0.618131,0.480834 -0.341676,-0.03051 -0.702859,-0.268543 z"
       inkscape:transform-center-x="0.083603147"
       inkscape:transform-center-y="0.23097364" />
    <path
       sodipodi:type="star"
       style="fill:#ce0000;fill-opacity:1;stroke:none"
       id="path3930"
       sodipodi:sides="6"
       sodipodi:cx="10.703216"
       sodipodi:cy="11.189924"
       sodipodi:r1="0.57427078"
       sodipodi:r2="0.49733308"
       sodipodi:arg1="2.5535901"
       sodipodi:arg2="3.0771889"
       inkscape:flatsided="true"
       inkscape:rounded="1"
       inkscape:randomized="1"
       d="M 10.015442,11.831157 C 9.8759614,11.502035 9.0076629,10.353362 9.7991776,10.464518 c 0.7915144,0.111157 -0.103377,0.09511 0.3412054,0.08769 0.444582,-0.0074 1.594724,0.39028 1.190106,0.806119 -0.404618,0.41584 -0.03402,-0.619638 -0.300804,-0.402159 -0.266788,0.217478 0.242719,1.021032 0.175863,0.532567 -0.06686,-0.488464 -1.050626,0.671544 -1.190106,0.342422 z"
       inkscape:transform-center-x="0.13838241"
       inkscape:transform-center-y="-0.042086559" />
    <path
       sodipodi:type="star"
       style="fill:#ce0000;fill-opacity:1;stroke:none"
       id="path3932"
       sodipodi:sides="6"
       sodipodi:cx="6.2435427"
       sodipodi:cy="12.750809"
       sodipodi:r1="0.88106054"
       sodipodi:r2="0.76302081"
       sodipodi:arg1="2.2794226"
       sodipodi:arg2="2.8030214"
       inkscape:flatsided="true"
       inkscape:rounded="1"
       inkscape:randomized="1"
       d="m 4.8058649,13.071343 c 0.021463,-1.155856 1.484163,0.854924 0.8641363,-0.106987 -0.6200267,-0.96191 -1.0872123,-0.634317 -0.248905,-0.60539 0.8383073,0.02893 2.0862205,-0.943021 1.8061064,0.219526 -0.2801142,1.162548 -1.7303944,0.495146 -0.7691416,0.920317 0.9612528,0.425172 -0.034721,-0.81114 0.1539103,-0.20794 0.1886315,0.603201 -1.8275698,0.93633 -1.8061064,-0.219526 z"
       inkscape:transform-center-x="0.22700892"
       inkscape:transform-center-y="0.17807892" />
    <path
       sodipodi:type="star"
       style="fill:#ce0000;fill-opacity:1;stroke:none"
       id="path3934"
       sodipodi:sides="6"
       sodipodi:cx="3.1854811"
       sodipodi:cy="11.126214"
       sodipodi:r1="1.1262376"
       sodipodi:r2="0.97535038"
       sodipodi:arg1="-2.3561945"
       sodipodi:arg2="-1.8325957"
       inkscape:flatsided="true"
       inkscape:rounded="1"
       inkscape:randomized="1"
       d="M 3.4249054,10.759882 C 2.2871623,9.574264 1.8992375,9.7007504 2.6552439,9.6625286 3.4112503,9.6243068 4.994057,10.638475 5.328969,11.490058 5.663881,12.341641 2.905293,11.164418 3.1527675,12.610067 3.400242,14.055716 2.7793658,12.774269 1.7913831,12.494604 0.80340045,12.214939 1.8476968,11.635861 1.2486677,11.630485 0.64963858,11.62511 4.5626485,11.945499 3.4249054,10.759882 z"
       inkscape:transform-center-x="-0.10333727"
       inkscape:transform-center-y="0.010083785" />
    <path
       sodipodi:type="star"
       style="fill:#ce0000;fill-opacity:1;stroke:none"
       id="path3936"
       sodipodi:sides="6"
       sodipodi:cx="2.3572559"
       sodipodi:cy="14.247985"
       sodipodi:r1="0.36320072"
       sodipodi:r2="0.31454104"
       sodipodi:arg1="2.4805495"
       sodipodi:arg2="3.0041483"
       inkscape:flatsided="true"
       inkscape:rounded="1"
       inkscape:randomized="1"
       d="m 2.1161373,14.772189 c -0.00611,-0.231857 -0.4614231,-0.380028 -0.3846598,-0.556025 0.076763,-0.175998 0.167545,-0.570893 0.2606819,-0.412571 0.093137,0.158323 0.2837106,0.03457 0.3973864,0.484483 0.1136759,0.449913 0.8820786,-0.251432 0.3846599,-0.170376 -0.4974187,0.08106 -0.681969,0.09448 -0.6992323,0.389145 -0.017263,0.294669 0.047278,0.497201 0.041164,0.265344 z"
       inkscape:transform-center-x="0.10441435"
       inkscape:transform-center-y="0.039906333" />
    <path
       sodipodi:type="star"
       style="fill:#ce0000;fill-opacity:1;stroke:none"
       id="path3938"
       sodipodi:sides="6"
       sodipodi:cx="9.8749914"
       sodipodi:cy="15.331049"
       sodipodi:r1="0.5146302"
       sodipodi:r2="0.44568285"
       sodipodi:arg1="-2.7610863"
       sodipodi:arg2="-2.2374875"
       inkscape:flatsided="true"
       inkscape:rounded="1"
       inkscape:randomized="1"
       d="m 9.5014364,15.033215 c 0.2426921,0.09557 0.1004982,-0.159708 0.4234777,-0.350469 0.3229799,-0.190761 -0.4949618,0.346668 -0.1072797,0.668811 0.3876816,0.322142 0.6864406,0.356423 0.9618716,0.54586 0.27543,0.189436 0.233515,0.67919 -0.423478,0.350468 -0.6569929,-0.328721 -0.7784137,-0.08038 -0.9219808,-0.66881 -0.1435671,-0.588431 -0.1753029,-0.641429 0.067389,-0.54586 z"
       inkscape:transform-center-x="-0.23178496"
       inkscape:transform-center-y="0.13426678"
       transform="translate(0.38225773,-0.6052414)" />
    <path
       sodipodi:type="star"
       style="fill:#ce0000;fill-opacity:1;stroke:none"
       id="path3940"
       sodipodi:sides="6"
       sodipodi:cx="12.933053"
       sodipodi:cy="9.0556517"
       sodipodi:r1="0.33862129"
       sodipodi:r2="0.29325464"
       sodipodi:arg1="2.2896263"
       sodipodi:arg2="2.8132251"
       inkscape:flatsided="true"
       inkscape:rounded="1"
       inkscape:randomized="1"
       d="m 12.424764,9.3120179 c -0.46364,-0.055689 0.303148,0.081758 0.219078,-0.2841113 -0.08407,-0.3658688 0.17458,-0.296898 0.388862,-0.1106567 0.214282,0.1862412 -0.126063,-0.357061 -0.202556,-0.063063 -0.07649,0.2939979 0.814632,0.1131226 0.458166,0.2841113 -0.356467,0.1709888 -0.234892,-0.238785 -0.389549,0.1271385 -0.154656,0.3659235 -0.01036,0.1022697 -0.474001,0.046581 z"
       inkscape:transform-center-x="0.076514013"
       inkscape:transform-center-y="0.027450741" />
    <path
       sodipodi:type="star"
       style="fill:#ce0000;fill-opacity:1;stroke:none"
       id="path3944"
       sodipodi:sides="6"
       sodipodi:cx="2.4528203"
       sodipodi:cy="1.9201736"
       sodipodi:r1="0.72640145"
       sodipodi:r2="0.36320072"
       sodipodi:arg1="1.8370484"
       sodipodi:arg2="2.3606472"
       inkscape:flatsided="true"
       inkscape:rounded="1"
       inkscape:randomized="1"
       d="M 2.0576833,2.7170194 C 1.3507738,2.7018529 1.8196959,2.2385839 1.0830507,1.8048715 0.34640544,1.3711591 2.9010827,1.2746107 2.5259146,0.88940765 2.1507465,0.50420462 2.1454265,1.32959 2.1161716,1.8783746 2.0869166,2.4271593 3.8146055,1.245449 3.1691237,2.0082799 2.523642,2.7711108 3.6478051,1.8642221 3.1790394,2.7628824 2.7102737,3.6615428 2.7645927,2.732186 2.0576833,2.7170194 z"
       inkscape:transform-center-x="-0.16058321"
       inkscape:transform-center-y="-0.11696009" />
    <path
       sodipodi:type="star"
       style="fill:#ce0000;fill-opacity:1;stroke:none"
       id="path3946"
       sodipodi:sides="6"
       sodipodi:cx="5.8931398"
       sodipodi:cy="3.2899306"
       sodipodi:r1="0.99975401"
       sodipodi:r2="0.49987698"
       sodipodi:arg1="2.6066376"
       sodipodi:arg2="3.1302364"
       inkscape:flatsided="true"
       inkscape:rounded="1"
       inkscape:randomized="1"
       d="M 4.3182637,3.3942902 C 4.1077175,1.9998868 5.8879217,4.2914723 5.0108878,3.3655202 4.1338538,2.4395681 4.6745365,1.6135021 6.0744602,1.3358057 7.4743838,1.0581092 6.8678305,1.8369976 6.6609927,3.1801673 6.4541548,4.5233371 5.3936292,3.5239094 5.8606087,4.5069413 6.3275882,5.4899732 7.2309288,5.3667934 6.7965443,4.5371479 6.3621598,3.7075024 4.5288099,4.7886935 4.3182637,3.3942902 z"
       inkscape:transform-center-x="0.69677788"
       inkscape:transform-center-y="-0.36855709" />
    <path
       sodipodi:type="star"
       style="fill:#ce0000;fill-opacity:1;stroke:none"
       id="path3948"
       sodipodi:sides="6"
       sodipodi:cx="10.257249"
       sodipodi:cy="2.5572698"
       sodipodi:r1="0.86007988"
       sodipodi:r2="0.43003994"
       sodipodi:arg1="0"
       sodipodi:arg2="0.52359878"
       inkscape:flatsided="true"
       inkscape:rounded="1"
       inkscape:randomized="1"
       d="M 10.862725,2.5385306 C 11.93125,2.7820705 10.68257,2.7604118 10.20665,3.4009404 9.7307297,4.0414691 10.67937,1.5975962 10.116069,2.4703334 9.5527686,3.3430706 8.860795,1.9252522 9.5503475,1.7385051 10.2399,1.5517581 9.2846073,0.98388037 10.11369,1.8022928 c 0.829084,0.8184124 -0.8147721,-0.60374 0.09058,-0.7895527 0.905352,-0.18581273 -0.4100704,1.2822506 0.658454,1.5257905 z"
       inkscape:transform-center-x="-0.23095893"
       inkscape:transform-center-y="-0.38685811" />
    <path
       sodipodi:type="star"
       style="fill:#ce0000;fill-opacity:1;stroke:none"
       id="path3950"
       sodipodi:sides="6"
       sodipodi:cx="8.2185411"
       sodipodi:cy="2.4617054"
       sodipodi:r1="1.1625915"
       sodipodi:r2="0.58129573"
       sodipodi:arg1="1.735945"
       sodipodi:arg2="2.2595438"
       inkscape:flatsided="true"
       inkscape:rounded="1"
       inkscape:randomized="1"
       d="M 7.2586761,3.3211625 C 6.988702,2.5167472 8.4253777,2.8447648 7.8324063,1.7156454 7.239435,0.58652601 6.9528805,2.709224 7.7003838,2.5828346 8.4478872,2.4564452 8.2617186,1.2009012 9.3197766,2.4729025 10.377835,3.7449038 7.5694988,3.0598029 8.6230905,3.2060694 9.6766822,3.3523359 8.4174956,1.4241336 8.7527199,2.1380117 9.0879442,2.8518899 7.5286502,4.1255778 7.2586761,3.3211625 z"
       inkscape:transform-center-x="0.27765786"
       inkscape:transform-center-y="0.49029312" />
    <path
       sodipodi:type="star"
       style="fill:#ce0000;fill-opacity:1;stroke:none"
       id="path3952"
       sodipodi:sides="6"
       sodipodi:cx="13.984262"
       sodipodi:cy="4.1500106"
       sodipodi:r1="1.3188046"
       sodipodi:r2="0.65940225"
       sodipodi:arg1="-2.2191283"
       sodipodi:arg2="-1.6955295"
       inkscape:flatsided="true"
       inkscape:rounded="1"
       inkscape:randomized="1"
       d="m 13.196411,3.3087899 c 0.519156,-1.8338863 -1.217145,-0.7690264 0.541645,-1.6333596 1.758791,-0.86433325 0.692325,2.4104898 0.358044,3.4085337 -0.33428,0.998044 2.105544,-0.4045138 1.003796,0.8990381 -1.101748,1.303552 -1.333532,0.2629502 -1.989101,0.6480208 -0.655569,0.3850707 0.09367,-1.410213 -0.50295,-2.216206 -0.596624,-0.8059931 0.06941,0.7278593 0.588566,-1.106027 z"
       inkscape:transform-center-x="0.38081449"
       inkscape:transform-center-y="0.8198958" />
    <path
       sodipodi:type="star"
       style="fill:#ce0000;fill-opacity:1;stroke:none"
       id="path3954"
       sodipodi:sides="6"
       sodipodi:cx="10.9262"
       sodipodi:cy="4.3092847"
       sodipodi:r1="0.5146302"
       sodipodi:r2="0.2573151"
       sodipodi:arg1="1.9513027"
       sodipodi:arg2="2.4749015"
       inkscape:flatsided="true"
       inkscape:rounded="1"
       inkscape:randomized="1"
       d="m 10.867694,4.506648 c -0.338396,0.2477651 -1.0540812,0.5342721 -0.788049,-0.05736 0.266032,-0.5916326 -0.5088644,-0.9733093 0.04952,-0.9932642 0.558388,-0.019955 0.409215,0.5648389 0.83653,0.1184053 0.427315,-0.4464337 1.174036,0.4230662 0.732563,0.6115522 -0.441474,0.188486 -0.01413,0.5256401 -0.04954,0.8792995 C 11.613314,5.4189398 11.20609,4.2588828 10.867694,4.506648 z"
       inkscape:transform-center-x="0.01248552"
       inkscape:transform-center-y="-0.32794902" />
    <path
       sodipodi:type="star"
       style="fill:#ce0000;fill-opacity:1;stroke:none"
       id="path3956"
       sodipodi:sides="6"
       sodipodi:cx="14.493939"
       sodipodi:cy="1.856464"
       sodipodi:r1="0.89420718"
       sodipodi:r2="0.44710356"
       sodipodi:arg1="-3.0702852"
       sodipodi:arg2="-2.5466864"
       inkscape:flatsided="true"
       inkscape:rounded="1"
       inkscape:randomized="1"
       d="M 12.815083,1.6250775 C 13.687896,0.97984982 13.998665,0.6886996 14.708348,1.1255088 15.418031,1.562318 15.016932,1.2219003 15.58127,0.66931605 16.145608,0.11673181 15.987901,2.022657 15.640646,2.5587807 15.293392,3.0949044 15.951447,2.3015533 15.439412,2.4309051 14.927378,2.5602569 14.722851,1.950206 13.583212,2.0644971 12.443573,2.1787882 11.942271,2.2703051 12.815083,1.6250775 z"
       inkscape:transform-center-x="0.29576291"
       inkscape:transform-center-y="-0.30635343" />
  </g>
</svg>
