<?xml version="1.0" encoding="UTF-8" standalone="no"?>
<!-- Created with Inkscape (http://www.inkscape.org/) -->

<svg
   xmlns:dc="http://purl.org/dc/elements/1.1/"
   xmlns:cc="http://creativecommons.org/ns#"
   xmlns:rdf="http://www.w3.org/1999/02/22-rdf-syntax-ns#"
   xmlns:svg="http://www.w3.org/2000/svg"
   xmlns="http://www.w3.org/2000/svg"
   xmlns:sodipodi="http://sodipodi.sourceforge.net/DTD/sodipodi-0.dtd"
   xmlns:inkscape="http://www.inkscape.org/namespaces/inkscape"
   width="16px"
   height="16px"
   id="svg2985"
   version="1.1"
   inkscape:version="0.48.4 r9939"
   sodipodi:docname="melonleaves.svg"
   inkscape:export-filename="C:\Users\Cliffie\Desktop\ForgeMCP1.6.4\forge\mcp\jars\resourcepacks\TheVectorPack\assets\meloncraft\textures\blocks\melonLeaves.png"
   inkscape:export-xdpi="360"
   inkscape:export-ydpi="360">
  <defs
     id="defs2987">
    <inkscape:perspective
       sodipodi:type="inkscape:persp3d"
       inkscape:vp_x="0 : 8 : 1"
       inkscape:vp_y="0 : 1000 : 0"
       inkscape:vp_z="16 : 8 : 1"
       inkscape:persp3d-origin="8 : 5.3333333 : 1"
       id="perspective3043" />
  </defs>
  <sodipodi:namedview
     id="base"
     pagecolor="#ffffff"
     bordercolor="#666666"
     borderopacity="1.0"
     inkscape:pageopacity="0.0"
     inkscape:pageshadow="2"
     inkscape:zoom="62.784866"
     inkscape:cx="4.5773204"
     inkscape:cy="3.3621344"
     inkscape:current-layer="layer1"
     showgrid="true"
     inkscape:grid-bbox="true"
     inkscape:document-units="px"
     inkscape:snap-page="true"
     inkscape:window-width="1920"
     inkscape:window-height="1058"
     inkscape:window-x="-8"
     inkscape:window-y="-8"
     inkscape:window-maximized="1" />
  <metadata
     id="metadata2990">
    <rdf:RDF>
      <cc:Work
         rdf:about="">
        <dc:format>image/svg+xml</dc:format>
        <dc:type
           rdf:resource="http://purl.org/dc/dcmitype/StillImage" />
        <dc:title></dc:title>
      </cc:Work>
    </rdf:RDF>
  </metadata>
  <g
     id="layer1"
     inkscape:label="Layer 1"
     inkscape:groupmode="layer">
    <path
       style="fill:#ccff00;stroke:none;stroke-width:1px;stroke-linecap:butt;stroke-linejoin:miter;stroke-opacity:1;fill-opacity:1"
       d="M 8.8237825,0 9.078621,6.5391213 13.156037,8.9600869 16,8.100007 16,6.0294444 13.219746,5.9657347 11.849989,1.4423517 10.86249,0 z"
       id="path4433"
       inkscape:connector-curvature="0" />
    <path
       style="fill:#ccff00;stroke:none;stroke-width:1px;stroke-linecap:butt;stroke-linejoin:miter;stroke-opacity:1"
       d="M 9.1104758,5.7427511 5.0649148,2.8758181 2.1661271,0 0,0 0,12.910083 6.4983813,11.317343 z"
       id="path4435"
       inkscape:connector-curvature="0" />
    <path
       style="fill:#ccff00;stroke:none;stroke-width:1px;stroke-linecap:butt;stroke-linejoin:miter;stroke-opacity:1"
       d="M 8.4096699,7.2399272 10.735071,11.189924 11.690715,12.400406 12.773779,16 9.0149113,16 7.7725737,12.750809 5.1604793,11.062504 z"
       id="path4437"
       inkscape:connector-curvature="0" />
    <path
       style="fill:#ccff00;stroke:none"
       d="M 3.678547,1.4437479 8.1148381,2.5966965 9.6463502,2.7783392 12.955809,4.5609177 10.295381,7.2163295 7.1207314,5.7942743 4.0792748,6.4446229 z"
       id="path4437-0"
       inkscape:connector-curvature="0" />
    <path
       style="fill:#ccff00;stroke:none;stroke-width:1px;stroke-linecap:butt;stroke-linejoin:miter;stroke-opacity:1"
       d="M 12.901198,8.5141196 C 12.964908,9.4060543 14.30281,16 14.30281,16 L 16,16 16,13.451615 14.780632,13.292341 15.003616,2.8121085 16,1.5379161 16,0 13.888697,0 13.283456,2.7165441 z"
       id="path4457"
       inkscape:connector-curvature="0" />
    <path
       style="fill:#ccff00;stroke:none;stroke-width:1px;stroke-linecap:butt;stroke-linejoin:miter;stroke-opacity:1"
       d="M 6.0205592,11.444762 1.6883049,16 0,16 0,14.598388 4.6189475,11.221778 z"
       id="path4459"
       inkscape:connector-curvature="0" />
    <path
       style="fill:#abc837;stroke:none"
       d="M 4.1154012,1.9044317 3.7308697,1.5558667 1.5362659,2.571988 0.15634093,5.3056382 0.494889,6.2272749 0.8923953,6.1777663 0.5966361,5.3859917 2.2435448,3.3497249 4.2305081,2.2819961 z"
       id="path4461"
       inkscape:connector-curvature="0" />
    <path
       style="fill:#c83737;stroke:none"
       d="m 4.3408159,2.108763 c 0,0 0.5980079,1.3845137 0.6260323,1.4554538 0.028023,0.070942 0.00537,1.3709834 0.00537,1.3709834 L 3.4368357,6.4350429 1.838817,6.7852117 0.8268495,6.1411204 0.4530363,5.3241296 1.8592979,3.411253 4.429119,2.0521954 z"
       id="path4463"
       inkscape:connector-curvature="0" />
    <path
       style="fill:#de8787;stroke:none"
       d="M 4.1744595,2.1401153 4.5097145,2.5578557 3.2051993,3.6294487 2.2846448,4.22942 1.7141109,5.3060529 0.8283534,6.1880202 0.4162669,5.381872 1.806259,3.3631738 z"
       id="path4465"
       inkscape:connector-curvature="0" />
    <path
       transform="matrix(0.41625423,0.37732086,-0.3926328,0.35885359,2.6413093,-2.4208244)"
       sodipodi:type="star"
       style="fill:#917c6f;stroke:none"
       id="path4467"
       sodipodi:sides="7"
       sodipodi:cx="10.735071"
       sodipodi:cy="7.0487981"
       sodipodi:r1="0.38490313"
       sodipodi:r2="0.34678575"
       sodipodi:arg1="1.9974238"
       sodipodi:arg2="2.4462228"
       inkscape:flatsided="true"
       inkscape:rounded="0.1"
       inkscape:randomized="0.25"
       d="m 10.508728,7.3120652 c -0.03347,-0.00994 -0.157957,-0.1016754 -0.157509,-0.1329848 4.48e-4,-0.031309 0.135896,-0.2703854 0.160349,-0.2948729 0.02445,-0.024487 0.09973,-0.2993974 0.136396,-0.2932898 0.03666,0.00611 0.395772,0.2326026 0.418264,0.2582767 0.02249,0.025674 -0.03072,0.3163257 -0.0441,0.3444214 -0.01338,0.028096 -0.07284,0.2013507 -0.107902,0.2137566 -0.03506,0.012406 -0.372028,-0.085367 -0.405496,-0.095307 z"
       inkscape:transform-center-x="-0.00034610116"
       inkscape:transform-center-y="-0.0010109296" />
    <path
       transform="matrix(0.41625423,0.37732086,-0.3926328,0.35885359,2.6413093,-2.4208244)"
       sodipodi:type="star"
       style="fill:#917c6f;stroke:none"
       id="path4469"
       sodipodi:sides="7"
       sodipodi:cx="10.512087"
       sodipodi:cy="9.1830702"
       sodipodi:r1="0.31854811"
       sodipodi:r2="0.28700191"
       sodipodi:arg1="2.2142974"
       sodipodi:arg2="2.6630964"
       inkscape:flatsided="true"
       inkscape:rounded="0.1"
       inkscape:randomized="0.25"
       d="m 10.244686,9.3904391 c -0.0208,-0.012568 -0.04665,-0.1943204 -0.0539,-0.2188773 -0.0072,-0.024557 0.10862,-0.2858948 0.132627,-0.3055584 0.02401,-0.019664 0.148428,-0.00595 0.177953,-0.010178 0.02952,-0.00422 0.303672,0.128902 0.314709,0.1558301 0.01104,0.026928 -0.05999,0.3341122 -0.06525,0.3578297 -0.0053,0.023718 -0.192769,0.1373489 -0.21847,0.1418083 -0.0257,0.00446 -0.266875,-0.108286 -0.287671,-0.1208543 z"
       inkscape:transform-center-x="-0.00067784203"
       inkscape:transform-center-y="-0.013564505" />
    <path
       transform="matrix(0.41625423,0.37732086,-0.3926328,0.35885359,2.6413093,-2.4208244)"
       sodipodi:type="star"
       style="fill:#917c6f;stroke:none"
       id="path4471"
       sodipodi:sides="7"
       sodipodi:cx="9.3971691"
       sodipodi:cy="10.712101"
       sodipodi:r1="0.36039606"
       sodipodi:r2="0.58113462"
       sodipodi:arg1="0.78539818"
       sodipodi:arg2="1.2341971"
       inkscape:flatsided="true"
       inkscape:rounded="0.1"
       inkscape:randomized="0.25"
       d="m 9.718648,10.875847 c -0.018204,0.0227 -0.2780566,0.322575 -0.3109291,0.32611 -0.032873,0.0035 -0.1767594,-0.29261 -0.1848755,-0.326795 -0.00812,-0.03418 -0.2187168,-0.275779 -0.2089632,-0.308567 0.00975,-0.03279 0.2262484,-0.142536 0.2611495,-0.140984 0.034901,0.0016 0.2894866,0.03014 0.3177108,0.03547 0.028224,0.0053 0.2820959,0.04984 0.2847927,0.07747 0.0027,0.02762 -0.1406807,0.314594 -0.1588852,0.337293 z"
       inkscape:transform-center-x="-0.094249058"
       inkscape:transform-center-y="-0.05120511" />
    <path
       transform="matrix(0.41625423,0.37732086,-0.3926328,0.35885359,2.6413093,-2.4208244)"
       sodipodi:type="star"
       style="fill:#917c6f;stroke:none"
       id="path4473"
       sodipodi:sides="7"
       sodipodi:cx="11.181038"
       sodipodi:cy="12.081858"
       sodipodi:r1="0.41411251"
       sodipodi:r2="0.47071815"
       sodipodi:arg1="2.7468015"
       sodipodi:arg2="3.1956005"
       inkscape:flatsided="true"
       inkscape:rounded="0.1"
       inkscape:randomized="0.25"
       d="m 10.894417,12.178382 c -0.0016,-0.03478 -0.06229,-0.225917 -0.05573,-0.264203 0.0066,-0.03829 0.350529,-0.126764 0.386018,-0.140425 0.03549,-0.01366 0.21671,-0.142302 0.243936,-0.114712 0.02723,0.02759 0.17355,0.433325 0.182142,0.469015 0.0086,0.03569 -0.109685,0.27146 -0.135016,0.298723 -0.02533,0.02726 -0.446421,0.130007 -0.472788,0.112678 -0.02637,-0.01733 -0.146999,-0.326297 -0.148558,-0.361076 z"
       inkscape:transform-center-x="-0.03922157"
       inkscape:transform-center-y="-0.0384845" />
    <path
       transform="matrix(0.41625423,0.37732086,-0.3926328,0.35885359,2.6413093,-2.4208244)"
       sodipodi:type="star"
       style="fill:#917c6f;stroke:none"
       id="path4475"
       sodipodi:sides="7"
       sodipodi:cx="9.7794266"
       sodipodi:cy="12.973793"
       sodipodi:r1="0.38883752"
       sodipodi:r2="0.3503305"
       sodipodi:arg1="0.96007036"
       sodipodi:arg2="1.4088693"
       inkscape:flatsided="true"
       inkscape:rounded="0.1"
       inkscape:randomized="0.25"
       d="m 10.026544,13.23417 c -0.026681,0.01475 -0.2761795,0.120195 -0.3073373,0.102989 -0.031158,-0.01721 -0.2091905,-0.273132 -0.2234059,-0.301967 -0.014215,-0.02884 -0.038305,-0.312737 -0.019961,-0.34015 0.018344,-0.02741 0.1227547,-0.137828 0.1542731,-0.153642 0.031518,-0.01581 0.4569378,0.178302 0.4752068,0.202376 0.01827,0.02407 0.03854,0.271014 0.03759,0.301053 -9.47e-4,0.03004 -0.08969,0.174593 -0.116369,0.189341 z"
       inkscape:transform-center-x="-0.028657274"
       inkscape:transform-center-y="-0.014548442" />
    <path
       transform="matrix(0.41625423,0.37732086,-0.3926328,0.35885359,2.6413093,-2.4208244)"
       sodipodi:type="star"
       style="fill:#917c6f;stroke:none"
       id="path4477"
       sodipodi:sides="7"
       sodipodi:cx="11.754425"
       sodipodi:cy="10.361699"
       sodipodi:r1="0.25483847"
       sodipodi:r2="0.22960155"
       sodipodi:arg1="3.1415927"
       sodipodi:arg2="3.5903916"
       inkscape:flatsided="true"
       inkscape:rounded="0.1"
       inkscape:randomized="0.25"
       d="m 11.439838,10.332924 c 0.005,-0.0209 0.179147,-0.106643 0.192748,-0.120759 0.0136,-0.01412 0.09846,-0.116524 0.12186,-0.113823 0.0234,0.0027 0.268297,0.195147 0.272754,0.216118 0.0045,0.02097 0.0033,0.112567 9.8e-5,0.133832 -0.0032,0.02126 -0.250623,0.164504 -0.272792,0.173836 -0.02217,0.0093 -0.102696,-0.07387 -0.12182,-0.08468 -0.01912,-0.01081 -0.197843,-0.183625 -0.192848,-0.204522 z"
       inkscape:transform-center-x="-0.0039517451"
       inkscape:transform-center-y="0.002533572" />
    <path
       transform="matrix(0.41625423,0.37732086,-0.3926328,0.35885359,2.6413093,-2.4208244)"
       sodipodi:type="star"
       style="fill:#917c6f;stroke:none"
       id="path4479"
       sodipodi:sides="7"
       sodipodi:cx="9.4608784"
       sodipodi:cy="7.4947658"
       sodipodi:r1="0.15927406"
       sodipodi:r2="0.14350095"
       sodipodi:arg1="1.5707963"
       sodipodi:arg2="2.0195953"
       inkscape:flatsided="true"
       inkscape:rounded="0.1"
       inkscape:randomized="0.25"
       d="m 9.4898162,7.6315108 c -0.012572,0.0033 -0.144046,0.01025 -0.1545777,0.00128 -0.010532,-0.00897 -0.068226,-0.1442434 -0.061258,-0.1552045 0.00697,-0.010961 0.093172,-0.1103221 0.1037863,-0.1179608 0.010614,-0.00764 0.1347558,-0.025567 0.1487325,-0.024463 0.013977,0.0011 0.053699,0.07517 0.055683,0.087325 0.00198,0.012155 -0.00135,0.1949157 -0.013132,0.2042061 -0.011781,0.00929 -0.066662,0.00152 -0.079234,0.00482 z"
       inkscape:transform-center-x="0.0076027365"
       inkscape:transform-center-y="0.0040103065" />
    <path
       transform="matrix(0.41625423,0.37732086,-0.3926328,0.35885359,2.6413093,-2.4208244)"
       sodipodi:type="star"
       style="fill:#917c6f;stroke:none"
       id="path4481"
       sodipodi:sides="7"
       sodipodi:cx="9.6201525"
       sodipodi:cy="5.7746058"
       sodipodi:r1="0.35184789"
       sodipodi:r2="0.317004"
       sodipodi:arg1="1.4801364"
       sodipodi:arg2="1.9289354"
       inkscape:flatsided="true"
       inkscape:rounded="0.1"
       inkscape:randomized="0.25"
       d="M 9.6913957,6.1515357 C 9.6594854,6.1618422 9.3336421,5.9617452 9.3149086,5.9340375 9.296175,5.9063298 9.1885445,5.7485091 9.2022831,5.7214914 9.2160218,5.6944738 9.4323552,5.5644707 9.4607639,5.5581319 c 0.028409,-0.00634 0.2851529,-0.1779801 0.31158,-0.1710621 0.026427,0.00692 0.1287872,0.2459522 0.1406727,0.2757619 0.011885,0.02981 -0.019013,0.2403569 -0.036416,0.2614686 -0.017403,0.021112 -0.153295,0.216929 -0.1852052,0.2272354 z"
       inkscape:transform-center-x="-0.013317989"
       inkscape:transform-center-y="-0.0064373904" />
    <path
       style="fill:#abc837;stroke:none"
       d="M 4.7737688,11.150563 5.0377723,11.502895 6.9378541,10.868734 8.4067495,8.6264878 8.2547756,7.7752654 7.9282245,7.7717238 8.0627422,8.503588 6.4701461,10.100451 4.7305017,10.804638 z"
       id="path4461-4"
       inkscape:connector-curvature="0" />
    <path
       style="fill:#c83737;stroke:none"
       d="m 4.6190083,10.944023 c 0,0 -0.3003086,-1.2893332 -0.3135891,-1.3550865 C 4.29214,9.5231811 4.4805306,8.3817464 4.4805306,8.3817464 L 5.9131185,7.2437536 7.2456706,7.1249705 7.9762058,7.8117449 8.170271,8.5750515 6.787593,10.091844 4.5405032,10.983341 z"
       id="path4463-2"
       inkscape:connector-curvature="0" />
    <path
       style="fill:#de8787;stroke:none"
       d="M 4.7570615,10.936147 4.5417891,10.528776 5.7324333,9.7403087 6.5521868,9.3213943 7.1524903,8.4415048 7.981133,7.7702917 8.207435,8.5285922 6.8240072,10.140442 z"
       id="path4465-6"
       inkscape:connector-curvature="0" />
    <path
       transform="matrix(-0.28578309,-0.38139867,0.36311424,-0.26928168,5.3946119,15.131767)"
       sodipodi:type="star"
       style="fill:#917c6f;stroke:none"
       id="path4467-1"
       sodipodi:sides="7"
       sodipodi:cx="10.735071"
       sodipodi:cy="7.0487981"
       sodipodi:r1="0.38490313"
       sodipodi:r2="0.34678575"
       sodipodi:arg1="1.9974238"
       sodipodi:arg2="2.4462228"
       inkscape:flatsided="true"
       inkscape:rounded="0.1"
       inkscape:randomized="0.25"
       d="m 10.508728,7.3120652 c -0.03347,-0.00994 -0.157957,-0.1016754 -0.157509,-0.1329848 4.48e-4,-0.031309 0.135896,-0.2703854 0.160349,-0.2948729 0.02445,-0.024487 0.09973,-0.2993974 0.136396,-0.2932898 0.03666,0.00611 0.395772,0.2326026 0.418264,0.2582767 0.02249,0.025674 -0.03072,0.3163257 -0.0441,0.3444214 -0.01338,0.028096 -0.07284,0.2013507 -0.107902,0.2137566 -0.03506,0.012406 -0.372028,-0.085367 -0.405496,-0.095307 z"
       inkscape:transform-center-x="0.0011020442"
       inkscape:transform-center-y="-0.0037590003" />
    <path
       transform="matrix(-0.28578309,-0.38139867,0.36311424,-0.26928168,5.3946119,15.131767)"
       sodipodi:type="star"
       style="fill:#917c6f;stroke:none"
       id="path4469-5"
       sodipodi:sides="7"
       sodipodi:cx="10.512087"
       sodipodi:cy="9.1830702"
       sodipodi:r1="0.31854811"
       sodipodi:r2="0.28700191"
       sodipodi:arg1="2.2142974"
       sodipodi:arg2="2.6630964"
       inkscape:flatsided="true"
       inkscape:rounded="0.1"
       inkscape:randomized="0.25"
       d="m 10.244686,9.3904391 c -0.0208,-0.012568 -0.04665,-0.1943204 -0.0539,-0.2188773 -0.0072,-0.024557 0.10862,-0.2858948 0.132627,-0.3055584 0.02401,-0.019664 0.148428,-0.00595 0.177953,-0.010178 0.02952,-0.00422 0.303672,0.128902 0.314709,0.1558301 0.01104,0.026928 -0.05999,0.3341122 -0.06525,0.3578297 -0.0053,0.023718 -0.192769,0.1373489 -0.21847,0.1418083 -0.0257,0.00446 -0.266875,-0.108286 -0.287671,-0.1208543 z"
       inkscape:transform-center-x="-0.00083830277"
       inkscape:transform-center-y="0.0080722611" />
    <path
       transform="matrix(-0.28578309,-0.38139867,0.36311424,-0.26928168,5.3946119,15.131767)"
       sodipodi:type="star"
       style="fill:#917c6f;stroke:none"
       id="path4471-6"
       sodipodi:sides="7"
       sodipodi:cx="9.3971691"
       sodipodi:cy="10.712101"
       sodipodi:r1="0.36039606"
       sodipodi:r2="0.58113462"
       sodipodi:arg1="0.78539818"
       sodipodi:arg2="1.2341971"
       inkscape:flatsided="true"
       inkscape:rounded="0.1"
       inkscape:randomized="0.25"
       d="m 9.718648,10.875847 c -0.018204,0.0227 -0.2780566,0.322575 -0.3109291,0.32611 -0.032873,0.0035 -0.1767594,-0.29261 -0.1848755,-0.326795 -0.00812,-0.03418 -0.2187168,-0.275779 -0.2089632,-0.308567 0.00975,-0.03279 0.2262484,-0.142536 0.2611495,-0.140984 0.034901,0.0016 0.2894866,0.03014 0.3177108,0.03547 0.028224,0.0053 0.2820959,0.04984 0.2847927,0.07747 0.0027,0.02762 -0.1406807,0.314594 -0.1588852,0.337293 z"
       inkscape:transform-center-x="0.062863154"
       inkscape:transform-center-y="0.042415638" />
    <path
       transform="matrix(-0.28578309,-0.38139867,0.36311424,-0.26928168,5.3946119,15.131767)"
       sodipodi:type="star"
       style="fill:#917c6f;stroke:none"
       id="path4473-1"
       sodipodi:sides="7"
       sodipodi:cx="11.181038"
       sodipodi:cy="12.081858"
       sodipodi:r1="0.41411251"
       sodipodi:r2="0.47071815"
       sodipodi:arg1="2.7468015"
       sodipodi:arg2="3.1956005"
       inkscape:flatsided="true"
       inkscape:rounded="0.1"
       inkscape:randomized="0.25"
       d="m 10.894417,12.178382 c -0.0016,-0.03478 -0.06229,-0.225917 -0.05573,-0.264203 0.0066,-0.03829 0.350529,-0.126764 0.386018,-0.140425 0.03549,-0.01366 0.21671,-0.142302 0.243936,-0.114712 0.02723,0.02759 0.17355,0.433325 0.182142,0.469015 0.0086,0.03569 -0.109685,0.27146 -0.135016,0.298723 -0.02533,0.02726 -0.446421,0.130007 -0.472788,0.112678 -0.02637,-0.01733 -0.146999,-0.326297 -0.148558,-0.361076 z"
       inkscape:transform-center-x="0.036105627"
       inkscape:transform-center-y="0.036108385" />
    <path
       transform="matrix(-0.28578309,-0.38139867,0.36311424,-0.26928168,5.3946119,15.131767)"
       sodipodi:type="star"
       style="fill:#917c6f;stroke:none"
       id="path4475-0"
       sodipodi:sides="7"
       sodipodi:cx="9.7794266"
       sodipodi:cy="12.973793"
       sodipodi:r1="0.38883752"
       sodipodi:r2="0.3503305"
       sodipodi:arg1="0.96007036"
       sodipodi:arg2="1.4088693"
       inkscape:flatsided="true"
       inkscape:rounded="0.1"
       inkscape:randomized="0.25"
       d="m 10.026544,13.23417 c -0.026681,0.01475 -0.2761795,0.120195 -0.3073373,0.102989 -0.031158,-0.01721 -0.2091905,-0.273132 -0.2234059,-0.301967 -0.014215,-0.02884 -0.038305,-0.312737 -0.019961,-0.34015 0.018344,-0.02741 0.1227547,-0.137828 0.1542731,-0.153642 0.031518,-0.01581 0.4569378,0.178302 0.4752068,0.202376 0.01827,0.02407 0.03854,0.271014 0.03759,0.301053 -9.47e-4,0.03004 -0.08969,0.174593 -0.116369,0.189341 z"
       inkscape:transform-center-x="0.013778815"
       inkscape:transform-center-y="0.01186076" />
    <path
       transform="matrix(-0.28578309,-0.38139867,0.36311424,-0.26928168,5.3946119,15.131767)"
       sodipodi:type="star"
       style="fill:#917c6f;stroke:none"
       id="path4477-5"
       sodipodi:sides="7"
       sodipodi:cx="11.754425"
       sodipodi:cy="10.361699"
       sodipodi:r1="0.25483847"
       sodipodi:r2="0.22960155"
       sodipodi:arg1="3.1415927"
       sodipodi:arg2="3.5903916"
       inkscape:flatsided="true"
       inkscape:rounded="0.1"
       inkscape:randomized="0.25"
       d="m 11.439838,10.332924 c 0.005,-0.0209 0.179147,-0.106643 0.192748,-0.120759 0.0136,-0.01412 0.09846,-0.116524 0.12186,-0.113823 0.0234,0.0027 0.268297,0.195147 0.272754,0.216118 0.0045,0.02097 0.0033,0.112567 9.8e-5,0.133832 -0.0032,0.02126 -0.250623,0.164504 -0.272792,0.173836 -0.02217,0.0093 -0.102696,-0.07387 -0.12182,-0.08468 -0.01912,-0.01081 -0.197843,-0.183625 -0.192848,-0.204522 z"
       inkscape:transform-center-x="7.5232801e-005"
       inkscape:transform-center-y="0.00015360536" />
    <path
       transform="matrix(-0.28578309,-0.38139867,0.36311424,-0.26928168,5.3946119,15.131767)"
       sodipodi:type="star"
       style="fill:#917c6f;stroke:none"
       id="path4479-0"
       sodipodi:sides="7"
       sodipodi:cx="9.4608784"
       sodipodi:cy="7.4947658"
       sodipodi:r1="0.15927406"
       sodipodi:r2="0.14350095"
       sodipodi:arg1="1.5707963"
       sodipodi:arg2="2.0195953"
       inkscape:flatsided="true"
       inkscape:rounded="0.1"
       inkscape:randomized="0.25"
       d="m 9.4898162,7.6315108 c -0.012572,0.0033 -0.144046,0.01025 -0.1545777,0.00128 -0.010532,-0.00897 -0.068226,-0.1442434 -0.061258,-0.1552045 0.00697,-0.010961 0.093172,-0.1103221 0.1037863,-0.1179608 0.010614,-0.00764 0.1347558,-0.025567 0.1487325,-0.024463 0.013977,0.0011 0.053699,0.07517 0.055683,0.087325 0.00198,0.012155 -0.00135,0.1949157 -0.013132,0.2042061 -0.011781,0.00929 -0.066662,0.00152 -0.079234,0.00482 z"
       inkscape:transform-center-x="-0.0043904606"
       inkscape:transform-center-y="-0.00046110354" />
    <path
       transform="matrix(-0.28578309,-0.38139867,0.36311424,-0.26928168,5.3946119,15.131767)"
       sodipodi:type="star"
       style="fill:#917c6f;stroke:none"
       id="path4481-4"
       sodipodi:sides="7"
       sodipodi:cx="9.6201525"
       sodipodi:cy="5.7746058"
       sodipodi:r1="0.35184789"
       sodipodi:r2="0.317004"
       sodipodi:arg1="1.4801364"
       sodipodi:arg2="1.9289354"
       inkscape:flatsided="true"
       inkscape:rounded="0.1"
       inkscape:randomized="0.25"
       d="M 9.6913957,6.1515357 C 9.6594854,6.1618422 9.3336421,5.9617452 9.3149086,5.9340375 9.296175,5.9063298 9.1885445,5.7485091 9.2022831,5.7214914 9.2160218,5.6944738 9.4323552,5.5644707 9.4607639,5.5581319 c 0.028409,-0.00634 0.2851529,-0.1779801 0.31158,-0.1710621 0.026427,0.00692 0.1287872,0.2459522 0.1406727,0.2757619 0.011885,0.02981 -0.019013,0.2403569 -0.036416,0.2614686 -0.017403,0.021112 -0.153295,0.216929 -0.1852052,0.2272354 z"
       inkscape:transform-center-x="0.019355456"
       inkscape:transform-center-y="0.017803523" />
    <path
       style="fill:#abc837;stroke:none"
       d="M 12.206221,4.6256274 12.453781,4.3740728 11.83821,2.8416944 10.037367,1.810768 9.4044988,2.0124623 9.4251924,2.2856915 9.9690439,2.1090589 11.290663,3.2999915 11.94771,4.6921384 z"
       id="path4461-8"
       inkscape:connector-curvature="0" />
    <path
       style="fill:#c83737;stroke:none"
       d="m 12.0611,4.7730902 c 0,0 -0.953578,0.3641037 -1.002353,0.380973 -0.04878,0.016876 -0.925477,-0.04051 -0.925477,-0.04051 L 9.1701239,4.0161603 8.9849264,2.9128857 9.4520231,2.2420798 10.015392,2.0129202 l 1.24604,1.0225164 0.83502,1.7998171 z"
       id="path4463-7"
       inkscape:connector-curvature="0" />
    <path
       style="fill:#de8787;stroke:none"
       d="M 12.045263,4.6584025 11.752592,4.8740592 11.071096,3.948139 10.695621,3.299773 9.9872352,2.8752584 9.4203213,2.2415985 9.9775968,1.985936 11.29558,3.0007386 z"
       id="path4465-0"
       inkscape:connector-curvature="0" />
    <path
       transform="matrix(-0.26798333,0.27230775,-0.22963352,-0.2798519,15.172608,3.7574669)"
       sodipodi:type="star"
       style="fill:#917c6f;stroke:none"
       id="path4467-8"
       sodipodi:sides="7"
       sodipodi:cx="10.735071"
       sodipodi:cy="7.0487981"
       sodipodi:r1="0.38490313"
       sodipodi:r2="0.34678575"
       sodipodi:arg1="1.9974238"
       sodipodi:arg2="2.4462228"
       inkscape:flatsided="true"
       inkscape:rounded="0.1"
       inkscape:randomized="0.25"
       d="m 10.508728,7.3120652 c -0.03347,-0.00994 -0.157957,-0.1016754 -0.157509,-0.1329848 4.48e-4,-0.031309 0.135896,-0.2703854 0.160349,-0.2948729 0.02445,-0.024487 0.09973,-0.2993974 0.136396,-0.2932898 0.03666,0.00611 0.395772,0.2326026 0.418264,0.2582767 0.02249,0.025674 -0.03072,0.3163257 -0.0441,0.3444214 -0.01338,0.028096 -0.07284,0.2013507 -0.107902,0.2137566 -0.03506,0.012406 -0.372028,-0.085367 -0.405496,-0.095307 z"
       inkscape:transform-center-x="0.00056188272"
       inkscape:transform-center-y="0.00058915426" />
    <path
       transform="matrix(-0.26798333,0.27230775,-0.22963352,-0.2798519,15.172608,3.7574669)"
       sodipodi:type="star"
       style="fill:#917c6f;stroke:none"
       id="path4469-1"
       sodipodi:sides="7"
       sodipodi:cx="10.512087"
       sodipodi:cy="9.1830702"
       sodipodi:r1="0.31854811"
       sodipodi:r2="0.28700191"
       sodipodi:arg1="2.2142974"
       sodipodi:arg2="2.6630964"
       inkscape:flatsided="true"
       inkscape:rounded="0.1"
       inkscape:randomized="0.25"
       d="m 10.244686,9.3904391 c -0.0208,-0.012568 -0.04665,-0.1943204 -0.0539,-0.2188773 -0.0072,-0.024557 0.10862,-0.2858948 0.132627,-0.3055584 0.02401,-0.019664 0.148428,-0.00595 0.177953,-0.010178 0.02952,-0.00422 0.303672,0.128902 0.314709,0.1558301 0.01104,0.026928 -0.05999,0.3341122 -0.06525,0.3578297 -0.0053,0.023718 -0.192769,0.1373489 -0.21847,0.1418083 -0.0257,0.00446 -0.266875,-0.108286 -0.287671,-0.1208543 z"
       inkscape:transform-center-x="-0.0081108067"
       inkscape:transform-center-y="0.00010235678" />
    <path
       transform="matrix(-0.26798333,0.27230775,-0.22963352,-0.2798519,15.172608,3.7574669)"
       sodipodi:type="star"
       style="fill:#917c6f;stroke:none"
       id="path4471-7"
       sodipodi:sides="7"
       sodipodi:cx="9.3971691"
       sodipodi:cy="10.712101"
       sodipodi:r1="0.36039606"
       sodipodi:r2="0.58113462"
       sodipodi:arg1="0.78539818"
       sodipodi:arg2="1.2341971"
       inkscape:flatsided="true"
       inkscape:rounded="0.1"
       inkscape:randomized="0.25"
       d="m 9.718648,10.875847 c -0.018204,0.0227 -0.2780566,0.322575 -0.3109291,0.32611 -0.032873,0.0035 -0.1767594,-0.29261 -0.1848755,-0.326795 -0.00812,-0.03418 -0.2187168,-0.275779 -0.2089632,-0.308567 0.00975,-0.03279 0.2262484,-0.142536 0.2611495,-0.140984 0.034901,0.0016 0.2894866,0.03014 0.3177108,0.03547 0.028224,0.0053 0.2820959,0.04984 0.2847927,0.07747 0.0027,0.02762 -0.1406807,0.314594 -0.1588852,0.337293 z"
       inkscape:transform-center-x="-0.034896828"
       inkscape:transform-center-y="0.061222245" />
    <path
       transform="matrix(-0.26798333,0.27230775,-0.22963352,-0.2798519,15.172608,3.7574669)"
       sodipodi:type="star"
       style="fill:#917c6f;stroke:none"
       id="path4473-2"
       sodipodi:sides="7"
       sodipodi:cx="11.181038"
       sodipodi:cy="12.081858"
       sodipodi:r1="0.41411251"
       sodipodi:r2="0.47071815"
       sodipodi:arg1="2.7468015"
       sodipodi:arg2="3.1956005"
       inkscape:flatsided="true"
       inkscape:rounded="0.1"
       inkscape:randomized="0.25"
       d="m 10.894417,12.178382 c -0.0016,-0.03478 -0.06229,-0.225917 -0.05573,-0.264203 0.0066,-0.03829 0.350529,-0.126764 0.386018,-0.140425 0.03549,-0.01366 0.21671,-0.142302 0.243936,-0.114712 0.02723,0.02759 0.17355,0.433325 0.182142,0.469015 0.0086,0.03569 -0.109685,0.27146 -0.135016,0.298723 -0.02533,0.02726 -0.446421,0.130007 -0.472788,0.112678 -0.02637,-0.01733 -0.146999,-0.326297 -0.148558,-0.361076 z"
       inkscape:transform-center-x="-0.026590993"
       inkscape:transform-center-y="0.027917228" />
    <path
       transform="matrix(-0.26798333,0.27230775,-0.22963352,-0.2798519,15.172608,3.7574669)"
       sodipodi:type="star"
       style="fill:#917c6f;stroke:none"
       id="path4475-8"
       sodipodi:sides="7"
       sodipodi:cx="9.7794266"
       sodipodi:cy="12.973793"
       sodipodi:r1="0.38883752"
       sodipodi:r2="0.3503305"
       sodipodi:arg1="0.96007036"
       sodipodi:arg2="1.4088693"
       inkscape:flatsided="true"
       inkscape:rounded="0.1"
       inkscape:randomized="0.25"
       d="m 10.026544,13.23417 c -0.026681,0.01475 -0.2761795,0.120195 -0.3073373,0.102989 -0.031158,-0.01721 -0.2091905,-0.273132 -0.2234059,-0.301967 -0.014215,-0.02884 -0.038305,-0.312737 -0.019961,-0.34015 0.018344,-0.02741 0.1227547,-0.137828 0.1542731,-0.153642 0.031518,-0.01581 0.4569378,0.178302 0.4752068,0.202376 0.01827,0.02407 0.03854,0.271014 0.03759,0.301053 -9.47e-4,0.03004 -0.08969,0.174593 -0.116369,0.189341 z"
       inkscape:transform-center-x="-0.0094284674"
       inkscape:transform-center-y="0.017335664" />
    <path
       transform="matrix(-0.26798333,0.27230775,-0.22963352,-0.2798519,15.172608,3.7574669)"
       sodipodi:type="star"
       style="fill:#917c6f;stroke:none"
       id="path4477-0"
       sodipodi:sides="7"
       sodipodi:cx="11.754425"
       sodipodi:cy="10.361699"
       sodipodi:r1="0.25483847"
       sodipodi:r2="0.22960155"
       sodipodi:arg1="3.1415927"
       sodipodi:arg2="3.5903916"
       inkscape:flatsided="true"
       inkscape:rounded="0.1"
       inkscape:randomized="0.25"
       d="m 11.439838,10.332924 c 0.005,-0.0209 0.179147,-0.106643 0.192748,-0.120759 0.0136,-0.01412 0.09846,-0.116524 0.12186,-0.113823 0.0234,0.0027 0.268297,0.195147 0.272754,0.216118 0.0045,0.02097 0.0033,0.112567 9.8e-5,0.133832 -0.0032,0.02126 -0.250623,0.164504 -0.272792,0.173836 -0.02217,0.0093 -0.102696,-0.07387 -0.12182,-0.08468 -0.01912,-0.01081 -0.197843,-0.183625 -0.192848,-0.204522 z"
       inkscape:transform-center-x="0.0010652568"
       inkscape:transform-center-y="0.0023989285" />
    <path
       transform="matrix(-0.26798333,0.27230775,-0.22963352,-0.2798519,15.172608,3.7574669)"
       sodipodi:type="star"
       style="fill:#917c6f;stroke:none"
       id="path4479-1"
       sodipodi:sides="7"
       sodipodi:cx="9.4608784"
       sodipodi:cy="7.4947658"
       sodipodi:r1="0.15927406"
       sodipodi:r2="0.14350095"
       sodipodi:arg1="1.5707963"
       sodipodi:arg2="2.0195953"
       inkscape:flatsided="true"
       inkscape:rounded="0.1"
       inkscape:randomized="0.25"
       d="m 9.4898162,7.6315108 c -0.012572,0.0033 -0.144046,0.01025 -0.1545777,0.00128 -0.010532,-0.00897 -0.068226,-0.1442434 -0.061258,-0.1552045 0.00697,-0.010961 0.093172,-0.1103221 0.1037863,-0.1179608 0.010614,-0.00764 0.1347558,-0.025567 0.1487325,-0.024463 0.013977,0.0011 0.053699,0.07517 0.055683,0.087325 0.00198,0.012155 -0.00135,0.1949157 -0.013132,0.2042061 -0.011781,0.00929 -0.066662,0.00152 -0.079234,0.00482 z"
       inkscape:transform-center-x="0.0024637018"
       inkscape:transform-center-y="-0.0047849907" />
    <path
       transform="matrix(-0.26798333,0.27230775,-0.22963352,-0.2798519,15.172608,3.7574669)"
       sodipodi:type="star"
       style="fill:#917c6f;stroke:none"
       id="path4481-1"
       sodipodi:sides="7"
       sodipodi:cx="9.6201525"
       sodipodi:cy="5.7746058"
       sodipodi:r1="0.35184789"
       sodipodi:r2="0.317004"
       sodipodi:arg1="1.4801364"
       sodipodi:arg2="1.9289354"
       inkscape:flatsided="true"
       inkscape:rounded="0.1"
       inkscape:randomized="0.25"
       d="M 9.6913957,6.1515357 C 9.6594854,6.1618422 9.3336421,5.9617452 9.3149086,5.9340375 9.296175,5.9063298 9.1885445,5.7485091 9.2022831,5.7214914 9.2160218,5.6944738 9.4323552,5.5644707 9.4607639,5.5581319 c 0.028409,-0.00634 0.2851529,-0.1779801 0.31158,-0.1710621 0.026427,0.00692 0.1287872,0.2459522 0.1406727,0.2757619 0.011885,0.02981 -0.019013,0.2403569 -0.036416,0.2614686 -0.017403,0.021112 -0.153295,0.216929 -0.1852052,0.2272354 z"
       inkscape:transform-center-x="-0.0082232767"
       inkscape:transform-center-y="0.01124609" />
    <path
       style="fill:#abc837;stroke:none"
       d="M 3.4644897,10.179167 3.7156316,10.08916 3.682663,8.8791964 2.6399609,7.6331066 2.1189263,7.5699297 l -0.059667,0.1879906 0.448655,0.052093 0.6461663,1.2030863 0.1019313,1.1297126 z"
       id="path4461-9"
       inkscape:connector-curvature="0" />
    <path
       style="fill:#c83737;stroke:none"
       d="m 3.317268,10.231929 c 0,0 -0.8015732,-0.05519 -0.8420931,-0.05918 -0.040518,-0.004 -0.6699867,-0.3152684 -0.6699867,-0.3152684 L 1.3971966,8.8282275 1.5633295,8.0374708 2.090959,7.737303 2.5683756,7.7605763 3.2050877,8.8282125 3.3262453,10.284248 z"
       id="path4463-1"
       inkscape:connector-curvature="0" />
    <path
       style="fill:#de8787;stroke:none"
       d="M 3.3370509,10.150792 3.0625505,10.202891 2.8148266,9.3753376 2.71623,8.8275506 2.3112737,8.32477 2.0677606,7.7271055 l 0.4801973,0.00377 0.6917702,1.0849268 z"
       id="path4465-03"
       inkscape:connector-curvature="0" />
    <path
       transform="matrix(-0.27186113,0.09743205,-0.09228243,-0.25749235,5.8855223,10.526601)"
       sodipodi:type="star"
       style="fill:#917c6f;stroke:none"
       id="path4467-2"
       sodipodi:sides="7"
       sodipodi:cx="10.735071"
       sodipodi:cy="7.0487981"
       sodipodi:r1="0.38490313"
       sodipodi:r2="0.34678575"
       sodipodi:arg1="1.9974238"
       sodipodi:arg2="2.4462228"
       inkscape:flatsided="true"
       inkscape:rounded="0.1"
       inkscape:randomized="0.25"
       d="m 10.508728,7.3120652 c -0.03347,-0.00994 -0.157957,-0.1016754 -0.157509,-0.1329848 4.48e-4,-0.031309 0.135896,-0.2703854 0.160349,-0.2948729 0.02445,-0.024487 0.09973,-0.2993974 0.136396,-0.2932898 0.03666,0.00611 0.395772,0.2326026 0.418264,0.2582767 0.02249,0.025674 -0.03072,0.3163257 -0.0441,0.3444214 -0.01338,0.028096 -0.07284,0.2013507 -0.107902,0.2137566 -0.03506,0.012406 -0.372028,-0.085367 -0.405496,-0.095307 z"
       inkscape:transform-center-x="-0.00060478226"
       inkscape:transform-center-y="0.0098314112" />
    <path
       transform="matrix(-0.27186113,0.09743205,-0.09228243,-0.25749235,5.8855223,10.526601)"
       sodipodi:type="star"
       style="fill:#917c6f;stroke:none"
       id="path4469-3"
       sodipodi:sides="7"
       sodipodi:cx="10.512087"
       sodipodi:cy="9.1830702"
       sodipodi:r1="0.31854811"
       sodipodi:r2="0.28700191"
       sodipodi:arg1="2.2142974"
       sodipodi:arg2="2.6630964"
       inkscape:flatsided="true"
       inkscape:rounded="0.1"
       inkscape:randomized="0.25"
       d="m 10.244686,9.3904391 c -0.0208,-0.012568 -0.04665,-0.1943204 -0.0539,-0.2188773 -0.0072,-0.024557 0.10862,-0.2858948 0.132627,-0.3055584 0.02401,-0.019664 0.148428,-0.00595 0.177953,-0.010178 0.02952,-0.00422 0.303672,0.128902 0.314709,0.1558301 0.01104,0.026928 -0.05999,0.3341122 -0.06525,0.3578297 -0.0053,0.023718 -0.192769,0.1373489 -0.21847,0.1418083 -0.0257,0.00446 -0.266875,-0.108286 -0.287671,-0.1208543 z"
       inkscape:transform-center-x="-0.0037787358"
       inkscape:transform-center-y="0.00027605188" />
    <path
       transform="matrix(-0.27186113,0.09743205,-0.09228243,-0.25749235,5.8855223,10.526601)"
       sodipodi:type="star"
       style="fill:#917c6f;stroke:none"
       id="path4471-2"
       sodipodi:sides="7"
       sodipodi:cx="9.3971691"
       sodipodi:cy="10.712101"
       sodipodi:r1="0.36039606"
       sodipodi:r2="0.58113462"
       sodipodi:arg1="0.78539818"
       sodipodi:arg2="1.2341971"
       inkscape:flatsided="true"
       inkscape:rounded="0.1"
       inkscape:randomized="0.25"
       d="m 9.718648,10.875847 c -0.018204,0.0227 -0.2780566,0.322575 -0.3109291,0.32611 -0.032873,0.0035 -0.1767594,-0.29261 -0.1848755,-0.326795 -0.00812,-0.03418 -0.2187168,-0.275779 -0.2089632,-0.308567 0.00975,-0.03279 0.2262484,-0.142536 0.2611495,-0.140984 0.034901,0.0016 0.2894866,0.03014 0.3177108,0.03547 0.028224,0.0053 0.2820959,0.04984 0.2847927,0.07747 0.0027,0.02762 -0.1406807,0.314594 -0.1588852,0.337293 z"
       inkscape:transform-center-x="-0.011511322"
       inkscape:transform-center-y="0.018910987" />
    <path
       transform="matrix(-0.27186113,0.09743205,-0.09228243,-0.25749235,5.8855223,10.526601)"
       sodipodi:type="star"
       style="fill:#917c6f;stroke:none"
       id="path4473-28"
       sodipodi:sides="7"
       sodipodi:cx="11.181038"
       sodipodi:cy="12.081858"
       sodipodi:r1="0.41411251"
       sodipodi:r2="0.47071815"
       sodipodi:arg1="2.7468015"
       sodipodi:arg2="3.1956005"
       inkscape:flatsided="true"
       inkscape:rounded="0.1"
       inkscape:randomized="0.25"
       d="m 10.894417,12.178382 c -0.0016,-0.03478 -0.06229,-0.225917 -0.05573,-0.264203 0.0066,-0.03829 0.350529,-0.126764 0.386018,-0.140425 0.03549,-0.01366 0.21671,-0.142302 0.243936,-0.114712 0.02723,0.02759 0.17355,0.433325 0.182142,0.469015 0.0086,0.03569 -0.109685,0.27146 -0.135016,0.298723 -0.02533,0.02726 -0.446421,0.130007 -0.472788,0.112678 -0.02637,-0.01733 -0.146999,-0.326297 -0.148558,-0.361076 z"
       inkscape:transform-center-x="-0.017690614"
       inkscape:transform-center-y="0.025438536" />
    <path
       transform="matrix(-0.27186113,0.09743205,-0.09228243,-0.25749235,5.8855223,10.526601)"
       sodipodi:type="star"
       style="fill:#917c6f;stroke:none"
       id="path4475-1"
       sodipodi:sides="7"
       sodipodi:cx="9.7794266"
       sodipodi:cy="12.973793"
       sodipodi:r1="0.38883752"
       sodipodi:r2="0.3503305"
       sodipodi:arg1="0.96007036"
       sodipodi:arg2="1.4088693"
       inkscape:flatsided="true"
       inkscape:rounded="0.1"
       inkscape:randomized="0.25"
       d="m 10.026544,13.23417 c -0.026681,0.01475 -0.2761795,0.120195 -0.3073373,0.102989 -0.031158,-0.01721 -0.2091905,-0.273132 -0.2234059,-0.301967 -0.014215,-0.02884 -0.038305,-0.312737 -0.019961,-0.34015 0.018344,-0.02741 0.1227547,-0.137828 0.1542731,-0.153642 0.031518,-0.01581 0.4569378,0.178302 0.4752068,0.202376 0.01827,0.02407 0.03854,0.271014 0.03759,0.301053 -9.47e-4,0.03004 -0.08969,0.174593 -0.116369,0.189341 z"
       inkscape:transform-center-x="-0.0013211369"
       inkscape:transform-center-y="3.970422e-005" />
    <path
       transform="matrix(-0.27186113,0.09743205,-0.09228243,-0.25749235,5.8855223,10.526601)"
       sodipodi:type="star"
       style="fill:#917c6f;stroke:none"
       id="path4477-8"
       sodipodi:sides="7"
       sodipodi:cx="11.754425"
       sodipodi:cy="10.361699"
       sodipodi:r1="0.25483847"
       sodipodi:r2="0.22960155"
       sodipodi:arg1="3.1415927"
       sodipodi:arg2="3.5903916"
       inkscape:flatsided="true"
       inkscape:rounded="0.1"
       inkscape:randomized="0.25"
       d="m 11.439838,10.332924 c 0.005,-0.0209 0.179147,-0.106643 0.192748,-0.120759 0.0136,-0.01412 0.09846,-0.116524 0.12186,-0.113823 0.0234,0.0027 0.268297,0.195147 0.272754,0.216118 0.0045,0.02097 0.0033,0.112567 9.8e-5,0.133832 -0.0032,0.02126 -0.250623,0.164504 -0.272792,0.173836 -0.02217,0.0093 -0.102696,-0.07387 -0.12182,-0.08468 -0.01912,-0.01081 -0.197843,-0.183625 -0.192848,-0.204522 z"
       inkscape:transform-center-x="-0.0029974096"
       inkscape:transform-center-y="-4.9789225e-005" />
    <path
       transform="matrix(-0.27186113,0.09743205,-0.09228243,-0.25749235,5.8855223,10.526601)"
       sodipodi:type="star"
       style="fill:#917c6f;stroke:none"
       id="path4479-7"
       sodipodi:sides="7"
       sodipodi:cx="9.4608784"
       sodipodi:cy="7.4947658"
       sodipodi:r1="0.15927406"
       sodipodi:r2="0.14350095"
       sodipodi:arg1="1.5707963"
       sodipodi:arg2="2.0195953"
       inkscape:flatsided="true"
       inkscape:rounded="0.1"
       inkscape:randomized="0.25"
       d="m 9.4898162,7.6315108 c -0.012572,0.0033 -0.144046,0.01025 -0.1545777,0.00128 -0.010532,-0.00897 -0.068226,-0.1442434 -0.061258,-0.1552045 0.00697,-0.010961 0.093172,-0.1103221 0.1037863,-0.1179608 0.010614,-0.00764 0.1347558,-0.025567 0.1487325,-0.024463 0.013977,0.0011 0.053699,0.07517 0.055683,0.087325 0.00198,0.012155 -0.00135,0.1949157 -0.013132,0.2042061 -0.011781,0.00929 -0.066662,0.00152 -0.079234,0.00482 z"
       inkscape:transform-center-x="-0.0052999318"
       inkscape:transform-center-y="-0.00015735288" />
    <path
       transform="matrix(-0.27186113,0.09743205,-0.09228243,-0.25749235,5.8855223,10.526601)"
       sodipodi:type="star"
       style="fill:#917c6f;stroke:none"
       id="path4481-5"
       sodipodi:sides="7"
       sodipodi:cx="9.6201525"
       sodipodi:cy="5.7746058"
       sodipodi:r1="0.35184789"
       sodipodi:r2="0.317004"
       sodipodi:arg1="1.4801364"
       sodipodi:arg2="1.9289354"
       inkscape:flatsided="true"
       inkscape:rounded="0.1"
       inkscape:randomized="0.25"
       d="M 9.6913957,6.1515357 C 9.6594854,6.1618422 9.3336421,5.9617452 9.3149086,5.9340375 9.296175,5.9063298 9.1885445,5.7485091 9.2022831,5.7214914 9.2160218,5.6944738 9.4323552,5.5644707 9.4607639,5.5581319 c 0.028409,-0.00634 0.2851529,-0.1779801 0.31158,-0.1710621 0.026427,0.00692 0.1287872,0.2459522 0.1406727,0.2757619 0.011885,0.02981 -0.019013,0.2403569 -0.036416,0.2614686 -0.017403,0.021112 -0.153295,0.216929 -0.1852052,0.2272354 z"
       inkscape:transform-center-x="-0.017277836"
       inkscape:transform-center-y="0.011734253" />
    <path
       style="fill:#abc837;stroke:none"
       d="m 12.045847,7.9040532 0.05163,0.3126825 1.292205,0.1959696 1.507776,-0.9839782 0.158588,-0.6002275 -0.1894,-0.1066083 -0.134103,0.5172943 -1.392481,0.5261866 -1.218982,-0.099334 z"
       id="path4461-6"
       inkscape:connector-curvature="0" />
    <path
       style="fill:#c83737;stroke:none"
       d="m 12.015581,7.720757 c 0,0 0.199323,-0.9315545 0.210675,-0.9784112 0.0114,-0.046861 0.452741,-0.7264192 0.452741,-0.7264192 l 1.165909,-0.2799048 0.811573,0.3486929 0.226559,0.6784672 -0.108511,0.5566949 -1.246814,0.5413497 -1.569298,-0.1400382 z"
       id="path4463-26"
       inkscape:connector-curvature="0" />
    <path
       style="fill:#de8787;stroke:none"
       d="m 12.098375,7.7597528 -0.0073,-0.332787 0.923308,-0.1306637 0.599701,-0.00964 0.605603,-0.3784961 0.678156,-0.1703101 -0.08825,0.5637482 -1.274857,0.6027176 z"
       id="path4465-4"
       inkscape:connector-curvature="0" />
    <path
       transform="matrix(-0.05588886,-0.33847794,0.28995445,-0.05852752,11.251673,10.682613)"
       sodipodi:type="star"
       style="fill:#917c6f;stroke:none"
       id="path4467-7"
       sodipodi:sides="7"
       sodipodi:cx="10.735071"
       sodipodi:cy="7.0487981"
       sodipodi:r1="0.38490313"
       sodipodi:r2="0.34678575"
       sodipodi:arg1="1.9974238"
       sodipodi:arg2="2.4462228"
       inkscape:flatsided="true"
       inkscape:rounded="0.1"
       inkscape:randomized="0.25"
       d="m 10.508728,7.3120652 c -0.03347,-0.00994 -0.157957,-0.1016754 -0.157509,-0.1329848 4.48e-4,-0.031309 0.135896,-0.2703854 0.160349,-0.2948729 0.02445,-0.024487 0.09973,-0.2993974 0.136396,-0.2932898 0.03666,0.00611 0.395772,0.2326026 0.418264,0.2582767 0.02249,0.025674 -0.03072,0.3163257 -0.0441,0.3444214 -0.01338,0.028096 -0.07284,0.2013507 -0.107902,0.2137566 -0.03506,0.012406 -0.372028,-0.085367 -0.405496,-0.095307 z"
       inkscape:transform-center-x="0.016105611"
       inkscape:transform-center-y="0.0073480318" />
    <path
       transform="matrix(-0.05588886,-0.33847794,0.28995445,-0.05852752,11.251673,10.682613)"
       sodipodi:type="star"
       style="fill:#917c6f;stroke:none"
       id="path4469-4"
       sodipodi:sides="7"
       sodipodi:cx="10.512087"
       sodipodi:cy="9.1830702"
       sodipodi:r1="0.31854811"
       sodipodi:r2="0.28700191"
       sodipodi:arg1="2.2142974"
       sodipodi:arg2="2.6630964"
       inkscape:flatsided="true"
       inkscape:rounded="0.1"
       inkscape:randomized="0.25"
       d="m 10.244686,9.3904391 c -0.0208,-0.012568 -0.04665,-0.1943204 -0.0539,-0.2188773 -0.0072,-0.024557 0.10862,-0.2858948 0.132627,-0.3055584 0.02401,-0.019664 0.148428,-0.00595 0.177953,-0.010178 0.02952,-0.00422 0.303672,0.128902 0.314709,0.1558301 0.01104,0.026928 -0.05999,0.3341122 -0.06525,0.3578297 -0.0053,0.023718 -0.192769,0.1373489 -0.21847,0.1418083 -0.0257,0.00446 -0.266875,-0.108286 -0.287671,-0.1208543 z"
       inkscape:transform-center-x="0.00011569263"
       inkscape:transform-center-y="0.0074098341" />
    <path
       transform="matrix(-0.05588886,-0.33847794,0.28995445,-0.05852752,11.251673,10.682613)"
       sodipodi:type="star"
       style="fill:#917c6f;stroke:none"
       id="path4471-3"
       sodipodi:sides="7"
       sodipodi:cx="9.3971691"
       sodipodi:cy="10.712101"
       sodipodi:r1="0.36039606"
       sodipodi:r2="0.58113462"
       sodipodi:arg1="0.78539818"
       sodipodi:arg2="1.2341971"
       inkscape:flatsided="true"
       inkscape:rounded="0.1"
       inkscape:randomized="0.25"
       d="m 9.718648,10.875847 c -0.018204,0.0227 -0.2780566,0.322575 -0.3109291,0.32611 -0.032873,0.0035 -0.1767594,-0.29261 -0.1848755,-0.326795 -0.00812,-0.03418 -0.2187168,-0.275779 -0.2089632,-0.308567 0.00975,-0.03279 0.2262484,-0.142536 0.2611495,-0.140984 0.034901,0.0016 0.2894866,0.03014 0.3177108,0.03547 0.028224,0.0053 0.2820959,0.04984 0.2847927,0.07747 0.0027,0.02762 -0.1406807,0.314594 -0.1588852,0.337293 z"
       inkscape:transform-center-x="0.0099849095"
       inkscape:transform-center-y="-0.0018573529" />
    <path
       transform="matrix(-0.05588886,-0.33847794,0.28995445,-0.05852752,11.251673,10.682613)"
       sodipodi:type="star"
       style="fill:#917c6f;stroke:none"
       id="path4473-7"
       sodipodi:sides="7"
       sodipodi:cx="11.181038"
       sodipodi:cy="12.081858"
       sodipodi:r1="0.41411251"
       sodipodi:r2="0.47071815"
       sodipodi:arg1="2.7468015"
       sodipodi:arg2="3.1956005"
       inkscape:flatsided="true"
       inkscape:rounded="0.1"
       inkscape:randomized="0.25"
       d="m 10.894417,12.178382 c -0.0016,-0.03478 -0.06229,-0.225917 -0.05573,-0.264203 0.0066,-0.03829 0.350529,-0.126764 0.386018,-0.140425 0.03549,-0.01366 0.21671,-0.142302 0.243936,-0.114712 0.02723,0.02759 0.17355,0.433325 0.182142,0.469015 0.0086,0.03569 -0.109685,0.27146 -0.135016,0.298723 -0.02533,0.02726 -0.446421,0.130007 -0.472788,0.112678 -0.02637,-0.01733 -0.146999,-0.326297 -0.148558,-0.361076 z"
       inkscape:transform-center-x="0.028590165"
       inkscape:transform-center-y="0.012819365" />
    <path
       transform="matrix(-0.05588886,-0.33847794,0.28995445,-0.05852752,11.251673,10.682613)"
       sodipodi:type="star"
       style="fill:#917c6f;stroke:none"
       id="path4475-05"
       sodipodi:sides="7"
       sodipodi:cx="9.7794266"
       sodipodi:cy="12.973793"
       sodipodi:r1="0.38883752"
       sodipodi:r2="0.3503305"
       sodipodi:arg1="0.96007036"
       sodipodi:arg2="1.4088693"
       inkscape:flatsided="true"
       inkscape:rounded="0.1"
       inkscape:randomized="0.25"
       d="m 10.026544,13.23417 c -0.026681,0.01475 -0.2761795,0.120195 -0.3073373,0.102989 -0.031158,-0.01721 -0.2091905,-0.273132 -0.2234059,-0.301967 -0.014215,-0.02884 -0.038305,-0.312737 -0.019961,-0.34015 0.018344,-0.02741 0.1227547,-0.137828 0.1542731,-0.153642 0.031518,-0.01581 0.4569378,0.178302 0.4752068,0.202376 0.01827,0.02407 0.03854,0.271014 0.03759,0.301053 -9.47e-4,0.03004 -0.08969,0.174593 -0.116369,0.189341 z"
       inkscape:transform-center-x="0.0044769101"
       inkscape:transform-center-y="-0.003809362" />
    <path
       transform="matrix(-0.05588886,-0.33847794,0.28995445,-0.05852752,11.251673,10.682613)"
       sodipodi:type="star"
       style="fill:#917c6f;stroke:none"
       id="path4477-4"
       sodipodi:sides="7"
       sodipodi:cx="11.754425"
       sodipodi:cy="10.361699"
       sodipodi:r1="0.25483847"
       sodipodi:r2="0.22960155"
       sodipodi:arg1="3.1415927"
       sodipodi:arg2="3.5903916"
       inkscape:flatsided="true"
       inkscape:rounded="0.1"
       inkscape:randomized="0.25"
       d="m 11.439838,10.332924 c 0.005,-0.0209 0.179147,-0.106643 0.192748,-0.120759 0.0136,-0.01412 0.09846,-0.116524 0.12186,-0.113823 0.0234,0.0027 0.268297,0.195147 0.272754,0.216118 0.0045,0.02097 0.0033,0.112567 9.8e-5,0.133832 -0.0032,0.02126 -0.250623,0.164504 -0.272792,0.173836 -0.02217,0.0093 -0.102696,-0.07387 -0.12182,-0.08468 -0.01912,-0.01081 -0.197843,-0.183625 -0.192848,-0.204522 z"
       inkscape:transform-center-x="0.00016938667"
       inkscape:transform-center-y="0.0053689218" />
    <path
       transform="matrix(-0.05588886,-0.33847794,0.28995445,-0.05852752,11.251673,10.682613)"
       sodipodi:type="star"
       style="fill:#917c6f;stroke:none"
       id="path4479-3"
       sodipodi:sides="7"
       sodipodi:cx="9.4608784"
       sodipodi:cy="7.4947658"
       sodipodi:r1="0.15927406"
       sodipodi:r2="0.14350095"
       sodipodi:arg1="1.5707963"
       sodipodi:arg2="2.0195953"
       inkscape:flatsided="true"
       inkscape:rounded="0.1"
       inkscape:randomized="0.25"
       d="m 9.4898162,7.6315108 c -0.012572,0.0033 -0.144046,0.01025 -0.1545777,0.00128 -0.010532,-0.00897 -0.068226,-0.1442434 -0.061258,-0.1552045 0.00697,-0.010961 0.093172,-0.1103221 0.1037863,-0.1179608 0.010614,-0.00764 0.1347558,-0.025567 0.1487325,-0.024463 0.013977,0.0011 0.053699,0.07517 0.055683,0.087325 0.00198,0.012155 -0.00135,0.1949157 -0.013132,0.2042061 -0.011781,0.00929 -0.066662,0.00152 -0.079234,0.00482 z"
       inkscape:transform-center-x="0.0013155952"
       inkscape:transform-center-y="0.0096331541" />
    <path
       transform="matrix(-0.05588886,-0.33847794,0.28995445,-0.05852752,11.251673,10.682613)"
       sodipodi:type="star"
       style="fill:#917c6f;stroke:none"
       id="path4481-7"
       sodipodi:sides="7"
       sodipodi:cx="9.6201525"
       sodipodi:cy="5.7746058"
       sodipodi:r1="0.35184789"
       sodipodi:r2="0.317004"
       sodipodi:arg1="1.4801364"
       sodipodi:arg2="1.9289354"
       inkscape:flatsided="true"
       inkscape:rounded="0.1"
       inkscape:randomized="0.25"
       d="M 9.6913957,6.1515357 C 9.6594854,6.1618422 9.3336421,5.9617452 9.3149086,5.9340375 9.296175,5.9063298 9.1885445,5.7485091 9.2022831,5.7214914 9.2160218,5.6944738 9.4323552,5.5644707 9.4607639,5.5581319 c 0.028409,-0.00634 0.2851529,-0.1779801 0.31158,-0.1710621 0.026427,0.00692 0.1287872,0.2459522 0.1406727,0.2757619 0.011885,0.02981 -0.019013,0.2403569 -0.036416,0.2614686 -0.017403,0.021112 -0.153295,0.216929 -0.1852052,0.2272354 z"
       inkscape:transform-center-x="0.0075857822"
       inkscape:transform-center-y="0.023253192" />
    <path
       style="fill:#abc837;stroke:none"
       d="m 11.100306,14.462652 0.398321,-0.09473 0.136281,-1.707559 -1.403776,-1.886999 -0.7878089,-0.155292 -0.1203568,0.25705 0.6787257,0.13046 0.803424,1.775964 -0.0183,1.603365 z"
       id="path4461-6-3"
       inkscape:connector-curvature="0" />
    <path
       style="fill:#c83737;stroke:none"
       d="m 10.866806,14.518183 c 0,0 -1.218469,-0.17977 -1.2798794,-0.190554 -0.061414,-0.01084 -0.9769083,-0.529143 -0.9769083,-0.529143 l -0.4656417,-1.500963 0.3763462,-1.092053 0.8539824,-0.355379 0.7272028,0.09356 0.809858,1.584076 -0.03924,2.065203 z"
       id="path4463-26-8"
       inkscape:connector-curvature="0" />
    <path
       style="fill:#de8787;stroke:none"
       d="m 10.909613,14.406477 -0.428224,0.03843 -0.251485,-1.196555 -0.06639,-0.783718 -0.542281,-0.759372 -0.280511,-0.872389 0.734469,0.06645 0.891468,1.615428 z"
       id="path4465-4-0"
       inkscape:connector-curvature="0" />
    <path
       transform="matrix(-0.43118236,0.10254315,-0.10151893,-0.37424373,14.752623,15.260064)"
       sodipodi:type="star"
       style="fill:#917c6f;stroke:none"
       id="path4467-7-5"
       sodipodi:sides="7"
       sodipodi:cx="10.735071"
       sodipodi:cy="7.0487981"
       sodipodi:r1="0.38490313"
       sodipodi:r2="0.34678575"
       sodipodi:arg1="1.9974238"
       sodipodi:arg2="2.4462228"
       inkscape:flatsided="true"
       inkscape:rounded="0.1"
       inkscape:randomized="0.25"
       d="m 10.508728,7.3120652 c -0.03347,-0.00994 -0.157957,-0.1016754 -0.157509,-0.1329848 4.48e-4,-0.031309 0.135896,-0.2703854 0.160349,-0.2948729 0.02445,-0.024487 0.09973,-0.2993974 0.136396,-0.2932898 0.03666,0.00611 0.395772,0.2326026 0.418264,0.2582767 0.02249,0.025674 -0.03072,0.3163257 -0.0441,0.3444214 -0.01338,0.028096 -0.07284,0.2013507 -0.107902,0.2137566 -0.03506,0.012406 -0.372028,-0.085367 -0.405496,-0.095307 z"
       inkscape:transform-center-x="-0.0066525625"
       inkscape:transform-center-y="0.020147857" />
    <path
       transform="matrix(-0.43118236,0.10254315,-0.10151893,-0.37424373,14.752623,15.260064)"
       sodipodi:type="star"
       style="fill:#917c6f;stroke:none"
       id="path4469-4-6"
       sodipodi:sides="7"
       sodipodi:cx="10.512087"
       sodipodi:cy="9.1830702"
       sodipodi:r1="0.31854811"
       sodipodi:r2="0.28700191"
       sodipodi:arg1="2.2142974"
       sodipodi:arg2="2.6630964"
       inkscape:flatsided="true"
       inkscape:rounded="0.1"
       inkscape:randomized="0.25"
       d="m 10.244686,9.3904391 c -0.0208,-0.012568 -0.04665,-0.1943204 -0.0539,-0.2188773 -0.0072,-0.024557 0.10862,-0.2858948 0.132627,-0.3055584 0.02401,-0.019664 0.148428,-0.00595 0.177953,-0.010178 0.02952,-0.00422 0.303672,0.128902 0.314709,0.1558301 0.01104,0.026928 -0.05999,0.3341122 -0.06525,0.3578297 -0.0053,0.023718 -0.192769,0.1373489 -0.21847,0.1418083 -0.0257,0.00446 -0.266875,-0.108286 -0.287671,-0.1208543 z"
       inkscape:transform-center-x="-0.0093502171"
       inkscape:transform-center-y="0.00028532723" />
    <path
       transform="matrix(-0.43118236,0.10254315,-0.10151893,-0.37424373,14.752623,15.260064)"
       sodipodi:type="star"
       style="fill:#917c6f;stroke:none"
       id="path4471-3-8"
       sodipodi:sides="7"
       sodipodi:cx="9.3971691"
       sodipodi:cy="10.712101"
       sodipodi:r1="0.36039606"
       sodipodi:r2="0.58113462"
       sodipodi:arg1="0.78539818"
       sodipodi:arg2="1.2341971"
       inkscape:flatsided="true"
       inkscape:rounded="0.1"
       inkscape:randomized="0.25"
       d="m 9.718648,10.875847 c -0.018204,0.0227 -0.2780566,0.322575 -0.3109291,0.32611 -0.032873,0.0035 -0.1767594,-0.29261 -0.1848755,-0.326795 -0.00812,-0.03418 -0.2187168,-0.275779 -0.2089632,-0.308567 0.00975,-0.03279 0.2262484,-0.142536 0.2611495,-0.140984 0.034901,0.0016 0.2894866,0.03014 0.3177108,0.03547 0.028224,0.0053 0.2820959,0.04984 0.2847927,0.07747 0.0027,0.02762 -0.1406807,0.314594 -0.1588852,0.337293 z"
       inkscape:transform-center-x="-0.0054250443"
       inkscape:transform-center-y="0.018562933" />
    <path
       transform="matrix(-0.43118236,0.10254315,-0.10151893,-0.37424373,14.752623,15.260064)"
       sodipodi:type="star"
       style="fill:#917c6f;stroke:none"
       id="path4473-7-2"
       sodipodi:sides="7"
       sodipodi:cx="11.181038"
       sodipodi:cy="12.081858"
       sodipodi:r1="0.41411251"
       sodipodi:r2="0.47071815"
       sodipodi:arg1="2.7468015"
       sodipodi:arg2="3.1956005"
       inkscape:flatsided="true"
       inkscape:rounded="0.1"
       inkscape:randomized="0.25"
       d="m 10.894417,12.178382 c -0.0016,-0.03478 -0.06229,-0.225917 -0.05573,-0.264203 0.0066,-0.03829 0.350529,-0.126764 0.386018,-0.140425 0.03549,-0.01366 0.21671,-0.142302 0.243936,-0.114712 0.02723,0.02759 0.17355,0.433325 0.182142,0.469015 0.0086,0.03569 -0.109685,0.27146 -0.135016,0.298723 -0.02533,0.02726 -0.446421,0.130007 -0.472788,0.112678 -0.02637,-0.01733 -0.146999,-0.326297 -0.148558,-0.361076 z"
       inkscape:transform-center-x="-0.020841521"
       inkscape:transform-center-y="0.036931177" />
    <path
       transform="matrix(-0.43118236,0.10254315,-0.10151893,-0.37424373,14.752623,15.260064)"
       sodipodi:type="star"
       style="fill:#917c6f;stroke:none"
       id="path4475-05-6"
       sodipodi:sides="7"
       sodipodi:cx="9.7794266"
       sodipodi:cy="12.973793"
       sodipodi:r1="0.38883752"
       sodipodi:r2="0.3503305"
       sodipodi:arg1="0.96007036"
       sodipodi:arg2="1.4088693"
       inkscape:flatsided="true"
       inkscape:rounded="0.1"
       inkscape:randomized="0.25"
       d="m 10.026544,13.23417 c -0.026681,0.01475 -0.2761795,0.120195 -0.3073373,0.102989 -0.031158,-0.01721 -0.2091905,-0.273132 -0.2234059,-0.301967 -0.014215,-0.02884 -0.038305,-0.312737 -0.019961,-0.34015 0.018344,-0.02741 0.1227547,-0.137828 0.1542731,-0.153642 0.031518,-0.01581 0.4569378,0.178302 0.4752068,0.202376 0.01827,0.02407 0.03854,0.271014 0.03759,0.301053 -9.47e-4,0.03004 -0.08969,0.174593 -0.116369,0.189341 z"
       inkscape:transform-center-x="0.0022429089"
       inkscape:transform-center-y="0.0029990409" />
    <path
       transform="matrix(-0.43118236,0.10254315,-0.10151893,-0.37424373,14.752623,15.260064)"
       sodipodi:type="star"
       style="fill:#917c6f;stroke:none"
       id="path4477-4-8"
       sodipodi:sides="7"
       sodipodi:cx="11.754425"
       sodipodi:cy="10.361699"
       sodipodi:r1="0.25483847"
       sodipodi:r2="0.22960155"
       sodipodi:arg1="3.1415927"
       sodipodi:arg2="3.5903916"
       inkscape:flatsided="true"
       inkscape:rounded="0.1"
       inkscape:randomized="0.25"
       d="m 11.439838,10.332924 c 0.005,-0.0209 0.179147,-0.106643 0.192748,-0.120759 0.0136,-0.01412 0.09846,-0.116524 0.12186,-0.113823 0.0234,0.0027 0.268297,0.195147 0.272754,0.216118 0.0045,0.02097 0.0033,0.112567 9.8e-5,0.133832 -0.0032,0.02126 -0.250623,0.164504 -0.272792,0.173836 -0.02217,0.0093 -0.102696,-0.07387 -0.12182,-0.08468 -0.01912,-0.01081 -0.197843,-0.183625 -0.192848,-0.204522 z"
       inkscape:transform-center-x="-0.0060555485"
       inkscape:transform-center-y="0.0001049845" />
    <path
       transform="matrix(-0.43118236,0.10254315,-0.10151893,-0.37424373,14.752623,15.260064)"
       sodipodi:type="star"
       style="fill:#917c6f;stroke:none"
       id="path4479-3-1"
       sodipodi:sides="7"
       sodipodi:cx="9.4608784"
       sodipodi:cy="7.4947658"
       sodipodi:r1="0.15927406"
       sodipodi:r2="0.14350095"
       sodipodi:arg1="1.5707963"
       sodipodi:arg2="2.0195953"
       inkscape:flatsided="true"
       inkscape:rounded="0.1"
       inkscape:randomized="0.25"
       d="m 9.4898162,7.6315108 c -0.012572,0.0033 -0.144046,0.01025 -0.1545777,0.00128 -0.010532,-0.00897 -0.068226,-0.1442434 -0.061258,-0.1552045 0.00697,-0.010961 0.093172,-0.1103221 0.1037863,-0.1179608 0.010614,-0.00764 0.1347558,-0.025567 0.1487325,-0.024463 0.013977,0.0011 0.053699,0.07517 0.055683,0.087325 0.00198,0.012155 -0.00135,0.1949157 -0.013132,0.2042061 -0.011781,0.00929 -0.066662,0.00152 -0.079234,0.00482 z"
       inkscape:transform-center-x="-0.010860656"
       inkscape:transform-center-y="0.00086828454" />
    <path
       transform="matrix(-0.43118236,0.10254315,-0.10151893,-0.37424373,14.752623,15.260064)"
       sodipodi:type="star"
       style="fill:#917c6f;stroke:none"
       id="path4481-7-2"
       sodipodi:sides="7"
       sodipodi:cx="9.6201525"
       sodipodi:cy="5.7746058"
       sodipodi:r1="0.35184789"
       sodipodi:r2="0.317004"
       sodipodi:arg1="1.4801364"
       sodipodi:arg2="1.9289354"
       inkscape:flatsided="true"
       inkscape:rounded="0.1"
       inkscape:randomized="0.25"
       d="M 9.6913957,6.1515357 C 9.6594854,6.1618422 9.3336421,5.9617452 9.3149086,5.9340375 9.296175,5.9063298 9.1885445,5.7485091 9.2022831,5.7214914 9.2160218,5.6944738 9.4323552,5.5644707 9.4607639,5.5581319 c 0.028409,-0.00634 0.2851529,-0.1779801 0.31158,-0.1710621 0.026427,0.00692 0.1287872,0.2459522 0.1406727,0.2757619 0.011885,0.02981 -0.019013,0.2403569 -0.036416,0.2614686 -0.017403,0.021112 -0.153295,0.216929 -0.1852052,0.2272354 z"
       inkscape:transform-center-x="-0.02909055"
       inkscape:transform-center-y="0.013031518" />
    <path
       style="fill:#abc837;stroke:none"
       d="M 0.94001057,13.919285 0.83348139,14.056147 1.266612,14.645625 2.2646001,14.882722 2.5713517,14.723034 2.5395035,14.607683 2.2761601,14.746339 1.509884,14.385184 1.0665422,13.860906 z"
       id="path4461-6-3-6"
       inkscape:connector-curvature="0" />
    <path
       style="fill:#c83737;stroke:none"
       d="m 1.0024598,13.839056 c 0,0 0.4575031,-0.266554 0.481044,-0.27943 0.023559,-0.01286 0.4747299,-0.08899 0.4747299,-0.08899 l 0.5763289,0.362107 0.1803829,0.45408 L 2.5292368,14.629578 2.2600412,14.79311 1.5454055,14.495831 0.97959797,13.816363 z"
       id="path4463-26-8-6"
       inkscape:connector-curvature="0" />
    <path
       style="fill:#de8787;stroke:none"
       d="M 1.0194706,13.886652 1.151773,13.760056 1.5712177,14.080637 1.8130934,14.316819 2.2071461,14.418266 2.545418,14.626097 2.2813949,14.80035 1.5307035,14.514668 z"
       id="path4465-4-0-2"
       inkscape:connector-curvature="0" />
    <path
       transform="matrix(0.1153197,-0.14815173,0.1388274,0.09417328,-0.50381666,14.63451)"
       sodipodi:type="star"
       style="fill:#917c6f;stroke:none"
       id="path4467-7-5-4"
       sodipodi:sides="7"
       sodipodi:cx="10.735071"
       sodipodi:cy="7.0487981"
       sodipodi:r1="0.38490313"
       sodipodi:r2="0.34678575"
       sodipodi:arg1="1.9974238"
       sodipodi:arg2="2.4462228"
       inkscape:flatsided="true"
       inkscape:rounded="0.1"
       inkscape:randomized="0.25"
       d="m 10.508728,7.3120652 c -0.03347,-0.00994 -0.157957,-0.1016754 -0.157509,-0.1329848 4.48e-4,-0.031309 0.135896,-0.2703854 0.160349,-0.2948729 0.02445,-0.024487 0.09973,-0.2993974 0.136396,-0.2932898 0.03666,0.00611 0.395772,0.2326026 0.418264,0.2582767 0.02249,0.025674 -0.03072,0.3163257 -0.0441,0.3444214 -0.01338,0.028096 -0.07284,0.2013507 -0.107902,0.2137566 -0.03506,0.012406 -0.372028,-0.085367 -0.405496,-0.095307 z"
       inkscape:transform-center-x="0.0017724715"
       inkscape:transform-center-y="0.00091343811" />
    <path
       transform="matrix(0.1153197,-0.14815173,0.1388274,0.09417328,-0.50381666,14.63451)"
       sodipodi:type="star"
       style="fill:#917c6f;stroke:none"
       id="path4469-4-6-3"
       sodipodi:sides="7"
       sodipodi:cx="10.512087"
       sodipodi:cy="9.1830702"
       sodipodi:r1="0.31854811"
       sodipodi:r2="0.28700191"
       sodipodi:arg1="2.2142974"
       sodipodi:arg2="2.6630964"
       inkscape:flatsided="true"
       inkscape:rounded="0.1"
       inkscape:randomized="0.25"
       d="m 10.244686,9.3904391 c -0.0208,-0.012568 -0.04665,-0.1943204 -0.0539,-0.2188773 -0.0072,-0.024557 0.10862,-0.2858948 0.132627,-0.3055584 0.02401,-0.019664 0.148428,-0.00595 0.177953,-0.010178 0.02952,-0.00422 0.303672,0.128902 0.314709,0.1558301 0.01104,0.026928 -0.05999,0.3341122 -0.06525,0.3578297 -0.0053,0.023718 -0.192769,0.1373489 -0.21847,0.1418083 -0.0257,0.00446 -0.266875,-0.108286 -0.287671,-0.1208543 z"
       inkscape:transform-center-x="0.0058369768"
       inkscape:transform-center-y="-0.00093609871" />
    <path
       transform="matrix(0.1153197,-0.14815173,0.1388274,0.09417328,-0.50381666,14.63451)"
       sodipodi:type="star"
       style="fill:#917c6f;stroke:none"
       id="path4471-3-8-0"
       sodipodi:sides="7"
       sodipodi:cx="9.3971691"
       sodipodi:cy="10.712101"
       sodipodi:r1="0.36039606"
       sodipodi:r2="0.58113462"
       sodipodi:arg1="0.78539818"
       sodipodi:arg2="1.2341971"
       inkscape:flatsided="true"
       inkscape:rounded="0.1"
       inkscape:randomized="0.25"
       d="m 9.718648,10.875847 c -0.018204,0.0227 -0.2780566,0.322575 -0.3109291,0.32611 -0.032873,0.0035 -0.1767594,-0.29261 -0.1848755,-0.326795 -0.00812,-0.03418 -0.2187168,-0.275779 -0.2089632,-0.308567 0.00975,-0.03279 0.2262484,-0.142536 0.2611495,-0.140984 0.034901,0.0016 0.2894866,0.03014 0.3177108,0.03547 0.028224,0.0053 0.2820959,0.04984 0.2847927,0.07747 0.0027,0.02762 -0.1406807,0.314594 -0.1588852,0.337293 z"
       inkscape:transform-center-x="0.015219965"
       inkscape:transform-center-y="-0.034103248" />
    <path
       transform="matrix(0.1153197,-0.14815173,0.1388274,0.09417328,-0.50381666,14.63451)"
       sodipodi:type="star"
       style="fill:#917c6f;stroke:none"
       id="path4473-7-2-2"
       sodipodi:sides="7"
       sodipodi:cx="11.181038"
       sodipodi:cy="12.081858"
       sodipodi:r1="0.41411251"
       sodipodi:r2="0.47071815"
       sodipodi:arg1="2.7468015"
       sodipodi:arg2="3.1956005"
       inkscape:flatsided="true"
       inkscape:rounded="0.1"
       inkscape:randomized="0.25"
       d="m 10.894417,12.178382 c -0.0016,-0.03478 -0.06229,-0.225917 -0.05573,-0.264203 0.0066,-0.03829 0.350529,-0.126764 0.386018,-0.140425 0.03549,-0.01366 0.21671,-0.142302 0.243936,-0.114712 0.02723,0.02759 0.17355,0.433325 0.182142,0.469015 0.0086,0.03569 -0.109685,0.27146 -0.135016,0.298723 -0.02533,0.02726 -0.446421,0.130007 -0.472788,0.112678 -0.02637,-0.01733 -0.146999,-0.326297 -0.148558,-0.361076 z"
       inkscape:transform-center-x="0.012633657"
       inkscape:transform-center-y="-0.0094483311" />
    <path
       transform="matrix(0.1153197,-0.14815173,0.1388274,0.09417328,-0.50381666,14.63451)"
       sodipodi:type="star"
       style="fill:#917c6f;stroke:none"
       id="path4475-05-6-0"
       sodipodi:sides="7"
       sodipodi:cx="9.7794266"
       sodipodi:cy="12.973793"
       sodipodi:r1="0.38883752"
       sodipodi:r2="0.3503305"
       sodipodi:arg1="0.96007036"
       sodipodi:arg2="1.4088693"
       inkscape:flatsided="true"
       inkscape:rounded="0.1"
       inkscape:randomized="0.25"
       d="m 10.026544,13.23417 c -0.026681,0.01475 -0.2761795,0.120195 -0.3073373,0.102989 -0.031158,-0.01721 -0.2091905,-0.273132 -0.2234059,-0.301967 -0.014215,-0.02884 -0.038305,-0.312737 -0.019961,-0.34015 0.018344,-0.02741 0.1227547,-0.137828 0.1542731,-0.153642 0.031518,-0.01581 0.4569378,0.178302 0.4752068,0.202376 0.01827,0.02407 0.03854,0.271014 0.03759,0.301053 -9.47e-4,0.03004 -0.08969,0.174593 -0.116369,0.189341 z"
       inkscape:transform-center-x="0.0064415034"
       inkscape:transform-center-y="-0.011025101" />
    <path
       transform="matrix(0.1153197,-0.14815173,0.1388274,0.09417328,-0.50381666,14.63451)"
       sodipodi:type="star"
       style="fill:#917c6f;stroke:none"
       id="path4477-4-8-5"
       sodipodi:sides="7"
       sodipodi:cx="11.754425"
       sodipodi:cy="10.361699"
       sodipodi:r1="0.25483847"
       sodipodi:r2="0.22960155"
       sodipodi:arg1="3.1415927"
       sodipodi:arg2="3.5903916"
       inkscape:flatsided="true"
       inkscape:rounded="0.1"
       inkscape:randomized="0.25"
       d="m 11.439838,10.332924 c 0.005,-0.0209 0.179147,-0.106643 0.192748,-0.120759 0.0136,-0.01412 0.09846,-0.116524 0.12186,-0.113823 0.0234,0.0027 0.268297,0.195147 0.272754,0.216118 0.0045,0.02097 0.0033,0.112567 9.8e-5,0.133832 -0.0032,0.02126 -0.250623,0.164504 -0.272792,0.173836 -0.02217,0.0093 -0.102696,-0.07387 -0.12182,-0.08468 -0.01912,-0.01081 -0.197843,-0.183625 -0.192848,-0.204522 z"
       inkscape:transform-center-x="-0.0016392701"
       inkscape:transform-center-y="-0.00028933437" />
    <path
       transform="matrix(0.1153197,-0.14815173,0.1388274,0.09417328,-0.50381666,14.63451)"
       sodipodi:type="star"
       style="fill:#917c6f;stroke:none"
       id="path4479-3-1-1"
       sodipodi:sides="7"
       sodipodi:cx="9.4608784"
       sodipodi:cy="7.4947658"
       sodipodi:r1="0.15927406"
       sodipodi:r2="0.14350095"
       sodipodi:arg1="1.5707963"
       sodipodi:arg2="2.0195953"
       inkscape:flatsided="true"
       inkscape:rounded="0.1"
       inkscape:randomized="0.25"
       d="m 9.4898162,7.6315108 c -0.012572,0.0033 -0.144046,0.01025 -0.1545777,0.00128 -0.010532,-0.00897 -0.068226,-0.1442434 -0.061258,-0.1552045 0.00697,-0.010961 0.093172,-0.1103221 0.1037863,-0.1179608 0.010614,-0.00764 0.1347558,-0.025567 0.1487325,-0.024463 0.013977,0.0011 0.053699,0.07517 0.055683,0.087325 0.00198,0.012155 -0.00135,0.1949157 -0.013132,0.2042061 -0.011781,0.00929 -0.066662,0.00152 -0.079234,0.00482 z"
       inkscape:transform-center-x="-0.0012187026"
       inkscape:transform-center-y="0.0029173805" />
    <path
       transform="matrix(0.1153197,-0.14815173,0.1388274,0.09417328,-0.50381666,14.63451)"
       sodipodi:type="star"
       style="fill:#917c6f;stroke:none"
       id="path4481-7-2-0"
       sodipodi:sides="7"
       sodipodi:cx="9.6201525"
       sodipodi:cy="5.7746058"
       sodipodi:r1="0.35184789"
       sodipodi:r2="0.317004"
       sodipodi:arg1="1.4801364"
       sodipodi:arg2="1.9289354"
       inkscape:flatsided="true"
       inkscape:rounded="0.1"
       inkscape:randomized="0.25"
       d="M 9.6913957,6.1515357 C 9.6594854,6.1618422 9.3336421,5.9617452 9.3149086,5.9340375 9.296175,5.9063298 9.1885445,5.7485091 9.2022831,5.7214914 9.2160218,5.6944738 9.4323552,5.5644707 9.4607639,5.5581319 c 0.028409,-0.00634 0.2851529,-0.1779801 0.31158,-0.1710621 0.026427,0.00692 0.1287872,0.2459522 0.1406727,0.2757619 0.011885,0.02981 -0.019013,0.2403569 -0.036416,0.2614686 -0.017403,0.021112 -0.153295,0.216929 -0.1852052,0.2272354 z"
       inkscape:transform-center-x="-0.0024280692"
       inkscape:transform-center-y="0.00029605198" />
  </g>
</svg>
