<?xml version="1.0" encoding="UTF-8" standalone="no"?>
<!-- Created with Inkscape (http://www.inkscape.org/) -->

<svg
   xmlns:dc="http://purl.org/dc/elements/1.1/"
   xmlns:cc="http://creativecommons.org/ns#"
   xmlns:rdf="http://www.w3.org/1999/02/22-rdf-syntax-ns#"
   xmlns:svg="http://www.w3.org/2000/svg"
   xmlns="http://www.w3.org/2000/svg"
   xmlns:sodipodi="http://sodipodi.sourceforge.net/DTD/sodipodi-0.dtd"
   xmlns:inkscape="http://www.inkscape.org/namespaces/inkscape"
   width="16px"
   height="16px"
   id="svg2985"
   version="1.1"
   inkscape:version="0.48.4 r9939"
   sodipodi:docname="shearblade.svg"
   inkscape:export-filename="C:\Users\Owen\Desktop\ForgeMCP1.6.4\forge\mcp\jars\resourcepacks\TheVectorPack\assets\claysoldiers\textures\items\shearblade.png"
   inkscape:export-xdpi="360"
   inkscape:export-ydpi="360">
  <defs
     id="defs2987">
    <inkscape:path-effect
       effect="spiro"
       id="path-effect4485"
       is_visible="true" />
    <inkscape:path-effect
       effect="spiro"
       id="path-effect4481"
       is_visible="true" />
    <inkscape:path-effect
       effect="spiro"
       id="path-effect4477"
       is_visible="true" />
    <inkscape:path-effect
       effect="spiro"
       id="path-effect4473"
       is_visible="true" />
    <inkscape:path-effect
       effect="spiro"
       id="path-effect4469"
       is_visible="true" />
    <inkscape:path-effect
       effect="spiro"
       id="path-effect4465"
       is_visible="true" />
    <inkscape:path-effect
       effect="spiro"
       id="path-effect4461"
       is_visible="true" />
    <inkscape:path-effect
       effect="spiro"
       id="path-effect4429"
       is_visible="true" />
    <inkscape:path-effect
       effect="spiro"
       id="path-effect4421"
       is_visible="true" />
    <inkscape:path-effect
       effect="spiro"
       id="path-effect4413"
       is_visible="true" />
    <inkscape:perspective
       sodipodi:type="inkscape:persp3d"
       inkscape:vp_x="0 : 8 : 1"
       inkscape:vp_y="0 : 1000 : 0"
       inkscape:vp_z="16 : 8 : 1"
       inkscape:persp3d-origin="8 : 5.3333333 : 1"
       id="perspective3043" />
  </defs>
  <sodipodi:namedview
     id="base"
     pagecolor="#ffffff"
     bordercolor="#666666"
     borderopacity="1.0"
     inkscape:pageopacity="0.0"
     inkscape:pageshadow="2"
     inkscape:zoom="22.197802"
     inkscape:cx="7.1300132"
     inkscape:cy="9.3564976"
     inkscape:current-layer="layer1"
     showgrid="true"
     inkscape:grid-bbox="true"
     inkscape:document-units="px"
     inkscape:snap-page="true"
     inkscape:window-width="1366"
     inkscape:window-height="746"
     inkscape:window-x="-8"
     inkscape:window-y="-8"
     inkscape:window-maximized="1" />
  <metadata
     id="metadata2990">
    <rdf:RDF>
      <cc:Work
         rdf:about="">
        <dc:format>image/svg+xml</dc:format>
        <dc:type
           rdf:resource="http://purl.org/dc/dcmitype/StillImage" />
        <dc:title></dc:title>
      </cc:Work>
    </rdf:RDF>
  </metadata>
  <g
     id="layer1"
     inkscape:label="Layer 1"
     inkscape:groupmode="layer">
    <path
       style="fill:none;stroke:#c87137;stroke-width:1px;stroke-linecap:butt;stroke-linejoin:miter;stroke-opacity:1"
       d="m 3.3336634,13.702475 0,-0.765841 c 0,-0.10514 -0.00736,-0.210465 0,-0.315347 0.013038,-0.18569 0.086636,-0.360879 0.1351485,-0.540594 C 3.5248607,11.873061 3.5477023,11.657576 3.6039604,11.45 3.6660918,11.220754 3.7682548,11.003819 3.829208,10.774257 3.8995695,10.509261 3.913669,10.232818 3.9643565,9.9633663 4.0189166,9.673328 4.1155171,9.3931006 4.189604,9.1074257 4.2902102,8.7194941 4.3493293,8.3213481 4.459901,7.9361385 4.4941004,7.8169948 4.5333307,7.6985715 4.55,7.5757425 c 8.703e-4,-0.00641 0.00168,-0.012853 0.00328,-0.019123 0.0016,-0.00627 0.00403,-0.012407 0.00787,-0.017616 0.00384,-0.00521 0.00918,-0.00946 0.015396,-0.011252 0.00311,-8.984e-4 0.00641,-0.00117 0.00961,-7.013e-4 0.0032,4.736e-4 0.0063,0.00171 0.00889,0.00364 0.00329,0.00246 0.00569,0.00601 0.00704,0.00989 0.00135,0.00388 0.00169,0.00807 0.00129,0.012153 -8.039e-4,0.00817 -0.00446,0.015766 -0.00833,0.023009 -0.016759,0.03136 -0.039036,0.060912 -0.045529,0.095871 -0.00325,0.017479 -0.00219,0.036131 0.00549,0.052164 0.00384,0.00802 0.00931,0.015289 0.016166,0.020945 0.00686,0.00566 0.015118,0.00966 0.023871,0.011218 0.0074,0.00131 0.014991,9.344e-4 0.022502,5.772e-4 0.00751,-3.572e-4 0.015028,-5.772e-4 0.022548,-5.772e-4 0.030033,0 0.060066,0 0.090099,0 0.180198,0 0.360396,0 0.540594,0 0.045863,0 0.09189,0.00327 0.1364534,0.014113 0.044564,0.010839 0.088098,0.02766 0.1338437,0.030936 0.045018,0.00322 0.090662,-0.00761 0.1351485,0 0.0469,0.00802 0.088458,0.03589 0.1351485,0.04505 0.029524,0.00579 0.059943,0.00412 0.089989,0.00255 0.030046,-0.00158 0.060122,-0.00255 0.090209,-0.00255 l 0.3603961,0 c 0.022557,0 0.045109,-6.54e-4 0.067641,-0.00172 0.022532,-0.00106 0.045291,-0.00219 0.067507,0.00172 0.023455,0.00412 0.045477,0.013897 0.067344,0.02333 0.021867,0.00943 0.044182,0.018702 0.067805,0.02172 0.029814,0.00381 0.060043,0 0.090099,0 0.090099,0 0.180198,0 0.270297,0 0.2252475,0 0.4504951,0 0.6757426,0 0.020418,0 0.040936,6.319e-4 0.060971,0.00457 0.020035,0.00394 0.039296,0.010976 0.058566,0.017725 0.01927,0.00675 0.03933,0.013185 0.059686,0.011596 0.010178,-7.943e-4 0.02032,-0.00374 0.028762,-0.00948 0.00844,-0.00574 0.015069,-0.014442 0.017263,-0.024413 0.00162,-0.00737 8.142e-4,-0.015025 0,-0.022525 -8.142e-4,-0.0075 -0.00162,-0.015158 0,-0.022525 0.00219,-0.00997 0.00882,-0.018671 0.017263,-0.024412 0.00844,-0.00574 0.018584,-0.00868 0.028762,-0.00948 0.020356,-0.00159 0.040416,0.00485 0.059686,0.011597 0.01927,0.00675 0.038531,0.013789 0.058566,0.017725 0.020035,0.00394 0.040553,0.00457 0.060971,0.00457 0.180198,0 0.360396,0 0.540594,0 0.015017,0 0.030033,0 0.04505,0 0.00766,0 0.015289,-8.193e-4 0.022836,-0.00213 0.00377,-6.568e-4 0.00758,-0.00129 0.011408,-0.00119 0.00383,1.001e-4 0.00775,0.00101 0.010805,0.00332 0.00317,0.0024 0.00514,0.00616 0.0059,0.01006 7.636e-4,0.0039 4.077e-4,0.00795 -4.197e-4,0.011837 -0.00165,0.00778 -0.00518,0.015209 -0.00548,0.023153 -2.926e-4,0.00777 0.00253,0.015282 0.004,0.022923 7.323e-4,0.00382 0.00113,0.00775 6.154e-4,0.011603 -5.112e-4,0.00386 -0.00198,0.00766 -0.00461,0.010523 -0.00267,0.0029 -0.0064,0.0047 -0.010266,0.00547 -0.00387,7.646e-4 -0.00788,5.502e-4 -0.011761,-1.234e-4 -0.00777,-0.00135 -0.015181,-0.0045 -0.023022,-0.00534 -0.00949,-0.00102 -0.019281,0.00151 -0.027255,0.00677 -0.00797,0.00525 -0.014119,0.013152 -0.01753,0.022071 -0.00341,0.00892 -0.00412,0.018809 -0.0023,0.028184 0.00181,0.00937 0.00611,0.018221 0.012121,0.02564 0.012023,0.014838 0.030623,0.023567 0.049606,0.025657 0.018983,0.00209 0.038291,-0.00205 0.055848,-0.00957 0.035115,-0.015027 0.063002,-0.042629 0.093778,-0.06525 0.015388,-0.01131 0.031781,-0.021526 0.049725,-0.028062 0.017944,-0.00654 0.037595,-0.00926 0.056307,-0.00544 0.016521,0.00337 0.031606,0.011624 0.045991,0.020422 0.014385,0.0088 0.028476,0.018309 0.044108,0.024628 0.028541,0.011538 0.061558,0.011538 0.090099,0 0.007,0.016917 0.020263,0.031158 0.036639,0.039346 0.016376,0.00819 0.035726,0.010252 0.05346,0.0057 0.016254,-0.00417 0.030863,-0.013575 0.047265,-0.017118 0.0082,-0.00177 0.016908,-0.002 0.024854,6.93e-4 0.00397,0.00135 0.00772,0.00342 0.010854,0.0062 0.00314,0.00279 0.00565,0.00629 0.00713,0.010223 0.00265,0.00707 0.00191,0.014911 0.00118,0.02243 -7.279e-4,0.00752 -0.00118,0.015065 -0.00118,0.022619 0,0.075083 0,0.150165 0,0.2252475 0,0.4054455 0,0.8108911 0,1.2163366 0,0.8108914 0,1.6217824 0,2.4326734 0,0.285313 0,0.570627 0,0.85594 0,0.0901 0,0.180198 0,0.270297 0,0.01515 0.00109,0.03028 0.00284,0.04533 8.777e-4,0.0075 0.00172,0.01508 0.0016,0.02265 -1.226e-4,0.0076 -0.00127,0.01524 -0.00444,0.02212 -0.00448,0.0097 -0.012678,0.01718 -0.02106,0.02383 -0.00838,0.0067 -0.017275,0.01289 -0.02399,0.02122 -0.00619,0.0077 -0.010307,0.01694 -0.012483,0.02657 -0.00218,0.0096 -0.00245,0.01963 -0.00146,0.02945 0.00199,0.01964 0.00898,0.03838 0.015751,0.05693 0.00677,0.01855 0.013458,0.03744 0.014812,0.05714 6.768e-4,0.0098 -1.03e-5,0.01984 -0.00265,0.02935 -0.00264,0.0095 -0.00729,0.01854 -0.013968,0.0258 -0.00731,0.0079 -0.016745,0.01354 -0.025343,0.02007 -0.0043,0.0033 -0.00843,0.0068 -0.011911,0.01092 -0.00348,0.0041 -0.00632,0.0089 -0.0078,0.01405 -0.00206,0.0072 -0.00147,0.01495 -9.091e-4,0.02247 5.623e-4,0.0075 9.091e-4,0.01505 9.091e-4,0.02258 l 0,0.04505"
       id="path4459"
       inkscape:path-effect="#path-effect4461"
       inkscape:original-d="m 3.3336634,13.702475 c 0,-0.25528 0,-0.510561 0,-0.765841 0,-0.105116 -0.016394,-0.211518 0,-0.315347 0.028969,-0.183471 0.093382,-0.359607 0.1351485,-0.540594 C 3.5171575,11.871195 3.5467847,11.657262 3.6039604,11.45 3.6671004,11.221118 3.773269,11.005005 3.829208,10.774257 3.8937684,10.507946 3.9064459,10.231203 3.9643565,9.9633663 4.0267054,9.6750023 4.1238646,9.3950357 4.189604,9.1074257 4.5137704,7.3785382 4.1518146,9.1684844 4.459901,7.9361385 4.5041925,7.7589729 4.4664092,7.7011288 4.55,7.5757425 c 0.01178,-0.01767 0.023813,-0.045049 0.04505,-0.045049 0.015016,0 0,0.030033 0,0.045049 0,0.016544 -0.00181,0.1783852 0,0.180198 0.010618,0.010618 0.030033,0 0.04505,0 0.030033,0 0.060066,0 0.090099,0 0.180198,0 0.360396,0 0.540594,0 0.3513926,0 -0.085475,-0.014246 0.2702971,0.045049 0.044436,0.00741 0.090712,-0.00741 0.1351485,0 0.04684,0.00781 0.088139,0.038334 0.1351485,0.04505 0.059462,0.00849 0.120132,0 0.180198,0 0.120132,0 0.240264,0 0.3603961,0 0.04505,0 0.090712,-0.00741 0.1351485,0 0.04684,0.00781 0.088584,0.035737 0.1351485,0.04505 0.02945,0.00589 0.060066,0 0.090099,0 0.090099,0 0.180198,0 0.270297,0 0.2252476,0 0.4504951,0 0.6757426,0 0.016924,0 0.2241233,0.00112 0.2252475,0 0.010618,-0.010618 -0.010618,-0.034431 0,-0.04505 0.00362,-0.00362 0.1897885,0 0.2252476,0 0.180198,0 0.360396,0 0.540594,0 0.015016,0 0.030033,0 0.04505,0 0.015016,0 0.034431,-0.010618 0.045049,0 0.010618,0.010618 0,0.030033 0,0.04505 0,0.015016 0.010618,0.034431 0,0.04505 -0.010618,0.010618 -0.060066,0 -0.045049,0 0.016312,0 0.2387336,-0.00789 0.2702971,0 0.032575,0.00814 0.057524,0.036906 0.090099,0.04505 0.029136,0.00728 0.060066,0 0.090099,0 0.030033,0.015017 0.058244,0.034431 0.090099,0.04505 0.028492,0.0095 0.068862,-0.021237 0.090099,0 0.010618,0.010618 0,0.030033 0,0.045049 0,0.075083 0,0.150165 0,0.2252475 0,0.4054455 0,0.8108911 0,1.2163366 0,0.8108904 0,1.6217814 0,2.4326734 0,0.285313 0,0.570627 0,0.85594 0,0.0901 0,0.180198 0,0.270297 0,0.03003 0.0095,0.06161 0,0.0901 -0.00672,0.02015 -0.035552,0.02606 -0.04505,0.04505 -0.01421,0.02842 0.01421,0.196827 0,0.225247 -0.0095,0.019 -0.035552,0.02605 -0.045049,0.04505 -0.00672,0.01343 0,0.03003 0,0.04505 0,0.01502 0,0.03003 0,0.04505"
       inkscape:connector-curvature="0" />
    <path
       style="fill:none;stroke:#c87137;stroke-width:1px;stroke-linecap:butt;stroke-linejoin:miter;stroke-opacity:1"
       d="m 6.5321783,8.1613861 c 0,1.20132 0,2.4026399 0,3.6039599 0,0.210231 0,0.420463 0,0.630694 0,0.07508 0,0.150165 0,0.225247 0,0.01505 5.187e-4,0.03009 0.00136,0.04511 8.416e-4,0.01502 0.00173,0.03026 -0.00136,0.04499 -0.00347,0.0165 -0.011914,0.03149 -0.020783,0.04583 -0.00887,0.01434 -0.018354,0.02849 -0.024267,0.04427 -0.010618,0.02835 -0.00892,0.05972 -0.0053,0.08978 0.00362,0.03006 0.00901,0.06037 0.0053,0.09042 -0.00419,0.03398 -0.020382,0.06636 -0.04505,0.0901"
       id="path4463"
       inkscape:path-effect="#path-effect4465"
       inkscape:original-d="m 6.5321783,8.1613861 c 0,1.2013201 0,2.4026399 0,3.6039599 0,0.210232 0,0.420463 0,0.630694 0,0.07508 0,0.150165 0,0.225247 0,0.03003 0.0095,0.06161 0,0.0901 -0.010618,0.03186 -0.034431,0.05824 -0.04505,0.0901 -0.012087,0.03626 0.014394,0.151411 0,0.180198 -0.055668,0.111336 -0.04505,-0.01555 -0.04505,0.0901"
       inkscape:connector-curvature="0" />
    <path
       style="fill:none;stroke:#c87137;stroke-width:1px;stroke-linecap:butt;stroke-linejoin:miter;stroke-opacity:1"
       d="m 9.4153466,8.0262376 c 0.2252475,0 0.4504949,0 0.6757424,0 0.03003,0 0.06007,0 0.0901,0 0.03004,0 0.06009,-0.00131 0.0901,0 0.103788,0.00454 0.205805,0.053703 0.270297,0.1351485 0.0067,0.0084 0.01292,0.017126 0.02009,0.025088 0.0072,0.00796 0.01535,0.015211 0.02496,0.019962 0.01135,0.00561 0.02419,0.0075 0.03684,0.008 0.01265,5.036e-4 0.02533,-2.979e-4 0.03798,2.942e-4 0.01265,5.92e-4 0.02548,0.00266 0.03671,0.00851 0.0056,0.00292 0.01077,0.00679 0.01492,0.01157 0.0041,0.00478 0.0073,0.010508 0.0087,0.016671 0.0017,0.00734 0.0011,0.015008 2.96e-4,0.022509 -7.69e-4,0.0075 -0.0016,0.015118 -2.96e-4,0.02254 0.0015,0.00826 0.0057,0.015917 0.01149,0.021988 0.0058,0.00607 0.0131,0.010588 0.02094,0.013575 0.01568,0.00597 0.03301,0.00585 0.04968,0.00398 0.01667,-0.00187 0.03318,-0.0054 0.04995,-0.00598 0.01677,-5.78e-4 0.03425,0.00207 0.04814,0.011484 0.0092,0.00622 0.01629,0.015048 0.02224,0.0244 0.0059,0.00935 0.01085,0.019326 0.01652,0.028847 0.0057,0.00952 0.01222,0.018708 0.02081,0.025704 0.0086,0.007 0.01947,0.011669 0.03054,0.011148 0.0078,-3.672e-4 0.01525,-0.00324 0.02294,-0.00456 0.0038,-6.629e-4 0.0078,-9.371e-4 0.01165,-3.113e-4 0.0039,6.259e-4 0.0076,0.0022 0.01046,0.00487 0.0029,0.0027 0.0047,0.00642 0.0055,0.01028 8.06e-4,0.00386 6.6e-4,0.00787 3.8e-5,0.011769 -0.0012,0.00779 -0.0044,0.015198 -0.0055,0.023 -0.0013,0.00854 -1.92e-4,0.017339 0.0024,0.02557 0.0026,0.00823 0.0067,0.015926 0.01148,0.023138 0.0095,0.014423 0.02159,0.027 0.03115,0.041391 0.01488,0.022419 0.02322,0.048772 0.02657,0.075471 0.0034,0.026699 0.0019,0.053812 -0.0017,0.080483 -0.0072,0.053341 -0.02266,0.105621 -0.02487,0.1593934 -0.0038,0.091517 0.03103,0.1797824 0.04505,0.270297 0.01383,0.089254 0.0074,0.1802789 0,0.270297 -0.0049,0.060036 -0.01018,0.1208289 0,0.180198 0.01609,0.093768 0.06953,0.1774102 0.0901,0.2702971 0.02605,0.1176484 -0.0024,0.2399212 0,0.3603962 0.0024,0.121131 0.03593,0.239586 0.04505,0.360396 0.009,0.119824 0,0.240231 0,0.360396 l 0,0.540594 0,1.711882"
       id="path4467"
       inkscape:path-effect="#path-effect4469"
       inkscape:original-d="m 9.4153466,8.0262376 c 0.2252475,0 0.4504951,0 0.6757424,0 0.03003,0 0.06007,0 0.0901,0 0.03003,0 0.06096,-0.00728 0.0901,0 0.02922,0.00731 0.241589,0.1160093 0.270297,0.1351485 0.01767,0.01178 0.02605,0.035552 0.04505,0.04505 0.04247,0.021236 0.09564,0.018709 0.135148,0.045049 0.0125,0.00833 -0.01062,0.034431 0,0.045049 0.09838,0.098378 0.07314,0.00936 0.180198,0.04505 0.04029,0.013431 0.05211,0.071104 0.0901,0.090099 0.01343,0.00672 0.03443,-0.010618 0.04505,0 0.01062,0.010618 -0.0047,0.030804 0,0.045049 0.01062,0.031855 0.03443,0.058244 0.04505,0.090099 0.0083,0.025022 0,0.2998612 0,0.3153466 0,0.5201502 -0.01425,-0.2633617 0.04505,0.270297 0.0099,0.089548 0,0.180198 0,0.270297 0,0.060066 -0.01178,0.1212985 0,0.180198 0.01863,0.093128 0.07667,0.1762789 0.0901,0.2702971 0.01699,0.1189246 -0.0075,0.2404982 0,0.3603962 0.0076,0.120831 0.0375,0.239565 0.04505,0.360396 0.0075,0.119898 0,0.240264 0,0.360396 0,0.180198 0,0.360396 0,0.540594 0,0.570628 0,1.141255 0,1.711882"
       inkscape:connector-curvature="0" />
    <path
       style="fill:none;stroke:#c87137;stroke-width:1px;stroke-linecap:butt;stroke-linejoin:miter;stroke-opacity:1"
       d="m 10.496535,7.260396 -5.4960399,0 c -0.3461338,0 -0.6951224,0.014251 -1.0361386,-0.04505 -0.1344917,-0.023387 -0.2697315,-0.05977 -0.4054456,-0.04505 -0.030094,0.00326 -0.061182,0.00895 -0.090099,0 -0.015403,-0.00477 -0.029586,-0.013721 -0.03999,-0.026039 -0.010404,-0.012318 -0.016904,-0.02802 -0.017562,-0.04413 -6.579e-4,-0.01611 0.00467,-0.032513 0.015192,-0.04473 0.010522,-0.012217 0.026238,-0.019981 0.04236,-0.02025 0.00758,-1.264e-4 0.015087,0.00133 0.022631,0.00208 0.00754,7.562e-4 0.015396,7.711e-4 0.022419,-0.00208 0.00498,-0.00203 0.00932,-0.00542 0.01303,-0.00932 0.00371,-0.0039 0.00683,-0.00831 0.0099,-0.012727 0.00306,-0.00442 0.0061,-0.00888 0.00965,-0.012925 0.00355,-0.00404 0.00766,-0.00767 0.012473,-0.010083 0.00684,-0.00343 0.014755,-0.00423 0.022395,-0.00371 0.00764,5.187e-4 0.015132,0.00228 0.022655,0.00371 0.044438,0.00845 0.090243,0.00544 0.1351485,0 0.09069,-0.010987 0.1799201,-0.031727 0.2702971,-0.045049 0.1198046,-0.017659 0.2414607,-0.02226 0.360396,-0.04505 0.1216476,-0.02331 0.2390266,-0.065382 0.3603961,-0.090099 0.2067741,-0.042109 0.4200195,-0.03299 0.630693,-0.045049 0.2270055,-0.012994 0.4518056,-0.050697 0.6757426,-0.090099 0.5252056,-0.092411 1.0488667,-0.1945457 1.5767327,-0.270297 0.3137305,-0.045022 0.6292336,-0.08073 0.9460396,-0.090099 0.3002114,-0.00888 0.6006475,0 0.9009901,0 0.2702968,0 0.5405934,0 0.8108904,0 0.34538,0 0.690759,0 1.036139,0 0.05316,-5.08e-5 0.1062,-0.00439 0.158908,-0.011324 0.02635,-0.00347 0.05284,-0.00679 0.07942,-0.00628 0.02658,5.109e-4 0.05356,0.00511 0.07702,0.017601 0.0151,-0.055068 0.02317,-0.1134131 0.05286,-0.1621884 0.01485,-0.024388 0.035,-0.045886 0.05979,-0.060052 0.02479,-0.014166 0.05412,-0.020614 0.08243,-0.016922 0.02831,0.00369 0.05509,0.017552 0.07485,0.038164 0.01976,0.020612 0.03231,0.047477 0.03821,0.07541 0.0059,0.027933 0.0054,0.056786 0.0041,0.085309 -0.0013,0.028523 -0.0032,0.05748 0.0031,0.085327 -0.01502,0 -0.03003,0 -0.04505,0 -0.03003,0 -0.06007,0 -0.0901,0 -0.165181,0 -0.330363,0 -0.495544,0 -0.06973,0 -0.139915,0.00527 -0.206846,0.024827 -0.06693,0.019561 -0.130413,0.050683 -0.1986,0.065272 -0.08845,0.018924 -0.180115,0.00698 -0.270297,0 -0.119897,-0.00928 -0.240524,-0.0096 -0.360396,0 -0.135559,0.010856 -0.269873,0.034354 -0.4054448,0.04505 -0.2695662,0.021268 -0.540614,-0.00828 -0.8108911,0 -0.2868607,0.00879 -0.5705201,0.060075 -0.8559406,0.090099 -0.5082159,0.05346 -1.0206633,0.04505 -1.5316832,0.04505 -0.3754125,0 -0.7508251,0 -1.1262376,0 -0.1351485,0 -0.2702971,0 -0.4054456,0 -0.015459,0 -0.03083,0.00199 -0.04596,0.00516 -0.00757,0.00158 -0.01523,0.0031 -0.022955,0.00285 -0.00386,-1.293e-4 -0.00773,-7.22e-4 -0.011374,-0.002 -0.00365,-0.00128 -0.00707,-0.00327 -0.00981,-0.006 -0.00329,-0.00328 -0.00551,-0.00756 -0.00658,-0.012086 -0.00107,-0.00452 -0.00102,-0.00927 -1.337e-4,-0.013834 0.00177,-0.00912 0.00671,-0.017351 0.012548,-0.024582 0.01167,-0.014463 0.02607,-0.026456 0.039211,-0.039597 l 0.04505,-0.04505 c 0.00763,-0.00763 0.015951,-0.014508 0.024648,-0.020885 0.00435,-0.00319 0.0087,-0.00643 0.012428,-0.010324 0.00373,-0.0039 0.00683,-0.00857 0.00797,-0.013841 8.167e-4,-0.00377 5.935e-4,-0.0077 -4.44e-5,-0.011509 -6.379e-4,-0.00381 -0.00168,-0.00753 -0.00251,-0.011302 -8.299e-4,-0.00377 -0.00145,-0.00763 -0.00121,-0.011478 2.36e-4,-0.00385 0.00138,-0.00773 0.00377,-0.010761 0.00247,-0.00314 0.00616,-0.00519 0.01004,-0.00613 0.00388,-9.37e-4 0.00796,-8.179e-4 0.0119,-1.528e-4 0.00788,0.00133 0.015262,0.00478 0.02311,0.00628 0.00854,0.00163 0.017444,8.796e-4 0.025812,-0.00149 0.00837,-0.00237 0.016229,-0.00631 0.023539,-0.011025 0.01462,-0.00942 0.027045,-0.021824 0.040747,-0.032538 0.026599,-0.020797 0.057847,-0.035056 0.090099,-0.045049 0.045516,-0.014102 0.094359,-0.020417 0.1351486,-0.04505 0.027369,-0.016528 0.049465,-0.040395 0.070175,-0.064753 0.02071,-0.024358 0.040597,-0.049706 0.064973,-0.070395 0.030474,-0.025865 0.067601,-0.043826 0.1067957,-0.051665 0.039195,-0.00784 0.080373,-0.00554 0.1184518,0.00662 0.083629,-0.046113 0.1757259,-0.076812 0.270297,-0.090099 0.089451,-0.012568 0.1804822,-0.00963 0.2702971,0 0.090247,0.00968 0.1832929,0.025853 0.270297,0 0.032351,-0.00961 0.062997,-0.024936 0.090099,-0.045049 0.040159,-0.026328 0.087225,-0.042017 0.1351485,-0.04505 0.029981,-0.0019 0.060076,0.00106 0.090099,0 0.062203,-0.0022 0.1225535,-0.021574 0.1801981,-0.04505 0.044112,-0.017965 0.087951,-0.038645 0.1351485,-0.04505 0.059618,-0.00809 0.1204665,0.0072 0.180198,0 0.061575,-0.00742 0.1185416,-0.038336 0.180198,-0.04505 0.04481,-0.00488 0.090074,0 0.1351485,0 l 0.1351485,0 c 0.015145,0 0.030264,0.00106 0.045312,0.00277 0.00752,8.566e-4 0.015076,0.00168 0.022647,0.00156 0.00757,-1.193e-4 0.015232,-0.00123 0.02214,-0.00433 0.00977,-0.00438 0.017384,-0.012431 0.024101,-0.020768 0.00672,-0.00834 0.012883,-0.01724 0.020949,-0.024281 0.011962,-0.010442 0.027456,-0.016148 0.04311,-0.018803 0.015655,-0.00266 0.031633,-0.00246 0.04751,-0.00238 0.015878,7.8e-5 0.03188,2.17e-5 0.047445,-0.00312 0.015565,-0.00314 0.030838,-0.00959 0.042132,-0.020747 0.00769,-0.0076 0.013236,-0.017036 0.019836,-0.025592 0.0033,-0.00428 0.00689,-0.00836 0.011062,-0.011801 0.00417,-0.00344 0.00894,-0.00621 0.014151,-0.00766 0.00726,-0.00201 0.014957,-0.00144 0.022471,-8.879e-4 0.00751,5.491e-4 0.015044,8.879e-4 0.022579,8.879e-4 l 0.045049,0 0.2252475,0"
       id="path4471"
       inkscape:path-effect="#path-effect4473"
       inkscape:original-d="m 10.496535,7.260396 c -1.8320135,0 -3.6640267,0 -5.4960399,0 -1.611584,0 -0.014306,0.027939 -1.0361386,-0.04505 -0.6402455,-0.045732 -0.014869,0.052595 -0.4054456,-0.04505 -0.018496,-0.00462 -0.084638,0.00546 -0.090099,0 -0.0045,-0.0045 -0.0045,-0.1306436 0,-0.1351486 0.010618,-0.010618 0.031618,0.00672 0.04505,0 0.018995,-0.0095 0.026055,-0.035552 0.045049,-0.04505 0.013431,-0.00672 0.030033,0 0.04505,0 0.045049,0 0.090375,0.00497 0.1351485,0 0.090783,-0.010087 0.1798733,-0.032132 0.2702971,-0.045049 0.1198501,-0.017121 0.2414027,-0.022738 0.360396,-0.04505 0.1217083,-0.02282 0.2377023,-0.073368 0.3603961,-0.090099 0.2088339,-0.028477 0.420462,-0.030033 0.630693,-0.045049 0.2252476,-0.030033 0.4512259,-0.055018 0.6757426,-0.090099 0.398698,-0.062297 1.1835124,-0.2198842 1.5767327,-0.270297 0.3142018,-0.040282 0.6296424,-0.074665 0.9460396,-0.090099 0.2999734,-0.014633 0.6006601,0 0.9009901,0 0.2702971,0 0.5405934,0 0.8108904,0 0.34538,0 0.690759,0 1.036139,0 0.105115,0 0.210594,-0.00873 0.315346,0 0.611274,0.050939 0.0088,0.045049 0.315347,0.045049 0.01502,0 -0.03003,0 -0.04505,0 -0.03003,0 -0.06007,0 -0.0901,0 -0.165181,0 -0.330363,0 -0.495544,0 -0.378607,0 0.220624,-0.014246 -0.405446,0.090099 -0.08887,0.014812 -0.180198,0 -0.270297,0 -0.120132,0 -0.240471,-0.00705 -0.360396,0 -0.135745,0.00798 -0.269558,0.040017 -0.4054448,0.04505 -0.2701119,0.010004 -0.5409881,-0.014589 -0.8108911,0 -0.2864717,0.015485 -0.5700418,0.066274 -0.8559406,0.090099 -0.7204812,0.06004 -0.8098022,0.04505 -1.5316832,0.04505 -0.3754126,0 -0.7508251,0 -1.1262376,0 -0.010198,0 -0.3327864,0 -0.4054456,0 -0.030033,0 -0.063237,0.013431 -0.090099,0 -0.038861,-0.019431 0.017243,-0.062292 0.045049,-0.090099 0.015017,-0.015017 0.030033,-0.030033 0.04505,-0.04505 0.015016,-0.015016 0.035552,-0.026055 0.04505,-0.04505 0.00672,-0.013431 -0.010618,-0.034431 0,-0.04505 0.010618,-0.010618 0.030804,0.00475 0.04505,0 0.031855,-0.010618 0.060066,-0.030033 0.090099,-0.04505 0.030033,-0.015016 0.058923,-0.032579 0.090099,-0.045049 0.04409,-0.017636 0.095637,-0.018709 0.1351486,-0.04505 0.05301,-0.03534 0.078165,-0.1066567 0.1351485,-0.1351485 0.068486,-0.034243 0.1505014,-0.028439 0.2252475,-0.04505 0.076943,0.047826 0.1984841,-0.072146 0.270297,-0.090099 0.029889,-0.00747 0.2320774,0 0.2702971,0 0.046848,0 0.2348603,0.00886 0.270297,0 0.032575,-0.00814 0.060066,-0.030033 0.090099,-0.045049 0.04505,-0.015017 0.088584,-0.035737 0.1351485,-0.04505 0.02945,-0.00589 0.060475,0.00494 0.090099,0 0.061072,-0.010179 0.1206657,-0.02804 0.1801981,-0.04505 0.045659,-0.013045 0.088139,-0.038334 0.1351485,-0.04505 0.059462,-0.00849 0.1205958,0.00745 0.180198,0 0.061437,-0.00768 0.1189057,-0.036293 0.180198,-0.04505 0.044597,-0.00637 0.090099,0 0.1351485,0 0.045049,0 0.090099,0 0.1351485,0 0.030033,0 0.061607,0.0095 0.090099,0 0.020147,-0.00672 0.02738,-0.03327 0.04505,-0.045049 0.1967556,-0.1311705 -0.014849,0.019966 0.180198,-0.04505 0.020147,-0.00672 0.026055,-0.035552 0.045049,-0.04505 0.013431,-0.00672 0.030033,0 0.04505,0 0.015016,0 0.030033,0 0.045049,0 0.075083,0 0.150165,0 0.2252475,0"
       inkscape:connector-curvature="0" />
    <path
       style="fill:none;stroke:#c87137;stroke-width:1px;stroke-linecap:butt;stroke-linejoin:miter;stroke-opacity:1"
       d="m 13.019307,4.9178217 0,-0.3603961 c 0,-0.00762 7.06e-4,-0.015221 0.0018,-0.022757 5.68e-4,-0.00377 0.0011,-0.00756 0.001,-0.011371 -8.3e-5,-0.00381 -8.48e-4,-0.00769 -0.0029,-0.010922 -0.0022,-0.00348 -0.0057,-0.00599 -0.0096,-0.00729 -0.0039,-0.0013 -0.0081,-0.00145 -0.0122,-8.716e-4 -0.0081,0.00115 -0.01558,0.00508 -0.02321,0.00816 -0.02921,0.011806 -0.06165,0.011374 -0.09306,0.013862 -0.0157,0.00124 -0.03144,0.00328 -0.04648,0.00798 -0.01504,0.00469 -0.02942,0.012168 -0.04066,0.023213 -0.01206,0.011858 -0.01999,0.027271 -0.02635,0.042944 -0.0064,0.015673 -0.01137,0.03191 -0.0187,0.047155 -0.01853,0.038553 -0.05078,0.068645 -0.084,0.095594 -0.03322,0.026948 -0.06847,0.052038 -0.0962,0.084604 -0.03514,0.041263 -0.05654,0.092587 -0.0901,0.1351485 -0.02637,0.033447 -0.05961,0.060694 -0.09201,0.088333 -0.0324,0.027639 -0.06463,0.056378 -0.08819,0.091865 -0.01859,0.028012 -0.03125,0.05944 -0.04505,0.090099 -0.01379,0.030628 -0.02882,0.060694 -0.04505,0.090099 -0.02131,0.042615 -0.03653,0.088271 -0.04505,0.1351486 -0.01617,0.088934 -0.0081,0.1802733 0,0.270297 0.0027,0.030009 0.0054,0.060459 0,0.090099 -0.0061,0.033197 -0.02205,0.063717 -0.03954,0.092579 -0.01749,0.028862 -0.03678,0.056812 -0.05056,0.087619 -0.02178,0.048707 -0.02892,0.1026275 -0.03245,0.1558671 -0.0035,0.05324 -0.0037,0.106871 -0.0126,0.1594795 -0.01033,0.061071 -0.03223,0.1196006 -0.04505,0.180198 -0.0016,0.00746 -0.003,0.014981 -0.0033,0.022598 -3.24e-4,0.00762 5.07e-4,0.015376 0.0033,0.022452 0.0031,0.00762 0.0084,0.014253 0.01494,0.019224 0.0065,0.00497 0.01425,0.00832 0.02226,0.010145 0.01602,0.00365 0.03287,0.00127 0.04863,-0.00337 0.01576,-0.00465 0.03077,-0.011506 0.04623,-0.017049 0.01547,-0.00554 0.03173,-0.00981 0.04814,-0.00895 0.01703,8.943e-4 0.03338,0.00729 0.04816,0.0158 0.01478,0.00851 0.02822,0.019109 0.04194,0.029249 0.06609,0.048868 0.143071,0.08857 0.225248,0.090099 0.03006,5.594e-4 0.0603,-0.004 0.0901,0 0.04717,0.00634 0.08899,0.033461 0.135149,0.04505 0.0074,0.00186 0.01495,0.00332 0.02259,0.00358 0.0076,2.589e-4 0.01538,-7.149e-4 0.02246,-0.00358 0.01,-0.00403 0.01811,-0.011569 0.02506,-0.019768 0.0069,-0.0082 0.01292,-0.017193 0.01999,-0.025282 0.014,-0.016004 0.03208,-0.028208 0.04505,-0.04505 0.01026,-0.013324 0.01704,-0.028947 0.02376,-0.044361 0.0067,-0.015415 0.01376,-0.030694 0.02129,-0.045738 l 0.0901,-0.180198 c 0.01507,-0.030136 0.02879,-0.060921 0.04164,-0.092064 0.01286,-0.031143 0.02597,-0.063044 0.04846,-0.088134 0.01419,-0.015828 0.03185,-0.028391 0.04505,-0.04505 0.02091,-0.026387 0.02883,-0.060593 0.04505,-0.090099 0.0082,-0.014853 0.0184,-0.028458 0.02718,-0.042956 0.0088,-0.014498 0.0162,-0.030277 0.01787,-0.047143 0.0015,-0.01496 -0.0016,-0.030106 0,-0.04505 0.0018,-0.016829 0.0096,-0.03244 0.01848,-0.046848 0.0089,-0.014408 0.01906,-0.028077 0.02657,-0.043251 0.01182,-0.023885 0.01661,-0.050786 0.01707,-0.07743 4.6e-4,-0.026643 -0.0033,-0.053179 -0.0078,-0.079444 -0.009,-0.052531 -0.02109,-0.106496 -0.0093,-0.1584729 0.0092,-0.040799 0.03267,-0.077326 0.04177,-0.1181574 0.0046,-0.020416 0.0053,-0.042109 -0.0012,-0.061985 -0.0033,-0.00994 -0.0083,-0.019323 -0.01522,-0.027196 -0.0069,-0.00787 -0.0156,-0.014208 -0.02538,-0.017909 -0.01433,-0.00542 -0.03056,-0.00498 -0.04505,0 -0.01668,0.00574 -0.03119,0.017171 -0.04836,0.02123 -0.0086,0.00203 -0.01788,0.00206 -0.02597,-0.00146 -0.004,-0.00176 -0.0077,-0.00441 -0.01053,-0.00781 -0.0028,-0.0034 -0.0047,-0.00758 -0.0052,-0.011956 -4.73e-4,-0.00391 1.44e-4,-0.00788 0.0011,-0.011705 9.62e-4,-0.00382 0.0023,-0.00755 0.0032,-0.011378 9.44e-4,-0.00383 0.0015,-0.00781 9.92e-4,-0.011712 -5.3e-4,-0.00391 -0.0023,-0.00775 -0.0053,-0.010255 -0.003,-0.00244 -0.0069,-0.00341 -0.01075,-0.00352 -0.0038,-1.08e-4 -0.0077,5.601e-4 -0.01143,0.00126 -0.0076,0.00139 -0.0152,0.00226 -0.02287,0.00226 -0.03003,0 -0.06007,0 -0.0901,0 -0.120132,0 -0.240265,0 -0.360397,0 -0.03802,0 -0.07595,-0.00324 -0.113603,-0.00847 -0.01883,-0.00261 -0.03776,-0.00512 -0.05677,-0.00475 -0.01901,3.763e-4 -0.03833,0.00385 -0.05487,0.013219 -0.01862,0.010548 -0.03242,0.027769 -0.04505,0.04505 -0.01998,0.027338 -0.03866,0.056846 -0.04505,0.090099 -0.0043,0.022158 -0.003,0.044961 -0.0019,0.067495 0.0012,0.022534 0.0019,0.04509 0.0019,0.067654 0,0.090099 0,0.180198 0,0.270297 0,0.015017 0,0.030033 0,0.04505 0,0.00757 -5.34e-4,0.015134 -0.0014,0.022658 -4.32e-4,0.00376 -8.46e-4,0.00754 -7.86e-4,0.011325 6e-5,0.00379 6.21e-4,0.00762 0.0022,0.011067 0.0017,0.00371 0.0045,0.00686 0.0078,0.00915 0.0034,0.00229 0.0073,0.00375 0.01127,0.00445 0.008,0.00141 0.01628,-1.458e-4 0.02403,-0.00264 0.0077,-0.00249 0.01517,-0.00591 0.02292,-0.0084 0.0078,-0.00248 0.01602,-0.00401 0.02403,-0.00257 0.0088,0.00159 0.01679,0.00677 0.02269,0.013545 0.0059,0.00677 0.0098,0.015066 0.01248,0.023646 0.0053,0.017161 0.0056,0.035481 0.0099,0.052907 0.0062,0.024912 0.02092,0.047618 0.04114,0.063429 0.02022,0.015811 0.04581,0.024627 0.07148,0.024627 0.02567,0 0.05126,-0.00882 0.07148,-0.024627 0.02022,-0.015811 0.03495,-0.038517 0.04114,-0.063429"
       id="path4475"
       inkscape:path-effect="#path-effect4477"
       inkscape:original-d="m 13.019307,4.9178217 c 0,-0.120132 0,-0.240264 0,-0.3603961 0,-0.015016 0.01062,-0.034431 0,-0.04505 -0.01062,-0.010618 -0.03003,0 -0.04505,0 -0.06693,0 -0.124183,-0.010966 -0.180198,0.04505 -0.02374,0.023743 -0.0249,0.063237 -0.04505,0.090099 -0.05097,0.067957 -0.127133,0.1138662 -0.180198,0.180198 -0.03382,0.042278 -0.05628,0.09287 -0.0901,0.1351485 -0.05307,0.066332 -0.12923,0.1122411 -0.180198,0.180198 -0.02015,0.026862 -0.03003,0.060066 -0.04505,0.090099 -0.01502,0.030033 -0.03691,0.057524 -0.04505,0.090099 0,0.2988208 0.02124,-0.06371 -0.04505,0.1351486 -0.0077,0.02306 0,0.2380906 0,0.270297 0,0.030033 0.0095,0.061607 0,0.090099 -0.02124,0.06371 -0.06652,0.117318 -0.0901,0.180198 -0.114836,0.3062309 -0.0022,0.058381 -0.04505,0.3153466 -0.0498,0.2987888 -0.04505,0.040419 -0.04505,0.180198 0,0.015016 -0.01062,0.034431 0,0.04505 0.01383,0.013828 0.14676,-0.00836 0.180198,0 0.03258,0.00814 0.06007,0.030033 0.0901,0.045049 0.08009,0.040044 0.132468,0.071543 0.225248,0.090099 0.02945,0.00589 0.06096,-0.00728 0.0901,0 0.20706,0.051765 0.01022,0.04505 0.135149,0.04505 0.01502,0 0.03162,0.00672 0.04505,0 0.019,-0.0095 0.03003,-0.030033 0.04505,-0.04505 0.01502,-0.015016 0.03327,-0.02738 0.04505,-0.04505 0.01863,-0.027938 0.03003,-0.060066 0.04505,-0.090099 0.03003,-0.060066 0.06007,-0.120132 0.0901,-0.180198 0.03003,-0.060066 0.05285,-0.124321 0.0901,-0.1801981 0.01178,-0.01767 0.03327,-0.02738 0.04505,-0.04505 0.01863,-0.027939 0.03003,-0.060066 0.04505,-0.090099 0.01502,-0.030033 0.03443,-0.058244 0.04505,-0.090099 0.0047,-0.014246 -0.0047,-0.030804 0,-0.04505 0.01062,-0.031855 0.03443,-0.058244 0.04505,-0.090099 0.01074,-0.032206 0,-0.2647585 0,-0.3153465 0,-0.016924 0.0011,-0.2241233 0,-0.2252476 -0.01062,-0.010618 -0.03003,0 -0.04505,0 -0.03003,0 -0.06324,0.013431 -0.0901,0 -0.01343,-0.00672 0.01062,-0.034431 0,-0.04505 -0.01062,-0.010618 -0.03003,0 -0.04505,0 -0.03003,0 -0.06007,0 -0.0901,0 -0.120132,0 -0.240264,0 -0.360397,0 -0.01781,0 -0.206007,-0.00962 -0.225247,0 -0.019,0.0095 -0.03327,0.02738 -0.04505,0.04505 -0.01863,0.027939 -0.03443,0.058244 -0.04505,0.090099 -0.0085,0.025417 0,0.1055462 0,0.1351486 0,0.090099 0,0.180198 0,0.270297 0,0.015017 0,0.030033 0,0.04505 0,0.015017 -0.01062,0.034431 0,0.04505 0.02124,0.021236 0.06886,-0.021236 0.0901,0 0.09321,0.093209 -0.142436,-0.00364 0.04505,0.090099 0.01629,0.00815 0.193914,0 0.225248,0"
       inkscape:connector-curvature="0" />
    <path
       style="fill:none;stroke:#c87137;stroke-width:1px;stroke-linecap:butt;stroke-linejoin:miter;stroke-opacity:1"
       d="M 3.4688119,7.1252475 C 3.3507354,7.1209956 3.2318185,7.17196 3.1534654,7.260396 c -0.01413,0.015948 -0.027284,0.033286 -0.04505,0.04505 -0.014078,0.00932 -0.03034,0.014656 -0.046146,0.020591 -0.015807,0.00594 -0.031729,0.01281 -0.043953,0.024458 -0.00777,0.0074 -0.01374,0.016453 -0.020474,0.024812 -0.00673,0.00836 -0.014595,0.016289 -0.024575,0.020238 -0.0071,0.00281 -0.014912,0.00344 -0.022532,0.00293 -0.00762,-5.114e-4 -0.015116,-0.00212 -0.022595,-0.00367 -0.00748,-0.00155 -0.01501,-0.00304 -0.022643,-0.00329 -0.00763,-2.589e-4 -0.015431,7.641e-4 -0.02233,0.00404 -0.0078,0.0037 -0.014085,0.01012 -0.018657,0.017438 -0.00457,0.00732 -0.00754,0.015528 -0.00988,0.023832 -0.00469,0.016608 -0.00723,0.034278 -0.016509,0.048829 -0.00573,0.00898 -0.013725,0.016255 -0.021827,0.02317 -0.0081,0.00691 -0.016468,0.013645 -0.023223,0.02188 -0.010697,0.013042 -0.0168,0.029153 -0.022671,0.044966 -0.00587,0.015813 -0.011857,0.031949 -0.022379,0.045133 -0.01067,0.013369 -0.025483,0.022952 -0.041173,0.029765 -0.01569,0.00681 -0.032356,0.011041 -0.048926,0.015285 -0.046362,0.011875 -0.094066,0.024794 -0.1317245,0.054328 -0.018829,0.014767 -0.034756,0.033657 -0.044056,0.055705 -0.0093,0.022048 -0.011648,0.047354 -0.00442,0.070165 0.00512,0.01616 0.014823,0.030773 0.018264,0.047373 0.00172,0.0083 0.00178,0.017118 -0.00114,0.025075 -0.00146,0.00398 -0.00366,0.0077 -0.00657,0.010784 -0.00291,0.00308 -0.00653,0.00551 -0.01055,0.00687 -0.00718,0.00243 -0.015023,0.00132 -0.022513,1.484e-4 -0.00749,-0.00118 -0.015291,-0.00238 -0.022537,-1.484e-4 -0.00596,0.00184 -0.011093,0.00596 -0.014592,0.011114 -0.0035,0.00516 -0.00541,0.011302 -0.00596,0.01751 -0.00109,0.012417 0.00312,0.024688 0.00831,0.03602 0.00519,0.011332 0.01145,0.02227 0.014887,0.034251 0.00172,0.00599 0.00271,0.01223 0.00243,0.018455 -2.854e-4,0.00623 -0.00188,0.012446 -0.00508,0.017799 -0.00553,0.00927 -0.015184,0.015133 -0.024104,0.021219 -0.00446,0.00304 -0.00885,0.00625 -0.012595,0.010138 -0.00375,0.00389 -0.00685,0.0085 -0.00835,0.013692 -0.0021,0.00728 -9.184e-4,0.015048 2.095e-4,0.02254 0.00113,0.00749 0.00216,0.015313 -2.095e-4,0.022509 -0.00169,0.00513 -0.00504,0.0096 -0.00897,0.013312 -0.00393,0.00371 -0.00846,0.00672 -0.012995,0.00967 -0.00453,0.00294 -0.00912,0.00585 -0.013218,0.00938 -0.0041,0.00353 -0.00772,0.00774 -0.00987,0.012696 -0.00302,0.00696 -0.00293,0.014865 -0.00208,0.022407 8.411e-4,0.00754 0.00238,0.015059 0.00208,0.022642 -4.567e-4,0.011663 -0.00545,0.023089 -0.013707,0.031342 -0.00825,0.00825 -0.019679,0.01325 -0.031342,0.013707"
       id="path4479"
       inkscape:path-effect="#path-effect4481"
       inkscape:original-d="m 3.4688119,7.1252475 c -0.2668958,0.053379 -0.1711047,-0.00909 -0.3153465,0.1351485 -0.015016,0.015016 -0.02738,0.03327 -0.04505,0.04505 -0.027938,0.018626 -0.06216,0.026424 -0.090099,0.045049 -0.01767,0.01178 -0.024903,0.038334 -0.045049,0.04505 -0.028492,0.0095 -0.06511,-0.016659 -0.090099,0 -0.027938,0.018626 -0.026424,0.062161 -0.045049,0.090099 -0.01178,0.01767 -0.03327,0.02738 -0.04505,0.04505 -0.018626,0.027938 -0.021306,0.066356 -0.04505,0.090099 -0.023743,0.023743 -0.06216,0.026424 -0.090099,0.04505 -0.018734,0.01249 -0.1721419,0.1640858 -0.180198,0.180198 -0.013431,0.026862 0.021237,0.068862 0,0.090099 -0.010618,0.010618 -0.034431,-0.010618 -0.04505,0 -0.00921,0.00921 0.00893,0.1172868 0,0.1351486 -0.0095,0.018995 -0.035552,0.026055 -0.045049,0.04505 -0.00672,0.013431 0.00672,0.031618 0,0.045049 -0.0095,0.018994 -0.035552,0.026055 -0.04505,0.04505 -0.00672,0.013431 0.010618,0.034431 0,0.045049 -0.060066,0.060066 -0.045049,-0.075083 -0.045049,0.045049"
       inkscape:connector-curvature="0" />
    <path
       style="fill:#c87137;stroke:#c87137;stroke-width:1px;stroke-linecap:butt;stroke-linejoin:miter;stroke-opacity:1"
       d="m 2.2975248,8.2064356 c -0.056285,0.041199 -0.09091,0.1104503 -0.090099,0.180198 1.749e-4,0.015032 0.00189,0.030135 0,0.04505 -0.00213,0.016829 -0.00878,0.032808 -0.017125,0.047578 -0.00834,0.014769 -0.018388,0.028493 -0.027925,0.042521 -0.045908,0.067531 -0.080691,0.1441334 -0.090099,0.2252475 -0.00347,0.029899 -0.00347,0.0602 0,0.090099 -0.025143,0.023345 -0.041459,0.055978 -0.045049,0.090099 -0.00315,0.029901 0.00315,0.060198 0,0.090099 -0.00359,0.034121 -0.019907,0.066755 -0.04505,0.090099"
       id="path4483"
       inkscape:path-effect="#path-effect4485"
       inkscape:original-d="m 2.2975248,8.2064356 c -0.030033,0.060066 -0.065158,0.1178454 -0.090099,0.180198 -0.00558,0.013943 0.00475,0.030804 0,0.04505 -0.010618,0.031855 -0.030033,0.060066 -0.04505,0.090099 -0.040044,0.080088 -0.071543,0.1324679 -0.090099,0.2252475 -0.00589,0.02945 0,0.060066 0,0.090099 -0.015016,0.030033 -0.034431,0.058244 -0.045049,0.090099 -0.0095,0.028492 0.013431,0.063237 0,0.090099 -0.055668,0.1113355 -0.04505,-0.01555 -0.04505,0.090099"
       inkscape:connector-curvature="0" />
    <path
       sodipodi:type="star"
       style="fill:#b3b3b3;fill-opacity:1;fill-rule:nonzero;stroke:none;stroke-width:1;stroke-miterlimit:4;stroke-opacity:1;stroke-dasharray:none"
       id="path4487"
       sodipodi:sides="12"
       sodipodi:cx="7.0727723"
       sodipodi:cy="7.0351484"
       sodipodi:r1="0.61273952"
       sodipodi:r2="0.59186093"
       sodipodi:arg1="1.2722974"
       sodipodi:arg2="1.5340968"
       inkscape:flatsided="true"
       inkscape:rounded="0.25"
       inkscape:randomized="0.25"
       d="M 7.1562877,7.4693654 C 7.0838425,7.5020172 6.9259538,7.7877522 6.853948,7.7544173 6.7819422,7.7210825 6.7233072,7.5889924 6.6835948,7.5156815 6.6438824,7.4423705 6.3642635,7.3694778 6.3571329,7.298464 c -0.00713,-0.071014 0.073015,-0.4637483 0.079899,-0.5523908 0.00688,-0.088642 0.038934,0.057688 0.080772,-0.0069 0.041838,-0.064584 0.3655092,-0.312185 0.4352115,-0.3376976 0.069702,-0.025513 0.031794,0.055928 0.1170696,0.052816 0.085276,-0.00311 0.3989662,0.193913 0.4770334,0.2312799 0.078067,0.037367 0.042482,-0.022726 0.036608,0.052257 -0.00587,0.074983 0.2184833,0.3759727 0.2099599,0.4449045 -0.00852,0.068932 -0.3278183,0.236552 -0.3871464,0.2793433 -0.059328,0.042791 -0.1778066,-0.025367 -0.2502518,0.00729 z"
       inkscape:transform-center-x="-0.0025310586"
       inkscape:transform-center-y="0.041671544" />
    <path
       sodipodi:type="star"
       style="fill:#b3b3b3;fill-opacity:1;fill-rule:nonzero;stroke:none"
       id="path4489"
       sodipodi:sides="12"
       sodipodi:cx="12.568812"
       sodipodi:cy="5.3683167"
       sodipodi:r1="0.36320072"
       sodipodi:r2="0.35082496"
       sodipodi:arg1="1.6951513"
       sodipodi:arg2="1.9569507"
       inkscape:flatsided="true"
       inkscape:rounded="0.25"
       inkscape:randomized="0.25"
       d="m 12.520446,5.8132126 c -0.04331,-0.016377 -0.121434,-0.1285831 -0.154621,-0.1645682 -0.03319,-0.035985 -0.09405,-0.076935 -0.09594,-0.1196229 -0.0019,-0.042688 -0.113233,-0.2398202 -0.108516,-0.2896462 0.0047,-0.049826 0.169759,0.00662 0.188293,-0.036109 0.01853,-0.042725 0.08256,-0.07689 0.11807,-0.1108267 0.03551,-0.033937 0.07079,-0.035095 0.112241,-0.029954 0.04145,0.00514 0.120526,0.047474 0.144831,0.080748 0.0243,0.033274 0.09546,0.05699 0.09594,0.099515 4.78e-4,0.042525 0.137256,0.1659478 0.118309,0.2119736 -0.01895,0.046026 0.02121,0.080272 -0.01649,0.1137813 -0.0377,0.03351 -0.246283,0.1805925 -0.28988,0.1946467 -0.0436,0.014054 -0.06893,0.066439 -0.112238,0.050062 z"
       inkscape:transform-center-x="0.017777308"
       inkscape:transform-center-y="0.069967626" />
    <path
       sodipodi:type="star"
       style="fill:#b3b3b3;fill-opacity:1;fill-rule:nonzero;stroke:none"
       id="path4491"
       sodipodi:sides="12"
       sodipodi:cx="9.0549506"
       sodipodi:cy="7.0351484"
       sodipodi:r1="0.60440254"
       sodipodi:r2="0.58380802"
       sodipodi:arg1="2.677945"
       sodipodi:arg2="2.9397444"
       inkscape:flatsided="true"
       inkscape:rounded="0.25"
       inkscape:randomized="0.25"
       d="M 8.390394,7.2937537 C 8.3398184,7.2273277 8.5712811,6.9481898 8.5646387,6.8674512 8.5579964,6.7867125 8.4248614,6.9107045 8.4734691,6.8396683 8.5220768,6.7686321 8.6448829,6.673576 8.6914124,6.6233017 8.7379419,6.5730274 9.1411143,6.4192506 9.2096919,6.4268312 c 0.068577,0.00758 -0.00457,0.04924 0.043378,0.1169069 0.047946,0.067667 0.4117415,0.051033 0.4592779,0.1078912 0.047536,0.056858 -0.1339892,0.4967075 -0.1579533,0.5657874 -0.023964,0.06908 -0.025437,-7.849e-4 -0.091273,0.051499 -0.065836,0.052283 0.02676,0.133865 -0.0355,0.192651 -0.06226,0.058786 -0.4339985,0.2084969 -0.5182795,0.1964705 -0.084281,-0.012026 0.023633,-0.09285 -0.043378,-0.1169069 C 8.7989524,7.5170728 8.4409696,7.3601797 8.390394,7.2937537 z"
       inkscape:transform-center-x="0.0032464098"
       inkscape:transform-center-y="0.0074921489" />
    <path
       sodipodi:type="star"
       style="fill:#b3b3b3;fill-opacity:1;fill-rule:nonzero;stroke:none"
       id="path4493"
       sodipodi:sides="12"
       sodipodi:cx="4.189604"
       sodipodi:cy="6.9450494"
       sodipodi:r1="0.2626815"
       sodipodi:r2="0.25373084"
       sodipodi:arg1="2.6011732"
       sodipodi:arg2="2.8629725"
       inkscape:flatsided="true"
       inkscape:rounded="0.25"
       inkscape:randomized="0.25"
       d="m 3.9121061,7.0656289 c -0.025965,-0.020994 0.012576,-0.040256 0.00116,-0.076008 -0.011414,-0.035752 0.062139,-0.1145608 0.090294,-0.1379824 0.028155,-0.023422 0.0798,-0.1608145 0.1080213,-0.1717087 0.028222,-0.010894 0.064098,-0.061526 0.098563,-0.050816 0.034465,0.01071 0.031394,0.1049458 0.054673,0.1307848 0.023279,0.025839 0.1242426,0.023562 0.1325331,0.05563 0.00829,0.032068 0.011045,0.095565 0.00578,0.1252838 -0.00526,0.029719 0.042667,0.045947 0.033966,0.07736 -0.0087,0.031414 -0.081992,0.1576705 -0.1078861,0.183055 -0.025894,0.025384 -0.063463,0.031866 -0.098565,0.036273 -0.035102,0.00441 -0.152026,0.014373 -0.1860138,5.559e-4 C 4.0106492,7.2242397 3.938071,7.0866225 3.9121061,7.0656289 z"
       inkscape:transform-center-x="0.019061832"
       inkscape:transform-center-y="-0.0086738003" />
    <path
       sodipodi:type="star"
       style="fill:#b3b3b3;fill-opacity:1;fill-rule:nonzero;stroke:none"
       id="path4495"
       sodipodi:sides="12"
       sodipodi:cx="4.2346535"
       sodipodi:cy="8.8821782"
       sodipodi:r1="0.22970831"
       sodipodi:r2="0.22188119"
       sodipodi:arg1="1.7681919"
       sodipodi:arg2="2.0299913"
       inkscape:flatsided="true"
       inkscape:rounded="0.25"
       inkscape:randomized="0.25"
       d="m 4.1971396,9.0680585 c -0.03052,-0.00478 -0.1242519,0.00168 -0.147129,-0.016657 -0.022877,-0.018339 0.016767,-0.024666 -7.178e-4,-0.048905 -0.017485,-0.024239 -0.060843,-0.1179474 -0.06338,-0.1490718 -0.00254,-0.031124 0.050978,-0.1195351 0.061089,-0.148189 0.010111,-0.028654 0.058245,-0.075157 0.089941,-0.079402 0.031695,-0.00424 0.096671,0.058898 0.1248362,0.058476 0.028165,-4.221e-4 0.1211995,0.00209 0.147129,0.016657 0.02593,0.014564 4.823e-4,0.1249684 7.16e-4,0.1510417 2.337e-4,0.026073 0.070008,0.082595 0.05719,0.1087766 -0.012818,0.026182 0.01431,0.081737 -0.00938,0.095361 -0.023692,0.013623 -0.1769259,0.061417 -0.204795,0.079402 -0.027869,0.017985 -0.024978,-0.062712 -0.055497,-0.06749 z"
       inkscape:transform-center-x="0.0075476081"
       inkscape:transform-center-y="-0.00028511158" />
    <path
       sodipodi:type="star"
       style="fill:#b3b3b3;fill-opacity:1;fill-rule:nonzero;stroke:none"
       id="path4497"
       sodipodi:sides="12"
       sodipodi:cx="6.4871288"
       sodipodi:cy="9.2425742"
       sodipodi:r1="0.22524753"
       sodipodi:r2="0.2175724"
       sodipodi:arg1="1.5707963"
       sodipodi:arg2="1.8325957"
       inkscape:flatsided="true"
       inkscape:rounded="0.25"
       inkscape:randomized="0.25"
       d="m 6.4396075,9.4168979 c -0.028119,-0.00325 -0.057332,0.065172 -0.082324,0.055937 -0.024992,-0.00923 -0.00278,-0.1073622 -0.00892,-0.1322552 -0.00614,-0.024893 -0.119927,-0.035709 -0.1179013,-0.063884 0.00203,-0.028175 0.096476,-0.1159664 0.1178071,-0.1340737 0.021331,-0.018107 -0.014798,-0.091286 0.00905,-0.1109829 0.023852,-0.019697 0.050949,-0.019606 0.082207,-0.025868 0.031258,-0.00626 0.1673109,0.059456 0.19495,0.069157 0.027639,0.0097 -0.012232,-0.010037 0.00892,0.00716 0.021149,0.017198 0.057237,0.094805 0.067314,0.1254159 0.010077,0.030611 -0.042338,0.1647204 -0.06722,0.1851656 -0.024882,0.020445 0.015379,-0.010283 -0.00905,0.010829 -0.024431,0.021112 -0.1667134,0.016648 -0.1948322,0.013398 z"
       inkscape:transform-center-x="0.015918854"
       inkscape:transform-center-y="-0.0030513809" />
    <path
       sodipodi:type="star"
       style="fill:#b3b3b3;fill-opacity:1;fill-rule:nonzero;stroke:none"
       id="path4499"
       sodipodi:sides="12"
       sodipodi:cx="9.1900991"
       sodipodi:cy="12.080693"
       sodipodi:r1="0.27402544"
       sodipodi:r2="0.26468825"
       sodipodi:arg1="1.4056476"
       sodipodi:arg2="1.667447"
       inkscape:flatsided="true"
       inkscape:rounded="0.25"
       inkscape:randomized="0.25"
       d="m 9.2298562,12.382464 c -0.039528,-0.0021 -0.1580004,-0.0314 -0.1888608,-0.04108 -0.03086,-0.0097 -0.085539,-0.03992 -0.1007096,-0.07638 -0.01517,-0.03646 -0.057031,-0.06953 -0.06615,-0.100376 -0.00912,-0.03085 0.1164252,-0.208512 0.124568,-0.245079 0.00814,-0.03657 0.047633,-0.09957 0.083182,-0.110918 0.035549,-0.01135 0.04555,0.02344 0.080735,0.01508 0.035186,-0.0084 0.028133,-0.06248 0.059093,-0.04453 0.03096,0.01796 0.2035647,0.144501 0.2303383,0.165322 0.026773,0.02082 0.041862,0.0077 0.058764,0.03714 0.016902,0.02943 -0.1117975,0.09882 -0.1244248,0.135073 -0.012627,0.03625 -0.034009,0.193831 -0.068414,0.207058 -0.034406,0.01323 -0.048594,0.06078 -0.088122,0.05869 z"
       inkscape:transform-center-x="-0.0029041933"
       inkscape:transform-center-y="-0.0016503033" />
    <path
       sodipodi:type="star"
       style="fill:#b3b3b3;fill-opacity:1;fill-rule:nonzero;stroke:none"
       id="path4501"
       sodipodi:sides="12"
       sodipodi:cx="11.127228"
       sodipodi:cy="8.5668316"
       sodipodi:r1="0.18019802"
       sodipodi:r2="0.17405792"
       sodipodi:arg1="3.1415927"
       sodipodi:arg2="3.403392"
       inkscape:flatsided="true"
       inkscape:rounded="0.25"
       inkscape:randomized="0.25"
       d="m 10.922755,8.5549709 c -0.004,-0.020369 0.04822,-0.091338 0.06523,-0.109565 0.01701,-0.018227 -7.8e-5,0.02097 0.0147,0.00673 0.01478,-0.014243 0.103618,-0.099557 0.124542,-0.099507 0.02092,5.04e-5 0.0485,0.035774 0.07023,0.044068 0.02172,0.00829 0.104148,0.048541 0.109683,0.069549 0.0055,0.021008 -0.02901,0.088365 -0.03467,0.1096805 -0.0057,0.021316 0.04657,0.087732 0.03468,0.1104223 -0.01189,0.02269 -0.08952,0.026607 -0.10966,0.041786 -0.02015,0.015179 -0.04914,-0.018086 -0.07015,-0.017616 -0.02102,4.707e-4 -0.103242,-0.01003 -0.124618,-0.017045 -0.02138,-0.00702 -0.0017,-0.00903 -0.01473,-0.027963 -0.01304,-0.018933 -0.06122,-0.090169 -0.06523,-0.1105378 z"
       inkscape:transform-center-x="0.011502743"
       inkscape:transform-center-y="-0.024467504" />
    <path
       sodipodi:type="star"
       style="fill:#b3b3b3;fill-opacity:1;fill-rule:nonzero;stroke:none"
       id="path4503"
       sodipodi:sides="12"
       sodipodi:cx="2.5227723"
       sodipodi:cy="7.9811881"
       sodipodi:r1="0.24259901"
       sodipodi:r2="0.23433265"
       sodipodi:arg1="2.7610863"
       sodipodi:arg2="3.0228857"
       inkscape:flatsided="true"
       inkscape:rounded="0.25"
       inkscape:randomized="0.25"
       d="m 2.3000406,8.0136247 c -0.00169,-0.032214 0.00688,0.00841 0.00179,-0.022813 -0.00509,-0.031228 -0.025596,-0.1194745 -0.015918,-0.149808 0.00968,-0.030333 0.1242352,-0.1006787 0.1521814,-0.1022411 0.027946,-0.00156 0.1400917,0.033734 0.1705606,0.037894 0.030469,0.00416 0.078017,0.024651 0.102327,0.045783 0.02431,0.021133 0.060172,0.055093 0.065058,0.082786 0.00489,0.027692 -0.033589,0.1188186 -0.049854,0.1480245 -0.016265,0.029206 0.025722,-0.00324 0.015918,0.028508 -0.0098,0.031751 -0.07088,0.1462595 -0.097573,0.1677477 C 2.6178347,8.2709943 2.498443,8.2903707 2.4675507,8.2739721 2.4366584,8.2575734 2.392546,8.2277209 2.3652217,8.2147578 2.3378975,8.2017947 2.3017261,8.0458384 2.3000406,8.0136247 z"
       inkscape:transform-center-x="-0.0071330706"
       inkscape:transform-center-y="0.028217482" />
  </g>
</svg>
