<?xml version="1.0" encoding="UTF-8" standalone="no"?>
<!-- Created with Inkscape (http://www.inkscape.org/) -->

<svg
   xmlns:dc="http://purl.org/dc/elements/1.1/"
   xmlns:cc="http://creativecommons.org/ns#"
   xmlns:rdf="http://www.w3.org/1999/02/22-rdf-syntax-ns#"
   xmlns:svg="http://www.w3.org/2000/svg"
   xmlns="http://www.w3.org/2000/svg"
   xmlns:sodipodi="http://sodipodi.sourceforge.net/DTD/sodipodi-0.dtd"
   xmlns:inkscape="http://www.inkscape.org/namespaces/inkscape"
   width="16px"
   height="16px"
   id="svg2985"
   version="1.1"
   inkscape:version="0.48.4 r9939"
   sodipodi:docname="stone.svg"
   inkscape:export-filename="C:\Users\Owen\Desktop\TheVectorPack\assets\minecraft\textures\alternates\winter\stone.png"
   inkscape:export-xdpi="360"
   inkscape:export-ydpi="360">
  <defs
     id="defs2987">
    <inkscape:perspective
       sodipodi:type="inkscape:persp3d"
       inkscape:vp_x="0 : 8 : 1"
       inkscape:vp_y="0 : 1000 : 0"
       inkscape:vp_z="16 : 8 : 1"
       inkscape:persp3d-origin="8 : 5.3333333 : 1"
       id="perspective3043" />
  </defs>
  <sodipodi:namedview
     id="base"
     pagecolor="#ffffff"
     bordercolor="#666666"
     borderopacity="1.0"
     inkscape:pageopacity="0.0"
     inkscape:pageshadow="2"
     inkscape:zoom="31.392433"
     inkscape:cx="3.4599885"
     inkscape:cy="7.0281729"
     inkscape:current-layer="layer1"
     showgrid="true"
     inkscape:grid-bbox="true"
     inkscape:document-units="px"
     inkscape:snap-page="true"
     inkscape:window-width="1362"
     inkscape:window-height="739"
     inkscape:window-x="-4"
     inkscape:window-y="-3"
     inkscape:window-maximized="1" />
  <metadata
     id="metadata2990">
    <rdf:RDF>
      <cc:Work
         rdf:about="">
        <dc:format>image/svg+xml</dc:format>
        <dc:type
           rdf:resource="http://purl.org/dc/dcmitype/StillImage" />
        <dc:title></dc:title>
      </cc:Work>
    </rdf:RDF>
  </metadata>
  <g
     id="layer1"
     inkscape:label="Layer 1"
     inkscape:groupmode="layer">
    <rect
       style="fill:#94edf2;fill-opacity:1;stroke:none"
       id="rect3889"
       width="16"
       height="15.999997"
       x="0"
       y="0" />
    <path
       sodipodi:type="star"
       style="fill:#70e7ee;fill-opacity:1;stroke:none"
       id="path3918"
       sodipodi:sides="7"
       sodipodi:cx="5.3516083"
       sodipodi:cy="8.3229904"
       sodipodi:r1="0.41411254"
       sodipodi:r2="0.35863197"
       sodipodi:arg1="1.5707963"
       sodipodi:arg2="2.0195953"
       inkscape:flatsided="true"
       inkscape:rounded="0.4"
       inkscape:randomized="0.25"
       d="M 5.3729655,8.7885642 C 5.218856,8.7606153 5.1574832,8.814232 5.0948207,8.6800003 5.0321583,8.5457686 4.8860296,8.3695889 4.965188,8.2479726 5.0443465,8.1263563 5.0341324,8.0047474 5.1595056,7.9518217 c 0.1253732,-0.052926 0.321876,-0.00565 0.4374892,0.047818 0.1156133,0.053468 0.097752,0.053334 0.07911,0.1848632 -0.018642,0.1315288 0.040844,0.3926844 -0.03643,0.4958293 -0.077275,0.1031448 -0.1125999,0.136181 -0.2667094,0.1082321 z"
       inkscape:transform-center-x="-0.06263811"
       inkscape:transform-center-y="-0.059192237" />
    <path
       sodipodi:type="star"
       style="fill:#4de1e9;fill-opacity:1;stroke:none"
       id="path3920"
       sodipodi:sides="7"
       sodipodi:cx="13.060472"
       sodipodi:cy="6.5072665"
       sodipodi:r1="0.48205075"
       sodipodi:r2="0.41746819"
       sodipodi:arg1="3.0090411"
       sodipodi:arg2="3.4578401"
       inkscape:flatsided="true"
       inkscape:rounded="0.4"
       inkscape:randomized="0.25"
       d="m 12.578325,6.4938007 c 0.02521,-0.1771897 -0.04019,-0.095082 0.05805,-0.211512 0.09824,-0.1164298 0.321301,-0.357493 0.468486,-0.3139138 0.147185,0.043579 0.315572,0.2587323 0.436775,0.3431743 0.121204,0.084442 0.118607,0.2532914 0.01632,0.4019811 -0.10229,0.1486896 -0.07309,0.229231 -0.237702,0.237164 -0.164611,0.00793 -0.32228,-0.088941 -0.494421,-0.1187325 -0.17214,-0.029792 -0.272715,-0.1609714 -0.247501,-0.3381611 z"
       inkscape:transform-center-x="-0.13338194"
       inkscape:transform-center-y="0.073788048" />
    <path
       sodipodi:type="star"
       style="fill:#4de1e9;fill-opacity:1;stroke:none"
       id="path3922"
       sodipodi:sides="7"
       sodipodi:cx="9.3334599"
       sodipodi:cy="5.8383155"
       sodipodi:r1="0.54989928"
       sodipodi:r2="0.47622675"
       sodipodi:arg1="1.7454685"
       sodipodi:arg2="2.1942675"
       inkscape:flatsided="true"
       inkscape:rounded="0.4"
       inkscape:randomized="0.25"
       d="M 9.2698988,6.5014182 C 9.0949285,6.4153753 8.9882928,6.186249 8.8692186,6.0421478 8.7501445,5.8980467 8.6775204,5.7897738 8.7350371,5.6272202 8.7925538,5.4646666 9.1370555,5.2804963 9.3054785,5.246291 9.4739016,5.2120857 9.6192373,5.298222 9.7604163,5.4506416 9.9015952,5.6030612 9.8519607,5.7083194 9.8703086,5.916202 9.8886565,6.1240845 10.003676,6.1984044 9.8114725,6.2817778 9.6192688,6.3651512 9.4448691,6.5874612 9.2698988,6.5014182 z"
       inkscape:transform-center-x="-0.22088038"
       inkscape:transform-center-y="0.15383666" />
    <path
       sodipodi:type="star"
       style="fill:#4de1e9;fill-opacity:1;stroke:none"
       id="path3924"
       sodipodi:sides="7"
       sodipodi:cx="6.3391075"
       sodipodi:cy="5.9020252"
       sodipodi:r1="0.2866933"
       sodipodi:r2="0.24828368"
       sodipodi:arg1="3.1415927"
       sodipodi:arg2="3.5903917"
       inkscape:flatsided="true"
       inkscape:rounded="0.4"
       inkscape:randomized="0.25"
       d="m 6.0848951,5.9479836 c 0.01693,-0.087969 -0.027214,-0.1748284 0.030696,-0.2494047 0.05791,-0.074576 0.2026077,-0.1074403 0.2966466,-0.1179853 0.094039,-0.010545 0.1435637,0.1864663 0.2056611,0.2532477 0.062098,0.066781 0.067564,0.1298466 3.46e-5,0.2001703 -0.06753,0.070324 -0.1033425,0.1964804 -0.205622,0.1834577 -0.1022794,-0.013023 -0.2250258,0.039677 -0.2967756,-0.021488 -0.07175,-0.061164 -0.047571,-0.1600294 -0.03064,-0.2479982 z"
       inkscape:transform-center-x="-0.1693298"
       inkscape:transform-center-y="0.073454006" />
    <path
       sodipodi:type="star"
       style="fill:#70e7ee;fill-opacity:1;stroke:none"
       id="path3926"
       sodipodi:sides="7"
       sodipodi:cx="2.4209657"
       sodipodi:cy="5.8064604"
       sodipodi:r1="0.57691514"
       sodipodi:r2="0.49962318"
       sodipodi:arg1="1.6814535"
       sodipodi:arg2="2.1302525"
       inkscape:flatsided="true"
       inkscape:rounded="0.4"
       inkscape:randomized="0.25"
       d="M 2.3627193,6.4154562 C 2.1581945,6.3313374 2.0632884,6.1645207 2.0248592,5.9859591 1.98643,5.8073976 1.8666972,5.8900952 1.8846942,5.6713414 1.9026912,5.4525875 2.2295933,5.4924796 2.3677013,5.3837783 2.5058094,5.2750771 2.5644453,5.3456441 2.7393044,5.4543966 2.9141634,5.5631491 2.9761967,5.5742794 2.9740147,5.7537834 2.9718327,5.9332873 2.9890817,5.938382 2.8817009,6.1347654 2.7743201,6.3311488 2.567244,6.499575 2.3627193,6.4154562 z"
       inkscape:transform-center-x="-0.13504456"
       inkscape:transform-center-y="-0.045152541" />
    <path
       sodipodi:type="star"
       style="fill:#4de1e9;fill-opacity:1;stroke:none"
       id="path3928"
       sodipodi:sides="7"
       sodipodi:cx="12.964908"
       sodipodi:cy="12.018149"
       sodipodi:r1="0.79827929"
       sodipodi:r2="0.69133013"
       sodipodi:arg1="2.070143"
       sodipodi:arg2="2.518942"
       inkscape:flatsided="true"
       inkscape:rounded="0.4"
       inkscape:randomized="0.25"
       d="m 12.578171,12.704098 c -0.212899,-0.12195 -0.148492,-0.0847 -0.232093,-0.369154 -0.0836,-0.28445 -0.08955,-0.556204 0.06853,-0.752188 0.158079,-0.195985 0.155658,-0.370501 0.444622,-0.324586 0.288964,0.04591 0.664404,0.2251 0.862326,0.380973 0.197921,0.155872 0.16904,0.338287 0.141592,0.5944 -0.02745,0.256113 -0.458889,0.396438 -0.736375,0.40088 -0.277486,0.0044 -0.335701,0.191625 -0.5486,0.06968 z"
       inkscape:transform-center-x="0.083603147"
       inkscape:transform-center-y="0.23097364" />
    <path
       sodipodi:type="star"
       style="fill:#70e7ee;fill-opacity:1;stroke:none"
       id="path3930"
       sodipodi:sides="7"
       sodipodi:cx="10.703216"
       sodipodi:cy="11.189924"
       sodipodi:r1="0.57427078"
       sodipodi:r2="0.49733308"
       sodipodi:arg1="2.5535901"
       sodipodi:arg2="3.0023891"
       inkscape:flatsided="true"
       inkscape:rounded="0.4"
       inkscape:randomized="0.25"
       d="m 10.172905,11.589144 c -0.093,-0.15472 -0.08287,-0.39906 0.03212,-0.581629 0.11499,-0.182569 0.125345,-0.197104 0.301681,-0.259656 0.176336,-0.06255 0.246115,-0.22344 0.371076,-0.1003 0.124961,0.123141 0.195905,0.425246 0.269764,0.600951 0.07386,0.175704 0.03883,0.136892 -0.03648,0.314861 -0.07532,0.17797 -0.340441,0.351234 -0.50214,0.274874 -0.161698,-0.07636 -0.343019,-0.09438 -0.436019,-0.249101 z"
       inkscape:transform-center-x="0.13838241"
       inkscape:transform-center-y="-0.042086559" />
    <path
       sodipodi:type="star"
       style="fill:#4de1e9;fill-opacity:1;stroke:none"
       id="path3932"
       sodipodi:sides="7"
       sodipodi:cx="6.2435427"
       sodipodi:cy="12.750809"
       sodipodi:r1="0.88106054"
       sodipodi:r2="0.76302081"
       sodipodi:arg1="2.2794226"
       sodipodi:arg2="2.7282216"
       inkscape:flatsided="true"
       inkscape:rounded="0.4"
       inkscape:randomized="0.25"
       d="M 5.4540833,13.332656 C 5.2566719,13.068608 5.1808366,13.031847 5.2546072,12.73241 c 0.073771,-0.299437 0.3022299,-0.363243 0.4506801,-0.59193 0.1484501,-0.228687 0.2720825,-0.364626 0.5928411,-0.356706 0.3207586,0.0079 0.4243009,0.542921 0.565293,0.809336 0.1409922,0.266415 0.2543061,0.13477 0.1419656,0.380273 -0.1123405,0.245503 -0.094595,0.500864 -0.3978328,0.578701 -0.3032377,0.07784 -0.9560596,0.04462 -1.1534709,-0.219428 z"
       inkscape:transform-center-x="0.22700892"
       inkscape:transform-center-y="0.17807892" />
    <path
       sodipodi:type="star"
       style="fill:#70e7ee;fill-opacity:1;stroke:none"
       id="path3934"
       sodipodi:sides="7"
       sodipodi:cx="3.1854811"
       sodipodi:cy="11.126214"
       sodipodi:r1="1.1262376"
       sodipodi:r2="0.97535038"
       sodipodi:arg1="-2.3561945"
       sodipodi:arg2="-1.9073955"
       inkscape:flatsided="true"
       inkscape:rounded="0.4"
       inkscape:randomized="0.25"
       d="m 2.6480594,10.437353 c 0.1688398,-0.40175 0.4064827,-0.748997 0.8220682,-0.6514518 0.4155856,0.097545 0.6561081,0.7020878 0.9494234,0.9224048 0.2933154,0.220317 0.3655666,0.707656 0.0906,1.042276 -0.2749665,0.334621 -0.6062638,0.124252 -1.0221239,0.169264 -0.4158601,0.04501 -0.6955359,0.411753 -1.0697965,0.277137 -0.3742606,-0.134616 -0.5655325,-0.673209 -0.4705174,-1.082999 0.095015,-0.409789 0.5315064,-0.274881 0.7003461,-0.676631 z"
       inkscape:transform-center-x="-0.10333727"
       inkscape:transform-center-y="0.010083785" />
    <path
       sodipodi:type="star"
       style="fill:#4de1e9;fill-opacity:1;stroke:none"
       id="path3936"
       sodipodi:sides="7"
       sodipodi:cx="2.3572559"
       sodipodi:cy="14.247985"
       sodipodi:r1="0.36320072"
       sodipodi:r2="0.31454104"
       sodipodi:arg1="2.4805495"
       sodipodi:arg2="2.9293485"
       inkscape:flatsided="true"
       inkscape:rounded="0.4"
       inkscape:randomized="0.25"
       d="m 2.0819563,14.546274 c -0.055219,-0.10051 -0.1922226,-0.262483 -0.144759,-0.392383 0.047464,-0.129899 0.1484759,-0.131182 0.2626074,-0.165585 0.1141315,-0.0344 0.2407543,-0.164576 0.3587336,-0.146975 0.1179793,0.0176 0.2000441,0.265635 0.1881575,0.404648 -0.011886,0.139012 -0.012729,0.125715 -0.05865,0.252565 -0.045922,0.126851 -0.2591529,0.01564 -0.3692542,0.04212 -0.1101013,0.02647 -0.1816163,0.106123 -0.236835,0.0056 z"
       inkscape:transform-center-x="0.10441435"
       inkscape:transform-center-y="0.039906333" />
    <path
       sodipodi:type="star"
       style="fill:#70e7ee;fill-opacity:1;stroke:none"
       id="path3938"
       sodipodi:sides="7"
       sodipodi:cx="9.8749914"
       sodipodi:cy="15.331049"
       sodipodi:r1="0.5146302"
       sodipodi:r2="0.44568285"
       sodipodi:arg1="-2.7610863"
       sodipodi:arg2="-2.3122873"
       inkscape:flatsided="true"
       inkscape:rounded="0.4"
       inkscape:randomized="0.25"
       d="m 9.4232361,15.113244 c 0.1092296,-0.112227 0.153711,-0.329755 0.3417959,-0.390749 0.1880849,-0.06099 0.256813,-0.02824 0.370462,0.09483 0.113649,0.123073 0.216592,0.405902 0.256294,0.599844 0.0397,0.193942 -0.123205,0.295589 -0.256698,0.381428 -0.133493,0.08584 -0.2508942,0.03302 -0.4060405,-0.0044 -0.1551462,-0.03742 -0.2202697,-0.0073 -0.3320508,-0.150909 -0.1117812,-0.143626 -0.082992,-0.417814 0.026237,-0.530041 z"
       inkscape:transform-center-x="-0.23178496"
       inkscape:transform-center-y="0.13426678"
       transform="translate(0.38225773,-0.6052414)" />
    <path
       sodipodi:type="star"
       style="fill:#4de1e9;fill-opacity:1;stroke:none"
       id="path3940"
       sodipodi:sides="7"
       sodipodi:cx="12.933053"
       sodipodi:cy="9.0556517"
       sodipodi:r1="0.33862129"
       sodipodi:r2="0.29325464"
       sodipodi:arg1="2.2896263"
       sodipodi:arg2="2.7384253"
       inkscape:flatsided="true"
       inkscape:rounded="0.4"
       inkscape:randomized="0.25"
       d="m 12.638743,9.3108721 c -0.108401,-0.06933 -0.07154,-0.092673 -0.088,-0.2215453 -0.01647,-0.1288725 0.07775,-0.2863761 0.170863,-0.3625648 0.09312,-0.076189 0.1297,-0.058182 0.243541,0.00811 0.113841,0.066296 0.298572,0.041769 0.329815,0.1461527 0.03124,0.1043834 0.07036,0.1835626 0.01899,0.287753 -0.05137,0.1041905 -0.151872,0.2558657 -0.25612,0.2798774 -0.104249,0.024012 -0.310686,-0.068457 -0.419087,-0.1377872 z"
       inkscape:transform-center-x="0.076514013"
       inkscape:transform-center-y="0.027450741" />
    <path
       sodipodi:type="star"
       style="fill:#4de1e9;fill-opacity:1;stroke:none"
       id="path3944"
       sodipodi:sides="7"
       sodipodi:cx="2.4528203"
       sodipodi:cy="1.9201736"
       sodipodi:r1="0.72640145"
       sodipodi:r2="0.36320072"
       sodipodi:arg1="1.8370484"
       sodipodi:arg2="2.2858474"
       inkscape:flatsided="true"
       inkscape:rounded="0.4"
       inkscape:randomized="0.25"
       d="M 2.2106894,2.6449895 C 1.9654748,2.593991 1.7290143,2.2666643 1.6364602,2.0483079 1.543906,1.8299515 1.7954526,1.9419981 1.8476019,1.7201235 1.8997511,1.4982489 2.0254728,1.2274044 2.2887659,1.2140932 2.5520591,1.200782 2.5500658,1.4719561 2.7650737,1.5441582 2.9800817,1.6163603 3.2293566,1.8322922 3.3082097,2.0562708 3.3870628,2.2802494 3.0116563,2.2737561 2.7891079,2.3530342 2.5665595,2.4323123 2.455904,2.695988 2.2106894,2.6449895 z"
       inkscape:transform-center-x="-0.16058321"
       inkscape:transform-center-y="-0.11696009" />
    <path
       sodipodi:type="star"
       style="fill:#70e7ee;fill-opacity:1;stroke:none"
       id="path3946"
       sodipodi:sides="7"
       sodipodi:cx="5.8931398"
       sodipodi:cy="3.2899306"
       sodipodi:r1="0.99975401"
       sodipodi:r2="0.49987698"
       sodipodi:arg1="2.6066376"
       sodipodi:arg2="3.0554366"
       inkscape:flatsided="true"
       inkscape:rounded="0.4"
       inkscape:randomized="0.25"
       d="M 4.8543609,3.6982782 C 4.6918361,3.3518698 4.7499803,3.2294252 4.8211072,2.9193263 4.892234,2.6092273 5.2612161,2.5193471 5.6356993,2.4349606 c 0.3744831,-0.084386 0.570264,0.070092 0.910512,0.23073 C 6.8864594,2.8263288 6.7731104,2.6492893 6.8783768,2.9638875 6.9836432,3.2784858 7.0280353,3.6779973 6.6936217,3.8121876 6.3592082,3.9463778 5.9171184,4.5227223 5.561939,4.3864582 5.2067596,4.250194 5.0168856,4.0446866 4.8543609,3.6982782 z"
       inkscape:transform-center-x="0.69677788"
       inkscape:transform-center-y="-0.36855709" />
    <path
       sodipodi:type="star"
       style="fill:#4de1e9;fill-opacity:1;stroke:none"
       id="path3948"
       sodipodi:sides="7"
       sodipodi:cx="10.257249"
       sodipodi:cy="2.5572698"
       sodipodi:r1="0.86007988"
       sodipodi:r2="0.43003994"
       sodipodi:arg1="0"
       sodipodi:arg2="0.44879895"
       inkscape:flatsided="true"
       inkscape:rounded="0.4"
       inkscape:randomized="0.25"
       d="m 11.053678,2.552585 c 0.105384,0.3010962 -0.06204,0.3860536 -0.228599,0.6159786 -0.166558,0.2299249 -0.35627,0.5688195 -0.594448,0.435299 C 9.9924532,3.470342 9.3417002,3.179761 9.3098388,2.8804443 9.2779775,2.5811276 9.244219,2.4566982 9.3095346,2.1891865 9.3748501,1.9216749 9.9830983,1.7688243 10.229967,1.6560852 c 0.246869,-0.112739 0.353799,-0.108461 0.594289,0.091807 0.240489,0.2002684 0.124038,0.5035962 0.229422,0.8046924 z"
       inkscape:transform-center-x="-0.23095893"
       inkscape:transform-center-y="-0.38685811" />
    <path
       sodipodi:type="star"
       style="fill:#4de1e9;fill-opacity:1;stroke:none"
       id="path3950"
       sodipodi:sides="7"
       sodipodi:cx="8.2185411"
       sodipodi:cy="2.4617054"
       sodipodi:r1="1.1625915"
       sodipodi:r2="0.58129573"
       sodipodi:arg1="1.735945"
       sodipodi:arg2="2.184744"
       inkscape:flatsided="true"
       inkscape:rounded="0.4"
       inkscape:randomized="0.25"
       d="M 7.8352282,3.5366496 C 7.4940801,3.3778695 7.4965665,3.3783176 7.2669986,3.0865412 7.0374308,2.7947647 6.9205964,2.4560468 7.2065942,2.159984 7.492592,1.8639213 7.3732494,1.6105623 7.7167403,1.3884565 8.0602313,1.1663506 8.4187318,1.1335748 8.7854337,1.2299271 9.1521357,1.3262794 9.544393,2.0990763 9.4162769,2.5196293 9.2881608,2.9401823 9.0259093,3.0656576 8.8111728,3.3517793 8.5964362,3.637901 8.1763764,3.6954296 7.8352282,3.5366496 z"
       inkscape:transform-center-x="0.27765786"
       inkscape:transform-center-y="0.49029312" />
    <path
       sodipodi:type="star"
       style="fill:#70e7ee;fill-opacity:1;stroke:none"
       id="path3952"
       sodipodi:sides="7"
       sodipodi:cx="13.984262"
       sodipodi:cy="4.1500106"
       sodipodi:r1="1.3188046"
       sodipodi:r2="0.65940225"
       sodipodi:arg1="-2.2191283"
       sodipodi:arg2="-1.7703293"
       inkscape:flatsided="true"
       inkscape:rounded="0.4"
       inkscape:randomized="0.25"
       d="m 13.190022,3.1512988 c 0.350767,-0.3684504 0.700544,-0.3726897 1.198303,-0.350719 0.49776,0.021971 0.841871,0.2615852 0.925097,0.7111705 C 15.396648,3.9613355 15.159775,4.4771162 14.87824,4.895918 14.596705,5.3147198 14.601659,5.6523198 14.112267,5.6418501 13.622876,5.6313805 13.683758,5.36096 13.388973,5.0386743 13.094188,4.7163885 13.088658,4.3129656 12.917721,3.8610022 12.746785,3.4090389 12.839255,3.5197492 13.190022,3.1512988 z"
       inkscape:transform-center-x="0.38081449"
       inkscape:transform-center-y="0.8198958" />
    <path
       sodipodi:type="star"
       style="fill:#4de1e9;fill-opacity:1;stroke:none"
       id="path3954"
       sodipodi:sides="7"
       sodipodi:cx="10.9262"
       sodipodi:cy="4.3092847"
       sodipodi:r1="0.5146302"
       sodipodi:r2="0.2573151"
       sodipodi:arg1="1.9513027"
       sodipodi:arg2="2.4001017"
       inkscape:flatsided="true"
       inkscape:rounded="0.4"
       inkscape:randomized="0.25"
       d="m 10.768227,4.7169921 c -0.168988,-0.021643 -0.332291,-0.036531 -0.426617,-0.1650683 -0.09433,-0.1285369 0.04307,-0.3977114 0.119921,-0.5527597 0.07685,-0.1550482 0.24882,-0.1129942 0.414617,-0.07896 0.165798,0.034035 0.212844,-0.073071 0.314735,0.090399 0.101891,0.1634697 0.28828,0.088025 0.295383,0.2786215 0.0071,0.1905969 -0.126488,0.3595695 -0.287887,0.3876055 -0.161399,0.028036 -0.261164,0.061805 -0.430152,0.040161 z"
       inkscape:transform-center-x="0.01248552"
       inkscape:transform-center-y="-0.32794902" />
    <path
       sodipodi:type="star"
       style="fill:#4de1e9;fill-opacity:1;stroke:none"
       id="path3956"
       sodipodi:sides="7"
       sodipodi:cx="14.493939"
       sodipodi:cy="1.856464"
       sodipodi:r1="0.89420718"
       sodipodi:r2="0.44710356"
       sodipodi:arg1="-3.0702852"
       sodipodi:arg2="-2.6214862"
       inkscape:flatsided="true"
       inkscape:rounded="0.4"
       inkscape:randomized="0.25"
       d="m 13.405274,1.7508352 c 0.09257,-0.3136005 0.05833,-0.326827 0.358934,-0.4426601 0.300603,-0.1158332 0.505964,-0.2731125 0.814634,-0.1913255 0.308671,0.081787 0.706374,0.153669 0.737413,0.4549522 0.03104,0.3012832 0.180788,0.2887691 0.06577,0.6005948 C 15.267005,2.4842223 15.065695,2.8194213 14.734172,2.7742647 14.402649,2.7291081 14.137132,2.5629048 13.921585,2.3506665 13.706038,2.1384282 13.312704,2.0644356 13.405274,1.7508352 z"
       inkscape:transform-center-x="0.29576291"
       inkscape:transform-center-y="-0.30635343" />
  </g>
</svg>
